<svg width="361" height="171" viewBox="0 0 361 171" fill="none" xmlns="http://www.w3.org/2000/svg"><path d="M82.14 16.214L60 22.574l13.569-12.296 1.217 3.167 5.63.232 1.723 2.537z" fill="#EABE96"/><path d="M60 22.575l17.448-12.3 18.294-3.488L60 22.575zM73.569 10.278L60 22.575 69.383 5l4.186 5.278z" fill="#F9DDBF"/><path d="M119.914 45.276C124.357 28.013 131.869 13 152.202 13c17.834 0 34.008 15.703 32.831 35.055-1.081 17.792-16.538 32.864-35.459 30.746-17.722-1.985-34.749-13.758-29.66-33.525z" fill="#AFCDFB"/><path d="M165.909 43.29a13.593 13.593 0 0 1-3.096 8.738c-1.681 2.045-2.628 4.594-2.628 7.241v3.816a4.378 4.378 0 0 1-1.045 2.838 4.4 4.4 0 0 1-3.359 1.564h-7.048a4.416 4.416 0 0 1-4.404-4.402v-3.81c0-2.641-.933-5.192-2.614-7.231a13.592 13.592 0 0 1-3.11-8.672c0-6.515 4.568-11.965 10.677-13.321.173-.04.349-.074.524-.105l.282-.049a13.614 13.614 0 0 1 2.169-.172 13.622 13.622 0 0 1 13.652 13.565z" fill="#F9DDBF"/><path d="M155.755 67.488l-.016.117-.193 1.485-.051.39v.004l-.052.394-.193 1.483-.052.39-.001.004-.051.395-.028.216c-.099.753-.96 1.328-1.988 1.328h-2.32c-.245 0-.48-.032-.698-.091h-.001a2.232 2.232 0 0 1-.54-.225l-.012-.008a1.782 1.782 0 0 1-.351-.267 1.273 1.273 0 0 1-.385-.722l-.082-.576-.052-.362-.001-.009-.052-.355-.196-1.376-.052-.36-.001-.009-.051-.356-.214-1.49h7.633z" fill="#ED7D2B"/><path d="M154.835 67.488h-1.311c-2.115.611-4.214 1.216-5.185 1.49l.051.356.001.008.052.361c.787-.218 2.678-.759 7.297-2.098l.016-.117h-.921zM148.69 71.433l.001.01.053.362c.91-.256 2.788-.794 6.7-1.928l.052-.393v-.003l.051-.391c-2.472.715-5.464 1.579-6.907 1.989l.05.354zM149.56 73.37l.012.007c.162.095.345.17.54.225h.001c1.074-.308 2.666-.767 5.035-1.453l.051-.395.002-.003.051-.391c-2.115.612-4.543 1.313-6.042 1.74.101.101.219.192.35.27z" fill="#F99746"/><path d="M147.161 49.983l-.608.103 2.958 17.46.609-.103-2.959-17.46zM157.267 50.24l-3.144 17.186.607.11 3.144-17.184-.607-.111z" fill="#ED7D2B"/><path d="M153.887 53.196c-.079 0-.167-.01-.266-.033-.165-.038-.269-.152-.303-.33-.07-.386.233-1.093.658-1.694-.223-.388-.518-.707-.829-.801-.458-.139-1.162.284-1.651.825.089.127.17.26.24.392.251.474.432 1.08.185 1.36-.092.103-.279.197-.649.057-.463-.174-.628-.566-.456-1.075.085-.25.24-.508.438-.749-.379-.495-.886-.87-1.386-.808a1.536 1.536 0 0 0-.687.26c.32.594.394 1.349.171 1.753-.151.276-.414.363-.742.246-.236-.084-.359-.408-.313-.826.046-.428.26-.896.641-1.222a1.586 1.586 0 0 0-.356-.398c-.861-.668-1.572.05-1.602.08l-.134-.13c.009-.009.859-.866 1.851-.097.15.116.281.265.389.432.212-.143.464-.245.758-.282.561-.07 1.12.324 1.534.85.534-.579 1.293-1.007 1.823-.847.334.102.651.424.892.822.225-.292.475-.546.719-.707.39-.258.644-.199.788-.104.149.097.274.228.379.38a2.22 2.22 0 0 1 .362-.234c.452-.225.867-.208 1.169.046l-.121.144c-.325-.275-.743-.132-.964-.023-.12.06-.238.138-.347.225.3.542.358 1.248.186 1.591-.108.216-.302.291-.529.208-.408-.15-.507-.43-.519-.64-.023-.4.256-.857.618-1.193a1.229 1.229 0 0 0-.337-.346c-.176-.116-.415-.008-.582.104-.243.16-.498.426-.722.725.28.533.426 1.155.319 1.555-.052.193-.201.484-.625.484zm.185-1.873c-.37.538-.631 1.148-.57 1.476.019.104.07.162.159.182.366.083.592-.023.669-.317.091-.34-.028-.87-.258-1.341zm-2.703-.015a2.207 2.207 0 0 0-.376.65c-.142.417-.026.699.345.84.15.056.348.1.443-.007.146-.166.06-.64-.209-1.149a3.791 3.791 0 0 0-.203-.334zm-2.335-.591c-.327.29-.51.702-.55 1.076-.035.319.043.578.19.63.237.083.411.03.516-.16.189-.347.12-1.013-.156-1.546zm6.896.12c-.324.311-.546.71-.528 1.019.013.223.147.383.397.475.138.05.233.013.298-.117.144-.287.082-.9-.167-1.378z" fill="#ED7D2B"/><path d="M159.304 34.974c1.122 1.057.981 3.002-.462 3.434-1.088.327-2.711-.11-3.514-1.497-.802-1.388-.433-2.53.552-3.098.983-.57 2.255.061 3.424 1.16zM151.955 27.16h-.131a.434.434 0 0 1-.433-.434v-5.377c0-.24.195-.434.433-.434h.131c.24 0 .434.196.434.434v5.377a.434.434 0 0 1-.434.433zM168.231 33.413l-.072-.125a.43.43 0 0 1 .157-.584l2.637-1.522a.43.43 0 0 1 .585.156l.072.124a.43.43 0 0 1-.157.585l-2.637 1.522a.43.43 0 0 1-.585-.157zM170.032 40.933c0-.275.225-.5.5-.5h6.67c.275 0 .5.225.5.5s-.225.5-.5.5h-6.67a.503.503 0 0 1-.5-.5zM160.709 29.414a.5.5 0 0 1-.264-.655l3.541-8.298a.5.5 0 0 1 .92.391l-3.541 8.298a.502.502 0 0 1-.656.264zM136.221 33.413l.071-.125a.43.43 0 0 0-.156-.584l-2.638-1.522a.43.43 0 0 0-.584.156l-.072.124a.43.43 0 0 0 .157.585l2.637 1.522a.43.43 0 0 0 .585-.157zM134.419 40.933c0-.275-.225-.5-.5-.5h-6.67c-.275 0-.5.225-.5.5s.225.5.5.5h6.67a.503.503 0 0 0 .5-.5zM143.741 29.414a.5.5 0 0 0 .263-.655l-3.54-8.298a.502.502 0 0 0-.656-.263.502.502 0 0 0-.264.654l3.541 8.298a.502.502 0 0 0 .656.264z" fill="#FFF0E3"/><path d="M114.625 106.683s-.523-.654-1.305-.857c-.783-.202-2.476-1.054-2.28-.608.196.446 1.141.973.984 1.298 0 0-2.691-.771-2.77-.283-.079.486.948 2.345 2.1 2.745.381.132 3.031-.392 3.031-.392l.24-1.903z" fill="#F2A16B"/><path d="M199.775 114.877s-1.021-1.12-2.385-.942c-.697.092-1.703-1.011-1.653-.295.051.715 1.06 2.371 1.403 2.655.674.558 2.154.374 2.154.374l1.816 1.125-1.335-2.917z" fill="#FFB27D"/><path d="M75.347 170.565c-2.157 0-4.31-.189-6.429-.569a35.668 35.668 0 0 1-5.662-1.503 45.91 45.91 0 0 1-8.59.009c-8.798-.82-16.884-3.455-23.591-7.559a18.6 18.6 0 0 1-4.93.387c-4.113-.213-8.004-1.76-11.57-4.596-3.388-2.697-6.314-6.418-8.698-11.063-4.18-8.141-6.247-18.372-5.823-28.808.47-11.56 3.932-22.674 10.014-32.138 4.788-7.45 10.077-13.236 15.72-17.195 4.888-3.428 10.182-5.584 15.736-6.407a36.894 36.894 0 0 1 4.599-.387c4.84-2.892 10.408-5.044 16.258-6.24 6.847-1.401 17.256-1.724 27.972 4.683 11.142 6.66 20.055 19.057 26.494 36.844.368 1.018.71 2.032 1.024 3.045 1.477.764 3.072 1.622 4.853 2.581l.116.063c5.565 2.997 14.247 5.396 23.225 6.415 7.486.851 18.602 1.147 29.059-2.268 9.771-3.193 16.675-8.897 20.52-16.958l.84.4c-3.959 8.3-11.049 14.167-21.071 17.442-10.617 3.468-21.877 3.169-29.454 2.308-9.089-1.032-17.897-3.471-23.563-6.521l-.115-.063c-1.466-.789-2.799-1.508-4.037-2.157 2.587 8.929 3.089 17.654 1.486 25.993-1.621 8.429-5.377 16.09-10.86 22.156a40.278 40.278 0 0 1-5.11 4.762c-.125.275-.254.548-.383.816.64 1.219 1.023 2.395.955 3.411-.11 1.669-2.005 3.135-5.633 4.36-.3.101-.607.199-.927.296-2.957 2.991-6.53 5.185-10.712 6.568a37.223 37.223 0 0 1-11.713 1.893zm-9.88-2.334c1.185.346 2.39.629 3.615.849 5.85 1.05 11.965.604 17.686-1.289 3.454-1.143 6.496-2.87 9.097-5.161-4.9 1.225-11.504 2.026-18.62 2.298a46.534 46.534 0 0 1-11.777 3.303zm-33.122-7.612c6.428 3.762 14.092 6.182 22.407 6.956 2.155.201 4.327.244 6.491.132a34.416 34.416 0 0 1-6.678-3.774c-3.352-.464-6.437-1.065-9.15-1.789-3.555-.949-6.471-2.099-8.725-3.435a18.893 18.893 0 0 1-4.345 1.91zm24.248 3.572a33.789 33.789 0 0 0 6.78 3.355 45.851 45.851 0 0 0 11.146-2.537c-3.474.067-7.031.009-10.54-.186a119.611 119.611 0 0 1-7.386-.632zm-1.66-1.144c2.828.383 5.868.667 9.099.846 4.345.24 8.763.271 12.999.114a43.404 43.404 0 0 0 7.298-4.026 20.625 20.625 0 0 1-3.65-.568c-2.795-.701-5.085-2.367-6.96-5.107-2.91.083-5.89-.082-8.913-.505-7.23-1.01-13.151-3.204-17.702-6.549a43.246 43.246 0 0 1-2.235 3.533 31.829 31.829 0 0 0 8.649 11.158c.46.381.933.749 1.416 1.104zm30.942-3.019a43.8 43.8 0 0 1-6.389 3.866c6.998-.385 13.336-1.291 17.796-2.613a26.546 26.546 0 0 0 2.456-2.922 30.422 30.422 0 0 0 2.419-3.954c-2.22 1.547-4.55 2.807-6.935 3.743-3.15 1.234-6.312 1.865-9.347 1.88zm-48.285-1.886c3.619 2.026 8.906 3.609 15.472 4.632a32.71 32.71 0 0 1-8.816-11.13 31.743 31.743 0 0 1-2.794 3.275 24.397 24.397 0 0 1-3.862 3.223zm65.262-3.064c-1.094 2.08-2.354 3.951-3.777 5.612 2.722-1.009 4.251-2.17 4.326-3.301.042-.637-.144-1.415-.549-2.311zM44.547 61.72c-1.018.075-1.973.19-2.888.324-5.41.8-10.57 2.904-15.337 6.248-5.544 3.89-10.75 9.588-15.47 16.936-5.993 9.325-9.404 20.276-9.868 31.671-.418 10.278 1.614 20.345 5.722 28.347 2.322 4.526 5.166 8.146 8.45 10.759 3.411 2.713 7.124 4.191 11.037 4.395 1.269.066 2.511.001 3.724-.189-4.219-2.757-7.846-6.115-10.704-9.983a37.292 37.292 0 0 1-3.701-6.168c-3.162-1.701-5.76-4.166-7.76-7.37-2.77-4.436-4.23-10.102-4.222-16.384a40.97 40.97 0 0 1 .798-7.923c-.288-7.568 2.83-16.329 8.812-24.725 5.734-8.05 13.224-14.509 20.546-17.72.819-.36 1.625-.673 2.422-.943a38.444 38.444 0 0 1 3.399-3.431 42.423 42.423 0 0 1 5.04-3.844zm-27.66 83.016a36.355 36.355 0 0 0 3.076 4.937c2.973 4.024 6.802 7.486 11.275 10.275a17.76 17.76 0 0 0 4.562-1.802c-1.068-.715-1.958-1.481-2.668-2.293-2.524-2.891-4.749-5.919-6.593-8.96a32.8 32.8 0 0 1-4.599-.57 23.666 23.666 0 0 1-5.054-1.587zm57.948 9.526c1.676 2.259 3.679 3.648 6.07 4.249 1.5.377 3.063.572 4.663.585a38.842 38.842 0 0 0 7.12-6.799 35.37 35.37 0 0 0 2.886-4.147c-6.15 3.651-13.204 5.726-20.74 6.112zm22.183-6.759a36.115 36.115 0 0 1-3.604 5.379 39.432 39.432 0 0 1-6.255 6.17c2.523-.159 5.124-.753 7.723-1.771 2.432-.953 4.807-2.255 7.062-3.864-.882-1.395-2.148-2.983-3.766-4.712a64.4 64.4 0 0 0-1.16-1.202zm-69.367-.569c1.728 2.78 3.8 5.578 6.182 8.306.733.84 1.694 1.632 2.862 2.371 1.42-.9 2.786-2.016 4.093-3.345.92-.935 1.94-2.113 3.008-3.582a35.73 35.73 0 0 1-.795-1.923 34.247 34.247 0 0 1-.71-2.066 16.166 16.166 0 0 1-3.417-1.136c-3.629.925-7.409 1.46-11.223 1.375zm20.69.054c4.334 2.98 9.881 4.954 16.594 5.891 2.777.388 5.516.556 8.196.509-1.198-1.993-2.213-4.476-3.073-7.48a56.923 56.923 0 0 1-.318-1.162 52.441 52.441 0 0 1-3.71-.646 36.709 36.709 0 0 1-4.567-1.265c-2.878 1.399-5.816 2.584-8.72 3.342a28.539 28.539 0 0 1-4.402.811zm22.398-2.114c.07.262.142.52.215.777.906 3.163 1.98 5.716 3.257 7.704 8.05-.316 15.55-2.591 21.978-6.675a82.994 82.994 0 0 0-4.116-3.73c-1.353.41-2.711.765-4.074 1.066a51.536 51.536 0 0 1-17.26.858zm26.923 1.956c.414.416.811.83 1.195 1.239 1.322 1.412 2.764 3.11 3.837 4.798l.314-.239c1.261-2.833 2.251-6.019 2.956-9.532.287-1.435.529-2.928.726-4.481a42.194 42.194 0 0 1-9.028 8.215zm10.126-9.611a65.677 65.677 0 0 1-.911 6.061c-.589 2.936-1.37 5.64-2.341 8.106a39.886 39.886 0 0 0 3.641-3.55c5.286-5.848 8.933-13.212 10.561-21.322-1.504 1.558-4.505 4.442-8.742 7.475a42.431 42.431 0 0 1-2.208 3.23zm-64.46 9.667a34.497 34.497 0 0 0 1.094 2.909 42.866 42.866 0 0 0 1.698-2.698 18.845 18.845 0 0 1-2.792-.211zm-.306-.995c.865.154 1.762.242 2.687.264a25.52 25.52 0 0 1-2.143-2.022c-.31.109-.62.216-.933.32.119.484.25.963.389 1.438zm6.912-4.396a56.692 56.692 0 0 1-2.196 4.606c1.514-.113 3.103-.388 4.77-.824 2.568-.67 5.172-1.686 7.742-2.893-2.167-.858-4.136-1.915-5.897-3.168a76.025 76.025 0 0 1-4.419 2.279zm-22.86 4.49c3.568.141 7.114-.283 10.54-1.076-2.333-1.336-4.418-3.283-6.225-5.825a34.38 34.38 0 0 1-2.625-4.331 52.467 52.467 0 0 1-6.354-1.586c-.15-.046-.298-.095-.45-.143.675 3.997 2.431 8.443 5.114 12.961zm66.046-3.364a82.878 82.878 0 0 1 3.656 3.332 32.852 32.852 0 0 0 2.171-5.584 57.76 57.76 0 0 1-5.827 2.252zm-76.898.759c1.784.925 3.752 1.604 5.898 2.028 1.28.253 2.562.422 3.844.514a49.523 49.523 0 0 1-2.453-4.798c-1.307-2.959-2.162-5.804-2.55-8.442-2.728-.974-5.574-2.329-8.125-4.208.117 5.301 1.254 10.313 3.386 14.906zm28.302.406a25.03 25.03 0 0 0 2.29 2.07 53.885 53.885 0 0 0 1.85-3.773 65.441 65.441 0 0 1-4.14 1.703zm-4.188 1.378c.538.2 1.09.368 1.654.507a32.423 32.423 0 0 1-.244-.931c-.468.148-.938.289-1.41.424zm59.72-5.307a33.46 33.46 0 0 1-1.988 5.556 41.427 41.427 0 0 0 8.82-8.55c.029-.274.055-.552.08-.829a62.91 62.91 0 0 1-6.912 3.823zm-70.137-4.906a33.406 33.406 0 0 0 2.23 3.595c1.968 2.767 4.23 4.775 6.812 6.032a52.22 52.22 0 0 0 2.569-.744 38.487 38.487 0 0 1-.531-2.909c-.054-.079-.107-.16-.16-.241a27.054 27.054 0 0 1-2.643-5.192c-2.713.082-5.475-.1-8.277-.541zm40.567 8.955a50.67 50.67 0 0 0 17.312-.798 53.693 53.693 0 0 0 3.42-.874c-3.903-3.238-8.386-6.452-12.996-9.291-1.018.632-2.09 1.311-3.204 2.016a295.385 295.385 0 0 1-5.666 3.532 78.966 78.966 0 0 0 1.134 5.415zm-7.842-1.656c1.143.366 2.335.678 3.578.94 1.088.229 2.18.424 3.271.582a79.538 79.538 0 0 1-.996-4.768 103.156 103.156 0 0 1-5.853 3.246zm-20.422.339c.062.32.128.639.198.956l.468-.158a29.242 29.242 0 0 1-.666-.798zm-.33-2.007a24.17 24.17 0 0 0 1.942 2.468 65.297 65.297 0 0 0 5.38-2.244 68.517 68.517 0 0 0 1.707-4.544 23.145 23.145 0 0 1-2.086-2.508 40.357 40.357 0 0 1-7.311 1.505c.009 1.818.132 3.594.368 5.323zM4.72 115.88a39.64 39.64 0 0 0-.26 4.426c-.007 6.107 1.403 11.602 4.08 15.89 1.674 2.682 3.787 4.82 6.316 6.403-1.946-4.606-2.94-9.597-2.962-14.856-3.414-2.784-6.167-6.61-7.174-11.863zm74.392 16.516c4.691 2.915 9.239 6.209 13.173 9.514a57.239 57.239 0 0 0 6.974-2.707c.849-3.439 1.14-7.025.86-10.688-1.422 1.164-2.922 2.095-4.476 2.762-4.17 1.794-7.961 1.858-11.268.194-.611-.308-1.2-.669-1.766-1.079-1.067.554-2.237 1.236-3.497 2.004zm-23.858 6.313c1.83 1.251 3.883 2.292 6.154 3.119 2.365-1.166 4.69-2.475 6.92-3.808a161.516 161.516 0 0 1-1.074-7.562 95.004 95.004 0 0 1-5.225 3.944 88.129 88.129 0 0 1-6.775 4.307zm-3.597-1.714a69.112 69.112 0 0 1-1.19 3.21 78.85 78.85 0 0 0 3.065-1.597 24.247 24.247 0 0 1-1.875-1.613zm-12.478-1.543a26.544 26.544 0 0 0 1.572 3.298 42.48 42.48 0 0 1-.157-3.398c-.47.041-.94.075-1.415.1zm61.813-7.69c.356 3.738.134 7.403-.652 10.925a61.619 61.619 0 0 0 4.174-2.244c.887-.52 1.738-1.05 2.552-1.579.345-4.584.332-9.614-.039-15.069-1.69 3.185-3.744 5.887-6.035 7.967zm-49.005 8.255a23.07 23.07 0 0 0 2.434 2.097 86.955 86.955 0 0 0 7.074-4.474 96.084 96.084 0 0 0 5.63-4.273c-.095-.81-.186-1.627-.277-2.452a60.645 60.645 0 0 0-3.026-1.226c-3.383 2.72-6.953 4.889-10.676 6.49a86.41 86.41 0 0 1-1.159 3.838zm16.122-6.26c.32 2.689.668 5.285 1.077 7.745 1.863-1.129 3.653-2.264 5.336-3.33.97-.616 1.91-1.211 2.812-1.773l-.745-.446a97.108 97.108 0 0 0-6.754-3.66c-.568.493-1.143.981-1.726 1.464zm39.849 5.635v.006l.007-.01a.021.021 0 0 1-.007.004zm-58.184-1.933a21.301 21.301 0 0 0 1.481 1.797c.272-.845.537-1.719.797-2.625-.754.299-1.514.575-2.278.828zm-20.384.459a44.07 44.07 0 0 0 8.47.651c-1.69-4.883-2.308-10.656-1.85-17.29a21.755 21.755 0 0 1-2.106-2.201c-2.115.978-3.98 1.921-5.501 2.771a14.664 14.664 0 0 0-2.513 1.757l.01.307c.176 4.939 1.37 9.697 3.49 14.005zm7.502-15.878c-.368 6.336.28 11.846 1.944 16.497.59-.028 1.178-.067 1.763-.12a48.02 48.02 0 0 1 .398-5.445c.015-.346.174-3.439 1.417-7.635a22.256 22.256 0 0 1-5.522-3.297zm6.4 3.644c-1.233 4.222-1.365 7.297-1.366 7.345l-.003.043a47.325 47.325 0 0 0-.39 5.251 39.327 39.327 0 0 0 6.753-1.373c-2.067-3.154-3.397-6.858-3.893-10.888-.373-.118-.74-.244-1.1-.378zm64.547-3.521c.462 5.817.531 11.177.207 16.052.43-.292.85-.583 1.256-.873 4.157-6.791 6.358-14.751 6.221-23.003-.061-3.753-1.169-6.278-3.385-7.724a7.485 7.485 0 0 0-.754-.427c.048 5.279-1.215 10.979-3.545 15.975zm-86.026 13.83a51.965 51.965 0 0 0 6.443 1.716c-1.92-4.106-3.032-8.591-3.265-13.238-1.639 1.744-2.682 3.869-3.113 6.356-.276 1.589-.292 3.326-.065 5.166zm23.555-9.64c.529 3.826 1.84 7.332 3.844 10.31a40.373 40.373 0 0 0 3.155-1.166 86.398 86.398 0 0 0 1.781-8.115c-.344-.019-.68-.029-1.009-.029-2.762-.002-5.363-.339-7.77-1zm65.991-21.199c.46.196.89.423 1.288.682 2.46 1.605 3.742 4.46 3.808 8.488.126 7.687-1.731 15.123-5.278 21.635 4.602-3.519 7.371-6.577 7.873-7.146 1.326-8.062.669-16.483-1.954-25.1-2.29-1.176-4.272-2.1-6.229-2.804.242 1.244.401 2.536.472 3.866.008.126.014.252.02.379zm-40.769 26.475a95.974 95.974 0 0 1 6.472 3.524c.388.228.773.462 1.16.696a71.154 71.154 0 0 1 3.582-2.085c-2.067-1.732-3.828-4.144-5.365-7.028-.333.09-.666.173-.998.246a86.228 86.228 0 0 1-4.85 4.647zm12.97 2.29c.404.27.815.511 1.233.722 3.093 1.557 6.52 1.487 10.48-.217 1.652-.71 3.245-1.736 4.74-3.037a39.23 39.23 0 0 0-1.618-7.615 23.762 23.762 0 0 0-1.136-2.92c-4.267 6.482-8.945 11.174-12.527 12.562-.371.142-.762.312-1.172.505zm-70.733-2.608c2.208 1.733 4.883 3.183 8.005 4.336-.18-1.772-.14-3.44.128-4.977.518-2.989 1.855-5.49 3.988-7.471a38.87 38.87 0 0 1 3.301-16.298c-.593-2.785-.892-5.803-.888-9.027a41.078 41.078 0 0 0-2.909-.047c-5.187 7.468-8.857 15.875-10.623 24.338-.652 3.12-.985 6.176-1.002 9.146zm42.251-3.854a87.202 87.202 0 0 1-1.622 7.567c3.239-1.462 6.36-3.37 9.336-5.709-2.837-.994-5.434-1.623-7.714-1.858zm22.285-.996c1.639 3.034 3.41 5.3 5.346 6.837a20.25 20.25 0 0 1 1.687-.754c3.372-1.305 8.026-6.015 12.143-12.291.081-.122.16-.245.24-.367-1.256-2.364-2.896-4.363-4.91-5.983-1.177 2.572-3 5.039-5.37 7.197-2.722 2.48-5.92 4.325-9.136 5.361zm-9.53 4.891l.147 1.303c.317-.267.631-.533.94-.8a83.43 83.43 0 0 0-1.086-.503zm-.117-1.071c.649.288 1.304.591 1.97.909a86.654 86.654 0 0 0 4.181-3.928 16.037 16.037 0 0 1-3.592.089c-.955-.089-1.833-.448-2.651-1.029l-.297.286c.13 1.236.257 2.462.39 3.673zm30.138-10.347a24.465 24.465 0 0 1 1.43 3.556 40.385 40.385 0 0 1 1.578 7.12c2.183-2.106 4.133-4.813 5.722-7.989.104-.208.206-.42.308-.631-.3-3.692-.759-7.571-1.375-11.628a43.384 43.384 0 0 0-.886-4.338c-1.617 4.671-3.924 9.425-6.777 13.91zm-92.59-3.481l.012.273c.24 4.428 1.706 8.297 4.359 11.495a20.29 20.29 0 0 0 2.27 2.324c.066-2.79.401-5.654 1.011-8.572 1.746-8.369 5.327-16.681 10.378-24.108a35.76 35.76 0 0 0-5.085.612c-3.76.734-7.253 3.891-9.834 8.889-1.39 2.692-2.447 5.813-3.112 9.087zm59.383 12.555c.684.263 1.38.544 2.085.845-.087-.809-.173-1.626-.258-2.447a53.626 53.626 0 0 1-1.827 1.602zm-9.419-2.47c2.482.263 5.315.973 8.413 2.095a53.845 53.845 0 0 0 2.57-2.252c.049-.044.096-.09.144-.135l-.12-1.176c-1.241-1.36-2.346-3.238-3.388-5.41-2.39.682-4.324.966-5.628.65a25.098 25.098 0 0 1-1.249-.34 72.045 72.045 0 0 1-.742 6.568zm13.068-.88c.65.431 1.336.696 2.065.765 1.472.138 3.027.034 4.605-.289.258-.27.512-.539.758-.806-.828-1.712-1.59-3.562-2.298-5.514a62.807 62.807 0 0 1-5.13 5.844zm-23.048-.308c2.43.709 5.073 1.072 7.891 1.072.377 0 .763.011 1.16.036.394-2.49.64-4.787.757-6.777-2.17-.725-4.822-1.863-7.51-3.448a33.539 33.539 0 0 0-1.154 1.94 35.77 35.77 0 0 0-1.25 2.5 30.436 30.436 0 0 0 .106 4.677zm31.603.129l.075.148c3.14-.984 6.274-2.782 8.947-5.216 2.335-2.128 4.118-4.562 5.239-7.089a21.087 21.087 0 0 0-4.64-2.525c-.203-.08-.405-.157-.61-.232-.492.194-.984.389-1.472.587a30.417 30.417 0 0 1-.74 4.149c-.624 2.406-3.1 6.11-6.799 10.178zm-9.721-.802c.139.142.281.278.423.406a62.689 62.689 0 0 0 5.502-6.314 97.193 97.193 0 0 1-.844-2.553 148.69 148.69 0 0 1-5.73 2.248c.214 1.978.417 3.956.616 5.918.013.098.024.196.032.295zm-23.564.113c.237.089.476.174.718.256a30.685 30.685 0 0 1-.11-2.019 38.458 38.458 0 0 0-.608 1.763zm30.536-5.86a67.369 67.369 0 0 0 1.147 3.012c.38.927.766 1.805 1.162 2.636 3.506-3.896 5.774-7.336 6.337-9.512.261-1.008.489-2.194.657-3.517a567.24 567.24 0 0 0-5.92 2.461 72.366 72.366 0 0 1-3.383 4.92zm-37.133 1.957a21.229 21.229 0 0 0 5.72 3.554c.406-1.263.909-2.609 1.532-3.999.113-1.927.396-3.87.842-5.798l-.09-.063a136.306 136.306 0 0 0-7.671 2.992 74.81 74.81 0 0 0-.333 3.314zm26.78-1.495c.737 1.529 1.5 2.896 2.316 4.01a930.8 930.8 0 0 0-.483-4.617 55.86 55.86 0 0 1-1.834.607zm-35.136-10.953a38.732 38.732 0 0 0-2.736 13.968 16.265 16.265 0 0 1 2.071-1.37 82.535 82.535 0 0 1 5.356-2.707c-2.13-2.773-3.701-6.097-4.691-9.891zm76.768-3.22a44.429 44.429 0 0 1 1.056 5.002c.527 3.464.939 6.8 1.235 10.001 1.892-4.611 2.878-9.703 2.774-14.421-1.446-.497-3.16-.667-5.065-.582zm-70.598 13.457a20.886 20.886 0 0 0 1.319 1.411c.06-.688.13-1.384.212-2.09-.52.228-1.032.455-1.531.679zm21.24.337c.508.156.982.286 1.416.392 1.113.271 2.851.009 5.008-.6-.984-2.152-1.92-4.549-2.872-6.986-.172-.441-.345-.882-.52-1.325a97.847 97.847 0 0 0-3.934.941c.503 1.21.802 2.453.889 3.714.075 1.062.082 2.367.013 3.864zm36.228-6.002c2.073 1.622 3.776 3.618 5.101 5.975 2.762-4.417 4.988-9.083 6.531-13.653-3.153.333-6.74 1.256-10.486 2.483-.075 1.729-.466 3.48-1.146 5.195zm-44.197 2.451a39.254 39.254 0 0 0 7.05 3.254 33.132 33.132 0 0 0-.021-3.502 10.856 10.856 0 0 0-.87-3.537c-1.416.383-2.831.795-4.232 1.232a32.132 32.132 0 0 0-1.926 2.553zm11.927-5.163c.156.396.31.79.462 1.183.965 2.474 1.914 4.902 2.905 7.059.676-.208 1.389-.446 2.13-.708a284.067 284.067 0 0 0-1.021-8.341 84.658 84.658 0 0 0-4.476.807zm-14.089 4.905a34.316 34.316 0 0 0-.509 2.875l.192-.353c.373-.676.763-1.333 1.172-1.974a40.85 40.85 0 0 1-.855-.548zm-16.669-8.203c.946 4.258 2.604 7.936 4.95 10.93.732-.333 1.492-.668 2.275-1.006.37-2.824.915-5.786 1.636-8.886a23.311 23.311 0 0 1-2.384-3.901 20.513 20.513 0 0 1-1.636-4.846c-1.708 1.97-3.254 4.354-4.543 7.068-.101.212-.201.427-.298.641zm43.854 8.858c.212.675.43 1.345.657 2.008a70.394 70.394 0 0 0 2.236-3.219c-.983.413-1.95.82-2.893 1.211zm-7.7-6.502c.376 2.697.702 5.424 1.001 8.152a154.483 154.483 0 0 0 5.557-2.186 152.575 152.575 0 0 1-1.804-6.469 67.73 67.73 0 0 0-4.753.503zm-26.553-.378a91.563 91.563 0 0 0-1.38 7.524 138.124 138.124 0 0 1 6.619-2.584c-1.878-1.409-3.678-3.051-5.239-4.94zm7.296 5.266c.378.253.757.498 1.136.734.361-.533.737-1.054 1.124-1.561-.754.245-1.502.497-2.243.753l-.017.074zm24.954-5.448c.53 2.053 1.1 4.131 1.724 6.169 1.232-.512 2.49-1.041 3.76-1.576l.295-.123a76.593 76.593 0 0 0 2.45-4.232c-2.672-.335-5.45-.386-8.229-.238zm-31.984-.971c1.741 2.238 3.836 4.137 6.022 5.718l.25-.088a37.114 37.114 0 0 1 3.385-8.375l-.005-.003c-2.149-1.648-4.774-3.092-7.683-4.246a35.554 35.554 0 0 0-.88 2.752 122.251 122.251 0 0 0-1.09 4.242zm10.396-2.154a36.255 36.255 0 0 0-3.056 7.416c.994-.339 2-.669 3.012-.986a32.035 32.035 0 0 1 3.142-3.214c-.834-1.119-1.87-2.195-3.098-3.216zm30.8 3.497a78.14 78.14 0 0 1-1.965 3.479c1.697-.713 3.442-1.44 5.202-2.153.02-.211.04-.427.057-.644a31.29 31.29 0 0 0-3.295-.682zm6.859.895a21.87 21.87 0 0 1 4.332 2.37c.54-1.424.87-2.872.97-4.301a136.344 136.344 0 0 0-5.302 1.931zM34.92 70.429c-.285.114-.572.236-.861.362-7.068 3.099-14.605 9.605-20.162 17.406-4.745 6.66-7.652 13.535-8.44 19.817a33.411 33.411 0 0 1 2.09-5.075c2.715-5.255 6.438-8.586 10.482-9.376a36.94 36.94 0 0 1 5.924-.651 69.532 69.532 0 0 1 3.727-4.83c.512-4.35 1.756-8.443 3.704-12.186a35.133 35.133 0 0 1 3.536-5.467zm18.202 35.226a31.16 31.16 0 0 0-1.964 1.921c.88-.263 1.764-.515 2.649-.754a13.883 13.883 0 0 0-.685-1.167zm.71-.616c.336.506.635 1.018.896 1.538a106.48 106.48 0 0 1 3.982-.962 143.728 143.728 0 0 0-1.296-3.182c-.449.282-.89.572-1.322.873a30.484 30.484 0 0 0-2.26 1.733zm30.73.119c.436.129.862.265 1.28.412a142.102 142.102 0 0 1 6.636-2.436c-.013-2.657-.759-5.283-2.094-7.633-1.813.135-3.787.303-5.957.5-.066.174-.13.347-.198.52.43 3.072.494 6.027.333 8.637zm-26.342-3.213a151.76 151.76 0 0 1 1.412 3.469c1.6-.335 3.166-.621 4.69-.855-.25-1.724-.52-3.432-.821-5.117a34.773 34.773 0 0 0-5.281 2.503zm22.522 2.351c1.005.164 1.972.366 2.903.608a42.49 42.49 0 0 0-.138-6.578 78.032 78.032 0 0 1-2.765 5.97zm-16.35-5.174c.313 1.747.595 3.518.853 5.304a69.215 69.215 0 0 1 4.649-.5c-.443-1.752-.87-3.525-1.287-5.295a20.858 20.858 0 0 1-.148-.68c-1.405.326-2.76.717-4.068 1.171zm-14.44 1.727c1.322 1.084 2.438 2.232 3.339 3.429a31.8 31.8 0 0 1 3.754-2.71c-.961-2.214-1.985-4.319-3.12-6.147a31.914 31.914 0 0 0-3.973 5.428zm23.972 2.926c2.058 0 4.009.125 5.845.374a77.807 77.807 0 0 0 3.505-7.743l-.044-.296c-2.624.245-5.522.53-8.739.85-1.769.178-3.478.439-5.122.787.045.224.093.447.146.668.414 1.758.853 3.59 1.322 5.448l.41-.022a56.809 56.809 0 0 1 2.677-.066zm-38.98-8.837a19.623 19.623 0 0 0 1.595 4.799 22.306 22.306 0 0 0 1.828 3.113c.282-1.153.587-2.323.916-3.512.27-.977.572-1.924.906-2.84a42.462 42.462 0 0 0-5.244-1.56zm56.461.49c1.231 2.297 1.935 4.831 2 7.4 1.138-.37 2.259-.712 3.355-1.014 2.78-.768 5.243-1.25 7.407-1.446a42.071 42.071 0 0 0-1.938-5.166c-2.918-.177-6.36-.085-10.824.226zm-63.114-1.497c0 2.664.21 5.18.626 7.536 1.29-2.616 2.82-4.923 4.505-6.85a43.805 43.805 0 0 0-5.131-.686zm26.292.787c1.199 1.894 2.267 4.071 3.266 6.365a35.488 35.488 0 0 1 5.483-2.572 108.722 108.722 0 0 0-1.034-4.947 82.469 82.469 0 0 0-.986-3.8c-2.413 1.18-4.685 2.86-6.729 4.954zm51.699 5.548c1.561 0 2.932.182 4.125.544a27.386 27.386 0 0 0-.563-4.248 27.983 27.983 0 0 0-3.446-.868 50.125 50.125 0 0 1-1.202 4.598c.373-.016.734-.026 1.086-.026zm-64.887-4.317c2.896 1.148 5.558 2.6 7.819 4.317a32.814 32.814 0 0 1 4.188-5.655c-2.472-3.676-5.16-5.474-8.2-5.48-1.529 2.01-2.8 4.284-3.807 6.818zm61.887-.67c.512 1.167.97 2.355 1.376 3.564.317-1.113.591-2.215.821-3.303a33.186 33.186 0 0 0-2.197-.261zm7.355.569c1.948.66 3.891 1.53 6.066 2.624-.232-.71-.475-1.419-.733-2.132-6.364-17.58-15.144-29.813-26.096-36.362-10.46-6.253-20.623-5.938-27.308-4.57-5.199 1.064-10.169 2.894-14.584 5.332 3.742.097 7.364.72 10.868 1.628 4.527-1.254 9.2-1.718 13.476-1.292 5.912.59 10.48 2.766 13.2 6.168 5.17-1.222 10.453.381 15.271 4.726 4.319 3.895 6.504 9.438 6.455 16.243.139.194.274.39.406.59 1.351 2.035 2.356 4.42 2.979 7.045zm-48.47-6.479a83.966 83.966 0 0 1 1.039 3.983c.372 1.585.708 3.202 1.015 4.843a41.468 41.468 0 0 1 4.07-1.163c-.5-3.138-.373-6.493.36-9.845-2.11.47-4.279 1.197-6.484 2.182zm7.486-2.386c-.786 3.354-.945 6.715-.45 9.849 1.67-.35 3.402-.616 5.194-.795 3.204-.32 6.08-.602 8.68-.843a37.917 37.917 0 0 0-1.057-4.425 32.784 32.784 0 0 0-1.13-3.133c-3.383-1.187-7.19-1.404-11.237-.653zm-34.425 7.055c1.816.418 3.592.946 5.297 1.576.932-2.349 2.085-4.482 3.453-6.398-3.013.4-6.045 2.108-8.75 4.822zm71.352.745c1.037.194 2.031.437 3.013.732-.549-2.093-1.353-4.014-2.393-5.7a38.404 38.404 0 0 1-.62 4.968zm-20.356-4.175a73.204 73.204 0 0 1-1.442 4.43c1.823-.164 3.505-.305 5.061-.424a17.442 17.442 0 0 0-3.619-4.006zm-4.14-2.506c.319.818.591 1.622.828 2.396.424 1.39.758 2.785 1.015 4.165A71.741 71.741 0 0 0 85.432 90a17.8 17.8 0 0 0-3.348-1.899zm20.761 6.21a34.845 34.845 0 0 1 2.816.314l.036-.19c.335-1.822.58-3.838.614-5.932-2.277-3.055-5.406-5.207-9.314-6.403a105.767 105.767 0 0 0-3.54-1.016c4.017 4.03 7.152 8.448 9.388 13.227zm-16.347-4.675a18.37 18.37 0 0 1 4.395 4.9c4.533-.325 7.978-.43 10.887-.29-2.391-4.953-5.779-9.51-10.144-13.634a98.75 98.75 0 0 0-3.32-.77c-.248 2.984-.864 6.319-1.818 9.794zM45.921 88.23c3.024.253 5.7 2.127 8.14 5.694 2.121-2.144 4.481-3.863 6.986-5.064-.976-3.243-2.097-6.113-3.376-8.634a29.67 29.67 0 0 0-4.366 1.949c-2.872 1.576-5.338 3.6-7.384 6.055zM28.299 93c1.846.13 3.694.379 5.512.735-.481-3.958.198-8.137 2.037-12.498-2.546 2.122-4.986 4.546-7.274 7.23-.044.394-.081.791-.112 1.188a57.547 57.547 0 0 0-.163 3.345zm9.16-13.052c-.08.164-.161.331-.239.5-2.093 4.486-2.934 8.772-2.522 12.812 3.046-3.008 6.493-4.813 9.905-5.04l.13-.008c2.21-2.805 4.923-5.095 8.126-6.853a30.612 30.612 0 0 1 4.38-1.965c-1.427-2.655-3.039-4.897-4.85-6.755l-.155-.157c-3.126.754-6.337 2.077-9.575 3.961a48.068 48.068 0 0 0-5.2 3.505zM25.252 92.893c.705 0 1.41.017 2.117.053.02-1.05.07-2.12.154-3.212a69.087 69.087 0 0 0-2.411 3.159h.14zm56.336-5.995a18.9 18.9 0 0 1 4.108 2.15c.9-3.345 1.479-6.542 1.709-9.395-3.66-.748-7.675-1.345-11.781-1.572 2.774 2.723 4.67 5.839 5.964 8.817zm-23.027-6.974c1.262 2.509 2.373 5.35 3.34 8.545 2.377-1.053 4.717-1.816 6.99-2.286.378-1.48.874-2.955 1.485-4.407a30.531 30.531 0 0 1 1.92-3.794h-.14c-4.629.002-9.282.544-13.595 1.942zM92.1 79.77c1.89.477 3.628.97 5.17 1.441 3.686 1.128 6.714 3.068 9.029 5.782-.173-5.03-1.687-10.33-6.125-14.334-4.44-4.004-9.29-5.557-14.038-4.59a12.658 12.658 0 0 1 1.814 4.134c.31 1.28.471 2.769.492 4.416a59.97 59.97 0 0 1 2.633 2.211c.347.312.69.625 1.025.94zm-55.454-9.972a34.312 34.312 0 0 0-4.433 6.527c-1.687 3.24-2.83 6.75-3.414 10.469 2.493-2.798 5.15-5.3 7.922-7.452 1.563-3.112 4.232-6.945 8.74-10.404-.455-.081-.92-.14-1.394-.176-2.3-.175-4.788.173-7.421 1.036zm37.598 15.816c2.147 0 4.203.291 6.138.875-1.366-2.91-3.34-5.908-6.192-8.473-.27-.009-.538-.016-.81-.022a29.52 29.52 0 0 0-2.143 4.143c-.535 1.27-.98 2.56-1.332 3.853 1.479-.25 2.93-.376 4.34-.376zm14.14-6.708c.62.132 1.23.269 1.827.406a58.335 58.335 0 0 0-1.78-1.506c-.009.361-.025.728-.047 1.1zm-35.082-6.659c1.801 1.9 3.406 4.17 4.828 6.84C62.805 77.55 67.866 77 72.87 77.06c.02-.032.043-.064.063-.097-2.19-1.715-4.836-3.177-8.033-4.205-3.622-1.165-7.531-1.328-11.6-.51zm21.268 4.857c4.496.172 8.904.804 12.899 1.613.03-.562.047-1.107.048-1.638-2.78-2.172-5.647-4.024-8.432-5.593-1.8 1.426-3.463 3.226-4.9 5.29.13.107.257.217.385.328zm-27.91-7.894c-2.942 2.15-5.893 5.021-8.148 8.803a48.07 48.07 0 0 1 3.678-2.372c3.11-1.81 6.2-3.115 9.222-3.91a12.42 12.42 0 0 0-4.751-2.52zm11.612 1.596c2.387 0 4.7.353 6.914 1.065 3.289 1.057 6.014 2.557 8.273 4.315 1.4-2 3.008-3.761 4.748-5.19a81.157 81.157 0 0 0-10.517-4.79c-3.332-1.242-6.267-2.175-8.88-2.863a39.973 39.973 0 0 0-6.43 2.445 37.493 37.493 0 0 0-4.755 2.74c1.805.61 3.44 1.589 4.888 2.932a26.566 26.566 0 0 1 5.759-.654zm21.624.069a69.076 69.076 0 0 1 7.6 5.01c-.053-1.275-.203-2.437-.45-3.46a11.67 11.67 0 0 0-1.888-4.118c-1.32.367-2.628.93-3.916 1.69-.455.27-.904.563-1.346.878zm-19.233-8.011c2.513.726 4.964 1.58 7.353 2.47a82.125 82.125 0 0 1 10.987 5.038c.577-.43 1.165-.824 1.765-1.178a17.525 17.525 0 0 1 3.766-1.683c-2.597-3.027-6.842-4.965-12.3-5.51-3.674-.365-7.653-.055-11.57.863zm-14.23-1.229a42.386 42.386 0 0 0-6.307 4.625 38.457 38.457 0 0 0-2.287 2.216c2.207-.578 4.314-.794 6.297-.643.803.062 1.579.182 2.327.363a38.12 38.12 0 0 1 5.508-3.244 40.69 40.69 0 0 1 5.083-2.044c-4.339-1.016-7.742-1.324-10.62-1.273z" fill="#2B478B"/><path d="M250.532 159.158c-16.625 0-33.095-7.328-44.059-19.603-9.389-10.511-13.737-23.546-12.242-36.704l.223.025-.223-.025c2.043-17.996 8.128-31.94 18.083-41.445 9.443-9.017 22.298-14 38.207-14.81 18.612-.95 32.934 4.35 42.567 15.752 4.214 4.987 7.529 11.17 9.853 18.375 2.115 6.56 3.425 14.01 3.896 22.141.496 8.589-.264 16.396-2.262 23.203-2.039 6.949-5.387 12.924-9.949 17.757-9.612 10.174-24.446 15.334-44.094 15.334zm4.154-112.222c-1.357 0-2.736.035-4.143.107-15.799.805-28.557 5.747-37.919 14.686-9.877 9.432-15.917 23.283-17.947 41.172-1.48 13.029 2.828 25.939 12.13 36.354 10.881 12.181 27.226 19.453 43.725 19.453 19.519 0 34.245-5.112 43.764-15.195 4.514-4.781 7.826-10.693 9.845-17.575 1.981-6.757 2.737-14.513 2.244-23.052-.468-8.093-1.771-15.505-3.874-22.03-2.305-7.148-5.592-13.28-9.767-18.222-8.811-10.425-21.601-15.698-38.058-15.698z" fill="#2B478B"/><path d="M250.531 159.469c-16.711 0-33.269-7.367-44.29-19.707-9.376-10.497-13.756-23.495-12.354-36.637h-.001l.07-.617c2.086-17.92 8.19-31.824 18.142-41.326 9.499-9.07 22.42-14.08 38.406-14.896 18.715-.953 33.121 4.383 42.819 15.862 4.239 5.018 7.574 11.236 9.909 18.48 2.123 6.584 3.439 14.06 3.911 22.219.499 8.625-.267 16.467-2.274 23.308-2.052 6.998-5.424 13.014-10.022 17.881-9.669 10.24-24.579 15.433-44.316 15.433zm4.155-112.222c-1.344 0-2.733.036-4.127.107-15.721.8-28.413 5.713-37.72 14.6-9.823 9.381-15.83 23.17-17.853 40.984-1.47 12.939 2.811 25.764 12.054 36.111 10.822 12.116 27.082 19.349 43.493 19.349 19.431 0 34.079-5.079 43.54-15.096 4.48-4.744 7.769-10.615 9.772-17.449 1.974-6.723 2.725-14.444 2.233-22.946-.466-8.068-1.765-15.453-3.861-21.952-2.293-7.11-5.56-13.207-9.708-18.118-8.743-10.345-21.468-15.59-37.823-15.59z" fill="#2B478B"/><path d="M252.533 161.655c-9.336 0-19.61-2.65-30.723-7.94-15.008-7.146-26.726-20.842-31.344-36.638-3.955-13.525-2.273-27.162 4.736-38.4 9.587-15.367 21.078-25.342 34.156-29.644 12.403-4.081 26.153-3.055 40.865 3.053 17.212 7.144 27.862 18.085 31.654 32.519 1.66 6.314 1.993 13.32.989 20.824-.912 6.832-2.934 14.12-6.007 21.665-3.246 7.968-7.292 14.689-12.023 19.976-4.831 5.398-10.423 9.353-16.621 11.754-4.878 1.887-10.113 2.831-15.682 2.831zm-57.14-82.859l.191.119c-6.94 11.127-8.605 24.634-4.687 38.036 4.583 15.674 16.211 29.266 31.107 36.357 17.623 8.391 33.115 10.105 46.048 5.095 6.132-2.376 11.667-6.29 16.449-11.635 4.697-5.248 8.715-11.926 11.943-19.846 3.06-7.508 5.071-14.761 5.978-21.555.994-7.445.664-14.394-.979-20.65-3.754-14.292-14.316-25.132-31.391-32.22-14.61-6.064-28.254-7.086-40.553-3.04-12.976 4.268-24.386 14.178-33.915 29.455l-.191-.116z" fill="#2B478B"/><path d="M252.532 161.965c-9.365 0-19.747-2.682-30.856-7.972-15.088-7.184-26.866-20.952-31.509-36.83-3.98-13.611-2.286-27.338 4.772-38.65 9.626-15.43 21.174-25.45 34.321-29.775 12.477-4.105 26.298-3.075 41.081 3.06 17.306 7.184 28.018 18.194 31.835 32.727 1.669 6.354 2.003 13.4.996 20.945-.916 6.857-2.944 14.171-6.028 21.739-3.261 8.001-7.325 14.752-12.079 20.067-4.863 5.434-10.496 9.417-16.741 11.836-4.887 1.894-10.2 2.853-15.792 2.853zm-56.685-82.886c-6.893 11.051-8.545 24.47-4.652 37.785 4.558 15.591 16.125 29.111 30.943 36.164 17.543 8.353 32.952 10.064 45.803 5.086 6.086-2.358 11.58-6.244 16.33-11.552 4.674-5.222 8.673-11.869 11.887-19.757 3.05-7.485 5.054-14.711 5.957-21.479.989-7.405.664-14.312-.971-20.53-3.729-14.193-14.229-24.963-31.209-32.01-14.539-6.037-28.11-7.056-40.336-3.033-12.908 4.246-24.262 14.112-33.752 29.326z" fill="#2B478B"/><path d="M255.692 165.109c-13.547 0-27.463-6.508-41.415-19.379-12.647-11.668-20.03-28.803-19.75-45.835.241-14.586 6.088-27.554 16.467-36.515l.151.176-.151-.176c14.194-12.255 28.618-18.594 42.868-18.837 13.51-.232 26.795 4.999 39.467 15.548 14.827 12.341 21.999 26.424 21.318 41.858-.298 6.752-2.118 13.782-5.412 20.894-2.998 6.475-7.233 13.062-12.588 19.577-5.655 6.884-11.718 12.287-18.019 16.065-6.432 3.857-13.174 6.052-20.04 6.525-.961.065-1.927.099-2.896.099zm-.969-120.11c-.285 0-.568.003-.853.007-14.138.242-28.462 6.543-42.571 18.724-10.278 8.874-16.068 21.72-16.305 36.17-.279 16.904 7.049 33.908 19.6 45.487 14.85 13.699 29.64 20.145 43.966 19.157 6.792-.469 13.466-2.642 19.834-6.459 6.255-3.75 12.277-9.12 17.898-15.961 5.33-6.486 9.544-13.039 12.525-19.478 3.269-7.058 5.074-14.028 5.369-20.719.674-15.281-6.443-29.237-21.152-41.481-12.318-10.252-25.204-15.447-38.311-15.447z" fill="#2B478B"/><path d="M255.692 165.419c-13.622 0-27.627-6.547-41.625-19.46-12.711-11.727-20.131-28.948-19.849-46.069.239-14.565 6.039-27.528 16.34-36.54l.47-.406c14.175-12.17 28.584-18.466 42.829-18.71 13.589-.237 26.94 5.02 39.671 15.62 14.905 12.406 22.115 26.573 21.43 42.11-.299 6.792-2.13 13.86-5.44 21.009-3.008 6.499-7.258 13.108-12.629 19.645-5.678 6.91-11.766 12.339-18.098 16.134-6.475 3.881-13.264 6.091-20.179 6.568-.966.064-1.948.099-2.92.099zm-.969-120.11c-.283 0-.564.004-.847.008-14.063.242-28.321 6.515-42.374 18.65-10.209 8.814-15.963 21.578-16.199 35.941-.277 16.817 7.012 33.733 19.501 45.253 13.802 12.734 27.543 19.173 40.89 19.173.95 0 1.898-.032 2.844-.098 6.743-.465 13.37-2.623 19.696-6.417 6.224-3.732 12.218-9.078 17.818-15.891 5.313-6.466 9.513-12.997 12.484-19.412 3.25-7.02 5.047-13.952 5.341-20.602.669-15.179-6.411-29.05-21.041-41.23-12.258-10.201-25.081-15.374-38.113-15.374z" fill="#2B478B"/><path d="M238.971 164.113c-5.315 0-10.385-.886-15.13-2.647-13.584-5.041-24.499-17.089-32.439-35.809-6.719-15.839-6.387-34.493.886-49.9 6.227-13.192 16.899-22.602 30.048-26.496 17.983-5.324 33.737-5.163 46.824.48 12.412 5.352 22.358 15.586 29.561 30.415 8.426 17.349 9.161 33.134 2.183 46.92-3.053 6.03-7.608 11.686-13.539 16.811-5.4 4.666-11.973 8.926-19.537 12.659-7.989 3.945-15.739 6.375-23.037 7.222a49.93 49.93 0 0 1-5.82.345zM222.4 49.484l.066.223c-13.021 3.855-23.589 13.177-29.76 26.249-7.218 15.288-7.545 33.8-.877 49.519 7.888 18.597 18.712 30.56 32.173 35.556 6.383 2.368 13.358 3.135 20.736 2.277 7.244-.842 14.944-3.257 22.884-7.177 7.529-3.716 14.069-7.953 19.439-12.595 5.886-5.085 10.404-10.694 13.429-16.67 6.909-13.647 6.173-29.295-2.187-46.507-7.153-14.727-17.02-24.884-29.328-30.191-12.984-5.599-28.632-5.754-46.509-.46l-.066-.224z" fill="#2B478B"/><path d="M238.971 164.424c-5.345 0-10.472-.898-15.238-2.666-13.668-5.072-24.643-17.179-32.618-35.98-6.753-15.919-6.42-34.667.89-50.152 6.265-13.274 17.005-22.743 30.24-26.66 18.055-5.347 33.881-5.181 47.035.492 12.483 5.383 22.482 15.667 29.718 30.564 8.472 17.441 9.205 33.32 2.182 47.196-3.071 6.067-7.651 11.755-13.612 16.906-5.421 4.684-12.016 8.959-19.602 12.702-8.021 3.96-15.807 6.4-23.138 7.253a50.952 50.952 0 0 1-5.857.345zm-16.416-114.42c-12.935 3.831-23.435 13.094-29.567 26.085-7.18 15.21-7.507 33.628-.873 49.265 7.854 18.515 18.619 30.421 31.996 35.386 6.336 2.352 13.264 3.112 20.592 2.26 7.209-.837 14.873-3.242 22.783-7.147 7.505-3.704 14.023-7.928 19.373-12.551 5.855-5.059 10.348-10.636 13.354-16.575 6.862-13.557 6.126-29.111-2.189-46.231-7.119-14.658-16.933-24.766-29.171-30.042-12.916-5.571-28.494-5.72-46.298-.45z" fill="#2B478B"/><path d="M253.781 159.158c-16.624 0-30.695-8.724-41.659-20.999-9.389-10.511-16.137-22.15-14.642-35.308 2.044-17.996 8.129-31.94 18.083-41.445 9.443-9.017 22.298-14 38.208-14.81 18.612-.95 32.933 4.35 42.567 15.752 4.213 4.987 7.528 11.17 9.852 18.375 2.115 6.56 3.425 14.01 3.896 22.141.496 8.589-.264 16.396-2.262 23.203-2.039 6.949-5.387 12.924-9.951 17.757-9.61 10.174-24.445 15.334-44.092 15.334zm-56.079-56.282l.223.025c-1.481 13.029 5.642 24.657 14.944 35.072 10.88 12.181 24.413 20.735 40.912 20.735 19.519 0 34.245-5.112 43.764-15.195 4.514-4.781 7.826-10.693 9.845-17.575 1.982-6.757 2.737-14.513 2.244-23.052-.468-8.093-1.77-15.505-3.874-22.03-2.306-7.148-5.592-13.28-9.767-18.222-9.537-11.289-23.736-16.535-42.2-15.594-15.8.805-28.558 5.747-37.92 14.686-9.877 9.432-15.917 23.283-17.947 41.172l-.224-.022z" fill="#2B478B"/><path d="M253.781 159.469c-7.945 0-15.717-1.996-23.099-5.933-6.644-3.543-12.967-8.648-18.792-15.17-5.256-5.883-9.003-11.359-11.454-16.739-2.91-6.386-3.978-12.539-3.265-18.81 2.052-18.069 8.168-32.077 18.177-41.634 9.498-9.07 22.419-14.08 38.405-14.895 18.716-.952 33.121 4.383 42.819 15.862 4.24 5.018 7.574 11.235 9.91 18.48 2.122 6.585 3.438 14.06 3.911 22.218.498 8.626-.267 16.468-2.274 23.309-2.052 6.997-5.425 13.012-10.022 17.881-9.669 10.238-24.58 15.431-44.316 15.431zm-55.548-56.531c-1.25 11.008 3.473 22.075 14.867 34.83 12.229 13.69 25.916 20.63 40.681 20.63 19.431 0 34.079-5.079 43.539-15.096 4.481-4.744 7.77-10.615 9.773-17.449 1.974-6.723 2.725-14.444 2.233-22.946-.466-8.068-1.765-15.453-3.861-21.952-2.293-7.11-5.56-13.207-9.708-18.118-9.471-11.21-23.583-16.42-41.948-15.483-15.722.8-28.414 5.713-37.72 14.6-9.826 9.38-15.832 23.168-17.856 40.984zm3.064 19.067c2.428 5.119 6.05 10.343 11.057 15.947a79.805 79.805 0 0 0 6.592 6.585 81.847 81.847 0 0 1-6.308-6.354c-5.065-5.671-8.825-11.016-11.341-16.178z" fill="#2B478B"/><path d="M242.767 127.949l-.085.149c-.675 1.172-2.223 4.044-3.927 7.187a917.059 917.059 0 0 1-2.452 4.503c-1.38 2.521-2.634 4.766-3.366 5.952a118.794 118.794 0 0 1-1.516 2.394l-.001.001a.567.567 0 0 0-.072.351c.078 1.063.056 2.12-.048 3.16-1.029 10.223-7.925 15.703-7.925 15.703l-2.051.304s2.902-10.747 3.757-16.823c.144-1.029.207-1.864.157-2.409-.151-1.582.129-3.907.662-6.575.947-4.741 2.683-10.561 4.192-15.22.096-.298 2.98-10.725 2.98-10.725 2.42 2.114 11.248 2.987 11.248 2.987s1.498 3.635-1.553 9.061z" fill="#F99746"/><path d="M217.021 170.244h8.558s.205-1.304-.242-2.294c-.429-.948-1.039-.979-.078-2.467-.544.56-2.291.791-3.53.624-.151.247-.977 1.895-1.484 2.258-.559.402-3.053.26-3.224 1.879z" fill="#2358A5"/><path d="M242.767 127.949l-.085.149c-.675 1.172-4.324 7.907-6.027 11.049 1.975-8.122.602-16.244.602-16.244l5.51 5.046z" fill="#ED7D2B"/><path d="M209.733 87.828s-.339-3.691 3.788-3.691c0 0-1.25.339-1.897 1.018 0 0 2.632-1.544 5.495.828 2.864 2.373 1.085 8.325 1.956 9.455.871 1.131 4.263 1.357 3.848 5.011-.415 3.654-10.765 8.231-10.099 11.253 0 0-4.056-5.959-1.156-8.679 0 0-1.414 1.331-1.558 2.913 0 0-.383-3.088 1.583-4.076 1.74-.874 3.166-4.072 3.015-4.643-.151-.575-4.975-9.39-4.975-9.39z" fill="#202D4F"/><path d="M215.558 103.329s-5.871 14.808-7.136 14.259c-1.264-.548-8.721-2.915-8.721-2.915s.266 2.112.386 2.207c1.091.865 6.581 5.096 9.868 5.311 3.652.24 8.595-10.512 8.595-10.512l-2.992-8.35z" fill="#FFB27D"/><path d="M210.9 87.309c-.056-.225 4.888 2.233 5.139 2.512 2.319 2.57 1.657 5.925.331 5.958-.851.02-.686 1.435-.686 1.435l-9.48-4.009s1.141-6.653 4.696-5.896z" fill="#202D4F"/><path d="M214.086 103.637s-1.263 1.307-1.263 5.219c0 0 1.74 2.745 6.251 3.44 0 0-3.879-8.66-4.988-8.659z" fill="#1C468A"/><path d="M236.095 119.523l-.03-1.6c3.19.402 10.997-3.81 10.997-3.81s3.337 2.219 3.793 8.554c.223 3.092 1.633 16.17 1.79 20.073.057 1.415.076 2.426.082 2.829v.004c.002.123.06.232.135.33.66.839 1.232 1.728 1.728 2.648 4.866 9.051 2.323 21.35 2.323 21.35l-1.13-.288s-4.115-12.748-6.804-18.264c-.456-.935-.871-1.663-1.217-2.083-1.011-1.228-2.078-3.313-3.129-5.822-1.988-4.745-8.538-23.921-8.538-23.921z" fill="#F99746"/><path d="M250.106 170.244h8.559s.205-1.304-.242-2.293c-.429-.949-1.099-1.382-.939-2.53-.544.56-1.43 1.186-2.667 1.021-.151.246-.979 1.56-1.485 1.924-.559.401-3.052.259-3.226 1.878z" fill="#2358A5"/><path d="M219.653 114.134c1.15.196-.188 1.11 1.393 1.281 2.251.245 4.574.414 5.792.899.444.178.741.396.833.675.528 1.586 2.853 4.032 2.853 4.032 14.903-.677 16.54-6.909 16.54-6.909-9.673-9.391-18.566-14.928-25.356-15.661-1.162-.127-2.632.61-3.679 1.077-2.378 1.059-3.942 4.109-3.942 4.109s1.197 9.752 5.566 10.497z" fill="#1C468A"/><path d="M221.045 115.415c2.25.245 4.574.414 5.792.899.497-7.43-3.011-13.019-3.011-13.019s-2.288 9.308-2.781 12.12z" fill="#163560"/><path d="M219.104 102.037s5.66-.309 6.664 3.242c1.005 3.552-1.886 17.729-2.51 19.193-1.135 2.664-6.658 10.267-6.658 10.267l-1.523-.783s3.176-11.451 3.998-12.6c1.289-1.804-1.665-17.773.029-19.319z" fill="#FFB27D"/><path d="M215.478 132.895s-.472 1.668-1.395 2.591c-.425.425-.804 1.702-.823 2.362 0 0-.069.546.169.491.238-.052.503-1.234.927-1.176 0 0-.226 1.32-.45 1.693-.225.371-.357 1.522-.038 1.661.771.34 1.912-1.114 2.592-2.028.679-.912.01-4.615.01-4.615l-.992-.979z" fill="#FFB27D"/><path d="M226.886 110.029c-.015.084-5.356.983-8.697-.713 0 0-2.79-8.739 1.197-8.321 3.989.418 6.349 1.673 6.451 3.582.101 1.909 1.049 5.452 1.049 5.452z" fill="#1C468A"/><path d="M218.028 99.528s-1.574 5.869-3.941 4.109c.066-.283-.347-1.107-.834-1.943-.622-1.069-1.362-2.161-1.362-2.161l3.203-2.806.191-.167c.98 1.712 1.942 2.385 2.743 2.968z" fill="#FFB27D"/><path d="M211.891 99.534s.74 1.09 1.362 2.16c1.991-1.227 1.994-3.69 1.84-4.967l-3.202 2.807z" fill="#ED985F"/><path d="M211.801 100.939s4.833-2.69 3.113-5.672c-1.723-2.984-2.257-5.34-5.416-3.75-3.16 1.591-3.097 3.072-2.766 4.207.333 1.137 3.768 5.838 5.069 5.215z" fill="#FFB27D"/><path d="M205.917 93.985c.221-1.324.895-1.451 1.364-1.362 1.785-2.952 4.702-1.8 4.702-1.8 1.558 1.955 3.81 2.288 3.81 2.288s-.562 1.044-2.873 1.69c-.705.198-1.508.077-2.279-.182a12.932 12.932 0 0 0 3.28 1.236c-3.046.278-5.944-2.505-6.245-2.802-.141.43-.387 1.334-.239 1.994.201.897.997 2.522.51 2.732 0-.002-2.363-1.808-2.03-3.794z" fill="#202D4F"/><path d="M200.621 115.277s-.783.349-1.58-.466c-.406-.416-1.135-.642-.759-.865.377-.223 1.38.235 1.617.316.237.081.722 1.015.722 1.015z" fill="#FFB27D"/><path d="M134.581 69.078c.009-.247.201-2.916 4.269-3.056 0 0-2 .24-2.346 1.118 0 0 1.361-1.087 2.47-.736 1.109.349 1.761 2.292 1.768 2.93.006.639-.61 2.698-1.313 2.874-.267.066-.573.048-.852.001.188.292.371.615.546.975 1.622 3.33-.052 6.586-1.425 6.225-.882-.23-1.131 1.273-1.131 1.273l-8.561-6.929c-.002-.001 3.144-6.505 6.575-4.675z" fill="#2C3A64"/><path d="M131.6 167.192l1.819.678s7.898-10.951 8.87-20.585c.174-1.721.116-3.388-.259-4.926 0 0 .078-.441.212-1.22l.228-1.304c.257-1.471.61-3.482 1.014-5.774.93-5.274 2.132-12.015 3.068-16.97l-.49-.157-5.301-1.709-1.096-3.479-3.948-1.038s-.881 1.725-1.67 9.87a60.596 60.596 0 0 0-.377 3.526c-.307 3.9-.331 8.738.375 14.269.18 1.417.409 2.877.694 4.38.208 1.102.239 2.602.151 4.325-.398 7.874-3.29 20.114-3.29 20.114z" fill="#1C468A"/><path d="M133.67 124.102l8.573 17.035.227-1.303c.257-1.471.611-3.483 1.014-5.775.93-5.273 2.133-12.014 3.069-16.969l-.49-.157-5.302-1.71-1.096-3.478-5.127-2.842s-.001.793-.446 9.46c-.146 1.069-.322 4.461-.422 5.739z" fill="#163560"/><path d="M137.44 112.893l.198-1.701c3.325.883 12.594-3.245 12.594-3.245s2.836 3.609 2.414 10.392c-.207 3.311-.584 17.381-.977 21.546a122.622 122.622 0 0 1-.319 3.012l-.001.004a.594.594 0 0 0 .097.369 19.568 19.568 0 0 1 1.453 3.056c3.866 10.295-.595 22.974-.595 22.974l-1.158-.467s-2.538-14.109-4.6-20.343c-.351-1.057-.685-1.889-.993-2.384-.897-1.448-1.73-3.812-2.484-6.623-1.427-5.315-2.576-12.23-3.342-17.567-.652-4.523-2.287-9.023-2.287-9.023z" fill="#1C468A"/><path d="M113.849 106.756l-.258 1.956s1.178-.157 1.371-.17c.606-.041 2.397-.157 4.062-.336 2.505-.247 4.321-.305 5.505-1.033 1.802-1.1 4.761-4.471 6.687-7.841.056-.082.097-.164.138-.248 1.005-1.79 1.706-3.563 1.762-4.98a7.166 7.166 0 0 0-.233-2.255 5.728 5.728 0 0 0-1.018-2.036c-.056-.082-.11-.164-.192-.233-.661-.784-1.307-1.114-1.307-1.114-.33-.138-1.428 1.192-1.799 1.59l-.311.923c-.302.317-3.628 11-5.127 12.664-.647.716-3.66 1.839-6.405 2.6-1.785.49-2.875.513-2.875.513z" fill="#F2A16B"/><path d="M131.089 92.26c1.043.483 2.304.813 3.829.895 5.715.314 7.013-4.695 7.249-8.02-.824-.297-1.546-.27-1.961-.247-.331.017-.675.05-.98.083a.553.553 0 0 1-.403-.113c-.721-.564-1.816-2.274-2.475-4.97l-.247.115-4.125 1.939s.439 1.341.762 2.625c.139.555.258 1.102.309 1.525a.903.903 0 0 1-.547.937l-.001.004c-.041.106-.938 2.39-1.41 5.226z" fill="#FFB27D"/><path d="M151.426 109.805c-.047 2.114-14.935 3.987-17.497 2.569 0 0-.664-3.204-1.511-6.804a200.797 200.797 0 0 0-.799-3.279c-.644-2.534-1.307-4.845-1.816-5.943a4.634 4.634 0 0 1-.143-.34c-1.141-3.024.995-6.256-.479-7.212 0 0 .874-.805 3.321-1.766l-.002.004c-.038.143-.256 2.15.163 2.935.828 1.551 4.062.74 5.537-1.175.865-1.12 1.534-2.254 1.838-3.314.069-.239.168-.592.168-.592s2.729-.37 4.26.25c0 0-.605 1.314-.827 2.765a8.195 8.195 0 0 0-.053.415 5.638 5.638 0 0 0-.022.87c.022.376.217.71.527 1.037.283.3.666.594 1.099.911.284.205.588.42.902.654.028 1.707-.093 4.515.223 7.511.079.761.333 1.487.729 2.131.158.258.339.5.54.727 1.613 1.805 3.896 7.399 3.842 7.646z" fill="#F99746"/><path d="M131.978 81.943s.438 1.34.761 2.625c2.41-.672 3.142-3.206 3.364-4.563l-4.125 1.938z" fill="#ED985F"/><path d="M131.469 83.361s5.768-1.334 4.88-4.912c-.886-3.578-.739-6.16-4.459-5.46-3.72.701-4.095 2.242-4.09 3.51.007 1.266 2.146 7.117 3.669 6.862z" fill="#FFB27D"/><path d="M127.478 74.469c.62-1.296 1.349-1.227 1.805-.997 2.71-2.506 5.369-.46 5.369-.46 1.023 2.472 3.241 3.48 3.241 3.48s-.886.907-3.455.888c-.785-.006-1.572-.367-2.291-.862a13.854 13.854 0 0 0 3.007 2.242c-3.214-.615-5.37-4.335-5.592-4.731-.273.402-.794 1.258-.838 1.981-.06.983.279 2.889-.284 2.96.003 0-1.893-2.557-.962-4.501z" fill="#2C3A64"/><path d="M129.179 88.794s-.512.295-1.448 3.153c0 0 1.073 1.331 2.38 1.207 0 .001.174-4.033-.932-4.36z" fill="#F99746"/><path d="M145.574 170.244h9.16s.22-1.396-.258-2.453c-.458-1.017-1.177-1.478-1.005-2.707-.582.598-1.53 1.27-2.855 1.092-.163.263-1.047 1.67-1.589 2.059-.6.43-3.268.276-3.453 2.009zM125.909 170.244h9.16s.342-1.461-.26-2.453c-.532-.88-.328-1.38.066-2.108-.415.171-.952.325-1.543.291-.456-.027-.939-.233-1.363-.48-.394.449-2.081 2.361-2.61 2.741-.597.43-3.266.276-3.45 2.009z" fill="#2358A5"/><path d="M117.636 100.324s-.804-1.082-1.306-1.309c-.501-.227-.977-1.623-1.254-1.197-.169.26.258 1.228.15 1.446-.11.219-1.218-.243-1.412-.552-.13-.209-1.271-1.586-1.298-.95-.026.634.971 3.071 1.463 3.381.491.311 2.351.729 2.351.729l1.306-1.548z" fill="#FFB27D"/><path d="M142.599 94.387c-2.071 5.065-10.042 11.338-10.042 11.338l-.138-.155a211.696 211.696 0 0 0-.8-3.279l8.491-7.903h2.489v-.001z" fill="#ED7D2B"/><path d="M116.592 100.427l-.26 1.445s4.556 1.041 5.56 1.261l.012.006c1.735.344 3.692.699 5.398.878 1.204.116 2.283.142 3.073.037.08-.009.147-.024.234-.044 1.951-.389 5.128-2.713 8.019-5.44.401-.376.788-.759 1.171-1.128 1.397-1.388 2.657-2.807 3.612-4.093.579-.764 1.06-1.481 1.379-2.106.116-.218.226-.425.306-.632 1.645-3.635.074-4.964.074-4.964-.033-.029-.063-.06-.107-.095-.289-.194-.713-.13-1.24.126-.662.317-1.496.947-2.425 1.747-1.455 1.284-10.182 11.904-12.218 12.309-1.768.35-12.588.693-12.588.693z" fill="#FFB27D"/><path d="M144.25 85.06s1.778.498 1.934 2.36c.155 1.862-.087 7.626-.087 7.626s-5.813-1.666-8.181-5.22c0 0 4.269-4.721 6.334-4.767z" fill="#F99746"/><path d="M235.457 16.138C237.679 7.508 241.434 0 251.602 0c8.915 0 17.003 7.85 16.415 17.527-.541 8.896-8.269 16.432-17.73 15.373-8.861-.992-17.374-6.878-14.83-16.762z" fill="#AFCDFB"/><path opacity=".8" d="M249.203 27.12c0-.314.053-.605.16-.875a2.11 2.11 0 0 1 .454-.706 2.01 2.01 0 0 1 .723-.47c.286-.112.614-.169.983-.169.37 0 .698.057.984.168.286.112.527.269.723.47.196.203.348.438.454.707.107.269.16.561.16.875 0 .616-.202 1.132-.605 1.546-.403.414-.976.622-1.715.622-.739 0-1.312-.207-1.715-.622-.404-.414-.606-.929-.606-1.546zm4.018-5.278h-3.515l-.386-17.261h4.304l-.403 17.261z" fill="#fff"/><path d="M247.152 67.325L269 70.435l-14.5-9.874-.737 3.166-5.313.963-1.298 2.635z" fill="#EDCBAB"/><path d="M269 70.435l-18.182-9.366L233 60.18l36 10.256zM254.5 60.56l14.5 9.875L257.773 55l-3.273 5.56z" fill="#F9DDBF"/><path d="M320.955 95.96s-.56-.924-.903-1.436c-.343-.511-1.025-1.149-1.2-.984-.176.164.524.84.493 1.066-.031.227-1.204-.533-1.329-.703-.255-.343-.925-.712-1.007-.281-.082.43.416 1.784.642 2.174.227.389 1.171 1.004 1.694 1.189.522.184 1.417.615 1.417.615l.193-1.64z" fill="#FFB27D"/><path d="M344.719 65.587c-2-1.037-3.602-.384-3.602-.384-6.117-.718-7.902 6.413-7.819 8.868.082 2.454.362 5.09-2.37 8.277-7.891 9.209 8.635 9.615 8.635 9.615.14-7.358 8.963-4.673 8.577-3.927 11.311 2.712 1.126-20.09-3.421-22.449z" fill="#163560"/><path d="M336.678 96.79s-.584 1.157-1.645 2.486c-1.278 1.6-3.249 3.449-5.725 3.815-1.181.174-2.338-.08-3.401-.552l-.003-.001c-3.006-1.333-5.265-4.401-5.265-4.401-.531-1.445.336-2.424.336-2.424s6.069 1.365 6.647 1.076c.579-.288 3.951-10 4.753-11.22.803-1.22 3.539-1.854 3.539-1.854l.764 13.074z" fill="#F99746"/><path d="M335.033 99.276c-1.278 1.6-3.249 3.449-5.725 3.815-1.181.174-2.338-.08-3.401-.552.118.016 3.119.386 4.316-1.753 1.221-2.183 2.541-5.651 4.354-4.494.783.499.749 1.737.456 2.984z" fill="#ED7D2B"/><path d="M359.322 162.28s1.852 1.69 1.491 2.89c-.362 1.2-2.033 2.001-2.258 3.468-.227 1.467-1.129 2.268-1.942 2.268h-3.876s-.599-1.032.847-1.344c1.445-.312 1.99-2.036 1.9-3.636-.09-1.599.135-3.734.135-3.734l3.071-.712.632.8zM343.646 162.998s.667 7.158-.147 7.558l-10.405-.022s0-1.2 1.672-1.467c1.672-.266 4.607-1.244 5.104-3.423.498-2.179 3.776-2.646 3.776-2.646z" fill="#2358A5"/><path d="M351.063 111.649c-2.142-4.8-3.451-6.178-3.201-7.668.186-1.108-.568-20.675-.568-20.675-.254-.08-.763-.149-1.042-.21a2.616 2.616 0 0 1-1.908-1.66c-.364-1.02-.654-2.527-.646-4.415l-.275.054-4.612.913s.105 1.451.108 2.817v.034a2.652 2.652 0 0 1-1.914 2.565l-1.088.311s-1.694 4.833-2.018 9.798c-.323 4.966 3.08 7.123-.026 17.045-3.171 10.134 18.372 3.744 17.19 1.091z" fill="#FFB27D"/><path d="M338.811 77.988s.105 1.451.108 2.817c2.581-.073 3.946-2.426 4.504-3.73l-4.612.913z" fill="#E8945B"/><path d="M337.948 79.283s6.106.1 6.111-3.702c.005-3.802.796-6.35-3.103-6.575-3.899-.225-4.658 1.224-4.968 2.493-.31 1.27.372 7.66 1.96 7.784z" fill="#FFB27D"/><path d="M338.175 68.914s1.672 4.46 4.237 5.12c2.565.661 3.679-.027 3.679-.027s-1.968-1.563-2.376-4.291c0 0-4.279-2.926-5.54-.802z" fill="#163560"/><path d="M338.589 69.275s-1.239.464-1.749 1.368c-.5.883-.925 2.054-.826 3.491 0 0-1.259-3.032.156-4.747 1.501-1.819 2.419-.112 2.419-.112z" fill="#163560"/><path d="M339.279 76.925s-.422.553-1.264.514c-.68-.032-.942-.621-.942-.621s1.247-.3 2.206.107z" fill="#EBF3FA"/><path d="M351.653 91.962s.155 2.185 0 4.807c-.104 1.738-1.863 4.067-2.113 4.643-.626 1.445-1.332 1.679-1.332 1.679l-5.464 1.338-1.922.47-6.058-1.808s-2.759-7.699-1.651-12.032c1.107-4.333 2.801-7.342 2.801-7.342s4.943 4.838 11.379-.411l4.36 8.656z" fill="#F99746"/><path d="M350.053 97.48c-.104 1.737-.264 3.356-.512 3.932-.626 1.445-1.332 1.679-1.332 1.679l-5.464 1.338-2.373-.697s7.921-1.2 7.043-8.013l2.638 1.76z" fill="#F2CCAA"/><path d="M335.151 104.26s-2.999 9.335-3.193 12.513c-.193 3.178 5.735 45.146 5.972 46.611.225 1.38 1.939 2.26 1.939 2.26s.788.465 1.914.148c1.562-.441 2.055-.969 2.055-.969s2.336-29.931.89-40.624c-1.445-10.693-1.462-19.939-1.462-19.939h-8.115z" fill="#163560"/><path d="M347.86 103.981s4.577 6.138 5.003 10.287c.427 4.148.67 18.723 1.579 22.768.909 4.045 4.248 11.829 4.248 24.444 0 0-.347.723-1.419 1.109a11.75 11.75 0 0 1-1.247.344 1.962 1.962 0 0 1-2.194-1.041c-2.258-4.544-9.45-19.199-9.818-22.241-.26-2.153-2.531-16.401-7.485-24.762-1.189-2.007.731-9.988.731-9.988l10.602-.92z" fill="#1C468A"/><path d="M339.141 77.025s-.105.449-1.22.379c0 0-.937-.057-.908-.55 0 .001.909-.35 2.128.171z" fill="#fff"/><path d="M334.671 102.818s1.205.952 3.597 1c2.858.058 9.938-.728 9.938-.728s.315.879.303 1.806c0 0-8.648 2.181-13.659.318 0 .003-.647-1.214-.179-2.396z" fill="#233862"/><path d="M337.582 106.28c-.72 0-1.305-.662-1.305-1.476 0-.813.585-1.475 1.305-1.475.719 0 1.304.662 1.304 1.475 0 .816-.585 1.476-1.304 1.476zm0-2.517c-.481 0-.872.468-.872 1.043s.391 1.043.872 1.043c.48 0 .871-.468.871-1.043s-.391-1.043-.871-1.043z" fill="#fff"/><path d="M346.974 92.385l-8.861 7.712 10.562 12.125 8.861-7.712-10.562-12.125z" fill="#AFCDFB"/><path d="M346.209 104.536s-3.445.529-3.436 1.299c.011.771.712 2.165 1.409 2.275.884.139 2.643-2.141 2.643-2.141l-.616-1.433z" fill="#FFB27D"/><path d="M346.136 104.718s-1.154-.422-2.001-.248c-.847.173-1.63.046-1.436.353.192.309 1.338.194 1.52.315.181.121.184.045.184.045l1.733-.465z" fill="#FFB27D"/><path d="M347.295 83.306s4.335.304 5.996 4.34c1.661 4.038 4.814 10.818 4.814 11.957 0 1.141-1.761 4.656-11.218 6.677 0 0-.979-1.028-.918-1.841 0 0 5.902-5.07 5.887-5.662-.029-1.121-.968-2.6-6.151-7.783-1.41-1.408 1.59-7.688 1.59-7.688z" fill="#F99746"/></svg>