<svg width="209" height="176" viewBox="0 0 209 176" fill="none" xmlns="http://www.w3.org/2000/svg"><path d="M109.684 175.092h.048a.493.493 0 0 0 .492-.503l-.746-32.291-2.197-.256 1.874 32.549a.528.528 0 0 0 .529.501z" fill="#B0D4FF"/><path d="M122.491 175.092h.048a.493.493 0 0 0 .492-.503l-.746-32.291-2.197-.256 1.874 32.549a.528.528 0 0 0 .529.501z" fill="#95C0F4"/><path d="M87.15 175.092h-.047a.493.493 0 0 1-.493-.503l.746-32.291 2.198-.256-1.875 32.549a.528.528 0 0 1-.529.501zM123.947 140.296v-22.128c0-3.894-3.161-7.05-7.06-7.05h-15.965c-3.9 0-7.06 3.156-7.06 7.05v22.973l30.085-.845z" fill="#B0D4FF"/><path d="M91.003 143.789h30.825a2.12 2.12 0 0 0 2.12-2.117v-1.376H91.003v3.493z" fill="#95C0F4"/><path d="M87.308 143.789h23.32c.866 0 1.568-.7 1.568-1.566v-.363c0-.864-.701-1.566-1.568-1.566h-23.32c-.865 0-1.568.701-1.568 1.566v.363a1.567 1.567 0 0 0 1.568 1.566z" fill="#CAE5FF"/><path d="M141.046 23.836H49.011v79.336h92.035V23.836z" fill="#95C0F4"/><path d="M139.255 25.156H50.762v76.432h88.493V25.156z" fill="#DFEDFB"/><path d="M81.692 58.412H62.3v-24.18l3.288-2.96h16.103v27.14z" fill="#fff"/><path d="M62.3 34.232h3.183l.106-2.96-3.288 2.96zM75.1 33.626h-6.208v.295H75.1v-.295zM76.562 34.511H67.43v.295h9.133v-.295zM79.759 40.2H64.596v.38h15.163v-.38zM79.759 41.353H64.596v.379h15.163v-.38zM79.759 42.505H64.596v.38h15.163v-.38zM79.759 43.658H64.596v.38h15.163v-.38zM79.759 55.996H64.596v.379h15.163v-.38z" fill="#B0D4FF"/><path d="M104.082 91.96H84.69V67.777l3.29-2.96h16.102V91.96z" fill="#fff"/><path d="M84.69 67.778h3.184l.105-2.96-3.289 2.96zM97.492 67.173h-6.21v.295h6.21v-.295zM98.952 68.059H89.82v.295h9.132v-.295zM102.15 73.747H86.987v.38h15.163v-.38zM102.15 74.9H86.987v.38h15.163v-.38zM102.15 76.053H86.987v.379h15.163v-.38zM102.15 77.205H86.987v.38h15.163v-.38zM102.15 80.753H86.987v.379h15.163v-.38zM102.15 81.905H86.987v.38h15.163v-.38zM102.15 83.242H86.987v.38h15.163v-.38zM115.025 31.271h-10.707V40.7h10.707v-9.427z" fill="#B0D4FF"/><path d="M109.203 32.394a.469.469 0 1 1 .938.001.469.469 0 0 1-.938 0z" fill="#FFA412"/><path d="M114.687 43.671l-10.682.745.657 9.404 10.682-.744-.657-9.405z" fill="#fff"/><path d="M108.994 45.768a.468.468 0 1 1 .934-.065.468.468 0 0 1-.934.065z" fill="#B0D4FF"/><path d="M79.103 78.399l-10.681.744.657 9.404 10.681-.744-.657-9.404z" fill="#fff"/><path d="M73.412 80.496a.469.469 0 1 1 .936-.064.469.469 0 0 1-.936.064z" fill="#B0D4FF"/><path d="M65.658 85.141l-10.707.11.098 9.426 10.706-.11-.097-9.426z" fill="#fff"/><path d="M59.856 86.92a.468.468 0 1 1 .936-.009.468.468 0 0 1-.936.01z" fill="#B0D4FF"/><path d="M130.895 51.228l-10.54-1.88-1.661 9.28 10.541 1.88 1.66-9.28z" fill="#EEF6FF"/><path d="M124.999 51.48a.407.407 0 1 1 .802.143.407.407 0 0 1-.802-.143z" fill="#78ACEA"/><path d="M98.003 43.473l-10.645 1.15 1.016 9.373 10.645-1.15-1.016-9.373z" fill="#EEF6FF"/><path d="M92.413 45.362a.407.407 0 0 1 .362-.448.407.407 0 1 1 .088.808.407.407 0 0 1-.45-.36z" fill="#78ACEA"/><path d="M70.202 65.763l-10.472 2.23 1.969 9.22 10.471-2.23-1.968-9.22z" fill="#BAE8E3"/><path d="M65.016 68.458a.408.408 0 1 1 .444-.684.408.408 0 0 1-.444.684z" fill="#FFA412"/><path d="M98.282 40.699h-10.19V33.86l2.821-2.59h7.37V40.7z" fill="#fff"/><path d="M88.036 33.861h2.785l.092-2.59-2.877 2.59zM93.225 32.144a.335.335 0 0 1 .67 0 .336.336 0 0 1-.67 0z" fill="#B0D4FF"/><path d="M128.061 96.671h-10.192v-6.837l2.821-2.588h7.371v9.425z" fill="#fff"/><path d="M117.815 89.834h2.783l.093-2.588-2.876 2.588zM123.002 88.118a.335.335 0 1 1 .67.001.335.335 0 0 1-.67 0z" fill="#B0D4FF"/><path d="M132.71 83.103h-10.192v-6.84l2.823-2.588h7.369v9.428z" fill="#fff"/><path d="M122.464 76.264h2.784l.093-2.588-2.877 2.588zM127.652 74.548a.335.335 0 1 1 .67.001.335.335 0 0 1-.67-.001z" fill="#B0D4FF"/><path d="M119.261 83.103h-10.192v-6.84l2.821-2.588h7.371v9.428z" fill="#BAE8E3"/><path d="M109.014 76.264h2.783l.093-2.588-2.876 2.588z" fill="#A1D6CE"/><path d="M114.201 74.548a.336.336 0 0 1 .67 0 .335.335 0 0 1-.67 0z" fill="#F99746"/><path d="M135.585 38.34h-10.191V31.5l2.821-2.588h7.37v9.427z" fill="#BAE8E3"/><path d="M125.34 31.5h2.783l.093-2.588-2.876 2.588z" fill="#A1D6CE"/><path d="M130.527 29.785a.335.335 0 1 1 .67 0 .335.335 0 0 1-.67 0z" fill="#F99746"/><path d="M34.804 21.916H15.418c-.89 0-1.618-.727-1.618-1.615V1.616C13.8.727 14.53 0 15.418 0h19.386c.89 0 1.618.727 1.618 1.616v18.683c0 .89-.728 1.617-1.618 1.617z" fill="#C0D8FB"/><path d="M33.964 20.967H16.258a1.482 1.482 0 0 1-1.478-1.476V2.426c0-.812.664-1.477 1.478-1.477h17.706c.813 0 1.479.664 1.479 1.477V19.49c0 .812-.666 1.476-1.479 1.476z" fill="#DFEBFD"/><path d="M24.643 2.95a.468.468 0 1 1 .935 0 .468.468 0 0 1-.935 0zM28.424 3.612a.469.469 0 1 1 .818.456.469.469 0 0 1-.819-.456zM31.664 6.182a.47.47 0 1 1 0 0zM33.268 10.16a.468.468 0 1 1 0 .936.468.468 0 0 1 0-.936zM32.448 14.776a.468.468 0 1 1-.661.662.468.468 0 0 1 .66-.662zM29.506 17.722a.468.468 0 1 1-.661.662.468.468 0 0 1 .66-.662zM24.643 19.24a.468.468 0 1 1 .935 0 .468.468 0 0 1-.935 0zM21.784 3.612a.469.469 0 1 0-.819.456.469.469 0 0 0 .819-.456zM18.545 6.182a.47.47 0 1 0 0 0zM16.94 10.16a.468.468 0 1 0 0 .936.468.468 0 0 0 0-.936zM17.76 14.776a.468.468 0 1 0 .66.662.468.468 0 0 0-.66-.662zM20.701 17.722a.468.468 0 1 0 .662.662.468.468 0 0 0-.662-.662zM24.985 10.627a.47.47 0 1 1 .938.001.47.47 0 0 1-.938 0z" fill="#B7D3F3"/><path d="M25.517 4.781h-.128v5.846h.128V4.781z" fill="#B7D3F3"/><path d="M28.379 8.034l-3.103 2.433.237.301 3.103-2.433-.237-.301z" fill="#B7D3F3"/><path d="M194.2 81.244c.441-.85-9.623-3.908-9.781 4.475 0 0-18.851-.463-9.85-10.955 3.115-3.632 2.795-6.635 2.702-9.43-.095-2.797 1.941-10.922 8.918-10.104 0 0 1.827-.742 4.107.439 5.187 2.686 16.803 28.667 3.904 25.575z" fill="#163560"/><path d="M163.381 90.617s-1.228-1.865-2.216-1.902c-.989-.037-2.82-.549-2.674-.183.147.366 1.282.402 1.392.622.11.22-1.685.548-2.198.585-.512.036-1.721 0-1.684.256.036.256 2.178 1.316 3.689 1.17 1.511-.146 3.379.44 3.379.44l.312-.988z" fill="#FFB27D"/><path d="M181.127 91.22s-.668 1.319-1.878 2.833c-1.458 1.823-3.705 3.93-6.529 4.346-1.348.2-2.667-.09-3.879-.628l-.005-.002c-3.427-1.52-6.006-5.014-6.006-5.014-.605-1.645.384-2.761.384-2.761s6.923 1.555 7.582 1.225c.66-.329 4.505-11.392 5.421-12.783.917-1.39 4.036-2.112 4.036-2.112l.874 14.895z" fill="#B0D0FF"/><path d="M179.249 94.054c-1.458 1.823-3.705 3.93-6.529 4.347-1.349.199-2.667-.091-3.88-.629.135.018 3.558.44 4.923-1.998 1.391-2.488 2.897-6.437 4.965-5.12.894.567.855 1.978.521 3.4z" fill="#98BAF4"/><path d="M206.954 165.838s2.112 1.924 1.699 3.292c-.412 1.368-2.318 2.28-2.576 3.951-.257 1.672-1.288 2.583-2.215 2.583h-4.421s-.683-1.177.965-1.53c1.648-.355 2.271-2.319 2.168-4.144-.103-1.823.154-4.255.154-4.255l3.504-.81.722.913zM189.075 166.655s.76 8.155-.167 8.61l-11.868-.025s0-1.368 1.906-1.671c1.905-.303 5.254-1.418 5.821-3.901.567-2.481 4.308-3.013 4.308-3.013z" fill="#233862"/><path d="M197.532 108.152c-2.443-5.47-3.936-7.04-3.651-8.737.213-1.263-.647-23.556-.647-23.556-.291-.09-.871-.17-1.189-.24a2.975 2.975 0 0 1-2.175-1.89c-.415-1.162-.746-2.88-.738-5.03l-.313.06-5.261 1.041s.12 1.653.124 3.21v.04a3.02 3.02 0 0 1-2.184 2.921c-.664.191-1.242.355-1.242.355s-1.932 5.507-2.301 11.163c-.369 5.658 3.513 8.115-.03 19.419-3.614 11.546 20.957 4.265 19.607 1.244z" fill="#FFB27D"/><path d="M183.559 69.799s.119 1.652.123 3.21c2.944-.083 4.499-2.765 5.137-4.25l-5.26 1.04z" fill="#E8945B"/><path d="M182.575 71.274s6.965.115 6.969-4.218c.006-4.331.908-7.234-3.538-7.491-4.447-.256-5.312 1.395-5.666 2.841-.354 1.447.425 8.727 2.235 8.868z" fill="#FFB27D"/><path d="M182.833 59.459s1.907 5.082 4.833 5.833c2.926.752 4.195-.03 4.195-.03s-2.245-1.782-2.71-4.889c0 0-4.879-3.333-6.318-.914z" fill="#163560"/><path d="M183.306 59.872s-1.413.528-1.996 1.557c-.57 1.008-1.054 2.341-.942 3.977 0 0-1.436-3.454.178-5.408 1.712-2.072 2.76-.126 2.76-.126z" fill="#163560"/><path d="M184.09 68.587s-.48.63-1.441.586c-.775-.037-1.073-.707-1.073-.707s1.422-.343 2.514.12z" fill="#EBF3FA"/><path d="M198.203 85.719s.177 2.49 0 5.477c-.118 1.98-2.124 4.634-2.409 5.29-.714 1.645-1.519 1.913-1.519 1.913l-6.231 1.525-2.191.536-6.909-2.06s-3.147-8.772-1.884-13.71c1.264-4.936 3.194-8.365 3.194-8.365s5.639 5.512 12.98-.468l4.969 9.862z" fill="#B0D0FF"/><path d="M196.381 92.005c-.118 1.98-.3 3.825-.585 4.48-.715 1.646-1.519 1.915-1.519 1.915l-6.231 1.525-2.706-.796s9.035-1.366 8.033-9.129l3.008 2.005z" fill="#F2CCAA"/><path d="M179.384 99.731s-3.423 10.635-3.642 14.256c-.22 3.62 6.54 51.438 6.813 53.106.256 1.573 2.212 2.575 2.212 2.575s.899.53 2.184.168c1.781-.502 2.344-1.104 2.344-1.104s2.662-34.102 1.014-46.284c-1.648-12.182-1.667-22.717-1.667-22.717h-9.258z" fill="#ED7D2B"/><path d="M193.881 99.414s5.219 6.993 5.706 11.72c.487 4.727.764 21.333 1.8 25.94 1.036 4.608 4.845 13.477 4.845 27.851 0 0-.396.823-1.618 1.262-.391.141-.914.276-1.423.393a2.24 2.24 0 0 1-2.503-1.187c-2.574-5.176-10.777-21.874-11.198-25.34-.297-2.453-2.888-18.686-8.537-28.212-1.356-2.286.833-11.382.833-11.382l12.095-1.045z" fill="#F99746"/><path d="M183.936 68.702s-.121.51-1.392.432c0 0-1.067-.067-1.035-.627 0 0 1.035-.399 2.427.195z" fill="#fff"/><path d="M178.837 98.09s1.374 1.084 4.103 1.14c3.259.065 11.335-.83 11.335-.83s.36 1 .345 2.058c0 0-9.864 2.484-15.58.363 0 0-.736-1.385-.203-2.732z" fill="#233862"/><path d="M183.645 100.354c0-.927-.667-1.68-1.486-1.68-.821 0-1.488.753-1.488 1.68 0 .926.667 1.681 1.488 1.681.819 0 1.486-.755 1.486-1.681zm-.493 0c0 .656-.447 1.189-.995 1.189s-.994-.533-.994-1.189.446-1.19.994-1.19.995.534.995 1.19z" fill="#fff"/><path d="M204.899 100.008l-10.107 8.788-12.047-13.815 10.107-8.788 12.047 13.815z" fill="#B5453C"/><path d="M191.997 100.045s-3.703.432-3.691 1.31c.012.878.922 2.68 1.379 2.76.457.08 3.014-2.438 3.014-2.438l-.702-1.632z" fill="#FFB27D"/><path d="M193.235 75.857s4.944.347 6.839 4.947c1.895 4.6 5.491 12.324 5.491 13.623 0 1.299-2.009 5.305-12.795 7.608 0 0-1.116-1.172-1.049-2.098 0 0 6.734-5.776 6.716-6.45-.034-1.277-1.104-2.962-7.015-8.868-1.609-1.606 1.813-8.762 1.813-8.762z" fill="#B0D0FF"/><path d="M16.372 175.178h-.047a.492.492 0 0 1-.493-.502l.746-32.292 2.198-.256-1.875 32.549a.528.528 0 0 1-.529.501z" fill="#B0D4FF"/><path d="M3.565 175.178h-.047a.492.492 0 0 1-.493-.502l.746-32.292 2.198-.256-1.875 32.549a.528.528 0 0 1-.529.501z" fill="#95C0F4"/><path d="M38.904 175.178h.048a.492.492 0 0 0 .492-.502l-.746-32.292-2.197-.256 1.875 32.549a.528.528 0 0 0 .529.501zM2.108 140.383v-22.128c0-3.894 3.16-7.05 7.06-7.05h15.965c3.9 0 7.06 3.156 7.06 7.05v22.973l-30.085-.845z" fill="#B0D4FF"/><path d="M35.054 143.876H4.228c-1.17 0-2.12-.948-2.12-2.117v-1.376h32.946v3.493z" fill="#95C0F4"/><path d="M38.747 143.876h-23.32a1.567 1.567 0 0 1-1.568-1.566v-.363c0-.864.7-1.566 1.568-1.566h23.32c.865 0 1.568.7 1.568 1.566v.363c0 .864-.701 1.566-1.568 1.566z" fill="#B0D4FF"/><path d="M37.842 134.868c-2.286 3.976-5.163 5.51-5.163 5.51H20.71c0-.001 18.876-8.542 17.131-5.51z" fill="#233862"/><path d="M28.652 165.623c-.312.357-.352.756-.197 1.181a.01.01 0 0 0 .003.005c.285.787 1.229 1.668 2.323 2.545.14.113.265.216.373.311.029.024.057.05.084.074l.064.058c1.021.94.637 1.156 2.473 3.064 2.093 2.174 3.533 2.213 3.943 2.015.347-.169-.358-1.321-1.138-2.618l-.114-.189c-.105-.172-.208-.347-.31-.52-.915-1.561-.68-2.292-.463-4.614.176-1.886 2.939-10.537 2.939-10.537l-4.01-.69s-1.207 6.889-2.537 7.951c-.713.565-1.509.573-2.192.991-.05.029-.097.06-.143.09-.39.26-.786.525-1.098.883z" fill="#FFB27D"/><path d="M28.652 165.623c-.312.357-.352.756-.197 1.181a.01.01 0 0 0 .003.005c.35.787 1.268 1.662 2.327 2.537.139.115.26.22.37.319l.083.074.064.058c1.021.94.637 1.156 2.473 3.064 2.093 2.174 3.533 2.213 3.943 2.015.347-.169-.358-1.321-1.138-2.618-.407-.149-2.3-.917-3.73-2.744-1.26-1.605-2.1-3.668-2.959-4.864-.048.029-.096.06-.142.09-.39.26-.785.525-1.097.883z" fill="#233862"/><path d="M60.984 163.123c.248 1.236 2.011 1.029 3.983.548 1.971-.481 1.503.091 4.308-.219 2.805-.311 3.656-1.355 3.741-1.772.076-.37-1.309-.5-2.797-.67-.187-.021-.374-.045-.563-.068-1.679-.21-2.908-1.292-4.432-2.181-1.445-.841-3.6-4.269-3.6-4.269l-3.847.305s2.018 3.062 2.8 4.394c.46.782.435 1.819.377 2.618-.029.433-.057.877.03 1.314z" fill="#FFB27D"/><path d="M64.968 163.671c1.97-.481 1.503.091 4.308-.219 2.805-.311 3.655-1.355 3.74-1.772.077-.37-1.308-.5-2.796-.67l-.014.028s-1.682 1.191-4.017 1.247c-1.903.046-3.92-.498-5.233-.476-.03.434-.059.879.03 1.313.246 1.236 2.011 1.03 3.982.549zM46.24 138.557l-3.597 9.664-4.696 12.618s-1.274.123-2.494-.228c-1.123-.323-2.413-1.173-2.413-1.173s1.303-13.548 3.735-21.325c.624-1.997 1.322-3.611 2.093-4.52 3.772-4.45 7.372 4.964 7.372 4.964z" fill="#233862"/><path d="M42.583 123.208c-2.356-.758-9.077.215-15.828 1.535l-1.413-2.329-14.581-1.137s-4.811 10.655-2.177 17.444c.386.998 1.157 1.637 2.467 1.659h.213s8.678-.006 11.497-.006c7.251 0 15.346-4.977 16.394-5.186 1.715-.342 2.4 3.082 4.114 6.675 1.715 3.595 16.113 15.919 16.113 15.919s2.212.022 3.126-.321c.984-.369 1.343-.847 1.343-.847s-15.954-31.694-21.268-33.406z" fill="#2B478B"/><path d="M24.77 80.017c-1.868-.98-4.711-1.112-5.173-1.174-5.526-.741-8.85 7.276-9.047 9.706-.36 4.478-2.733 5.16-6.07 7.965-6.696 5.623-4.732 12.157-1.072 14.585 2.196 1.456 6.068 0 6.068 0 .054.038 10.588-5.88 15.78-8.735 7.785-1.105 4.273-19.85-.487-22.347z" fill="#233862"/><path d="M20.905 99.933c.023.015-2.554.894-4.278.131-1.62-.715-2.85-3.379-2.825-3.38.738-.034 1.548-.678 2.171-4.903l.315.112 5.28 1.897s-.382 1.692-.63 3.304c-.21 1.352-.322 2.648-.033 2.839z" fill="#FFB27D"/><path d="M21.567 93.79s-.382 1.692-.63 3.304c-3.033-.546-4.224-3.563-4.652-5.2l5.282 1.897z" fill="#ED975D"/><path d="M22.354 95.47s-7.226-.968-6.553-5.451c.673-4.484.194-7.629 4.836-7.2 4.641.427 5.279 2.273 5.418 3.824.14 1.551-1.805 8.964-3.701 8.827z" fill="#FFB27D"/><path d="M25.792 84.185s-4.625 3.98-7.77 4.3c-3.146.321-4.338-.688-4.338-.688s1.854-1.537 2.97-4.019a2.21 2.21 0 0 1 1.824-1.301c2.247-.193 6.504-.282 7.314 1.708z" fill="#233862"/><path d="M22.902 83.829s1.547 1.494 2.034 2.601c.471 1.07.612 3.628.238 4.643 0 0 2.41-4.68 1.046-6.955-1.449-2.412-3.318-.29-3.318-.29z" fill="#233862"/><path d="M26.989 110.561c-.219 14.606-.06 11.554-1.66 12.94-.386.333-1.47.532-2.896.627-4.484.296-12.37-.44-12.669-1.268-1.035-2.863-.304-3.753-1.168-8.138-.09-.466-.2-.971-.332-1.521-.72-3.011-1.42-4.036 1.133-8.873 2.315-4.381 4.72-7.938 4.937-7.81 6.108 3.621 6.6.578 6.6.578s6.162 6.342 6.055 13.465z" fill="#fff"/><path d="M42.644 148.221l-4.696 12.618s-1.273.123-2.494-.228c-1.123-.323-2.413-1.173-2.413-1.173s1.303-13.548 3.735-21.325l5.868 10.108z" fill="#2B478B"/><path d="M20.936 97.094s6.286 1.065 7.024 3.767l5.08 18.588s-3.195.573-4.67-.9c-1.476-1.474-5.137-13.675-5.137-13.675l-2.297-7.78z" fill="#fff"/><path d="M22.434 124.128c-4.484.296-12.369-.441-12.669-1.268-1.035-2.864-.304-3.753-1.168-8.138l2.164-6.083s-.358 6.774 1.642 8.555c1.998 1.781 8.19 3.439 9.163 4.928.47.713.777 1.43.868 2.006z" fill="#EBF3FF"/><path d="M17.295 121.278s4.424-.983 5.138-.592c.713.392 2.459 1.82 2.677 2.318.219.497-1.59-.378-2.177-.535-.38-.102-1.383.245-1.88.41-2.089.695-3.368.337-3.368.337l-.39-1.938z" fill="#FFB27D"/><path d="M14.332 96.514s-5.94.366-7.997 3.23C3.44 103.775-2.303 120.96.988 123.25c3.707 2.581 16.87.675 16.87.675s.438-2.044-.172-3.034c-.608-.989-10.513-2.587-10.97-3.044-.457-.456 5.715-8.901 5.715-10.27-.002-1.367 1.901-11.064 1.901-11.064z" fill="#fff"/><path d="M22.648 121.917s.927 1.195 1.232 1.337c.304.142.5.107.5.107l-.625-1.123-1.107-.321zM22.434 120.687l2.695 1.307s-.115.187-.446.172c-.333-.015-1.17-.321-1.17-.321l-1.08-1.158z" fill="#FFB27D"/><path d="M23.878 125.083H45.2l6.415-15.927H30.325l-6.447 15.927z" fill="#F99746"/><path d="M45.449 124.462H17.294v.62H45.2l.25-.62z" fill="#ED7D2B"/><path d="M39.817 117.12c.161-.56-.163-1.013-.724-1.013-.56 0-1.145.453-1.306 1.013-.162.559.162 1.013.724 1.013.56 0 1.146-.454 1.306-1.013z" fill="#fff"/><path d="M135.235 175.768h.062c.365 0 .659-.319.651-.705l-.986-45.211-2.907-.359 2.479 45.573c.021.394.329.702.701.702zM17.401 175.768h-.062c-.365 0-.66-.319-.651-.705l.986-45.211 2.907-.359-2.478 45.573c-.022.394-.33.702-.702.702z" fill="#78ACEA"/><path d="M138.736 130.683H14.389a1.844 1.844 0 0 1-1.845-1.842v-1.773c0-1.017.826-1.842 1.845-1.842h124.347c1.018 0 1.844.825 1.844 1.842v1.773a1.843 1.843 0 0 1-1.844 1.842z" fill="#78ACEA"/><path d="M97.563 125.229H76.242l-6.415-15.927h21.289l6.447 15.927z" fill="#2B478B"/><path d="M75.992 124.607h28.153v.622H76.242l-.25-.622z" fill="#2B478B"/><path d="M81.624 117.265c-.162-.56.162-1.014.724-1.014.56 0 1.145.454 1.306 1.014.161.559-.164 1.013-.724 1.013-.562.001-1.147-.453-1.306-1.013z" fill="#fff"/></svg>