<svg width="86" height="157" viewBox="0 0 86 157" fill="none" xmlns="http://www.w3.org/2000/svg"><path d="M9.317 59.013S.7 68 .293 71.38c-.408 3.382 4.128 8.662 4.128 8.662l4.896-21.029z" fill="#ED7D2B"/><path d="M13.21 152.131s.305 4.765 1.222 4.832c.122.008 4.652-.002 4.652-.002l5.782-.046s-.042-1.401-1.731-1.694c-1.692-.292-4.522-1.481-5.551-3.726-1.083-2.358-4.373.636-4.373.636zM.334 152.159s.304 4.766 1.221 4.832c.122.008 4.652-.002 4.652-.002l5.782-.046s-.042-1.401-1.731-1.694c-1.692-.292-4.522-1.48-5.551-3.725-1.083-2.358-4.373.635-4.373.635z" fill="#2358A5"/><path d="M19.503 100.89s-1.492 9.729-7.095 27.006c-5.603 17.276-6.355 24.754-6.355 24.754L0 152.493s-.092-18.869 2.489-27.555c2.58-8.687.493-31.3.493-31.3l16.52 7.252z" fill="#163560"/><path d="M22.434 94.128s.245 14.656-2.238 32.656c-2.483 18.001-1.612 25.637-1.612 25.637l-6.04.216s-3.648-17.994-2.633-27.003c1.015-9.008-5.01-30.895-5.01-30.895l17.533-.61z" fill="#1C468A"/><path d="M10.668 59.858l3.223 2.114 4.648-.881c-.066-.377-.376-1.942-.659-3.359-.016-.083-.034-.167-.049-.249l-.45-2.24-4.348-1.918-1.62-.715c.004.025.128 1.337.144 1.53.31 3.403-.889 5.718-.889 5.718z" fill="#FFB27D"/><path d="M17.343 58.773c-.09-.038-5.604-1.661-6.201-1.46-.598.2-.95 1.365-.95 1.365l9.015 2.03s-.71-1.45-1.864-1.935z" fill="#ED7D2B"/><path d="M2.588 95.982c.944 4.283 16.488 4.757 20.486.86.455-.445.472-2.508.295-5.287-.348-5.433-1.445-13.602-1.496-17.778-.025-2.017-.306-4.08-.677-5.95-.789-3.99-1.987-7.12-1.987-7.12s-7.596-2.45-9.016-2.029C3.353 60.714 1.644 91.7 2.588 95.982z" fill="#F99746"/><path d="M23.368 91.553c-.348-5.433-1.446-13.602-1.497-17.778-.024-2.016-.305-4.079-.676-5.95l-4.57-.8c.002 0-4.423 18.349 6.743 24.528z" fill="#ED7D2B"/><path d="M20.877 83.985s-.31.748.345 1.25c.655.5 1.081 1.314.933 1.908-.149.595-1.581 1.568-2.078 1.413-.497-.156-1.511-.935-1.403-1.25.11-.314-.686-2.752.524-3.694 1.21-.94 1.68.373 1.68.373z" fill="#FFB27D"/><path d="M15.72 59.614s4.455.828 8.015 6.08c3.561 5.252 5.905 9.156 5.254 11.053-.65 1.896-6.593 8.484-7.621 8.486-1.028.001-2.687-.745-2.784-2.436 0 0 3.925-6.571 3.097-7.517-.355-.403-5.2-4.313-5.924-2.433-1.198 3.113-.038-13.233-.038-13.233z" fill="#F99746"/><path d="M11.883 54.2c.957 1.622 4.514 3.02 5.998 3.532-.017-.083-.035-.167-.05-.249l-.45-2.24-4.348-1.918c-.96-.01-1.545.207-1.15.875z" fill="#FCA56B"/><path d="M19.016 54.974s-6.991 2.21-8.293-2.19c-1.302-4.399-3.08-7.077 1.328-8.675 4.41-1.596 5.777-.18 6.566 1.183.79 1.364 2.185 8.994.4 9.682z" fill="#FFB27D"/><path d="M18.343 44.87s-.436 5.125-1.488 4.904c-1.055-.22-2.01-.383-1.854 1.162.159 1.543 1.623 3.323-1.623 3.604-3.248.28-7.932-8.131-7.044-9.727 2.564-4.605 15.717-5.562 12.009.058z" fill="#163560"/><path d="M45.567 20.022C48.324 9.312 52.983 0 65.597 0c11.06 0 21.095 9.742 20.366 21.745-.671 11.037-10.26 20.387-21.998 19.073-10.993-1.23-21.555-8.534-18.398-20.796z" fill="#AFCDFB"/><path opacity=".8" d="M62.572 27.182c0-.875.053-1.637.157-2.286.104-.647.278-1.24.518-1.776.24-.537.553-1.046.934-1.527.382-.48.853-.993 1.407-1.536.419-.406.811-.792 1.175-1.155.363-.364.684-.738.962-1.12.278-.38.496-.789.656-1.22.16-.431.24-.912.24-1.443 0-1.159-.286-2.045-.859-2.655-.574-.61-1.415-.915-2.527-.915a4.6 4.6 0 0 0-1.296.185 3.22 3.22 0 0 0-1.13.592 3.006 3.006 0 0 0-.805 1.037c-.203.419-.306.924-.306 1.517H57.2c.013-1.159.225-2.18.638-3.063a6.336 6.336 0 0 1 1.703-2.22c.721-.599 1.567-1.048 2.536-1.351.968-.303 2.02-.453 3.155-.453 1.246 0 2.356.16 3.332.48.975.322 1.802.79 2.48 1.407a6 6 0 0 1 1.547 2.257c.352.889.527 1.894.527 3.016 0 .815-.129 1.573-.388 2.276a8.67 8.67 0 0 1-1.037 1.98 14.186 14.186 0 0 1-1.48 1.776c-.556.568-1.13 1.13-1.722 1.683-.68.618-1.133 1.293-1.36 2.027-.229.733-.35 1.564-.362 2.488h-4.197v-.001zm-.315 5.754c0-.346.056-.666.166-.962.11-.296.275-.555.49-.777.216-.222.482-.394.797-.518a2.97 2.97 0 0 1 1.083-.185c.406 0 .768.062 1.083.185a2.236 2.236 0 0 1 1.296 1.295c.117.296.176.618.176.962 0 .678-.222 1.246-.666 1.702-.444.456-1.074.684-1.89.684-.814 0-1.44-.228-1.877-.684-.44-.456-.658-1.024-.658-1.702z" fill="#fff"/></svg>