<svg width="139" height="98" viewBox="0 0 139 98" fill="none" xmlns="http://www.w3.org/2000/svg"><path d="M8.443 97.044H69.04V80.001H7.928A7.928 7.928 0 0 0 0 87.93v.673a8.443 8.443 0 0 0 8.443 8.442z" fill="#57ABBD"/><path d="M65.87 97.044h69.02V80.001H65.687a8.06 8.06 0 0 0-8.061 8.06v.74a8.244 8.244 0 0 0 8.243 8.243z" fill="#FCECDB"/><path d="M53.043 97.044h84.207c.677 0 1.225-.548 1.225-1.224v-.101c0-.676-.548-1.225-1.225-1.225H53.043c-.675 0-1.224.548-1.224 1.225v.1a1.225 1.225 0 0 0 1.224 1.225zM53.043 82.55h84.207c.677 0 1.225-.548 1.225-1.224v-.101c0-.676-.548-1.225-1.225-1.225H53.043c-.675 0-1.224.548-1.224 1.225v.1a1.225 1.225 0 0 0 1.224 1.225z" fill="#57ABBD"/><path d="M134.89 88.522l-9.367.287 9.367.173v-.46zM134.89 84.6l-22.286.286 22.286.173V84.6z" fill="#F4D2B8"/><path d="M112.834 84.83s.955.732 1.272 1.935c.056.21.091.436.099.673.052 1.6 0 5.22 0 5.22l2.819-1.81 2.812 1.81v-4.906c0-.928-.242-1.83-.689-2.421-.217-.286-.481-.502-.779-.502h-5.534z" fill="#699DEE"/><path d="M112.834 84.83s.955.732 1.272 1.935l5.651.072s-.222-1.724-1.388-2.008h-5.535z" fill="#568CDB"/><path d="M91.235 45.971s9.497 4.138 11.221 4.063c1.724-.075 12.345-3.235 12.345-3.235l-.27 1.827s-8.198 4.714-11.064 4.981c-2.821.264-12.47-2.532-13.4-3.122-.93-.59-1.538-3.916 1.168-4.514z" fill="#ED985F"/><path d="M89.809 30.75s-3.504-.666-5.248.61c-3.162 2.307-3.331 10.264-4.516 11.45s-4.04.68-4.294 6.813c-.255 6.134 1.136 6.647-.52 9.385-1.657 2.738.7 5.478.7 5.478s-.966-1.511-.552-2.603c0 0 .402 2.409 1.931 2.973 1.53.564 1.756.978 2 1.805 0 0 13.05-6.686 13.064-11.43.014-4.743 2.568-9.44 1.313-11.496 0 0 .559.88.628 1.857 0 0 .751-1.441-.552-2.784-1.305-1.341 1.529-4.119 1.11-7.336-.287-2.206-1.836-4.625-5.064-4.722z" fill="#233862"/><path d="M92.39 50.49c-.834.58-1.88 1.056-3.193 1.36-4.921 1.137-6.808-3.023-7.515-5.879.671-.384 1.303-.468 1.667-.512.355-.042.729-.07 1.04-.085.552-.423 1.375-2.156 1.558-4.845l.232.062 3.879 1.062s-.178 1.233-.265 2.398c-.067.912-.078 1.783.095 1.997.303.065.484.108.484.108l.002.004c.051.084 1.176 1.935 2.016 4.33z" fill="#FFB27D"/><path d="M90.057 41.652s-.178 1.233-.264 2.399c-2.198-.22-3.217-2.313-3.615-3.46l3.879 1.061z" fill="#ED985F"/><path d="M90.713 42.81s-5.216-.288-4.986-3.532c.229-3.245-.29-5.469 3.05-5.422 3.34.047 3.9 1.331 4.087 2.432.185 1.101-.789 6.514-2.15 6.522z" fill="#FFB27D"/><path d="M92.836 34.473c-.735-1.033-1.358-.864-1.72-.594-2.735-1.77-4.736.414-4.736.414-.516 2.303-2.29 3.516-2.29 3.516s.907.654 3.136.25c.681-.124 1.313-.557 1.86-1.097-.992 1.42-2.274 2.405-2.274 2.405 2.701-1.022 4.011-4.582 4.144-4.96.297.309.88.975 1.028 1.596.2.845 1.065 2.165 1.565 2.144 0-.002.39-2.124-.713-3.674z" fill="#233862"/><path d="M80.197 61.094c-.47-2.408-2.007-12.028-.47-15.123.55-1.111 2.715-1.212 5.09-1.114.738.477 3.554 2.279 4.71 2.054a.873.873 0 0 0 .065-.015c.544-.136.75-.519.295-.848a10.345 10.345 0 0 1 2.637.16c.825.157 3.05 1.307 3.05 1.307s-1.12 2.024-2.773 2.723c.282 2.513-.136 3.622-2.744 9.426-2.203 4.907.297 9.325.297 9.325s-12.968 10.427-13.04 5.118c-.055-3.998 3.484-9.936 2.883-13.013z" fill="#fff"/><path d="M90.997 80.326a2.408 2.408 0 0 0 1.734-1.056l.201-.302c1.476-2.234 2.05-9.078 5.37-16.37.81-1.775 3.713-2.094 4.505-4.1 0 0 1.948-6.504-3.73-6.696-5.677-.192-15.206 18.097-15.356 20.014-.146 1.86-3.754 9.755 7.276 8.51z" fill="#DD6D22"/><path d="M113.564 80.177h-8.082s-.302-1.29.229-2.167c.469-.775.29-1.218-.058-1.86.366.15.84.286 1.361.257.402-.024.828-.206 1.202-.423.348.396 1.836 2.084 2.303 2.418.527.38 2.881.245 3.045 1.775z" fill="#233862"/><path d="M81.048 48.492s-1.051 9.57 5.77 11.575c6.82 2.005 8.757-8.804 3.25-9.582-5.507-.778-9.02-1.992-9.02-1.992z" fill="#EBEEF2"/><path d="M102.992 53.683c.486 3.647 2.386 15.162 5.739 20.78 1.08 1.81-2.723 2.826-2.744 2.82-.51-.133-1.36-.946-1.752-1.3-2.721-2.452-8.246-9.397-8.246-14.965 0-2.716-.047-7.9 1.927-9.218 1.215-.81 4.882.434 5.076 1.883z" fill="#ED7D2B"/><path d="M86.178 80.177s.3-.417.822-1.209c.622-.94 1.31-2.793 2.144-5.168.876-2.493 1.916-5.56 3.216-8.751.4-.985.827-1.982 1.28-2.978.809-1.775 3.033-1.53 3.825-3.535 0 0 3.089-6.956-2.589-7.149C89.2 51.195 78.41 69.995 77.79 71.816c-.68 1.993-3.991 10.27 8.39 8.36z" fill="#F99746"/><path d="M107.632 80.177H99.55s-.302-1.29.229-2.167c.469-.775.29-1.218-.058-1.86.366.15.84.286 1.361.257.402-.024.828-.206 1.201-.423.348.396 1.837 2.084 2.303 2.418.528.38 2.882.245 3.046 1.775z" fill="#2B478B"/><path d="M89.142 73.8c.877-2.493 1.917-5.56 3.216-8.751-.339-2.418-1.072-4.533-2.303-5.385.001 0-2.986 9.252-.913 14.136z" fill="#ED7D2B"/><path d="M98.274 53.424c.486 3.648 1.171 15.42 4.524 21.039 1.08 1.81-2.723 2.826-2.743 2.82-.51-.133-1.36-.946-1.752-1.3-2.722-2.452-8.246-9.397-8.246-14.965 0-2.716 3.186-7.682 5.16-9 1.216-.811 2.863-.043 3.057 1.406z" fill="#F99746"/><path d="M91.69 40.944s-.494-.196-1.881-.083c0 0 .074.541 1.096.595.58.03.784-.513.784-.513z" fill="#fff"/><path d="M115.815 42.976l-1.674-3.024-3.625 10.114 2.138 2.295 3.161-9.385z" fill="#163560"/><path d="M107.068 44.746l-3.37 9.625 8.956-2.01 3.161-9.385-8.747 1.77z" fill="#1C468A"/><path d="M103.877 53.886l-.157-.275 3.188-9.109.16.244-3.191 9.14z" fill="#EFDECE"/><path d="M106.908 44.502l8.491-1.652.416.126-8.747 1.77-.16-.244z" fill="#FCECDB"/><path d="M115.815 42.976l-1.811-2.877-1.155 3.247 2.55-.496.416.126z" fill="#EFDECE"/><path d="M109.653 46.14c-.291-.057-.916-.292-1.549-.466.189-.147.399-.327.457-.511.113-.357.188-.472-.187-.36-.376.114-1.693.717-1.693.717l.003.002c-.748.219-1.437 1.277-1.437 1.277s-9.26 3.254-10.373 3.31c-1.723.087-13.194-4.138-13.194-4.138-2.706.598-2.1 3.924-1.168 4.514.931.59 9.185 3.593 14.076 3.649 2.478.029 11.49-5.764 11.49-5.764s1.054-.481 1.881-.33c.828.15 2.746 0 3.16-.678.416-.677-.976-1.128-1.466-1.223z" fill="#FFB27D"/><path d="M87.59 48.054s-1.025 3.247-4.548 3.986c0 0-5.819-1.792-2.922-5.756.001 0 2.865-2.128 7.47 1.77z" fill="#fff"/><path d="M115.665 46.384a.928.928 0 0 0-.031-.263s-.83-1.313-1.102-1.367c-.828-.163-.828.927-.652 1.63.122.49.434.96.685 1.214l-.033 1.026c1.398-.768 1.133-2.24 1.133-2.24z" fill="#FFB27D"/><path d="M19.17 33.308s.926 4.013 3.622 4.013c2.311 0 5.481-5.223 5.481-5.223l-9.102 1.21z" fill="#F99746"/><path d="M49.973 92.945l-1.547.82s-8.365-8.87-10.376-17.381c-.358-1.52-.503-3.018-.35-4.44l-.334-1.067c-.01-.03-.02-.06-.028-.091-.093-.299-.205-.651-.328-1.05l-1.591-5.05c-1.456-4.612-4.786-15.011-6.209-19.338l10.228-3.7s1.161 2.649 2.832 9.848c.256.94.514 1.98.755 3.111.273 1.283.527 2.685.739 4.2a64.48 64.48 0 0 1 .613 8.62 67.389 67.389 0 0 1-.102 4.003c-.056 1.01.095 2.358.376 3.89 1.286 7.008 5.322 17.625 5.322 17.625z" fill="#2B478B"/><path d="M55.574 96.863h-8.269s-.309-1.319.235-2.216c.48-.794.296-1.246-.06-1.903.375.153.86.293 1.394.262.412-.024.847-.21 1.23-.433.355.406 1.88 2.133 2.355 2.475.538.389 2.948.25 3.115 1.815zM43.762 58.81l-6.425 11.976c-.093-.299-.205-.651-.328-1.05l-1.591-5.05c-1.456-4.612-4.786-15.011-6.209-19.338l10.228-3.7s1.161 2.649 2.832 9.848c.256.94.514 1.98.755 3.111.271 1.285.526 2.688.738 4.202zM29.042 94.276s-.573 1.403-.033 2.588h4.497s.093-1.068-1.54-2.306c-1.235-.939-2.924-.282-2.924-.282z" fill="#233862"/><path d="M33.937 2.853c.003-.224.118-2.638 3.785-2.853 0 0-1.8.259-2.092 1.06 0 0 1.205-1.01 2.213-.718 1.01.29 1.64 2.03 1.659 2.606.02.577-.492 2.45-1.123 2.623-.239.066-.516.056-.768.02.175.26.348.547.514.868 1.537 2.97.21 6.471-1.037 6.177-.8-.19-1.286 1.198-1.286 1.198l-7.697-6.62s2.695-5.94 5.832-4.361z" fill="#2C3A64"/><path d="M29.1 22.965c.852.591 1.923 1.08 3.265 1.39 5.036 1.163 6.965-3.093 7.69-6.014-.686-.393-1.333-.48-1.706-.525a15.9 15.9 0 0 0-1.063-.087c-.565-.432-1.408-2.205-1.594-4.957l-.237.064-3.968 1.086s.181 1.26.27 2.453c.07.933.08 1.825-.096 2.043l-.495.11-.002.004a25.556 25.556 0 0 0-2.065 4.433z" fill="#FFB27D"/><path d="M31.485 13.923s.183 1.26.271 2.453c2.248-.226 3.291-2.365 3.698-3.54l-3.969 1.087z" fill="#ED985F"/><path d="M31.44 15.816s5.175-1.33 4.298-4.541c-.878-3.21-.801-5.545-4.143-4.831-3.342.713-3.647 2.114-3.614 3.256.032 1.143 2.09 6.38 3.458 6.116z" fill="#FFB27D"/><path d="M27.644 7.873c.531-1.184 1.19-1.137 1.609-.94 2.39-2.322 4.834-.53 4.834-.53.978 2.208 3 3.072 3 3.072s-.78.838-3.098.875c-.707.012-1.427-.296-2.085-.728 1.279 1.228 2.762 1.96 2.762 1.96-2.915-.486-4.94-3.798-5.15-4.15-.236.368-.688 1.152-.711 1.806-.032.889.313 2.603-.192 2.68 0 0-1.766-2.268-.97-4.045z" fill="#2C3A64"/><path d="M29.95 18.263s8.695-2.11 12.474 1.008l-1.889 26.346-17.002-4.109s.478-1.667 3.739-6.1c3.26-4.433 1.842-10.935 2.679-17.145z" fill="#FFB27D"/><path d="M35.019 42.683l-.028.26-.03.266-.39 3.697c-.465 4.468-1.198 11.644-1.696 17.31-.39 4.428-.638 7.934-.504 8.497.403 1.694 0 21.94 0 21.94-1.445.693-3.636 0-3.636 0s-3.85-18.244-3.31-20.78c.539-2.536-.36-4.7-.36-4.7-2.99-13.921-2.662-21.636-2.07-25.329.174-1.074.37-1.807.512-2.254.122-.38.205-.554.205-.554 6.592-1.775 11.307 1.647 11.307 1.647z" fill="#2B478B"/><path d="M43.596 26.784c-.42 3.17-2.099 7.049-2.698 9.136 0 0 1.002 7.248.045 9.238-.108.227-.244.386-.408.458-3.546 1.544-17.351.045-17.935-4.41-.211-1.618 5.26-7.31 5.578-8 .132-.286.273-1.212-.368-3.132-.909 2.804-5.927 1.997-5.927 1.997.588-1.007 2.056-7.98 3.695-11.127 1.232-2.366 4.52-2.708 4.52-2.708s1.37 2.171 4.68 1.863c3.31-.308 3.915-2.334 3.915-2.334s2.935.39 3.84 1.12c.158.127 1.614 3.747 1.063 7.9z" fill="#F99746"/><path d="M40.898 35.92s1.002 7.249.045 9.24c-2.583-1.297-5.95-4.095-4.924-8.468 1.487-6.352 7.578-9.907 7.578-9.907-.42 3.169-2.1 7.048-2.699 9.136z" fill="#ED7D2B"/><path d="M30.116 27.35l5.92 9.496H25.962l-5.64-9.292 9.793-.205z" fill="#1C468A"/><path d="M35.728 36.369l.102-.331-5.601-8.988-.113.3 5.612 9.019z" fill="#EFDECE"/><path d="M30.229 27.05l-9.489.27-.417.234 9.793-.205.113-.3z" fill="#FCECDB"/><path d="M20.323 27.554L15 24.673l6.205 9.744 4.759 2.429-5.64-9.292z" fill="#163560"/><path d="M48.493 34.21c-.57.26-2.033 1.985-2.556 2.16-2.35.785-12.345-1.306-12.345-1.306l.31-1.751s9.81.26 10.889-.028c.203-.055 1.263-1.713 1.67-1.95l2.032 2.875z" fill="#FFB27D"/><path d="M33.902 33.313s-1.183-.963-1.982-.746c-.8.218-1.976 1.23-2.413 1.469-.437.24-1.623 1.095-1.021 1.613.601.518 2.473.073 3.216-.323.742-.398 1.891-.261 1.891-.261l.31-1.752z" fill="#FFB27D"/><path d="M32.146 32.536s-1.438-.172-1.83-.163c-.393.007-.286.093-.07.398.217.306.966.422 1 .528.034.106.9-.763.9-.763z" fill="#FFB27D"/><path d="M38.694 17.766s4.264.506 5.438 2.334c1.485 2.311 4.988 11.52 4.875 13.84 0 0-2.562 4.36-11.345 3.662 0 0-.914-3.228.933-4.293 0 0 4.511-.803 5.031-1.26l-1.507-6.265-3.425-8.018z" fill="#F99746"/><path d="M21.687 31.026c-.132-.537-1.304-.202-1.698.107a1.6 1.6 0 0 0-.3.354 7.77 7.77 0 0 1-.029-.243c-.022-.252-.315-.705-.388-.366-.073.338-.194 1.76-.194 1.76-.014 1.145.722 1.618 1.196 1.245.471-.373 1.546-2.32 1.413-2.857z" fill="#FFB27D"/></svg>