<svg width="336" height="166" viewBox="0 0 336 166" fill="none" xmlns="http://www.w3.org/2000/svg"><path d="M6.455 165.798s-19.353-50.066 8.96-79.96c36.518-38.56 83.71-6.329 101.418-7.269 17.707-.94 18.704-37.936 71.613-42.356 40.91-3.417 108.094-3.686 93.76 56.76-10.897 45.957 49.733 22.152 37.927 72.922l-313.678-.097z" fill="#EBF2F9"/><path d="M248.527 159.22s.294 4.742 1.212 4.809c.122.009 4.652.009 4.652.009h5.79s-.045-1.428-1.735-1.721c-1.69-.295-4.52-1.483-5.544-3.717-1.077-2.35-4.375.62-4.375.62z" fill="#163560"/><path d="M225.622 120.255c.826 1.562 1.781 3.026 2.766 4.411 3.042 4.282 6.353 7.813 6.93 11.151.114.665.297 1.381.534 2.135.241.765.538 1.569.882 2.4 1.291 3.127 3.222 6.63 5.149 9.815 3.332 5.505 6.466 10.099 6.466 10.099l5.746-.272c-.23-.642-2.737-8.244-6.088-17.533l-4.206-11.651-.556-1.54-1.258-3.484-5.655-15.669s-12.582-5.314-13.888-1.87c-1.078 2.837-.201 5.619 3.178 12.008z" fill="#599DAD"/><path d="M236.19 154.083s-2.105 1.949-1.693 3.336c.41 1.386 2.31 2.31 2.566 4.003.257 1.694 1.283 2.618 2.208 2.618h4.404s.679-1.192-.963-1.551-2.262-2.35-2.159-4.198c.102-1.847-.154-4.311-.154-4.311l-3.491-.821-.718.924z" fill="#233862"/><path d="M238.051 109.461s13.239 21.473 13.239 23.182c0 3.779-10.003 25.535-10.003 25.535s-5.309-2.805-5.096-4.774c0 0 3.185-15.273 4.112-17.727.926-2.455-16.732-11.704-17.658-22.879l15.406-3.337z" fill="#6BB7BF"/><path d="M244.542 98.42s2.73 1.552 3.495 1.552c.763 0 3.764-.58 4.6-.153.837.428 2.35 2.147 2.634 2.709.511 1.009-2.056.564-3.269-.296a.766.766 0 0 0-.606-.125c-.628.137-1.934.374-2.565.141-.847-.314-5.312-.663-5.312-.663l1.023-3.165z" fill="#E49963"/><path d="M223.77 77.277s2.83 20.114 7.516 21.916c2.312.889 12.532 2.904 15.556 3.107 0 0 .74-.6.56-3.046 0 0-10.707-3.93-12.229-6.068-2.264-3.182 1.405-12.997-1.435-15.985-2.841-2.99-7.625-4.272-9.968.076z" fill="#ED7D2B"/><path d="M234.835 76.01c-3.784.977-10.056-2.527-10.056-2.527s2.435-1.637 3.338-5.232c.046-.181.087-.366.124-.557l1.943-.413 2.889 2.589s-.067 1.075-.428 2.922a30.91 30.91 0 0 1-.218 1.036c1.553.962 2.408 2.182 2.408 2.182z" fill="#E49963"/><path d="M220.774 91.69c.541 7.288-.171 18.372.443 20.292.531 1.656 6.575.672 8.989.118a44.257 44.257 0 0 0 3.092-.843c3.117-.964 6.512-2.343 6.877-3.365a.95.95 0 0 0 .028-.546c-.122-.521-.59-1.085-.645-2.376-.062-1.441-.052-3.139-.107-4.964-.003-.205-.005-.43-.027-.634l-.001-.075-.004-.117a197.705 197.705 0 0 0-.282-6.298 167.519 167.519 0 0 0-.273-3.917c-.273-3.265-.638-6.168-1.123-8.003-.792-2.992-2.539-4.944-4.13-6.373l-1.149-.986c-1.284.28-2.801.094-4.174-.556-1.485-.705-1.998-1.21-2.256-1.02-3.431 2.644-5.898 10.753-5.258 19.663z" fill="#F99746"/><path d="M233.298 111.257c3.117-.964 6.512-2.343 6.877-3.365.013-.041.026-.079.034-.118l-.007-.428c-.121-.521-.589-1.085-.644-2.376-.062-1.441-.052-3.139-.107-4.964-.003-.205-.005-.43-.028-.634l-.001-.075-.003-.117-12.599-16.05s-8.47 17.634 6.478 28.127z" fill="#ED7D2B"/><path d="M233.074 69.87s-.067 1.075-.428 2.922c-2.821-.913-4.101-3.46-4.529-4.542.046-.181.087-.366.124-.557l1.943-.413 2.89 2.59z" fill="#D68D5D"/><path d="M233.453 71.5s-6.154-1.028-5.455-4.85c.698-3.822.375-6.529 4.333-6.035 3.959.493 4.454 2.092 4.531 3.424.077 1.333-1.79 7.629-3.409 7.46z" fill="#E49963"/><path d="M257.673 104.202l.542.176 4.62-14.208-.542-.176-4.62 14.208z" fill="#4A75CB"/><path d="M242.531 104.054l15.676.334.02-.937-15.676-.334-.02.937z" fill="#4A75CB"/><path d="M242.858 104.793s5.037 1.328 6.926 1.188c1.889-.139 3.459-1.038 3.697-1.507.237-.469.737-1.3-.55-1.147-1.285.154-3.042.427-3.095.179-.054-.246 1.048-.223 1.048-.223s.334-.485-.086-.502c-.42-.017-1.644-.349-2.099-.123-.454.228-.874 1.066-1.206 1.032-.332-.035-4.215-1.749-4.215-1.749l-.42 2.852z" fill="#E49963"/><path d="M225.019 78.103s.595 20.304 5.054 22.611c2.2 1.138 12.136 4.268 15.119 4.802 0 0 .803-.516.893-2.966 0 0-10.209-5.087-11.484-7.38-1.9-3.41 2.83-12.762.335-16.045-2.495-3.283-7.11-5.086-9.917-1.022z" fill="#F99746"/><path d="M228.117 68.25s-.07-1.31.738-2.063c0 0-.282-1.315.239-1.53.52-.218.628.888.866.714.239-.173 1.301-.997 1.756-2.21.455-1.214 4.621.256 5.106.474.485.218 2.046-.583 2.35-1.234 0 0-.868-.693-1.258-1.214-.39-.52-3.121-4.03-6.935-3.034-3.815.997-4.335 2.818-4.118 4.378.218 1.562-.306 5.196 1.256 5.72z" fill="#2B478B"/><path d="M222.025 112.309l-11.922-7.183a3.085 3.085 0 0 1-1.458-2.87 54.51 54.51 0 0 0 .182-4.464c0-2.794-.197-5.528-.623-8.185a3.044 3.044 0 0 1 1.443-3.113l12.453-7.517c1.336-.79 1.838-2.49 1.139-3.903l-5.863-11.936a2.954 2.954 0 0 0-3.644-1.473l-12.59 4.57c-1.215.472-2.598.061-3.417-1.002a53.806 53.806 0 0 0-12.362-11.601c-1.139-.775-1.61-2.263-1.139-3.553l2.795-7.654c.516-1.459-.122-3.098-1.518-3.797l-11.861-5.801a2.717 2.717 0 0 0-.744-.259 2.967 2.967 0 0 0-3.158 1.397l-5.377 8.899-1.305 2.172a53.976 53.976 0 0 0-17.497.395c-1.229.228-2.475-.303-3.113-1.381l-6.044-10.039c-.836-1.366-2.567-1.883-3.994-1.168l-9.128 4.48-2.612 1.29c-1.428.699-2.112 2.368-1.565 3.857l3.813 10.523c.455 1.215.09 2.581-.912 3.372a53.332 53.332 0 0 0-8.034 8.109c-.227.242-.41.486-.606.744-.061.091-.137.167-.213.243a3.035 3.035 0 0 1-3.28.76l-12.438-4.51c-.137-.061-.289-.091-.426-.122a3.087 3.087 0 0 0-3.356 1.64L87.85 75.043a3.07 3.07 0 0 0 1.17 3.978l12.438 7.488c1.063.623 1.61 1.837 1.412 3.052a54.255 54.255 0 0 0-.44 12.649 3.128 3.128 0 0 1-1.503 2.931l-11.968 7.228a2.987 2.987 0 0 0-1.14 3.873l5.817 11.799a3.12 3.12 0 0 0 3.874 1.564l9.962-3.614c1.337-.486 2.81 0 3.6 1.17a53.625 53.625 0 0 0 11.132 12.224 3.047 3.047 0 0 1 .971 3.448l-4.07 11.207c-.547 1.503.137 3.174 1.565 3.888l11.77 5.786a3.011 3.011 0 0 0 3.918-1.154l.319-.516 6.242-10.342a3.079 3.079 0 0 1 3.205-1.442h.015c3.052.547 6.196.836 9.416.836 1.716 0 3.402-.091 5.088-.243a3.02 3.02 0 0 1 2.901 1.442l6.135 10.19a3.124 3.124 0 0 0 4.055 1.2l11.755-5.786c.334-.167.623-.395.865-.638a3.108 3.108 0 0 0 .668-3.159l-3.067-8.397a3.107 3.107 0 0 1 .531-3.007c.182-.212.395-.41.638-.577a53.436 53.436 0 0 0 14.913-14.973c.653-1.017 1.868-1.503 3.038-1.305.166.031.334.075.501.136l10.069 3.659a3.06 3.06 0 0 0 3.781-1.518l.137-.273 5.665-11.511a3.12 3.12 0 0 0-1.203-4.027zm-94.114-22.703a35.738 35.738 0 0 1 2.399-6.212c1.975-3.963 6.849-8.868 10.829-10.828.425-.212.851-.41 1.276-.606 26.031-11.694 51.134 13.864 38.514 39.907-1.655 3.402-5.316 7.396-8.885 9.871-.835.562-1.655 1.063-2.429 1.427-3.63 1.762-7.244 2.794-10.768 3.189-20.078 2.233-36.601-16.217-30.936-36.748z" fill="#D3DFF7"/><path d="M223.213 152.497l-2.66-1.603a.69.69 0 0 1-.326-.641 12.196 12.196 0 0 0-.098-2.824.68.68 0 0 1 .321-.695l2.779-1.677a.666.666 0 0 0 .255-.871l-1.309-2.663a.66.66 0 0 0-.813-.329l-2.81 1.02a.662.662 0 0 1-.763-.223c-.773-1-1.705-1.874-2.759-2.59a.684.684 0 0 1-.254-.793l.624-1.708a.69.69 0 0 0-.339-.847l-2.648-1.295a.664.664 0 0 0-.87.254l-1.2 1.986-.292.485a12.016 12.016 0 0 0-3.904.088.66.66 0 0 1-.695-.309l-1.348-2.24a.685.685 0 0 0-.891-.261l-2.038 1-.583.289a.695.695 0 0 0-.349.861l.85 2.348a.662.662 0 0 1-.203.752 11.985 11.985 0 0 0-1.793 1.81c-.051.055-.092.109-.136.166-.013.02-.031.037-.047.054a.678.678 0 0 1-.731.17l-2.776-1.006a.689.689 0 0 0-.844.339l-1.295 2.637a.686.686 0 0 0 .26.888l2.776 1.671c.237.139.359.41.315.681a12.051 12.051 0 0 0-.098 2.823.701.701 0 0 1-.335.654l-2.672 1.613a.665.665 0 0 0-.254.864l1.298 2.634a.698.698 0 0 0 .865.349l2.223-.806a.686.686 0 0 1 .804.26 11.948 11.948 0 0 0 2.484 2.729.68.68 0 0 1 .217.769l-.908 2.501a.703.703 0 0 0 .349.868l2.626 1.291a.671.671 0 0 0 .874-.257l.072-.115 1.393-2.308a.687.687 0 0 1 .715-.322h.003a11.917 11.917 0 0 0 3.237.132.676.676 0 0 1 .648.321l1.37 2.275a.698.698 0 0 0 .905.268l2.623-1.292a.696.696 0 0 0 .343-.847l-.685-1.874a.695.695 0 0 1 .261-.8 11.927 11.927 0 0 0 3.328-3.342.674.674 0 0 1 .788-.261l2.247.817a.683.683 0 0 0 .844-.339l.031-.061 1.264-2.569a.693.693 0 0 0-.266-.899zm-21.005-5.067c.13-.457.306-.922.536-1.386.44-.884 1.529-1.979 2.417-2.416.095-.047.19-.092.284-.136 5.809-2.61 11.412 3.094 8.596 8.907-.37.76-1.186 1.651-1.983 2.203-.186.126-.37.237-.542.318a7.377 7.377 0 0 1-2.403.712c-4.48.499-8.169-3.62-6.905-8.202z" fill="#F99746"/><path d="M334.991 96.694l-3.987-2.403a1.033 1.033 0 0 1-.488-.96c.04-.493.06-.99.06-1.494 0-.935-.066-1.848-.208-2.738a1.018 1.018 0 0 1 .483-1.042l4.166-2.514a1 1 0 0 0 .381-1.305l-1.96-3.993a.988.988 0 0 0-1.219-.492l-4.211 1.529a.993.993 0 0 1-1.143-.336 18.007 18.007 0 0 0-4.135-3.88 1.023 1.023 0 0 1-.381-1.188l.935-2.56a1.034 1.034 0 0 0-.508-1.27l-3.968-1.94a.992.992 0 0 0-1.305.382l-1.798 2.976-.437.726a18.062 18.062 0 0 0-5.852.133.993.993 0 0 1-1.042-.463l-2.022-3.358a1.027 1.027 0 0 0-1.335-.39l-3.053 1.498-.874.432a1.043 1.043 0 0 0-.523 1.29l1.274 3.52a.99.99 0 0 1-.304 1.128 17.802 17.802 0 0 0-2.687 2.712c-.076.081-.137.162-.203.25-.021.03-.046.055-.071.08-.28.3-.712.397-1.097.255l-4.161-1.509a1.033 1.033 0 0 0-1.265.508l-1.94 3.951a1.027 1.027 0 0 0 .391 1.332l4.16 2.504a.993.993 0 0 1 .473 1.021 18.165 18.165 0 0 0-.148 4.232c.03.396-.162.777-.503.98l-4.003 2.418a.998.998 0 0 0-.381 1.295l1.946 3.947c.234.477.787.706 1.295.523l3.332-1.209c.447-.162.94 0 1.204.391a18.002 18.002 0 0 0 3.724 4.089c.345.269.478.736.325 1.152l-1.361 3.749a1.054 1.054 0 0 0 .523 1.3l3.937 1.935a1.009 1.009 0 0 0 1.311-.385l.107-.174 2.088-3.459a1.03 1.03 0 0 1 1.072-.483h.005a17.838 17.838 0 0 0 4.852.199c.391-.041.767.147.97.483l2.053 3.408c.28.468.874.64 1.355.402l3.932-1.935a1.04 1.04 0 0 0 .513-1.271l-1.025-2.808a1.039 1.039 0 0 1 .177-1.006c.061-.071.132-.136.214-.193a17.871 17.871 0 0 0 4.988-5.008 1.003 1.003 0 0 1 1.184-.391l3.368 1.224a1.025 1.025 0 0 0 1.265-.508l.046-.091 1.894-3.85a1.048 1.048 0 0 0-.405-1.348zm-31.479-7.593c.194-.686.458-1.381.803-2.078.66-1.326 2.29-2.966 3.622-3.622.142-.071.284-.136.426-.203 8.707-3.91 17.104 4.638 12.883 13.349-.554 1.137-1.778 2.473-2.972 3.3a6.128 6.128 0 0 1-.813.478 11.054 11.054 0 0 1-3.602 1.067c-6.715.747-12.242-5.423-10.347-12.29zM122.177 28.032l-4.223-1.959a1.032 1.032 0 0 1-.589-.901 18.405 18.405 0 0 0-.1-1.492 17.264 17.264 0 0 0-.503-2.7 1.017 1.017 0 0 1 .368-1.087l3.87-2.949a1 1 0 0 0 .238-1.338l-2.379-3.758a.987.987 0 0 0-1.265-.358l-4.022 1.975a.993.993 0 0 1-1.172-.21 18.006 18.006 0 0 0-4.529-3.413 1.027 1.027 0 0 1-.508-1.141l.654-2.646a1.033 1.033 0 0 0-.642-1.207l-4.153-1.5a.994.994 0 0 0-1.257.52l-1.467 3.151-.356.77a18.095 18.095 0 0 0-5.803.762.992.992 0 0 1-1.085-.348l-2.372-3.12a1.028 1.028 0 0 0-1.37-.244L86.64 6.657l-.822.523c-.45.285-.617.865-.382 1.34l1.647 3.36a.99.99 0 0 1-.182 1.154 17.858 17.858 0 0 0-2.38 2.986c-.067.089-.118.176-.175.27a1.016 1.016 0 0 1-1.125.46l-4.298-1.053a1.031 1.031 0 0 0-1.203.642l-1.504 4.138c-.18.5.048 1.053.532 1.281l4.407 2.04a.994.994 0 0 1 .58.965 18.186 18.186 0 0 0 .31 4.222c.072.39-.078.79-.394 1.029l-3.72 2.835a.998.998 0 0 0-.24 1.329l2.361 3.714c.284.45.86.617 1.344.38l3.183-1.56c.428-.21.934-.102 1.24.258a17.921 17.921 0 0 0 4.142 3.663c.373.23.555.68.448 1.111l-.95 3.873c-.127.52.16 1.05.66 1.236l4.122 1.501a1.009 1.009 0 0 0 1.262-.524l.088-.183 1.703-3.663a1.03 1.03 0 0 1 1.014-.596h.005a17.828 17.828 0 0 0 4.845-.325c.384-.083.778.064 1.017.374l2.407 3.168c.328.435.938.542 1.391.253l3.7-2.347c.105-.067.193-.154.265-.243.228-.3.28-.72.108-1.075l-1.323-2.682a1.04 1.04 0 0 1 .26-1.234 17.88 17.88 0 0 0 4.419-5.517 1.007 1.007 0 0 1 1.134-.516l3.48.854a1.025 1.025 0 0 0 1.203-.641l.035-.096 1.469-4.032a1.044 1.044 0 0 0-.545-1.297zm-32.113-4.157c.117-.703.305-1.423.573-2.152.514-1.389 1.958-3.195 3.211-3.99.134-.087.268-.167.403-.248 8.235-4.827 17.504 2.767 14.246 11.882-.428 1.191-1.501 2.65-2.599 3.603a6.273 6.273 0 0 1-.756.562 11.046 11.046 0 0 1-3.466 1.448c-6.597 1.466-12.757-4.073-11.612-11.105z" fill="#EBF2F9"/><path d="M147.845 146.947c.246.282.277.597.156.933a.008.008 0 0 1-.002.004c-.226.622-.969 1.316-1.833 2.011-.11.088-.208.17-.294.244l-.066.059-.051.046c-.806.743-.502.912-1.95 2.42-1.65 1.717-2.787 1.748-3.109 1.591-.274-.134.282-1.044.897-2.068l.09-.149.245-.412c.721-1.231.536-1.809.365-3.643-.139-1.489-2.317-8.321-2.317-8.321l3.162-.545s.952 5.44 2.001 6.278c.561.446 1.19.452 1.729.783.039.022.076.047.112.07.306.208.618.417.865.699z" fill="#E49963"/><path d="M147.845 146.947c.245.282.276.597.156.933a.008.008 0 0 1-.002.004c-.276.622-1.002 1.312-1.836 2.004a9.483 9.483 0 0 0-.291.251l-.066.059-.051.046c-.806.743-.502.912-1.95 2.42-1.65 1.717-2.787 1.748-3.109 1.591-.274-.134.282-1.044.897-2.068a7.02 7.02 0 0 0 2.942-2.167c.993-1.268 1.656-2.897 2.332-3.841.039.022.076.047.112.07.307.207.619.416.866.698z" fill="#C65447"/><path d="M122.346 144.973c-.196.975-1.587.813-3.141.433-1.555-.379-1.185.072-3.398-.173-2.213-.244-2.883-1.069-2.95-1.398-.06-.292 1.033-.395 2.205-.53l.444-.053c1.323-.166 2.292-1.021 3.496-1.723 1.139-.664 2.838-3.371 2.838-3.371l3.035.24s-1.592 2.418-2.209 3.469c-.362.619-.343 1.436-.298 2.067.025.344.047.695-.022 1.039z" fill="#E49963"/><path d="M119.205 145.405c-1.555-.379-1.185.072-3.398-.173-2.213-.244-2.883-1.069-2.95-1.398-.06-.292 1.033-.395 2.205-.53l.011.022s1.327.941 3.169.985c1.501.037 3.091-.393 4.127-.376.024.343.046.695-.023 1.038-.196.975-1.587.813-3.141.432z" fill="#C65447"/><path d="M129.097 100.412s-.722-1.771-1.518-1.843c-.795-.072-3.325-.47-3.505-.109-.181.362 0 1.663.541 2.133.543.47 3.904 1.228 3.904 1.228l.578-1.409z" fill="#E49963"/><path d="M133.974 125.573l6.539 17.597s1.004.098 1.968-.18c.885-.256 1.902-.926 1.902-.926s-1.622-16.897-4.597-20.41c-2.975-3.515-5.812 3.919-5.812 3.919z" fill="#AA413E"/><path d="M159.837 118.455s-18.79-6.353-22.98-5.001c-4.191 1.351-16.773 26.382-16.773 26.382s.284.378 1.059.669c.721.27 2.466.253 2.466.253s11.354-9.732 12.707-12.57c1.352-2.839 1.892-5.542 3.244-5.272 1.352.271 17.438 6.623 21.088 2.839 3.65-3.785 2.696-8.702 2.696-8.702l-3.507 1.402z" fill="#C65447"/><path d="M148.355 88.9c-.3-.619-.635-1.72-.8-3.68.026.194.363 2.668 1.315 4.067 3.908 2.566 11.398 11.132 11.25 12.755 0 0 2.638-4.475 2.684-4.502 0 0 4.867-6.187-.901-9.732-2.931-1.802-2.916-4.114-2.794-6.122.124-2.009-.799-10.655-6.671-8.392 0 0-.942-.419-1.364-.356 0 0 .345.066.52.247-.681-.04-1.654.01-2.466.471-2.155 1.224-4.082 12.199-.773 15.245z" fill="#B5453C"/><path d="M149.101 89.416c-.019.008 1.887.999 3.321.606 1.348-.367 2.23-2.116 2.212-2.12-.572-.114-.736-.899-.724-4.272l-.258.052-4.342.86s.098 1.366.101 2.654c.003 1.08-.062 2.104-.31 2.22z" fill="#E49963"/><path d="M149.31 84.54s.098 1.367.101 2.654c2.43-.068 3.714-2.284 4.24-3.512l-4.341.859z" fill="#D68D5D"/><path d="M154.101 83.208s1.273-2.011 1.579-3.731c.218-1.229-.407-5.78-4.982-5.125 0 0-1.328.131-2.578.974-.993.671-2.426 2.119-.823 6.09l.416 1.343 6.388.45z" fill="#B5453C"/><path d="M148.498 85.76s5.749.095 5.753-3.486c.004-3.58.748-5.98-2.921-6.192-3.669-.211-4.385 1.154-4.677 2.349-.293 1.195.349 7.212 1.845 7.329z" fill="#E49963"/><path d="M148.711 75.995s1.574 4.2 3.99 4.821c2.415.621 3.462-.025 3.462-.025s-1.852-1.472-2.237-4.04c0 0-4.028-2.755-5.215-.756z" fill="#B5453C"/><path d="M149.101 76.336s-1.175.938-1.462 1.849c-.286.911-.415 2.788-.962 2.724 0 0-1.186-2.854.146-4.47 1.414-1.711 2.278-.103 2.278-.103z" fill="#B5453C"/><path d="M161.902 104.879c.568-2.377-1.362-6.99-3.375-10.81-1.827-3.461-3.722-6.269-3.893-6.168-4.818 2.859-5.254.481-5.254.481s-4.376.582-5.616 2.715c-1.714 2.95-3.58 11.8-5.415 11.67-.842-.06-9.314-3.245-9.314-3.245s-1.411 1.322-1.141 2.945c0 0 4.183 2.801 7.72 4.587 1.871.946 3.561 1.607 4.356 1.42 1.611-.379 4.129-4.114 5.489-6.313.003-.005.006-.009.008-.015 1.736 9.825-.624 12.063.571 13.098 1.262 1.094 3.064-.521 7.029 1.198 2.601 1.128 6.21 2.76 8.641 3.043 1.275.149 2.225-.072 2.535-.933.903-2.5-3.423-9.141-2.341-13.673z" fill="#699DEE"/><path d="M149.776 83.59s-.107.455-1.238.384c0 0-.95-.058-.921-.558-.001 0 .921-.356 2.159.174z" fill="#fff"/><path d="M164.245 118.553c-.309.86-1.26 1.082-2.535.933-1.682-.733-8.946-3.547-8.865-5.454.121-2.824 1.396-2.914.496-6.399-.724-2.798 5.988-8 7.059-9.13 2.013 3.818 2.069 3.999 1.502 6.376-1.082 4.532 3.244 11.173 2.343 13.674zM145.461 102.161c-1.36 2.199-3.877 5.934-5.489 6.313-.795.187-2.485-.474-4.356-1.42 1.366.353 2.693.343 3.981.218 1.397-.135 1.803-1.847 4.01-4.415 1.432-1.665 1.783-1.245 1.854-.696z" fill="#4A75CB"/><path d="M152.191 107.566s-1.217-.946-2.365-.721c-1.15.225-1.713 1.014-1.668 1.374.045.36.654 1.374 1.532 1.465.879.089 3.379-.541 3.379-.541l-.878-1.577z" fill="#E49963"/><path d="M154.634 87.902s4.685.288 6.307 2.55c2.283 3.184 6.248 16.184 5.167 19.157l-14.254-.06s-.346-1.614.134-2.395c.481-.781 8.291-2.043 8.653-2.403.36-.361-4.506-7.029-4.506-8.11-.001-1.082-1.501-8.74-1.501-8.74z" fill="#699DEE"/><path d="M147.831 103.083H130.6l3.111 10.847h17.257l-3.137-10.847z" fill="#1C468A"/><path d="M156.33 113.508h-22.56v.423h22.56v-.423zM140.572 108.331c-.109-.381-.508-.69-.889-.69-.382 0-.602.309-.493.69.109.381.508.69.889.69s.603-.309.493-.69z" fill="#163560"/><path d="M207.203 16.688h-5.7v35.508h5.7V16.688zM216.8 6.79h-5.7v45.406h5.7V6.791zM226.99 25.274h-5.7v26.922h5.7V25.274zM216.486 0h-4.827a.5.5 0 0 0 0 .998h4.827a.5.5 0 0 0 0-.998zM212.758 2.816a.5.5 0 0 0 0-.998h-1.099a.5.5 0 0 0 0 .998h1.099zM226.554 19.975h-4.827a.5.5 0 0 0 0 1h4.827a.5.5 0 0 0 0-.999zM221.727 22.791h1.099a.5.5 0 0 0 0-.997h-1.099a.5.5 0 0 0 0 .997z" fill="#AFCDFB"/></svg>