<svg width="332" height="159" viewBox="0 0 332 159" fill="none" xmlns="http://www.w3.org/2000/svg"><path d="M161.995 121.608h-41.932a2.886 2.886 0 0 1-2.883-2.888v-1.878h44.815v4.766z" fill="#77A4E5"/><path d="M140.61 156.077h-2.705l-.759-34.469h4.131l-.667 34.469z" fill="#94B0ED"/><path d="M152.365 156.077h-26.306v-2.379l13.408-1.211 12.898 1.211v2.379z" fill="#94B0ED"/><path d="M123.505 155.704a2.164 2.164 0 1 1 4.327 0 2.165 2.165 0 0 1-4.327 0zM149.809 155.704a2.164 2.164 0 1 1 4.327 0 2.165 2.165 0 0 1-4.327 0zM148.304 123.87h-18.183a1.977 1.977 0 0 1-1.975-1.978v-.284h22.132v.284a1.976 1.976 0 0 1-1.974 1.978z" fill="#94B0ED"/><path d="M120.935 121.608a3.758 3.758 0 0 1-3.755-3.76v-30.04c0-5.948 3.883-10.77 8.672-10.77h19.613c4.789 0 8.672 4.822 8.672 10.77v33.802h-33.202v-.002z" fill="#F99746"/><path d="M121.322 121.608a2.06 2.06 0 0 1-2.059-2.062V87.808c0-5.948 3.883-10.77 8.673-10.77h19.613c4.789 0 8.672 4.822 8.672 10.77v33.802h-34.899v-.002z" fill="#CC6A27"/><path d="M166.773 121.608h-47.975a2.382 2.382 0 0 1-2.38-2.383 2.382 2.382 0 0 1 2.38-2.383h47.975a2.381 2.381 0 0 1 2.379 2.383 2.38 2.38 0 0 1-2.379 2.383z" fill="#F99746"/><path d="M168.225 20.965h-18.177a1.522 1.522 0 0 1-1.516-1.519V1.876c0-.837.683-1.52 1.516-1.52h18.177c.835 0 1.517.685 1.517 1.52v17.57c0 .836-.682 1.519-1.517 1.519z" fill="#C0D8FB"/><path d="M167.437 20.073h-16.602a1.39 1.39 0 0 1-1.386-1.388V2.636a1.39 1.39 0 0 1 1.386-1.388h16.602a1.39 1.39 0 0 1 1.386 1.388v16.048c0 .763-.623 1.389-1.386 1.389z" fill="#DFEBFD"/><path d="M158.697 3.13a.44.44 0 1 1 .88 0 .44.44 0 0 1-.88 0zM162.242 3.752a.44.44 0 1 1 .769.428.44.44 0 0 1-.769-.428zM165.28 6.169a.44.44 0 1 1 .476.74.44.44 0 0 1-.476-.74zM166.785 9.91a.44.44 0 1 1-.002.88.44.44 0 0 1 .002-.88zM166.016 14.25a.44.44 0 1 1-.622.623.44.44 0 0 1 .622-.623zM163.258 17.02a.44.44 0 1 1-.622.623.44.44 0 0 1 .622-.623zM158.697 18.45a.44.44 0 1 1 .88 0 .44.44 0 0 1-.88 0zM156.017 3.752a.44.44 0 1 0-.769.428.44.44 0 0 0 .769-.428zM152.979 6.169a.437.437 0 0 0-.607.13.438.438 0 0 0 .131.609.44.44 0 0 0 .476-.739zM151.474 9.91a.44.44 0 1 0 .002.88.44.44 0 0 0-.002-.88zM152.243 14.25a.44.44 0 1 0 .622.623.44.44 0 0 0-.622-.623zM155.001 17.02a.44.44 0 1 0 .622.623.44.44 0 0 0-.622-.623zM159.018 10.35a.44.44 0 1 1 .88 0 .44.44 0 0 1-.88 0z" fill="#B7D3F3"/><path d="M159.518 4.853h-.121v5.497h.121V4.853z" fill="#B7D3F3"/><path d="M162.212 7.911l-2.91 2.287.222.284 2.91-2.287-.222-.284z" fill="#B7D3F3"/><path d="M194.388 158.721h-17.861c-.858-1.049-1.34-5.987-1.211-7.253.027-.254.347-1.439.347-1.439s6.596-2.786 7.434.955a3.9 3.9 0 0 0 .091.346c1.055 3.499 5.79 5.09 8.524 5.533 1.777.288 2.434 1.214 2.676 1.858z" fill="#1B3051"/><path d="M145.694 102.888c.645 0 24.452 3.334 29.405 8.909 2.475 2.785 8.946 39.286 8.946 39.286s-3.009 2.138-9.622.134c0 0-8.728-23.617-8.37-30.293.099-1.846-21.163-2.619-24.927-3.505-3.763-.886-8.434-3.058-6.407-6.685 2.026-3.625 10.975-7.846 10.975-7.846z" fill="#233862"/><path d="M182.497 158.722h-17.862c-.858-1.05-.542-4.924-.413-6.189.026-.255.045-.404.045-.404s6.1-4.885 6.937-1.145c.025.118.056.233.09.346 1.055 3.499 5.79 5.09 8.524 5.533 1.778.288 2.435 1.214 2.679 1.859z" fill="#1E3C68"/><path d="M136.21 104.818c.646 0 29.077 1.414 34.032 7.556 2.475 3.067 2.842 38.5 2.842 38.5s-3.061 3.801-9.675 1.594c0 0-6.077-18.798-5.63-31.6.071-2.034-17.698-2.268-22.578-2.657-6.19-.493-7.754-10.897-5.728-14.892 2.027-3.994 6.737 1.499 6.737 1.499z" fill="#23417C"/><path d="M142.245 64.747l-.357.072a2.957 2.957 0 0 1-3.472-2.308l-.376-1.866a2.96 2.96 0 0 1 2.304-3.476l.358-.072a2.955 2.955 0 0 1 3.471 2.307l.376 1.867a2.96 2.96 0 0 1-2.304 3.476z" fill="#122544"/><path d="M155.023 104.444c-3.565 5.702-25.826 7.419-25.826 7.419-.375-.911-2.068-15.609-2.356-16.623-.724-2.536-1.193-5.332-1.492-8.07l-.011-.106c-.513-4.75-.516-9.316-.446-12.061.04-1.588.103-2.566.106-2.614v-.002l.163-.066a60.135 60.135 0 0 1 3.888-1.479 50.932 50.932 0 0 1 3.006-.927c1.695-.465 3.272-.8 4.73-1.034a34.491 34.491 0 0 1 4.669-.43c.063-.004.125-.004.187-.005.367-.006.724-.006 1.068.003 3.477.075 5.79.767 6.96 1.229.163.065.303.125.419.178l.046.019c.132.059.235.109.305.146.009.004.02.008.028.014.036.018.068.037.1.056l1.831 19.278 2.625 15.075z" fill="#D2E3FC"/><path d="M178.545 93.973c-2.545 1.183-17.681 2.177-19.136 1.758-.745-.217-3.867-2.97-7.006-6.356l-.003-.001c-2.972-3.203-5.967-6.974-6.976-9.686-2.079-5.576-.291-10.527-.291-10.527s3.862-.016 5.436.936c1.575.955 10.577 17.56 11.781 17.996 1.203.44 15.463 1.257 17.096 2.033 0 0 1.642 2.664-.901 3.847z" fill="#D2E3FC"/><path d="M141.638 69.123l-.005.939s.261 2.935-3.349 3.369c-3.609.436-6.346-1.135-6.252-3.4.322-1.754.678-2.96.7-4.411.009-.539-.03-1.111-.131-1.757l6.994-.15 2.06.333-.017 5.077z" fill="#EA9E6A"/><path d="M141.657 64.045l-.019 5.078c-.742.347-1.58.56-2.521.56-3.214.005-6.415-5.176-6.516-5.822l9.056.184z" fill="#D88D59"/><path d="M142.068 66.512s-8.956 1.826-10.005-3.777c-1.049-5.603-2.913-9.14 2.761-10.542 5.673-1.403 7.188.525 7.992 2.31.806 1.786 1.555 11.39-.748 12.009z" fill="#EA9E6A"/><path d="M144.552 50.337s-2.498-.189-5.446-1.468c-2.393-1.038-5.409.114-6.387.632.026-.158.088-.374.238-.59 0 0-.44.313-.503.748-.046.034-.066.056-.054.065 0 0-.499-.091-.819.055 0 0 .225-.033.304.112a.14.14 0 0 0 .037.04c-3.729 1.81-4.064 7.715-2.86 9.079 1.446 1.641 3.185 5.34 3.185 5.34s.63-.876.366-2.321c-.265-1.447.983-1.449 2.557-2.108 1.574-.66.259-2.5 1.636-3.62 1.377-1.12 6.432-.469 6.366-1.324 1.873-.686 1.38-4.448 1.38-4.64z" fill="#8E342E"/><path d="M128.358 106.436c-.428-2.902-1.451-6.587-1.93-9.722-.398-2.608-.78-6.805-1.079-9.542l-.011-.106c.019.009.051.062.072.035.989-1.202 3.688-2.52 6.958 2.274.653.955 3.323 6.825 3.228 8.029-.437 5.484-7.238 9.032-7.238 9.032z" fill="#B7D3F3"/><path d="M130.489 98.14c-.074-.433.007-.977.345-1.656 0 0 .419-.272.976-.589.829-.468 1.964-1.036 2.478-.945a6.8 6.8 0 0 1 .364.08c1.219.293 4.061 1.168 4.49 1.682.354.423.836.96 1.167 1.428h-9.82z" fill="#EA9E6A"/><path d="M132.367 98.14h-23.932c-.064-.308-.066-.592.018-.807.714-1.806 2.107-4.779 3.712-7.968a203.768 203.768 0 0 1 3.695-7.015c1.696-3.06 3.249-5.62 4.162-6.669.719-.825 1.628-1.519 2.575-2.09a18.122 18.122 0 0 1 2.401-1.2v-.002c.055-.024.109-.046.163-.066 1.667-.677 2.988-.973 2.988-.973s.018.758.019 1.922c.006 3.378-.125 10.186-1.2 11.847-.3.463-.859 1.162-1.558 1.982l-.061.07c-.377.444-.796.92-1.237 1.412-2.498 2.803-5.661 6.094-6.048 6.494a1.226 1.226 0 0 0-.039.041h.045l6.711.094 2.059.028 4.268.06c.295.126.524.336.699.595.415.605.541 1.485.56 2.245z" fill="#D2E3FC"/><path d="M178.546 93.973c-2.546 1.183-17.682 2.177-19.137 1.758-.745-.217-3.867-2.97-7.006-6.356.154.02 1.59-2.375 8.138 3.359 0 0 1.715.764 6.379.337 4.668-.428 10.66-.586 11.626.902z" fill="#B7D3F3"/><path d="M134.666 64.747l-.357.072a2.957 2.957 0 0 1-3.472-2.308l-.376-1.866a2.96 2.96 0 0 1 2.304-3.476l.358-.072a2.955 2.955 0 0 1 3.471 2.307l.376 1.867a2.96 2.96 0 0 1-2.304 3.476z" fill="#122544"/><path d="M131.891 58.024c-.238-.431-.589-3.906.364-6.673.462-1.338 1.207-2.1 2.142-2.614a2.295 2.295 0 0 1 1.103-.286l.94.016c-3.096 1.313-3.813 8.332-3.572 9.081-.007-.023-.017-.04-.023-.053l-.954.529zM140.922 65.332c-5.201 0-7.776-4.117-7.801-4.158l.465-.285-.233.143.233-.142c.023.04 2.448 3.897 7.336 3.897h.098l.006.546-.104-.001z" fill="#122544"/><path d="M133.828 62.92l-.178.035a1.474 1.474 0 0 1-1.73-1.15l-.188-.93a1.475 1.475 0 0 1 1.148-1.733l.178-.035a1.474 1.474 0 0 1 1.73 1.15l.188.93a1.476 1.476 0 0 1-1.148 1.732z" fill="#2B478B"/><path d="M141.569 65.514h-.491a.456.456 0 0 1 0-.91h.491a.456.456 0 0 1 0 .91z" fill="#122544"/><path d="M309.595 137.589s-3.238-3.784-.2-6.186c0 0 2.219-1.345 4.029-1.236 0 0-2.564 4.306-1.734 4.735.831.428 2.512-5.005 2.512-5.005s5.051-.49 6.675.292c0 0-4.318 3.538-3.408 3.749.91.21 5.573-3.264 5.573-3.264s4.701.801 4.45 3.674c-.251 2.872-1.871 3.759-2.582 3.683-.711-.077-4.877-1.668-4.968-1.085-.091.583 2.417 2.493 4.171 2.583 0 0-3.314 3.66-5.517 2.604-2.203-1.057-2.391-2.731-3.764-3.359-1.372-.629-2.545-.627-1.978.015.568.64 3.051 1.262 3.838 2.653.784 1.391 1.49 2.329-.79 1.986-2.279-.343-5.983-2.014-6.146-3.926-.163-1.911-.161-1.913-.161-1.913z" fill="#C8DBF4"/><path d="M325.182 134.425s-12.767-.493-15.587 3.164c0 0-.624 1.871-2.543 3.574l-.298.817s2.211-2.336 3.004-2.478c0-.001-1.238-4.531 15.424-5.077z" fill="#C8DBF4"/><path d="M307.054 141.163s-2.741 2.029-2.931 5.656l.497.044s.876-3.75 2.457-5.216c1.581-1.467-.023-.484-.023-.484zM298.274 132.831s5.151-2.889 2.747-6.81c0 0-1.923-2.408-3.983-3.026 0 0 1.099 5.846 0 5.984-1.099.137-.755-6.603-.755-6.603s-5.426-2.614-7.556-2.408c0 0 3.366 5.71 2.266 5.571-1.099-.137-4.876-5.915-4.876-5.915s-5.563-1.032-6.456 2.27c-.892 3.301.549 4.952 1.374 5.158.824.206 6.112.139 5.975.826-.136.687-3.709 1.788-5.7 1.169 0 0 2.197 5.434 5.082 5.158 2.885-.275 3.777-2.063 5.562-2.2 1.786-.137 3.091.344 2.198.826-.894.481-3.916.157-5.357 1.386-1.442 1.228-2.61 1.984.069 2.535 2.679.55 7.486.206 8.447-1.858l.963-2.063z" fill="#C8DBF4"/><path d="M282.203 122.927s14.424 4.677 16.071 9.904c0 0-.069 2.338 1.374 5.02v1.032s-1.511-3.508-2.335-3.989c0 0 3.227-4.539-15.11-11.967z" fill="#C8DBF4"/><path d="M299.648 137.851s2.223 3.382.957 7.501l-.572-.155s.556-4.535-.608-6.816c-1.166-2.28.223-.53.223-.53z" fill="#C8DBF4"/><path d="M306.469 128.846s-6.79-3.807-3.621-8.976c0 0 2.535-3.173 5.251-3.99 0 0-1.449 7.706 0 7.887 1.449.181.996-8.704.996-8.704s7.153-3.446 9.958-3.173c0 0-4.436 7.525-2.987 7.344 1.449-.181 6.428-7.798 6.428-7.798s7.334-1.36 8.511 2.992c1.177 4.353-.725 6.528-1.811 6.8-1.086.273-8.058.181-7.876 1.088.181.907 4.888 2.358 7.515 1.541 0 0-2.897 7.163-6.701 6.8-3.802-.362-4.979-2.72-7.333-2.901-2.355-.181-4.074.453-2.897 1.088 1.177.634 5.16.207 7.062 1.826 1.902 1.619 3.44 2.615-.091 3.341-3.53.726-9.869.272-11.136-2.448l-1.268-2.717z" fill="#D4E4F8"/><path d="M327.654 115.791s-19.012 6.166-21.185 13.057c0 0 .091 3.082-1.811 6.619v1.36s1.991-4.625 3.077-5.259c0-.002-4.254-5.986 19.919-15.777z" fill="#D4E4F8"/><path d="M304.658 135.465s-2.932 4.46-1.261 9.887l.754-.204s-.732-5.978.803-8.985c1.534-3.007-.296-.698-.296-.698z" fill="#D4E4F8"/><path d="M306.239 157.122c7.346 0 13.301-5.964 13.301-13.32h-26.601c0 7.357 5.955 13.32 13.3 13.32z" fill="#D4E4F8"/><path d="M319.723 157.8h-26.968c0-.908.735-1.644 1.64-1.644h23.687c.907 0 1.641.736 1.641 1.644z" fill="#D4E4F8"/><path d="M319.844 143.802h-27.342v.409h27.342v-.409z" fill="#9FC1F4"/><path opacity=".5" d="M58.796 46.471c-.356-8.835 7.038-12.759 14.598-12.759 7.56 0 15.789 1.962 16.501 13.71.459 7.558-3.563 12.21-15.149 12.21-3.906 0-6.942-.618-9.269-1.718l-5.79 5.152 2.845-7.122c-2.52-2.349-3.582-5.66-3.736-9.473z" fill="#D2E3FC"/><path d="M231.998 39.346c.497-12.327-9.82-17.804-20.371-17.804-10.549 0-22.03 2.737-23.025 19.13-.639 10.546 4.974 17.035 21.138 17.035 5.451 0 9.688-.86 12.935-2.397l8.08 7.19-3.971-9.94c3.517-3.274 5-7.894 5.214-13.214z" fill="#D2E3FC"/><path d="M59.722 121.608H17.79a2.886 2.886 0 0 1-2.884-2.888v-1.878h44.816v4.766z" fill="#77A4E5"/><path d="M38.335 156.077h-2.704l-.758-34.469h4.131l-.669 34.469z" fill="#94B0ED"/><path d="M50.091 156.077H23.786v-2.379l13.407-1.211 12.898 1.211v2.379z" fill="#94B0ED"/><path d="M21.23 155.704c0-1.196.968-2.166 2.163-2.166 1.195 0 2.164.97 2.164 2.166a2.165 2.165 0 0 1-2.164 2.167 2.165 2.165 0 0 1-2.163-2.167zM47.535 155.704a2.165 2.165 0 0 1 4.327 0 2.165 2.165 0 0 1-2.163 2.167 2.165 2.165 0 0 1-2.164-2.167zM46.029 123.87H27.846a1.977 1.977 0 0 1-1.975-1.978v-.284h22.132v.284a1.975 1.975 0 0 1-1.974 1.978z" fill="#94B0ED"/><path d="M18.661 121.608a3.758 3.758 0 0 1-3.755-3.76v-30.04c0-5.948 3.883-10.77 8.672-10.77h19.613c4.79 0 8.672 4.822 8.672 10.77v33.802H18.662v-.002z" fill="#F99746"/><path d="M19.049 121.608a2.06 2.06 0 0 1-2.059-2.062V87.808c0-5.948 3.883-10.77 8.673-10.77h19.612c4.79 0 8.672 4.822 8.672 10.77v33.802H19.05v-.002z" fill="#CC6A27"/><path d="M64.498 121.608H16.523a2.381 2.381 0 0 1-2.38-2.383 2.381 2.381 0 0 1 2.38-2.383h47.975a2.381 2.381 0 0 1 2.38 2.383 2.38 2.38 0 0 1-2.38 2.383z" fill="#F99746"/><path d="M77.383 154.971c-.143 1.385 1.781 1.743 4.012 1.878 2.23.136 1.552.586 4.604 1.173 3.053.588 4.287-.237 4.514-.649.2-.365-1.216-.955-2.724-1.62-.19-.083-.38-.169-.57-.255-1.697-.77-2.638-2.312-3.953-3.746-1.245-1.358-2.396-5.678-2.396-5.678l-4.147-.933s1.126 3.889 1.512 5.549c.228.976-.135 2.06-.457 2.886-.17.447-.345.907-.395 1.395z" fill="#FFB27D"/><path d="M81.395 156.849c2.23.136 1.552.586 4.604 1.173 3.053.588 4.287-.237 4.514-.649.201-.365-1.216-.955-2.724-1.62l-.023.025s-2.159.708-4.634.006c-2.018-.573-3.96-1.805-5.35-2.211-.174.449-.35.908-.398 1.397-.144 1.385 1.78 1.744 4.011 1.879z" fill="#0F2549"/><path d="M71.1 106.857c-2.23-1.568-16.992-4.366-24.524-5.174l-8.326-7.239s-7.086 10.512-7.142 18.554c-.027 3.75 1.699 4.122 1.699 4.122s26.689.199 27.858.32c1.915.197 4.442 4.975 5.072 9.327.632 4.352 11.76 22.049 11.76 22.049s2.321.745 3.395.682c1.154-.068 1.689-.455 1.689-.455s-6.449-38.647-11.48-42.186z" fill="#233862"/><path d="M70.48 154.971c-.143 1.385 1.78 1.743 4.012 1.878 2.23.136 1.552.586 4.604 1.173 3.053.588 4.287-.237 4.514-.649.2-.365-1.216-.955-2.724-1.62-.19-.083-.38-.169-.57-.255-1.697-.77-2.638-2.312-3.953-3.746-1.245-1.358-2.396-5.678-2.396-5.678l-4.147-.933s1.126 3.889 1.512 5.549c.228.976-.135 2.06-.457 2.886-.17.447-.345.907-.395 1.395z" fill="#FFB27D"/><path d="M74.492 156.849c2.23.136 1.552.586 4.604 1.173 3.053.588 4.287-.237 4.514-.649.201-.365-1.216-.955-2.724-1.62l-.023.025s-2.16.708-4.634.006c-2.018-.573-3.96-1.805-5.351-2.211-.173.449-.348.908-.397 1.397-.144 1.385 1.78 1.744 4.01 1.879z" fill="#233862"/><path d="M64.137 106.857c-1.939-1.362-7.769-2.419-14.205-3.204a4.332 4.332 0 0 1-3.675-3.254l-14.97-5.955s-7.087 10.512-7.143 18.554c-.026 3.75 1.7 4.122 1.7 4.122s26.688.199 27.858.32c1.915.197 4.441 4.975 5.072 9.327.63 4.352 11.76 22.049 11.76 22.049s2.32.745 3.395.682c1.154-.068 1.689-.455 1.689-.455s-6.45-38.647-11.481-42.186z" fill="#2B478B"/><path d="M44.117 57.362s-4.363 2.234-1.184 7.033c0 0-3.75.435-4.693-.646 0 0 .142.473.309.702 0 0-3.633-.476-4.934-1.856-1.302-1.379 2.757-19.718 12.432-15.965 0 0 8.602.786 6.16 10.496-2.44 9.71.766 10.25.766 10.25s-.965.29-1.396.218c0 0-.59-.346-.655-.716 0 0 .032.569.164.77 0 0-3.517-.253-5.026-1.853-1.508-1.598-2.776-6.486-1.943-8.433z" fill="#8E342E"/><path d="M50.347 62.16l-.35.048a2.865 2.865 0 0 1-3.221-2.44l-.253-1.83a2.867 2.867 0 0 1 2.436-3.226l.35-.048a2.865 2.865 0 0 1 3.222 2.44l.252 1.83a2.868 2.868 0 0 1-2.436 3.226z" fill="#ED7D2B"/><path d="M51.343 76.82c-1.302 1.007-2.126 4.641-4.225 5.242-7.87 2.25-12.095-7.11-13.477-11.68 1.054-.678 2.07-.866 2.656-.968a25.616 25.616 0 0 1 1.675-.223c.86-.732 2.05-3.608 2.121-7.982l.38.08 6.364 1.4s-.185 2.014-.23 3.91c-.034 1.483-.083 1.838.032 2.015.495.08 1.079 1.35 1.079 1.35l.003.005c.092.134 2.066 3.04 3.622 6.852z" fill="#FFB27D"/><path d="M46.839 62.691s-.187 2.012-.231 3.91c-3.574-.176-5.397-3.482-6.134-5.31l6.365 1.4z" fill="#ED985F"/><path d="M79.208 95.747s-3.742.138-7.807.151c-.48.003-.967.003-1.45 0-3.311-.014-6.564-.13-7.948-.487-1.352-.349-6.553-3.88-10.717-8.157l-.002-.001c-.321.77-.565 1.358-.571 1.405a21.87 21.87 0 0 1-.575 2.845 2.837 2.837 0 0 0-.047.193c-.012.05-.02.103-.03.155-.01.048-.02.1-.026.15-.446 2.745.916 6.907 1.311 9.022.127.671.155 1.136-.001 1.285-6.78 6.438-19.497 4.976-25.08 3.937a2.066 2.066 0 0 1-1.462-2.964c2.153-4.264 6.191-13.684 5.539-23.284-.022-.329 3.029-10.81 3.029-10.81s2.372-.414 5.113-.635c.258.235.792 7.13 4.22 7.53.558.064 4.135 5.535 4.135 5.535l1.083-5.59-1.282-7.416c1.645.482 2.547.656 3.916 1.202a4.327 4.327 0 0 1 2.182 1.941c2.395 4.385 10.17 18.523 10.962 18.853.742.31 3.543.868 6.506 1.41h.002c3.965.727 8.221 1.415 8.221 1.415l.779 2.315z" fill="#D2E3FC"/><path d="M48.811 98.09l-1.246.004.004-.004h1.242z" fill="#D2E3FC"/><path d="M47.898 64.607s-8.462-.166-8.278-5.443c.184-5.276-.783-8.851 4.628-8.967 5.411-.117 6.39 1.932 6.756 3.709.367 1.776-.898 10.609-3.105 10.701z" fill="#FFB27D"/><path d="M71.403 95.898c-.48.003-.967.003-1.452 0-3.31-.013-6.564-.13-7.947-.487-1.352-.349-6.554-3.88-10.716-8.157-.002-.001-.002-.003-.002-.003s.877-3.366 1.257-3.93c.377-.565 1.872 4.913 5.361 7.142 3.489 2.228 8.95 3.79 11.601 3.158 1.785-.425 1.968 1.182 1.898 2.277z" fill="#B7D3F3"/><path d="M46.236 61.671s.055.632 1.442.732c0 0 1.166.084 1.214-.595 0-.002-1.06-.639-2.656-.137z" fill="#fff"/><path d="M46.695 63.805c-4.809-1.522-5.988-6.08-6-6.126l.514-.128-.258.064.256-.064c.01.043 1.127 4.32 5.646 5.75l.091.027-.154.507c-.03-.01-.063-.021-.095-.03z" fill="#122544"/><path d="M47.24 64.161l-.454-.142a.442.442 0 0 1 .266-.842l.454.144a.441.441 0 0 1-.266.84z" fill="#ED7D2B"/><path d="M48.38 49.496s-2.166 6.428-5.417 7.518c-3.249 1.09-4.328-.2-4.328-.2s2.396-2.203 2.67-5.768c0 0 5.25-4.177 7.076-1.55z" fill="#8E342E"/><path d="M44.333 51.389s4.412-.247 5.732 1.01c.95.908.928 1.38 1.002 2.59 0 0 1.93-2.98-.056-5.067-2.106-2.213-6.678 1.467-6.678 1.467z" fill="#8E342E"/><path d="M48.192 50.176s-1.105 6.15-5.143 8.384c0 0 3.912-4.011 3.98-8.023.07-4.011 1.163-.36 1.163-.36z" fill="#8E342E"/><path d="M33.615 62.597c1.3 1.379 4.934 1.856 4.934 1.856-.166-.23-.307-.704-.307-.704 1.866 1.516 6.451.415 6.451.415-3.656-.81-2.473-6.095-1.228-6.32.724-3.985 2.161-8.948 2.836-11.178-.162-.027-.254-.035-.254-.035-9.675-3.752-13.733 14.588-12.432 15.966z" fill="#8E342E"/><path d="M41.56 61.617l-.35.048a2.865 2.865 0 0 1-3.222-2.44l-.252-1.83a2.868 2.868 0 0 1 2.436-3.226l.35-.048a2.865 2.865 0 0 1 3.222 2.44l.252 1.83a2.87 2.87 0 0 1-2.436 3.226z" fill="#ED7D2B"/><path d="M39.274 54.945c-.207-.39.52-3.42 1.592-5.77.517-1.136 1.824-2.655 2.757-3.048.337-.141.785-.084 1.15-.001.264.06 1.008.407 1.008.407-3.065.957-5.73 7.389-5.535 8.056-.006-.02-.015-.036-.02-.047l-.952.403z" fill="#ED7D2B"/><path d="M40.857 59.797l-.173.024a1.428 1.428 0 0 1-1.605-1.216l-.126-.91a1.43 1.43 0 0 1 1.214-1.608l.173-.024a1.427 1.427 0 0 1 1.605 1.216l.126.911c.108.777-.44 1.5-1.214 1.607z" fill="#F99746"/><path d="M61.391 92.691s3.629-.209 3.982-.019c.573.31 2.522 1.566 2.827 1.931.306.365 1.105 1.831 1.105 1.831s-.346.096-.502-.044c-.156-.141-1.34-1.401-1.34-1.401l1.216 1.85s-.42-.02-.588-.203a125.79 125.79 0 0 0-1.303-1.341l-.388-.077s.394.317.608.604c.215.287.356.594.356.594s-.347-.058-.454-.11c-.107-.052-1.127-.945-1.127-.945l.54.739s-.364-.018-.483-.099c-.119-.08-.914-.814-1.054-.812-.14.001-1.153-.041-1.588-.272-.435-.231-1.802-.761-1.802-.761l-.005-1.465z" fill="#FFB27D"/><path d="M38.984 67.542s-2.427.708-2.98 1.267c0 0 2.536 6.496 6.194 9.528l.977-.695v1.58l3.663 2.4c.001-.002-8.043-12.115-7.854-14.08zM51.346 101.025c-1.92-.745-8.358-3.356-10.946-5.792-2.892-2.727-8.893-12.53-8.893-12.53l10.5-2.568s4.325 6.323 5.556 7.527c.945.926 3.15.995 3.15.995l-.575 2.845a2.822 2.822 0 0 0-.047.193c-.012.05-.02.103-.03.154-.01.049-.018.1-.026.15-.448 2.747.914 6.91 1.311 9.026zM46.64 68.614s1.117 8.838.199 13.006c0 0 1.499-2.758 1.709-3.263l-.253-1.516.967.337s-.852-7.045-1.625-8.282c-.772-1.235-1.057-1.355-1.057-1.355l.06 1.073z" fill="#B7D3F3"/><path d="M79.21 95.747s-4.683.173-9.26.151c-1.134-1.763.255-3.876.255-3.876h.003c3.965.725 8.22 1.412 8.22 1.412l.782 2.313z" fill="#FFB27D"/><path d="M79.653 98.094H62.35c0-.762.617-1.382 1.38-1.382h15.925v1.382h-.002z" fill="#ED7D2B"/><path d="M106.357 79.22l-6.416 18.874H73.011l6.591-18.874h26.754z" fill="#ED7D2B"/><path d="M106.357 79.22l-6.358 18.7-.058.174H73.406l6.591-18.874h26.36z" fill="#F99746"/><path d="M92.328 88.483c-.166.721-.885 1.306-1.605 1.306s-1.168-.585-1.002-1.306c.166-.721.884-1.305 1.604-1.305.72 0 1.169.584 1.003 1.305z" fill="#FFC397"/><path d="M106.357 79.22l-6.358 18.7H87.807l14.866-18.7h3.684z" fill="#ED7D2B"/><path d="M61.396 94.159s-8.908.78-13.831.559v-4.845c3.226.892 13.828 2.817 13.828 2.817l.003 1.469z" fill="#FFB27D"/><path d="M36.003 68.808s-5.094.116-6.67 1.822c-1.578 1.706 1.564 11.345 1.564 11.345s9.496 11.646 14.246 12.468c0 0 2.076.284 3.045.3 0 0-.95-2.77.817-4.508 0 0-2.034-.57-2.118-.823-.084-.253-10.884-20.604-10.884-20.604z" fill="#D2E3FC"/><path d="M5.787 158.883H5.74c-.273 0-.492-.403-.486-.894l.736-57.465 2.17-.455-1.85 57.924c-.016.5-.246.89-.524.89z" fill="#233862"/><path d="M1.713 101.581h126.595c.815 0 1.477-.662 1.477-1.479v-.51c0-.816-.662-1.479-1.477-1.479H1.713c-.816 0-1.477.663-1.477 1.48v.509c0 .818.661 1.479 1.477 1.479zM284.832 158.883h.046c.273 0 .492-.403.486-.894l-.737-57.465-2.171-.455 1.85 57.924c.018.5.247.89.526.89z" fill="#233862"/><path d="M118.93 101.581h168.886c.94 0 1.703-.764 1.703-1.706v-.056c0-.942-.763-1.706-1.703-1.706H118.93c-.941 0-1.703.764-1.703 1.706v.056c0 .944.762 1.706 1.703 1.706z" fill="#233862"/><path d="M164.921 98.094h-17.303c0-.762.617-1.382 1.38-1.382h15.925v1.382h-.002z" fill="#ED7D2B"/><path d="M191.625 79.22l-6.416 18.874h-26.928l6.592-18.874h26.752z" fill="#ED7D2B"/><path d="M191.625 79.22l-6.358 18.7-.058.174h-26.534l6.59-18.874h26.36z" fill="#F99746"/><path d="M177.596 88.483c-.166.721-.885 1.306-1.605 1.306s-1.17-.585-1.002-1.306c.166-.721.884-1.305 1.604-1.305.721 0 1.169.584 1.003 1.305z" fill="#FFC397"/><path d="M191.625 79.22l-6.358 18.7h-12.19l14.865-18.7h3.683zM196.499 79.22l6.459 18.895 26.884-.02-6.59-18.876h-26.753z" fill="#ED7D2B"/><path d="M197.264 79.635l6.211 18.288.057.171h25.918l-6.439-18.46h-25.747z" fill="#B0D4FF"/><path d="M202.958 98.115l37.548-.02c0-.763-.617-1.383-1.38-1.383h-36.555l.387 1.403zM251.927 66.036h-.353a2.866 2.866 0 0 1-2.855-2.86V61.33a2.865 2.865 0 0 1 2.855-2.86h.353a2.865 2.865 0 0 1 2.855 2.86v1.847a2.865 2.865 0 0 1-2.855 2.86z" fill="#ED7D2B"/><path d="M236.863 152.218s-.379 5.912-1.521 5.994c-.152.011-5.794-.001-5.794-.001l-7.201-.058s.051-1.738 2.157-2.1c2.106-.363 5.634-1.837 6.914-4.62 1.347-2.929 5.445.785 5.445.785z" fill="#0E2C4F"/><path d="M257.478 103.587c.274.233 7.61 8.191 7.011 14.305-.176 1.795-1.721 3.145-3.521 3.145h-8.934s-9.116 1.632-9.334 3.604c-.217 1.974-2.082 12.61-5.78 27.724 0 0-2.725.939-4.377.268-2.185-.888-2.502-1.828-2.502-1.828s2.203-33.845 3.943-36.226c1.74-2.382 19.662-9.463 25.466-10.168 5.801-.705-1.972-.824-1.972-.824z" fill="#163560"/><path d="M205.66 95.146s-5.183-1.207-6.51 0c-1.326 1.207-1.749 2.959-1.749 2.959h8.258v-2.959h.001z" fill="#FFB27D"/><path d="M224.24 152.218s-.38 5.912-1.521 5.994c-.152.011-5.794-.001-5.794-.001l-7.201-.058s.051-1.738 2.157-2.1c2.106-.363 5.634-1.837 6.914-4.62 1.347-2.929 5.445.785 5.445.785z" fill="#163560"/><path d="M264.254 103.587c.209.175 1.796 4.454 2.856 9.312.912 4.182-2.264 8.138-6.537 8.138h-20.786s-9.116 1.632-9.334 3.604c-.217 1.974-2.082 12.61-5.78 27.724 0 0-2.733.718-4.869-.196-1.134-.486-2.031-1.651-2.031-1.651s2.224-33.558 3.964-35.939c1.74-2.382 19.662-9.463 25.466-10.168 5.804-.705 17.051-.824 17.051-.824z" fill="#2B478B"/><path d="M252.733 73.33l-3.214 3.092-5.477.001c-.006-.441.012-2.28.031-3.947l.004-.293.013-1.053c.011-.918.021-1.583.021-1.583l1.408-.964 3.127-2.145 1.692-1.158c.001.028.14 1.544.162 1.763.374 3.924 2.233 6.288 2.233 6.288z" fill="#FFB27D"/><path d="M244.77 72.773c.104-.044 6.03-2.707 6.723-2.477.694.23 1.557 2.349 1.557 2.349l-10.435 2.362c.001 0 .822-1.672 2.155-2.234z" fill="#B7D3F3"/><path d="M270.4 90.558c-1.128-6.972-5.896-12.19-7.936-14.147-1.37-2.063-9.414-3.766-9.414-3.766l-10.435 2.362s-5.882.639-9.197 6.133c-2.052 3.397-7.926 11.168-11.784 11.41-3.858.241-15.974 2.596-15.974 2.596v2.985l18.473.508c.226.006.449-.012.671-.053 1.59-.3 8.404-1.656 11.791-3.422.541 8.738 1.18 22.082 4.228 24.201 3.223 2.242 25.891 2.54 28.291-.876 1.229-1.748-.277-12.1-2.16-22.081 2.341-1.116 3.92-2.926 3.446-5.85z" fill="#D2E3FC"/><path d="M249.462 68.265l-.279.174s-2.578 1.858-5.093 2.691c.011-.918.021-1.583.021-1.583l1.408-.964 3.943-.318z" fill="#EAA16E"/><path d="M242.192 69.595s8.426.998 8.966-4.266c.541-5.265 1.991-8.683-3.366-9.542-5.356-.86-6.61 1.04-7.217 2.755-.607 1.715-.561 10.657 1.617 11.053z" fill="#FFB27D"/><path d="M240.799 58.002s1.59 5.712 2.742 5.235c1.152-.477 2.204-.867 2.356.917.151 1.784.82 3.874 4.573 3.493 3.754-.382 5.331-10.678 3.979-12.296-3.902-4.666-19.071-2.919-13.65 2.65z" fill="#163560"/><path d="M234.83 122.17h41.684a2.87 2.87 0 0 0 2.868-2.871v-1.866h-44.55v4.737h-.002z" fill="#77A4E5"/><path d="M229.835 122.17h31.536a2.12 2.12 0 0 0 2.119-2.122v-.492a2.12 2.12 0 0 0-2.119-2.122h-31.536c-1.17 0-2.119.951-2.119 2.122v.492a2.12 2.12 0 0 0 2.119 2.122z" fill="#F99746"/><path d="M256.089 156.434h2.688l.754-34.264h-4.107l.665 34.264z" fill="#2B478B"/><path d="M244.404 156.434h26.148v-2.365l-13.327-1.204-12.821 1.204v2.365z" fill="#2B478B"/><path d="M273.093 156.063a2.153 2.153 0 0 0-2.152-2.154 2.153 2.153 0 0 0-2.151 2.154 2.152 2.152 0 1 0 4.303 0zM246.943 156.063a2.153 2.153 0 0 0-2.152-2.154 2.153 2.153 0 0 0-2.151 2.154c0 1.19.963 2.155 2.151 2.155a2.154 2.154 0 0 0 2.152-2.155zM245.34 124.418h24.274a2.247 2.247 0 0 0 2.244-2.248h-28.764a2.249 2.249 0 0 0 2.246 2.248z" fill="#2B478B"/><path d="M275.262 122.17c1.13 0 2.047-.918 2.047-2.05V88.569c0-5.913-3.859-10.706-8.621-10.706h-19.495c-4.761 0-8.621 4.793-8.621 10.706v33.601h34.69z" fill="#F99746"/><path d="M275.647 122.17a3.735 3.735 0 0 0 3.733-3.738V88.569c0-5.913-3.859-10.706-8.621-10.706h-19.495c-4.762 0-8.621 4.793-8.621 10.706v33.601h33.004z" fill="#CC6A27"/><path d="M239.197 69.709c4.808-1.522 5.987-6.08 5.999-6.126l-.513-.127.256.064-.256-.064c-.01.043-1.127 4.32-5.647 5.75l-.091.027.155.507.097-.031z" fill="#122544"/><path d="M238.651 70.066l.453-.142a.441.441 0 0 0-.265-.84l-.452.142a.443.443 0 0 0-.287.553c.072.23.321.36.551.287zM245.271 67.928l-.35.048a2.865 2.865 0 0 1-3.222-2.44l-.252-1.83a2.867 2.867 0 0 1 2.436-3.226l.35-.048a2.865 2.865 0 0 1 3.221 2.44l.253 1.83a2.868 2.868 0 0 1-2.436 3.226z" fill="#ED7D2B"/><path d="M242.985 61.256c-.207-.39.52-3.419 1.592-5.77.517-1.136 1.824-2.655 2.757-3.048.336-.141.785-.084 1.149-.001.265.06 1.008.493 1.008.493-3.064.957-5.728 7.305-5.534 7.97-.006-.02-.015-.035-.021-.047l-.951.403z" fill="#ED7D2B"/><path d="M244.568 66.109l-.173.023a1.428 1.428 0 0 1-1.605-1.216l-.127-.91a1.43 1.43 0 0 1 1.214-1.608l.174-.023a1.428 1.428 0 0 1 1.605 1.215l.126.911c.107.777-.439 1.5-1.214 1.608z" fill="#F99746"/></svg>