<svg width="266" height="194" viewBox="0 0 266 194" fill="none" xmlns="http://www.w3.org/2000/svg"><path d="M11.32 193.748s-19.775-24.951-7.052-60.467c10.716-29.913 41.314-10.685 32.935-48.5-7.601-34.303.133-64.033 70.797-79.51C153.611-4.72 224.779-8.157 208.808 67.452c-5.686 26.919 85.543 4.541 47.295 126.297H11.32v-.001z" fill="#EBF3FA"/><path d="M209.164 160.049c-1.22-6.655-12.35-5.535-12.35-5.535s-8.388 10.77-10.576 10.861c-2.188.091 5.377-10.61 5.377-10.61-4.161-.757-15.28 3.505-15.28 3.505s-.426 13.344-2.569 12.893c-2.142-.452.979-11.796.979-11.796-4.161.882-8.344 5.312-8.344 5.312-5.378 7.335 4.3 13.874 4.3 13.874s-.247 4.622-3.527 9.673c0 0-.723.923-1.512 2.528l1.107.092c.115-.29.238-.569.372-.836 0-.003.001-.004.002-.005a46.094 46.094 0 0 1 .386-.696l.001-.002.001-.001c.393-.635.663-1.105.837-1.447l.001-.004c1.186-1.997 2.87-4.588 3.891-5.077 0 0-.108-.182-.194-.529l.194.529c1.557 4.225 10.975 5.692 16.342 5.048 5.368-.646 3.191-2.328.55-4.985-2.641-2.658-8.649-2.515-10.33-3.612-1.68-1.096.97-1.83 4.466-1.266 3.496.564 4.964 4.236 10.602 5.251 5.64 1.016 10.859-9.334 10.859-9.334-4.027.893-10.884-1.863-11.042-3.241-.158-1.379 10.251-.375 11.909-.647 1.655-.271 4.768-3.288 3.548-9.943zM12.08 178.221c-5.24-7.967 7.186-17.707 7.186-17.707s19.03 2.767 21.345.72c2.316-2.046-15.809-5.547-15.809-5.547 3.502-4.838 18.973-11.367 18.973-11.367s13.428 13.17 15.17 10.616c1.743-2.555-12.483-11.055-12.483-11.055 5.095-3.169 13.669-2.748 13.669-2.748 12.617 2.21 9.133 18.33 9.133 18.33s4.752 4.464 13.012 6.4c0 0 1.635.233 4.001 1.097l-1.037 1.175c-.399-.182-.797-.346-1.192-.487-.003-.002-.005-.002-.007-.002l-.017-.006c-.252-.08-.613-.192-1.054-.327h-.004c-1.019-.263-1.752-.479-2.261-.657a.009.009 0 0 1-.005-.002c-3.153-.875-14.536 15.158-20.63 19.749-6.094 4.591-5.517.749-5.416-4.539.102-5.287 6.356-11.016 7-13.774.645-2.758-2.77-.916-5.779 3.075-3.01 3.992-.928 9.165-5.68 15.712-4.752 6.546-20.148 1.108-20.148 1.108 4.97-3.025 9.268-12.534 8.086-14.092-1.181-1.557-10.803 9.64-12.755 10.983-1.953 1.344-8.06 1.313-13.299-6.655zM169.828 92.124s10.748-21.957 16.76-20.007c6.011 1.947-16.76 20.007-16.76 20.007zM162.098 102.057s25.747-25.285 35.753-20.675c10.006 4.612-6.098 9.556-12.241 10.903-6.143 1.348-23.512 9.772-23.512 9.772z" fill="#CDE0FB"/><path d="M83.064 97.222s-10.749-21.957-16.76-20.008c-6.012 1.948 16.76 20.008 16.76 20.008zM90.794 107.156S65.046 81.871 55.04 86.481c-10.006 4.611 6.098 9.556 12.24 10.903 6.144 1.347 23.513 9.772 23.513 9.772zM63.378 39.393c3.677-8.228 17.732-3.254 17.732-3.254s7.464 16.597 10.266 17.406c2.804.81-3.614-15.438-3.614-15.438 5.626.34 18.675 9.376 18.675 9.376s-3.656 17.41-.74 17.503c2.916.094 2.453-15.58 2.453-15.58 5.108 2.46 9.127 9.519 9.127 9.519 4.649 11.196-9.942 16.599-9.942 16.599s-1.137 6.06 1.517 13.638c0 0 .645 1.424 1.16 3.752l-1.462-.231a13.49 13.49 0 0 0-.218-1.2c0-.003 0-.004-.002-.007l-.003-.017c-.065-.242-.159-.586-.276-1.008l-.001-.003a28.384 28.384 0 0 1-.627-2.139l-.001-.004c-.906-2.961-2.269-6.849-3.437-7.804 0 0 .198-.203.418-.622l-.418.622c-3.348 4.977-16.002 3.896-22.747 1.36-6.745-2.533-3.396-4.023.86-6.627 4.257-2.604 11.99-.519 14.51-1.404 2.522-.886-.678-2.677-5.38-3.053-4.704-.376-7.761 3.912-15.382 3.442-7.62-.47-11.113-15.522-11.113-15.522 4.93 2.431 14.676 1.034 15.316-.7.64-1.734-13.153-3.73-15.213-4.607-2.058-.877-5.135-5.769-1.458-13.997z" fill="#DFEBFD"/><path d="M177.163 68.332v122.945a2.157 2.157 0 0 1-2.155 2.159h-94.57a2.158 2.158 0 0 1-2.155-2.159V68.332c0-1.192.965-2.159 2.156-2.159h94.569c1.191 0 2.155.965 2.155 2.16z" fill="#A38CD3"/><path d="M88.48 66.173v127.263H80.44a2.158 2.158 0 0 1-2.156-2.159V68.332c0-1.192.965-2.159 2.156-2.159h8.042z" fill="#8871BA"/><path opacity=".7" d="M110.897 147.048l1.729-.954a.436.436 0 0 1 .455.024c.172.121.351.234.535.34.344.2.693.37 1.049.507a.43.43 0 0 1 .281.398l.038 2.068c.003.22.176.403.398.418l1.883.128a.42.42 0 0 0 .44-.344l.333-1.874a.42.42 0 0 1 .366-.349 7.618 7.618 0 0 0 2.303-.696.433.433 0 0 1 .518.114l.742.888a.439.439 0 0 0 .574.083l1.555-1.046a.425.425 0 0 0 .138-.562l-.711-1.295-.174-.315a7.564 7.564 0 0 0 1.194-2.18.42.42 0 0 1 .391-.285l1.662-.029a.436.436 0 0 0 .427-.408l.098-1.442.028-.413a.444.444 0 0 0-.363-.467l-1.564-.28a.42.42 0 0 1-.349-.352 7.657 7.657 0 0 0-.425-1.565c-.014-.046-.031-.085-.049-.128-.007-.014-.011-.029-.015-.043a.432.432 0 0 1 .14-.458l1.437-1.209c.017-.012.032-.029.046-.044a.439.439 0 0 0 .037-.53l-1.039-1.554a.435.435 0 0 0-.572-.139l-1.803.996a.42.42 0 0 1-.475-.043 7.845 7.845 0 0 0-1.522-.955.443.443 0 0 1-.253-.393l-.038-1.986a.423.423 0 0 0-.394-.416l-1.862-.125a.442.442 0 0 0-.467.365l-.264 1.483a.435.435 0 0 1-.399.359 7.568 7.568 0 0 0-2.292.499.426.426 0 0 1-.491-.125l-1.088-1.298a.445.445 0 0 0-.589-.084l-1.547 1.036a.43.43 0 0 0-.137.564l.041.076.826 1.504a.44.44 0 0 1-.05.498l-.002.002a7.65 7.65 0 0 0-1.102 1.742.428.428 0 0 1-.383.254l-1.687.029a.443.443 0 0 0-.435.414l-.125 1.857a.442.442 0 0 0 .358.459l1.249.221a.438.438 0 0 1 .357.4 7.626 7.626 0 0 0 .779 2.901.43.43 0 0 1-.107.519l-1.165.978a.437.437 0 0 0-.082.574l.023.036 1.011 1.517a.443.443 0 0 0 .579.135zm9.475-9.962c.21.217.41.462.592.737.346.526.603 1.474.561 2.104l-.016.2c-.414 4.035-5.335 5.304-7.637 1.898-.3-.447-.53-1.181-.581-1.796a2.571 2.571 0 0 1-.003-.401 4.733 4.733 0 0 1 .373-1.551 4.086 4.086 0 0 1 6.711-1.191z" fill="#000" fill-opacity=".21"/><path d="M128.168 133.428l1.082-.368a.254.254 0 0 1 .258.061c.086.086.176.169.27.248.175.149.357.281.547.396a.251.251 0 0 1 .119.256l-.188 1.181a.246.246 0 0 0 .185.279l1.059.264a.242.242 0 0 0 .285-.151l.38-1.034a.244.244 0 0 1 .244-.162c.465.019.932-.035 1.383-.162a.253.253 0 0 1 .284.117l.332.582c.064.11.201.156.319.105l.991-.438a.245.245 0 0 0 .135-.306l-.274-.81-.066-.197a4.603 4.603 0 0 0 .902-1.121c.051-.09.15-.14.251-.123l.949.152c.13.02.255-.061.285-.189l.203-.812.057-.232a.256.256 0 0 0-.159-.303l-.863-.318a.246.246 0 0 1-.164-.236 4.373 4.373 0 0 0-.098-1.014.25.25 0 0 1 .122-.273l.942-.542c.011-.006.021-.014.03-.021a.251.251 0 0 0 .075-.297l-.434-.992a.251.251 0 0 0-.312-.137l-1.128.385a.244.244 0 0 1-.267-.073 4.541 4.541 0 0 0-.771-.699.255.255 0 0 1-.104-.25l.179-1.137a.245.245 0 0 0-.183-.277l-1.048-.261a.258.258 0 0 0-.303.161l-.301.818a.25.25 0 0 1-.263.164 4.414 4.414 0 0 0-1.357.052.25.25 0 0 1-.268-.121l-.488-.85a.258.258 0 0 0-.327-.108l-.986.433a.247.247 0 0 0-.134.308l.015.047.319.942c.034.1.003.209-.079.277l-.001.001a4.328 4.328 0 0 0-.805.882.245.245 0 0 1-.244.105l-.965-.155a.254.254 0 0 0-.289.191l-.259 1.046a.293.293 0 0 0-.006.088.259.259 0 0 0 .163.21l.69.252a.254.254 0 0 1 .163.263 4.407 4.407 0 0 0 .15 1.732.247.247 0 0 1-.079.26c-.01.01-.023.017-.035.024l-.763.44a.25.25 0 0 0-.105.318l.01.023.423.967c.053.122.19.181.315.139zm6.407-4.714c.099.145.187.305.263.48.144.334.194.902.106 1.255a1.83 1.83 0 0 1-.03.112c-.644 2.257-3.577 2.48-4.544.305-.125-.284-.183-.726-.149-1.082.009-.082.022-.16.04-.228.081-.322.208-.604.37-.847a2.366 2.366 0 0 1 3.944.005z" fill="#fff" fill-opacity=".42"/><path d="M131.341 162.332l2.805-1.365a.69.69 0 0 1 .716.077c.263.203.534.397.817.58.524.343 1.063.639 1.613.884a.684.684 0 0 1 .409.652l-.107 3.264a.67.67 0 0 0 .594.692l2.957.357a.662.662 0 0 0 .722-.507l.678-2.928a.666.666 0 0 1 .605-.521 12.03 12.03 0 0 0 3.688-.907.684.684 0 0 1 .806.22l1.097 1.462c.21.275.597.356.899.179l2.538-1.522a.667.667 0 0 0 .262-.875l-1.015-2.1-.249-.511a12.104 12.104 0 0 0 2.061-3.34.666.666 0 0 1 .64-.417l2.624.089a.687.687 0 0 0 .707-.608l.272-2.265.076-.649a.698.698 0 0 0-.534-.766l-2.442-.57a.665.665 0 0 1-.522-.583 11.924 11.924 0 0 0-.543-2.504c-.018-.072-.042-.137-.065-.205a.279.279 0 0 1-.019-.07.682.682 0 0 1 .257-.71l2.366-1.79a.693.693 0 0 0 .176-.898l-1.512-2.537a.686.686 0 0 0-.889-.267l-2.925 1.425a.665.665 0 0 1-.747-.107 12.122 12.122 0 0 0-2.322-1.63.7.7 0 0 1-.367-.641l.103-3.137a.67.67 0 0 0-.589-.687l-2.928-.349a.697.697 0 0 0-.766.538l-.537 2.317a.688.688 0 0 1-.659.535 12.012 12.012 0 0 0-3.656.6.678.678 0 0 1-.766-.239l-1.609-2.136a.705.705 0 0 0-.922-.181l-2.523 1.507a.676.676 0 0 0-.261.879l.057.124 1.182 2.44a.692.692 0 0 1-.12.779l-.002.002a11.936 11.936 0 0 0-1.882 2.658.676.676 0 0 1-.625.369l-2.664-.092a.7.7 0 0 0-.72.616l-.348 2.921a.698.698 0 0 0 .526.753l1.952.45a.694.694 0 0 1 .531.658c.019 1.597.357 3.171.992 4.638a.676.676 0 0 1-.212.809l-1.917 1.448a.686.686 0 0 0-.176.897l.035.059 1.471 2.474c.192.305.58.42.906.262zm15.752-14.936c.315.359.61.762.874 1.211.504.856.83 2.374.713 3.362-.013.106-.027.211-.042.315-.98 6.33-8.846 7.928-12.198 2.367-.437-.727-.741-1.905-.77-2.879a4.225 4.225 0 0 1 .028-.632c.112-.898.36-1.705.716-2.416 2.031-4.052 7.514-4.905 10.679-1.328z" fill="#000" fill-opacity=".22"/><path d="M92.214 63.75s-2.531-.055-2.617 2.423h5.32s.558-1.848 2.19-1.212V63.75h-4.893z" fill="#7999E2"/><path d="M92.214 63.75s4.506.43 4.678 4.3c.172 3.868 0 11.607 0 11.607l3.432-1.29 2.747 1.29v-11.78s-.258-3.525-3.949-4.128h-6.908z" fill="#AEC3FF"/><path d="M160.011 66.178h-9.479c-.657-.462-1.894-1.472-3.07-3.192-.226-.331-.449-.687-.666-1.07-1.215-2.157 10.034 2.823 13.215 4.262z" fill="#233862"/><path d="M154.166 87.307c.255.295.285.624.155.974a.009.009 0 0 1-.002.004c-.239.647-1.019 1.367-1.923 2.085a8.662 8.662 0 0 0-.308.253l-.069.062-.053.047c-.844.77-.53.948-2.047 2.51-1.731 1.78-2.914 1.804-3.25 1.637-.284-.142.302-1.087.95-2.15.032-.05.062-.103.094-.155l.258-.427c.759-1.28.571-1.884.407-3.798-.134-1.555-2.352-8.7-2.352-8.7l3.297-.544s.952 5.682 2.038 6.564c.581.47 1.235.48 1.795.83.039.024.078.049.116.075.315.215.639.437.894.733z" fill="#FFB27D"/><path d="M154.166 87.307c.255.295.285.624.155.974a.009.009 0 0 1-.002.004c-.292.647-1.051 1.362-1.927 2.078a11.641 11.641 0 0 0-.374.322l-.053.047c-.844.77-.53.948-2.047 2.51-1.731 1.78-2.914 1.804-3.25 1.637-.284-.142.302-1.087.95-2.15a7.316 7.316 0 0 0 3.079-2.24c1.043-1.314 1.745-3.009 2.456-3.989.04.024.078.049.117.075.318.214.641.436.896.732z" fill="#233862"/><path d="M127.63 85.06c-.211 1.017-1.659.837-3.274.429-1.616-.408-1.235.065-3.537-.206-2.302-.272-2.994-1.138-3.062-1.48-.061-.306 1.079-.405 2.3-.538.154-.016.307-.034.462-.052 1.38-.163 2.396-1.048 3.653-1.77 1.191-.686 2.981-3.497 2.981-3.497l3.157.273s-1.675 2.511-2.324 3.603c-.382.642-.368 1.495-.326 2.154.024.359.044.725-.03 1.083z" fill="#FFB27D"/><path d="M124.355 85.488c-1.615-.408-1.234.065-3.536-.207-2.302-.271-2.994-1.137-3.062-1.48-.061-.305 1.079-.404 2.3-.537l.011.024s1.375.99 3.293 1.051c1.562.049 3.221-.387 4.3-.362.022.357.043.724-.031 1.082-.211 1.017-1.659.836-3.275.429zM150.597 82.187s-.22.142-.548.325c-.392.215-.936.485-1.44.626-.538.15-1.087.19-1.482.194-.342.002-.567-.02-.567-.02l-3.783-10.425-.684-1.885-.727-2.006-.254-.698-1.232-3.395s3.011-7.734 6.081-4.047c.374.449.724 1.103 1.052 1.905.224.548.436 1.164.64 1.832.151.502.298 1.032.44 1.584.382 1.5.721 3.16 1.017 4.825.987 5.562 1.487 11.185 1.487 11.185z" fill="#233862"/><path d="M170.801 65.261c-.17.432-.471.732-.875.918h-13.964c-3.36-.697-6.572-2.236-8.499-3.192-.159-.08-.308-.155-.449-.223-.658-.328-1.111-.55-1.296-.59-1.168-.243-1.768 1.663-2.757 4.006-.202.477-.418.97-.66 1.47-.173.356-.498.817-.935 1.35-.082.098-.165.198-.253.3-3.396 3.973-12.135 11.371-12.135 11.371s-.103 0-.269-.003c-.535-.01-1.727-.06-2.297-.279a3.504 3.504 0 0 1-.744-.387c-.251-.18-.354-.319-.354-.319s10.459-20.486 15.874-26.067v-.001c.079-.082.156-.159.233-.233.592-.578 1.116-.96 1.553-1.098 1.845-.582 13.779.066 13.779.066l.381-.62.638-.045.11-.009.531-.038h.001l.734-.052 1.09-.077 2.95-.21.474-.035 5.452-.388s.249.562.585 1.494c.131.363.276.783.424 1.247.971 3.05 2.107 8.027.678 11.644z" fill="#2B478B"/><path d="M174.416 30.51c-2.725-2.33-4.669-2.908-4.94-6.597-.147-2.003-2.831-8.629-7.371-8.05-.38.05-.762.084-1.144.068a4.24 4.24 0 0 0-2.308.58c-2.185 1.282-6.212 13.137-3.498 17.303.486.748 1.19 1.249 2.164 1.395l.35.197h.002c.488.275 1.024.577 1.591.9 3.209 1.812 7.409 4.207 9.561 5.42h.001l.367.207.626.348c.252.138.399.215.41.215 0 0 .554.214 1.331.375 1.082.225 2.597.352 3.652-.34a5.81 5.81 0 0 0 1.156-1.004c2.185-2.444 2.76-6.99-1.95-11.017z" fill="#233862"/><path d="M160.908 33.232c-.019.013 2.093.751 3.513.133 1.335-.58 2.359-2.768 2.34-2.77-.606-.033-1.266-.567-1.754-4.052l-.259.091-4.348 1.533s.305 1.396.499 2.725c.163 1.116.246 2.184.009 2.34z" fill="#FFB27D"/><path d="M160.4 28.168s.186.978.442 2.376c2.495-.431 3.545-2.563 3.906-3.91l-4.348 1.534z" fill="#ED975D"/><path d="M159.745 29.546s5.939-.755 5.412-4.454c-.527-3.698-.115-6.286-3.929-5.96-3.813.326-4.348 1.843-4.471 3.12-.126 1.277 1.429 7.395 2.988 7.294z" fill="#FFB27D"/><path d="M156.986 20.228s3.775 3.307 6.356 3.589c2.581.283 3.566-.542 3.566-.542s-1.514-1.277-2.416-3.327a1.814 1.814 0 0 0-1.49-1.083c-1.844-.173-5.34-.27-6.016 1.363z" fill="#233862"/><path d="M159.363 19.952s-1.279 1.222-1.686 2.132c-.392.878-.524 2.985-.222 3.823 0 0-1.952-3.87-.818-5.736 1.202-1.978 2.726-.219 2.726-.219z" fill="#233862"/><path d="M155.85 41.953c.095 12.034-.018 9.518 1.288 10.67.314.277 1.203.447 2.374.533 3.681.27 10.159-.291 10.41-.972.866-2.354.271-3.09 1.006-6.698.077-.384.171-.798.281-1.25.609-2.477 1.19-3.317-.878-7.318-1.876-3.623-3.831-6.567-4.008-6.463-5.037 2.947-5.424.437-5.424.437s-5.095 5.191-5.049 11.061z" fill="#AEC3FF"/><path d="M150.597 82.187s-.221.142-.548.325c-.392.215-.937.485-1.44.626-.538.15-1.087.19-1.482.194-.343.002-.568-.02-.568-.02l-3.783-10.425 1.108-1.885 2.838-4.825.931-1.584c.151.502.298 1.032.44 1.584.382 1.5.721 3.16 1.017 4.825.987 5.562 1.487 11.185 1.487 11.185z" fill="#2B478B"/><path d="M160.898 30.892s-5.167.84-5.789 3.062l-4.28 15.285s2.62.49 3.84-.715c1.221-1.205 4.297-11.237 4.297-11.237l1.932-6.395z" fill="#AEC3FF"/><path d="M159.512 53.156c3.681.27 10.159-.291 10.41-.972.866-2.354.271-3.09 1.006-6.698l-1.741-5.024s.254 5.583-1.399 7.04c-1.65 1.455-6.745 2.785-7.552 4.006-.389.585-.646 1.174-.724 1.648z" fill="#95B3EF"/><path d="M163.749 50.838s-3.627-.836-4.217-.517c-.589.32-2.029 1.485-2.211 1.893-.182.407 1.307-.302 1.791-.429.313-.081 1.134.211 1.541.35 1.711.585 2.763.298 2.763.298l.333-1.595z" fill="#FFB27D"/><path d="M166.325 30.452s4.876.336 6.548 2.708c2.354 3.339 6.971 17.529 4.255 19.398-3.058 2.104-13.857.459-13.857.459s-.348-1.687.158-2.5c.507-.81 8.648-2.069 9.027-2.443.378-.373-4.64-7.366-4.632-8.494.007-1.127-1.499-9.128-1.499-9.128z" fill="#AEC3FF"/><path d="M159.349 51.333s-.768.979-1.019 1.095c-.249.115-.411.085-.411.085l.519-.921.911-.259zM159.532 50.322l-2.22 1.061s.092.155.365.145c.272-.01.962-.257.962-.257l.893-.95z" fill="#FFB27D"/><path d="M158.804 53.466l-17.507-.123-5.175-13.16 17.482.124 5.2 13.16z" fill="#F99746"/><path d="M141.095 52.83l23.12.164-.004.51-22.914-.161-.202-.513z" fill="#ED7D2B"/><path d="M145.763 46.814c-.129-.462.14-.834.6-.832.46.004.938.38 1.066.843.129.462-.14.834-.6.831-.46-.003-.939-.38-1.066-.842z" fill="#fff"/><path d="M65.436 193.435h70.735c4.92 0 8.908-3.996 8.908-8.925v-.372c0-4.93-3.989-8.925-8.908-8.925H65.436c-4.92 0-8.908 3.996-8.908 8.925v.372c-.001 4.93 3.988 8.925 8.908 8.925z" fill="#2B478B"/><path d="M105.524 181.9l-.063 3.983a6.375 6.375 0 0 0 6.266 6.482l47.012.752.012-.794a8.12 8.12 0 0 1-4.367-7.337l.022-1.401a8.121 8.121 0 0 1 4.6-7.194v-.016l-47.013-.752c-3.517-.057-6.412 2.755-6.469 6.277z" fill="#FFEDDC"/><path d="M159.969 193.435h-49.528c-3.194 0-5.697-4.005-5.697-9.117 0-5.112 2.502-9.118 5.697-9.118h49.528a.745.745 0 0 1 0 1.493h-49.528c-2.28 0-4.207 3.492-4.207 7.626 0 4.133 1.927 7.625 4.207 7.625h49.528a.746.746 0 0 1 0 1.491z" fill="#1B3770"/><path d="M155.244 180.061h-35.762v.108h35.762v-.108zM154.638 181.719h-16.169v.108h16.169v-.108zM154.638 187.378h-28.206v.108h28.206v-.108z" fill="#E8C2A3"/><path d="M128.733 180.114s1.501.629 1.679 2.753c.179 2.124 0 3.255 0 3.255l-1.811-.863-1.829.863v-3.32s-.067-2.688-2.564-2.688h4.525z" fill="#AEC3FF"/><path d="M78.795 108.657s3.685-1.218 6.517 2.196c2.832 3.414 6.983 8.027 5.905 9.331-1.077 1.305-1.292 2.381.254 3.22 1.544.838 2.36 1.949.085 5.433-1.484 2.275-1.8-.753-6.307-.603-4.508.149-7.955-2.129-9.462-.877-5.689 4.727-4.86-18.828 3.008-18.7z" fill="#233862"/><path d="M77.388 126.085s-10.358 4.908-12.351 4.821c-1.993-.087-14.85-4.286-14.85-4.286l.314 2.117s9.477 5.461 12.79 5.771c3.262.305 14.417-2.933 15.493-3.617 1.076-.684 1.732-4.114-1.396-4.806z" fill="#ED985F"/><path d="M76.097 130.896c.965.67 2.173 1.223 3.692 1.573 5.689 1.317 7.87-3.501 8.688-6.808-.775-.445-1.506-.542-1.927-.593a18.25 18.25 0 0 0-1.202-.099c-.639-.49-1.59-2.496-1.801-5.611l-.268.071-4.484 1.23s.206 1.428.306 2.778c.078 1.056.09 2.066-.11 2.313-.349.075-.56.125-.56.125l-.001.005c-.061.098-1.362 2.243-2.333 5.016z" fill="#FFB27D"/><path d="M78.795 120.66s.206 1.427.306 2.778c2.54-.255 3.72-2.678 4.18-4.008l-4.486 1.23z" fill="#ED985F"/><path d="M78.037 122.001s6.03-.333 5.765-4.092c-.265-3.759.334-6.333-3.527-6.28-3.86.054-4.508 1.542-4.724 2.817-.216 1.277.91 7.545 2.486 7.555z" fill="#FFB27D"/><path d="M75.58 112.344c.85-1.198 1.572-1.001 1.99-.689 3.163-2.05 5.476.479 5.476.479.596 2.668 2.648 4.073 2.648 4.073s-1.05.758-3.627.288c-.787-.144-1.517-.644-2.152-1.27 1.148 1.646 2.63 2.786 2.63 2.786-3.123-1.183-4.639-5.308-4.791-5.744-.344.356-1.018 1.128-1.189 1.848-.231.979-1.23 2.509-1.809 2.483.001-.001-.45-2.459.825-4.254z" fill="#233862"/><path d="M75.624 130.604c-.326 2.912.158 4.196 3.172 10.92 2.546 5.683-.343 10.8-.343 10.8s6.194 4.989 10.642 6.921c2.472 1.075 4.405 1.203 4.436-.994.033-2.485-1.132-5.619-2.11-8.541-.843-2.519-1.547-4.881-1.225-6.531.545-2.789 2.32-13.93.545-17.517-.637-1.289-3.14-1.404-5.885-1.291-.854.552-4.11 2.64-5.447 2.38-.015-.002-.04-.009-.075-.017-.63-.159-.63-.535-.342-.984.001-.002-1.236.012-2.895.464-1.888.515-3.678 1.919-3.678 1.919s1.294 1.663 3.205 2.471z" fill="#FFEDDC"/><path d="M77.709 165.455a2.783 2.783 0 0 1-2.006-1.223l-.232-.35c-1.707-2.588-2.37-10.515-6.21-18.961-.934-2.056-4.291-2.425-5.206-4.749 0 0-2.252-7.533 4.311-7.756 6.565-.222 17.58 20.961 17.754 23.182.169 2.153 4.34 11.299-8.412 9.857z" fill="#1B3770"/><path d="M51.619 165.282h9.343s.35-1.493-.265-2.509c-.542-.898-.334-1.411.067-2.154-.423.173-.971.331-1.574.296-.465-.027-.957-.239-1.39-.489-.402.459-2.124 2.414-2.66 2.801-.611.441-3.334.283-3.521 2.055z" fill="#233862"/><path d="M63.841 134.594c-.563 4.225-2.76 17.563-6.634 24.069-1.25 2.098 3.147 3.274 3.171 3.268.59-.154 1.573-1.096 2.025-1.505 3.147-2.841 9.533-10.886 9.533-17.334 0-3.145.056-9.15-2.227-10.677-1.405-.941-5.644.501-5.868 2.179z" fill="#1B3770"/><path d="M70.23 140.216c.916 2.324 3.489 2.04 4.424 4.096.04.086.078.174.117.26.48 1.067.933 2.133 1.362 3.189.895 2.202 2.227 6.809 3.226 10.541.68 2.533 1.207 4.664 1.339 5.365.206 1.078.558 1.908.558 1.908 14.312 2.213 12.507-7.667 11.722-9.976-.716-2.109-13.19-23.886-19.753-23.662-6.564.222-2.994 8.279-2.994 8.279z" fill="#2B478B"/><path d="M58.477 165.282h9.343s.35-1.493-.264-2.509c-.543-.898-.335-1.411.067-2.154-.423.173-.972.331-1.574.296-.466-.027-.958-.239-1.39-.489-.402.459-2.124 2.414-2.661 2.801-.61.441-3.333.283-3.52 2.055zM74.772 144.572a94.56 94.56 0 0 1 1.362 3.189c.894 2.202 2.226 6.809 3.225 10.541l.025.047c3.721-5.814-1.64-16.826-1.64-16.826-1.278.588-2.258 1.678-2.972 3.049z" fill="#1E3D7C"/><path d="M69.295 134.295c-.563 4.225-1.354 17.862-5.23 24.37-1.25 2.097 3.148 3.273 3.172 3.268.59-.155 1.572-1.097 2.025-1.506 3.146-2.841 9.533-10.885 9.533-17.334 0-3.145-3.684-8.898-5.966-10.425-1.406-.941-3.31-.052-3.534 1.627z" fill="#2B478B"/><path d="M48.534 121.635l1.937-3.501 1.52 4.251 9.098 8.306-8.9 1.818-3.655-10.874z" fill="#EA642F"/><path d="M59.316 123.971l3.55 10.862-10.676-2.324-3.656-10.874 10.782 2.336z" fill="#F78248"/><path d="M58.905 123.715l-9.932-2.234-.439.154 10.299 2.231.072-.151z" fill="#FCECDB"/><path d="M58.905 123.715l.12.193-.192-.042.072-.151z" fill="#EAC5A4"/><path d="M48.534 121.635l2.095-3.33 1.37 3.856-3.026-.68-.439.154z" fill="#EFDECE"/><path d="M56.139 125.857c.337-.064 1.06-.337 1.79-.539-.218-.17-.46-.378-.528-.592-.13-.414-.218-.546.217-.415.435.13 1.957.83 1.957.83s-.004.001-.004.003c.865.252 1.661 1.477 1.661 1.477s10.705 3.769 11.993 3.834c1.992.1 15.253-4.793 15.253-4.793 3.13.692 2.427 4.545 1.35 5.229-1.076.684-10.618 4.162-16.273 4.227-2.864.033-13.284-6.676-13.284-6.676s-1.218-.557-2.175-.383c-.957.175-3.175 0-3.654-.784-.477-.786 1.132-1.309 1.697-1.418z" fill="#FFB27D"/><path d="M81.645 128.075s1.187 3.762 5.26 4.617c0 0 6.726-2.076 3.377-6.667 0 0-3.311-2.465-8.636 2.05z" fill="#FFEDDC"/><path d="M49.189 126.14c-.002-.103.009-.206.036-.304 0 0 .96-1.52 1.274-1.583.958-.189.958 1.073.754 1.888-.141.568-.348 1.388-.639 1.683l.408 1.209c-1.95-.797-1.833-2.893-1.833-2.893z" fill="#FFB27D"/><path d="M89.095 159.243c2.472 1.075 4.405 1.203 4.435-.993.034-2.485-1.131-5.619-2.108-8.541 0 0-1.346.93-4.242-1.198-2.286-1.678.595 6.993 1.915 10.732z" fill="#2B478B"/><path d="M34.573 188.738a4.75 4.75 0 0 0 4.753 4.761h66.848a4.759 4.759 0 0 0 4.754-4.763 4.744 4.744 0 0 0-1.393-3.367 4.729 4.729 0 0 0-3.361-1.396H39.325a4.76 4.76 0 0 0-4.752 4.765zM39.671 183.112h22.92a.731.731 0 0 0 0-1.461h-22.92a.731.731 0 0 0 0 1.461z" fill="#F78248"/><path d="M40.938 183.975h2.484v-.862h-2.484v.862zM35.15 191.016c.22.402.494.769.815 1.089a4.736 4.736 0 0 0 3.361 1.395h14.16v-2.484H35.15z" fill="#EA642F"/><path d="M119.776 187.342v2.79a3.362 3.362 0 0 1-3.36 3.368H46.783a3.36 3.36 0 0 1-3.36-3.368v-2.79a3.364 3.364 0 0 1 3.36-3.368h69.633a3.363 3.363 0 0 1 3.36 3.368z" fill="#F99746"/><path d="M119.659 191.016a3.362 3.362 0 0 1-3.243 2.484H46.783a3.36 3.36 0 0 1-3.243-2.484h76.119z" fill="#EF873A"/><path d="M112.86 188.753c0 1.48.537 2.802 1.383 3.677l.057.058c.653.653 1.483 1.043 2.385 1.043 1.41 0 4.904-2.13 7.069-3.545 1.078-.706 1.828-1.234 1.828-1.234s-.75-.527-1.828-1.232c-2.165-1.416-5.659-3.547-7.069-3.547-.408 0-.8.081-1.17.227-.622.25-1.176.694-1.612 1.274-.482.637-.824 1.44-.968 2.331l-.003.031a5.87 5.87 0 0 0-.072.917z" fill="#CDE0FB"/><path d="M112.86 188.753c0 1.48.537 2.802 1.383 3.677l10.717-3.694-12.028-.9a5.87 5.87 0 0 0-.072.917z" fill="#A6C7ED"/><path d="M113.903 185.475l10.691 2.925-9.08-4.199c-.621.25-1.175.694-1.611 1.274z" fill="#E3F0FF"/><path d="M123.057 188.753c0 .569.29 1.054.697 1.234a70.603 70.603 0 0 0 1.828-1.234s-.749-.527-1.828-1.232c-.407.178-.697.663-.697 1.232z" fill="#2E3552"/><path d="M197.689 121.25s-.324-.73-.535-1.077c-.21-.347-1.108-1.36-1.26-1.13-.153.23-.765 1.775-.44 2.207.324.433-.022 1.186 1.594 1.643l.641-1.643z" fill="#FFB27D"/><path d="M215.637 116.633s-8.268 6.914-11.491 6.274c-2.521-.5-6.389-1.829-6.389-1.829l-.774 1.982s3.47 4.716 7.087 4.747c5.654.048 9.832-2.453 9.832-2.453l1.735-8.721z" fill="#95B3EF"/><path d="M230.137 189.565s-.24 3.878-.99 3.934c-.099.007-3.798.007-3.798.007l-4.723-.027s.031-1.139 1.411-1.381c1.38-.241 3.691-1.213 4.527-3.041.881-1.923 3.573.508 3.573.508z" fill="#1C3D72"/><path d="M230.409 189.833s-1.436.481-2.556.481c-1.251 0-2.387-.341-2.387-.341s-.27-2.618-1.758-8.389c-.78-3.024-1.894-6.913-3.478-11.744-4.38-13.354-5.713-21.166-5.834-21.906-.007-.038-.009-.058-.009-.058l.015-.006 13.467-5.925s-1.665 18.405.459 25.469c.297.988.551 2.138.771 3.384 1.341 7.675 1.31 19.035 1.31 19.035z" fill="#2B478B"/><path d="M223.708 181.584c-.78-3.024-1.894-6.913-3.478-11.744-4.38-13.354-5.713-21.166-5.834-21.906.001-.021.002-.043.006-.064l13.466-5.925s-1.664 18.405.459 25.469c.299.988-4.619 14.17-4.619 14.17z" fill="#233862"/><path d="M219.619 189.565s-.24 3.878-.99 3.934c-.099.007-3.799.007-3.799.007l-4.722-.027s.03-1.139 1.411-1.381c1.38-.241 3.691-1.213 4.527-3.041.88-1.923 3.573.508 3.573.508z" fill="#1C3D72"/><path d="M211.982 142.379s-.175 11.927 1.885 26.57c2.06 14.644 1.361 20.859 1.361 20.859s1.415.46 1.987.506c1.455.119 2.946-.342 2.946-.342s2.948-14.648 2.103-21.978c-.846-7.33 4.037-25.15 4.037-25.15l-14.319-.465z" fill="#2B478B"/><path d="M221.533 114.47l-2.629 1.727-2.395-.678c-.437-.626-.554-1.832-.559-2.876-.007-1.037.093-1.916.093-1.916l3.547-1.569 1.324-.584c-.003.02-.103 1.088-.117 1.245-.248 2.769.736 4.651.736 4.651z" fill="#FFB27D"/><path d="M211.923 145.695c3.272 3.165 15.655 2.632 16.419-.854.762-3.488-.833-29.687-6.422-31.332-1.16-.342-7.361 1.666-7.361 1.666s-.973 2.55-1.611 5.797c-.123.632-.485 7.326-.756 13.59a488.67 488.67 0 0 0-.287 7.841c-.05 1.945-.052 3.223.018 3.292z" fill="#AFCDFB"/><path d="M220.531 109.867c-.72 1.219-3.244 2.286-4.581 2.775-.007-1.037.093-1.916.093-1.916l3.547-1.569c.784-.009 1.261.167.941.71z" fill="#FCA56B"/><path d="M214.705 110.51s5.714 1.786 6.77-1.797c1.055-3.583 2.503-5.764-1.1-7.057-3.603-1.292-4.719-.135-5.362.974-.643 1.112-1.768 7.324-.308 7.88z" fill="#FFB27D"/><path d="M215.237 102.286s.364 4.169 1.225 3.988c.86-.18 1.808-.568 1.682.689-.125 1.256.837 3.411 2.078 3.406 2.662-.011 5.554-6.853 4.825-8.15-2.102-3.743-12.848-4.499-9.81.067z" fill="#163560"/><path d="M216.079 113.599c.073-.031 4.254-1.91 4.743-1.748.488.162 1.098 1.657 1.098 1.657l-7.362 1.667c.001 0 .58-1.18 1.521-1.576z" fill="#95B3EF"/><path d="M190.052 133.888l23.434 22.106c.46.433 1.04.57 1.287.307l.792-.842c.248-.265.075-.836-.384-1.269l-23.434-22.105c-.459-.434-1.039-.571-1.287-.307l-.791.842c-.248.265-.076.836.383 1.268z" fill="#1F4D84"/><path d="M203.203 146.293l10.283 9.699c.459.434 1.039.571 1.287.307l.791-.841c.249-.265.076-.836-.383-1.269l-10.283-9.699-1.695 1.803z" fill="#F78248"/><path d="M191.245 107.562c-6.95-7.402-18.574-7.755-25.961-.791a9.524 9.524 0 0 0-.289.278c-7.109 6.993-7.363 18.428-.504 25.733 6.951 7.401 18.575 7.757 25.963.792a18.307 18.307 0 0 0 4.985-8.033c1.852-6.101.481-12.999-4.194-17.979zm-1.785 24.956c-4.3 4.054-10.158 5.414-15.505 4.147a16.847 16.847 0 0 1-8.409-4.878c-6.402-6.818-6.076-17.544.729-23.957a16.825 16.825 0 0 1 8.692-4.356c5.413-.939 11.176.778 15.221 5.086 6.405 6.817 6.077 17.543-.728 23.958z" fill="#1F4D84"/><path opacity=".5" d="M165.547 131.786a16.852 16.852 0 0 0 8.41 4.879c5.345 1.267 11.203-.094 15.504-4.147 6.805-6.414 7.131-17.141.728-23.959-4.045-4.308-9.809-6.024-15.22-5.085a16.812 16.812 0 0 0-8.692 4.355c-6.806 6.413-7.132 17.14-.73 23.957z" fill="#B3CFF9"/><path d="M211.904 142.403c12.913-9.218 11.839-21.52 11.839-21.52-4.719 2.667-9.402 8.564-11.552 13.678a526.59 526.59 0 0 0-.287 7.842z" fill="#95B3EF"/><path d="M199.16 138.205c-.91-.211-1.522-.9-1.649-1.02 0 0-.389.026.063.856.037.069.122.248.185.374a.08.08 0 0 1-.068.115c-.525.04-1.053-.169-2.065.043-.14.03-.18.365-.175.508.009.241-.008.513.272.883.163.215.618.448 1.631.857.387.155 1.491.038 2.525-.319l.827-.383-.257-1.539-.208.043c-.328.07-.737-.333-1.081-.418z" fill="#FFB27D"/><path d="M219.736 115.175s11.602 2.214-3.413 19.046c-2.402 2.693-15.377 6.197-15.377 6.197s-1.316-1.121-.652-2.029c0 0 8.933-6.5 10.899-7.533.884-.465 3.431-10.374 4.873-12.76 1.442-2.386 3.67-2.921 3.67-2.921z" fill="#AFCDFB"/><path d="M197.375 121.454s-.38-.726-.453-1.11c-.075-.383-.552-1.501-.749-1.698-.079-.079-.339.023-.37.361-.013.148.059.416.187.736.208.52.173 1.225.245 1.461.18.585 1.14.25 1.14.25z" fill="#FFB27D"/><path d="M52.002 175.213h56.151a4.971 4.971 0 0 0 4.967-4.977 4.972 4.972 0 0 0-4.967-4.978H52.002a4.972 4.972 0 0 0-4.968 4.978 4.973 4.973 0 0 0 4.968 4.977z" fill="#699DEE"/><path d="M83.601 168.907l-.047 2.172c-.042 1.922 2.052 3.505 4.676 3.536l35.085.41.009-.433c-1.968-.75-3.297-2.268-3.259-4.002l.017-.765c.037-1.735 1.432-3.22 3.432-3.923v-.009l-35.085-.41c-2.624-.031-4.786 1.502-4.828 3.424z" fill="#FFEDDC"/><path d="M124.233 175.199H87.27c-2.385 0-4.251-2.185-4.251-4.974 0-2.788 1.867-4.974 4.25-4.974h36.963c.306 0 .556.183.556.407 0 .224-.249.407-.556.407H87.27c-1.702 0-3.14 1.905-3.14 4.159 0 2.254 1.438 4.16 3.14 4.16h36.962c.306 0 .556.182.556.406 0 .227-.249.409-.555.409z" fill="#4B87DD"/><path d="M120.707 167.898h-26.69v.069h26.69v-.069zM120.255 168.803h-12.067v.069h12.067v-.069zM120.256 171.89h-21.05v.07h21.05v-.07z" fill="#E8C2A3"/><path d="M105.397 104.27c1.862 0 3.388-1.288 3.388-3.262 0-2.086-1.526-3.29-3.388-3.29h-4.298V107h1.848v-2.73h2.45zm-.21-4.956c.994 0 1.694.644 1.694 1.694 0 .994-.7 1.666-1.694 1.666h-2.24v-3.36h2.24zm8.352 4.802c0 .84-.532 1.414-1.358 1.414-.77 0-1.302-.574-1.302-1.414v-3.682h-1.764v3.906c0 .826.28 1.498.84 2.016.574.518 1.316.784 2.226.784.924 0 1.666-.266 2.24-.798.574-.532.868-1.218.868-2.044v-3.864h-1.75v3.682zm6.437 3.024c.938 0 1.694-.322 2.282-.966.602-.644.896-1.47.896-2.464s-.294-1.82-.896-2.45c-.588-.644-1.344-.966-2.282-.966-.952 0-1.666.308-2.156.938v-3.864h-1.722V107h1.722l.028-.7c.448.518 1.19.84 2.128.84zm1.428-3.43c0 .518-.168.966-.504 1.316a1.69 1.69 0 0 1-1.274.532 1.69 1.69 0 0 1-1.274-.532c-.336-.35-.504-.798-.504-1.316 0-.532.168-.966.504-1.316.336-.35.756-.518 1.274-.518 1.05 0 1.778.77 1.778 1.834zm2.278-6.328V107h1.75v-9.618h-1.75zm4.398 3.052h-1.764V107h1.764v-6.566zm.126-2.1c0-.602-.42-1.008-1.022-1.008-.574 0-.994.406-.994 1.008s.42 1.008.994 1.008c.602 0 1.022-.406 1.022-1.008zm.394 5.376c0 1.022.35 1.848 1.036 2.478.686.63 1.582.952 2.66.952.7 0 1.414-.168 2.128-.49l-.196-1.554c-.616.294-1.218.434-1.806.434-1.218 0-2.058-.714-2.058-1.82 0-1.162.868-1.806 2.114-1.806a4.27 4.27 0 0 1 1.722.364l.14-1.526a4.903 4.903 0 0 0-2.058-.448c-1.078 0-1.974.308-2.66.924-.686.616-1.022 1.442-1.022 2.492zm14.078 1.092c-.742.448-1.624.672-2.674.672-1.05 0-1.904-.28-2.562-.854-.658-.574-.98-1.344-.98-2.282 0-1.96 1.596-3.052 3.584-3.052.966 0 1.834.182 2.604.56l.14-1.652c-.882-.406-1.848-.616-2.912-.616-2.926-.056-5.362 1.834-5.334 4.774-.042 2.842 2.268 4.844 5.208 4.788a7.289 7.289 0 0 0 3.178-.7l-.252-1.638zm9.2-4.144V107h1.848v-9.282h-1.596l-3.5 4.158-3.514-4.158h-1.596V107h1.848v-6.342l3.122 3.5h.294l3.094-3.5zm6.133-3.08c-1.078 0-1.932.266-2.562.784-.63.518-.952 1.204-.952 2.072 0 1.232.812 2.072 2.422 2.506l1.47.392c.826.224 1.134.49 1.134 1.064 0 .728-.7 1.106-1.75 1.106-.546 0-1.134-.07-1.778-.224-.644-.154-1.092-.322-1.344-.476l-.154 1.652c.336.182.826.336 1.484.476a9.43 9.43 0 0 0 1.96.21c1.05 0 1.89-.266 2.534-.798.658-.532.98-1.204.98-2.03 0-1.442-.868-2.072-2.408-2.534l-1.33-.392-.14-.042c-.434-.126-.504-.154-.784-.322s-.378-.392-.378-.742c0-.728.658-1.078 1.722-1.078.49 0 .994.07 1.512.196.532.126.924.252 1.176.406l.154-1.638c-.868-.392-1.862-.588-2.968-.588zM120.602 118.44c-.336.156-.828.24-1.476.24-.888 0-1.608-.24-2.16-.72-.54-.492-.816-1.14-.816-1.944 0-.84.3-1.488.888-1.944.588-.468 1.368-.696 2.316-.696.816 0 1.608.168 2.364.504l.12-1.404a6.08 6.08 0 0 0-2.568-.54c-2.688 0-4.752 1.488-4.752 4.08 0 2.4 1.776 4.104 4.68 4.104 1.008 0 2.172-.276 2.976-.72v-3.888h-3.708v1.344h2.136v1.584zm2.252-1.26c0 1.992 1.524 2.94 3.468 2.94 1.824 0 3.492-.888 3.492-2.94v-5.136h-1.584v5.028c0 1.056-.72 1.632-1.908 1.632-1.116 0-1.884-.54-1.884-1.632v-5.028h-1.584v5.136zm7.932-5.136V120h1.584v-7.956h-1.584zm2.621 7.956h3.42c1.26 0 2.244-.348 2.952-1.056.708-.708 1.068-1.692 1.068-2.928 0-2.46-1.464-3.972-4.02-3.972h-3.42V120zm1.584-1.368v-5.22h1.668c1.716 0 2.568.864 2.568 2.604 0 1.74-.852 2.616-2.568 2.616h-1.668zm8.105 0v-2.016h3.768v-1.368h-3.768v-1.836h4.308v-1.368h-5.892V120h5.976v-1.368h-4.392z" fill="#fff"/></svg>