<svg width="322" height="175" viewBox="0 0 322 175" fill="none" xmlns="http://www.w3.org/2000/svg"><path opacity=".5" d="M315.754 173.007v.001l-.076.134c-.179.321-.364.646-.553.972l-289.679-.087s-.282-.314-.787-.917l-.087-.106c-1.294-1.553-3.899-4.822-6.947-9.431l-.003-.004C9.533 151.334-1.675 129.667.21 105.619A65.894 65.894 0 0 1 5.3 84.844c9.05-21.258 36.046-35.59 60.365-35.877 9.413-.113 18.427 1.88 25.841 6.39 1.316.799 2.969 1.416 4.892 1.835 1.621.356 3.434.571 5.401.64 15.795.557 41.483-8.345 56.719-30.738 8.09-11.891 20.51-19.676 34.785-23.73.665-.189 1.336-.37 2.007-.542A87.87 87.87 0 0 1 207.127.65c15.064-1.748 31.199.06 45.997 5.058 1.949.658 3.875 1.371 5.773 2.14 27.85 11.279 49.517 34.308 47.611 66.464a67.39 67.39 0 0 1-.339 3.858 74.926 74.926 0 0 1-1.277 7.582 82.006 82.006 0 0 1-1.158 4.61c-11.477 40.763 34.41 42.603 12.02 82.645z" fill="#DCEAFF"/><path d="M315.753 173.007v.001l-225.478.023 1.945-67.387V87.336h8.433v-14.3h16.825v12.138h5.137V62.726h1.118v-1.569h.2v1.57h4.058v-1.57h.202v1.57h5.744v-1.57h.201v1.57h3.617v-1.57h.199v1.57h1.485V83.68h5.679v-3.39l6.697.03V74.83h1.347v-1.085h.179v1.085h5.172v.002h1.035v-1.089h.178v1.09h1.247v10.92h7.973v4.018h4.433v-2.334h4.111v-9.265h2.05v-4.322h.31v4.322h4.912V70.07h.483v8.101h3.25v-.113h-.006V77.03h.006v-.973h-.006v-1.62h.006v-1.033h-.006v-1.62h.006v-1.033h-.006v-1.62h.006v-1.117h-.006v-1.618h.006v-1.423h-.006v-1.618h.006v-1.073h.968V61.07h.155v1.212h7.175V61.07h.154v1.212h1.31v8.47l.921.005v-.006h-.008v-1.62h.008v-1.117h-.008v-1.618h.008v-1.113h-.008v-1.62h.008v-.005h8.7v.005h1.495l.233.129v10.801h1.602v-1.557h18.363v12.138h5.609V62.726h1.218v-1.569h.22v1.57h4.428v-1.57h.219v1.57h6.271v-1.57h.219v1.57h3.947v-1.57h.218v1.57h1.622V83.68h6.198v-3.39l7.309.03v-5.49h1.472v-1.087h.196v1.086h5.642v.001h1.13v-1.089h.194v1.09h1.361v10.92h8.701v4.018h4.839v-2.334h4.486V78.17h2.238v-4.321h.338v4.32h5.363v-8.1h.526v8.1h2.637a75.49 75.49 0 0 1-1.277 7.583 82.904 82.904 0 0 1-1.159 4.61c-11.479 40.763 34.408 42.603 12.017 82.645z" fill="#DFEBFA"/><path d="M258.898 7.85v165.156h-5.773V5.709c1.95.658 3.876 1.372 5.773 2.14z" fill="#AFCDFB"/><path d="M96.4 57.192v115.919H24.66l-.088-.105c-1.294-1.554-3.899-4.823-6.947-9.432l-.003-.004C9.533 151.334-1.675 129.667.21 105.619A65.894 65.894 0 0 1 5.3 84.844c9.05-21.258 36.046-35.59 60.365-35.877 9.325.103 18.213 2.116 25.594 6.39 1.382.799 3.12 1.416 5.14 1.835z" fill="#CEE1FD"/><path d="M207.129.651v20.34c0 1.585-.387 2.879-.858 2.879h-.123c-.473 0-.858-1.294-.858-2.88V.881c.61-.083 1.224-.16 1.839-.23z" fill="#9FC1F4"/><path d="M205.73 18.976c-6.704 0-12.137 5.746-12.137 12.835h24.274c0-7.09-5.435-12.835-12.137-12.835z" fill="#FF9843"/><path d="M206.697 19.132a4.976 4.976 0 0 0-1.066-.116c-4.367 0-7.907 5.728-7.907 12.794h2.132c-.001-6.48 2.978-11.835 6.841-12.678z" fill="#FFC48A"/><path d="M285.661 154.076s-3.231-3.768-.2-6.161c0 0 2.215-1.34 4.02-1.232 0 0-2.559 4.289-1.731 4.716.828.428 2.505-4.985 2.505-4.985s5.038-.489 6.658.291c0 0-4.306 3.525-3.399 3.735.907.21 5.56-3.25 5.56-3.25s4.688.798 4.438 3.658c-.25 2.861-1.866 3.744-2.576 3.668-.71-.077-4.865-1.662-4.954-1.08-.091.582 2.41 2.483 4.161 2.571 0 0-3.306 3.646-5.504 2.594-2.196-1.052-2.384-2.72-3.753-3.345-1.37-.625-2.539-.624-1.973.014.565.639 3.044 1.258 3.828 2.644.783 1.385 1.486 2.319-.787 1.977-2.273-.342-5.968-2.005-6.131-3.909l-.162-1.906z" fill="#77A4E5"/><path d="M301.207 150.926s-12.736-.492-15.548 3.151c0 0-.622 1.863-2.536 3.559l-.299.814s2.207-2.328 2.997-2.468c0 0-1.235-4.513 15.386-5.056z" fill="#77A4E5"/><path d="M283.124 157.636s-2.733 2.022-2.924 5.634l.496.044s.873-3.735 2.451-5.195c1.579-1.461-.023-.483-.023-.483zM274.367 149.338s5.138-2.877 2.74-6.782c0 0-1.918-2.398-3.974-3.015 0 0 1.097 5.823 0 5.96-1.096.138-.753-6.576-.753-6.576s-5.413-2.604-7.536-2.398c0 0 3.357 5.686 2.26 5.549-1.096-.136-4.864-5.891-4.864-5.891s-5.55-1.028-6.439 2.261c-.891 3.289.547 4.932 1.37 5.138.822.205 6.097.137 5.96.822-.138.685-3.7 1.781-5.686 1.165 0 0 2.192 5.412 5.069 5.138s3.768-2.055 5.55-2.192c1.781-.137 3.083.343 2.192.822-.891.479-3.905.157-5.344 1.38-1.438 1.223-2.604 1.976.069 2.525 2.672.548 7.467.206 8.427-1.85l.959-2.056z" fill="#77A4E5"/><path d="M258.337 139.473s14.387 4.658 16.031 9.865c0 0-.069 2.329 1.37 5.001v1.028s-1.507-3.494-2.329-3.974c0 0 3.219-4.522-15.072-11.92z" fill="#77A4E5"/><path d="M275.739 154.339s2.218 3.369.954 7.47l-.572-.154s.555-4.517-.606-6.789c-1.162-2.271.224-.527.224-.527z" fill="#77A4E5"/><path d="M282.542 145.37s-6.774-3.794-3.612-8.94c0 0 2.528-3.161 5.237-3.974 0 0-1.445 7.676 0 7.857 1.445.18.994-8.669.994-8.669s7.134-3.432 9.934-3.161c0 0-4.426 7.495-2.98 7.315 1.445-.181 6.411-7.766 6.411-7.766s7.315-1.355 8.489 2.98c1.174 4.334-.723 6.502-1.806 6.773-1.083.271-8.037.18-7.857 1.083.18.903 4.877 2.349 7.495 1.535 0 0-2.889 7.134-6.683 6.774-3.793-.361-4.966-2.709-7.314-2.89-2.348-.18-4.064.452-2.89 1.084 1.175.632 5.148.207 7.044 1.819 1.895 1.612 3.431 2.606-.091 3.329-3.522.722-9.843.271-11.108-2.438-1.265-2.709-1.263-2.711-1.263-2.711z" fill="#9FC1F4"/><path d="M303.674 132.365s-18.965 6.14-21.132 13.005c0 0 .091 3.07-1.806 6.592v1.354s1.987-4.606 3.071-5.237c-.001 0-4.246-5.961 19.867-15.714z" fill="#9FC1F4"/><path d="M280.736 151.962s-2.925 4.44-1.257 9.847l.752-.202s-.73-5.955.8-8.949c1.531-2.995-.295-.696-.295-.696z" fill="#9FC1F4"/><path d="M282.314 173.532c7.327 0 13.267-5.94 13.267-13.267h-26.535c.001 7.327 5.941 13.267 13.268 13.267z" fill="#9FC1F4"/><path d="M285.578 173.43c-.54.068-1.09.102-1.649.102-7.327 0-13.267-5.94-13.267-13.267h3.297c.001 6.769 5.07 12.354 11.619 13.165z" fill="#AFCDFB"/><path d="M295.882 160.265H268.61v.408h27.272v-.408z" fill="#9FC1F4"/><path d="M70.634 74.149h-12.55a1.05 1.05 0 0 1-1.049-1.048V60.987a1.05 1.05 0 0 1 1.048-1.048h12.551a1.05 1.05 0 0 1 1.048 1.048V73.1c0 .575-.472 1.048-1.048 1.048z" fill="#77A4E5"/><path d="M70.09 73.532H58.627a.96.96 0 0 1-.957-.957V61.51a.96.96 0 0 1 .957-.957H70.09a.96.96 0 0 1 .957.957v11.065a.96.96 0 0 1-.957.957z" fill="#DFEBFD"/><path d="M64.358 62.154a.303.303 0 1 0 0-.606.303.303 0 0 0 0 .606zM66.502 62.28a.303.303 0 1 1 .53.296.303.303 0 0 1-.53-.296zM68.6 63.946a.304.304 0 1 1 .329.51.304.304 0 0 1-.329-.51zM69.64 66.525a.304.304 0 1 1 0 .608.304.304 0 0 1 0-.608zM68.893 70.037a.303.303 0 1 0 0-.607.303.303 0 0 0 0 .606zM67.204 71.429a.304.304 0 1 1-.43.429.304.304 0 0 1 .43-.43zM64.358 72.717a.303.303 0 1 0 0-.607.303.303 0 0 0 0 .607zM62.204 62.28a.303.303 0 1 0-.53.296.303.303 0 0 0 .53-.296zM60.107 63.946a.304.304 0 1 0-.329.511.304.304 0 0 0 .329-.511zM59.068 66.525a.304.304 0 1 0 0 .608.304.304 0 0 0 0-.608zM59.813 70.037a.303.303 0 1 0 0-.607.303.303 0 0 0 0 .606zM61.504 71.429a.304.304 0 1 0 .43.429.304.304 0 0 0-.43-.43zM64.276 66.829a.304.304 0 1 1 .608 0 .304.304 0 0 1-.608 0z" fill="#77A4E5"/><path d="M64.621 63.038h-.083v3.79h.083v-3.79z" fill="#77A4E5"/><path d="M66.476 65.144l-2.01 1.577.155.196 2.008-1.577-.153-.196zM160.57 172.064l-14.975-62.154 1.046-2.447 14.835 64.593a.264.264 0 0 1-.258.323h-.248a.408.408 0 0 1-.4-.315zM92.986 172.381a.499.499 0 0 1-.492-.58l4.41-26.734h1.89l-5.259 26.862a.56.56 0 0 1-.55.452zM135.296 172.381a.498.498 0 0 1-.491-.58l4.41-26.734h1.89l-5.259 26.862a.56.56 0 0 1-.55.452z" fill="#77A4E5"/><path d="M145.555 145.123H92.881l10.912-68.417h52.676l-10.914 68.417z" fill="#F5FBFF"/><path d="M149.497 144.601H89v2.012h60.497v-2.012z" fill="#77A4E5"/><path d="M124.655 91.021c-.04.542-.12 1.074-.237 1.593-1.098 4.89-5.452 8.636-10.372 8.645-5.444.009-9.519-4.558-9.104-10.203.416-5.645 5.165-10.228 10.609-10.236a9.12 9.12 0 0 1 3.215.566 8.93 8.93 0 0 1 1.283.595 8.898 8.898 0 0 1 2.328 1.907 9.324 9.324 0 0 1 1.444 2.259 9.71 9.71 0 0 1 .774 2.735c.065.486.093.986.086 1.496-.002.212-.011.426-.026.643z" fill="#BDD1F9"/><path d="M123.821 86.147l-9.021 4.89s3.722-6.554 5.25-9.057c.88.5 1.665 1.144 2.327 1.907.369.423.699.884.986 1.375.168.285.321.58.458.885z" fill="#fff"/><path d="M124.757 84.909l-8.24 4.467s3.4-5.988 4.796-8.273a8.109 8.109 0 0 1 2.125 1.741c.337.388.638.809.901 1.257.154.261.292.53.418.808z" fill="#F99746"/><path d="M141.361 139.922l-43.356-.003 4.389-25.015 43.356.003-4.389 25.015zm-43.005-.254l42.744.002 4.302-24.512-42.745-.002-4.301 24.512z" fill="#BDD1F9"/><path d="M138.775 136.492l-38.452-.002s6.821-3.658 8.692-3.466c1.871.191 4.561 1.672 6.289 1.73 1.729.057 3.603-5.134 5.527-4.889 1.925.244 2.649 4.836 3.646 4.388.996-.449 3.99-.643 5.713 0 1.724.643 4.236-2.044 5.751-1.96 1.516.084 2.834 4.199 2.834 4.199zM109.571 129.139h-7.344l.068-.389h7.343l-.067.389zM109.424 129.972h-7.344l.069-.391 7.344.002-.069.389z" fill="#F99746"/><path d="M102.524 123.95l38.452.003s-5.536-3.658-7.475-3.468c-1.938.192-5.147 1.672-6.896 1.729-1.749.057-1.799-5.134-3.81-4.89-2.011.244-4.346 4.837-5.186 4.388-.839-.449-3.764-.643-5.714 0-1.949.643-3.518-2.044-5.063-1.96-1.545.084-4.308 4.198-4.308 4.198zM111.645 117.315h-7.344l.068-.39 7.345.001-.069.389zM111.499 118.148l-7.345-.001.069-.389h7.344l-.068.39zM105.017 111.415h-1.687l1.466-7.904h1.686l-1.465 7.904zM107.314 111.415h-1.687l1.135-6.122h1.687l-1.135 6.122zM109.612 111.415h-1.687l1.183-6.385h1.687l-1.183 6.385zM111.908 111.415h-1.686l.901-4.857h1.687l-.902 4.857zM114.207 111.415h-1.686l.966-5.21h1.686l-.966 5.21zM116.504 111.415h-1.687l.75-4.041h1.686l-.749 4.041z" fill="#BDD1F9"/><path d="M127.578 111.415h-1.686l1.465-7.904h1.687l-1.466 7.904zM129.875 111.415h-1.686l1.136-6.122h1.685l-1.135 6.122zM132.173 111.415h-1.687l1.184-6.385h1.686l-1.183 6.385zM134.47 111.415h-1.687l.901-4.857h1.687l-.901 4.857zM136.769 111.415h-1.687l.966-5.21h1.687l-.966 5.21zM139.066 111.415h-1.687l.75-4.041h1.687l-.75 4.041z" fill="#F99746"/><path d="M135.698 85.617h-5.49l.141-.753h5.49l-.141.753zM142.433 85.617h-6.063l.142-.753h6.062l-.141.753zM146.754 85.617h-3.865l.141-.753h3.865l-.141.753zM150.361 85.617h-2.982l.141-.753h2.982l-.141.753zM135.095 88.825h-5.49l.142-.751h5.489l-.141.75zM141.829 88.825h-6.061l.141-.751h6.063l-.143.75zM146.152 88.825h-3.866l.141-.751h3.866l-.141.75zM149.759 88.825h-2.982l.141-.751h2.982l-.141.75zM138.961 83.861h-8.424l.141-.751h8.424l-.141.751zM144.618 83.861h-4.855l.141-.751h4.855l-.141.751zM150.696 83.861h-5.392l.141-.751h5.392l-.141.751zM138.32 87.274h-8.424l.142-.752h8.423l-.141.752zM143.978 87.274h-4.856l.141-.752h4.856l-.141.752zM150.055 87.274h-5.392l.141-.752h5.392l-.141.752zM134.493 92.034h-5.49l.141-.752h5.49l-.141.752zM141.227 92.034h-6.062l.141-.752h6.062l-.141.752zM145.549 92.034h-3.865l.141-.752h3.865l-.141.752zM149.156 92.034h-2.982l.141-.752h2.982l-.141.752zM137.717 90.482h-8.423l.141-.752h8.424l-.142.752zM143.375 90.482h-4.855l.141-.752h4.855l-.141.752zM149.451 90.482h-5.392l.142-.752h5.392l-.142.752zM133.929 95.042h-5.491l.141-.751h5.491l-.141.75zM140.664 95.042h-6.062l.141-.751h6.062l-.141.75zM144.983 95.042h-3.864l.141-.751h3.864l-.141.75zM148.592 95.042h-2.982l.141-.751h2.982l-.141.75zM137.153 93.491h-8.423l.142-.752h8.422l-.141.752zM142.811 93.491h-4.856l.142-.752h4.855l-.141.752zM148.887 93.491h-5.392l.141-.752h5.392l-.141.752zM121.433 104.687h-2.687l.07-.367h2.687l-.07.367zM124.73 104.687h-2.966l.068-.367h2.967l-.069.367zM121.138 106.258h-2.687l.07-.369h2.687l-.07.369zM124.436 106.258h-2.967l.068-.369h2.967l-.068.369zM123.031 103.828h-4.124l.07-.368h4.122l-.068.368zM125.8 103.828h-2.376l.068-.368h2.377l-.069.368zM122.717 105.498h-4.122l.068-.368h4.122l-.068.368zM125.486 105.498h-2.377l.069-.368h2.377l-.069.368zM142.96 104.687h-2.688l.07-.367h2.688l-.07.367zM146.257 104.687h-2.968l.07-.367h2.967l-.069.367zM142.665 106.258h-2.687l.069-.369h2.688l-.07.369zM145.962 106.258h-2.968l.07-.369h2.967l-.069.369zM144.557 103.828h-4.123l.069-.368h4.123l-.069.368zM147.326 103.828h-2.376l.069-.368h2.377l-.07.368zM144.244 105.498h-4.124l.07-.368h4.122l-.068.368zM147.013 105.498h-2.377l.068-.368h2.377l-.068.368z" fill="#BDD1F9"/><path d="M157.257 171.366c-.094 1.287-1.909 1.301-3.967 1.062-2.059-.239-1.512.282-4.394.323-2.883.04-3.877-.913-4.017-1.325-.125-.366 1.265-.674 2.749-1.035.187-.044.375-.091.562-.139 1.675-.426 2.784-1.68 4.218-2.774 1.357-1.037 3.108-4.79 3.108-4.79l3.937-.178s-1.658 3.364-2.281 4.814c-.366.853-.211 1.902-.051 2.705.084.437.169.885.136 1.337z" fill="#FFB27D"/><path d="M153.289 172.428c-2.059-.239-1.512.282-4.394.323-2.883.04-3.877-.913-4.017-1.325-.125-.366 1.265-.674 2.749-1.035l.018.027s1.856.997 4.23.758c1.935-.195 3.91-1.002 5.245-1.147.085.437.17.885.136 1.337-.094 1.287-1.908 1.299-3.967 1.062z" fill="#233862"/><path d="M184.456 171.633c-.092 1.287-1.908 1.302-3.967 1.065-2.059-.236-1.511.284-4.394.327-2.883.043-3.878-.909-4.018-1.321-.124-.366 1.264-.675 2.748-1.037.187-.044.374-.093.562-.14 1.674-.427 2.783-1.681 4.214-2.778 1.356-1.039.001-7.185.001-7.185l4.332-.422s-.207 5.175-.205 7.529c.002.928.429 1.822.589 2.625.086.436.171.883.138 1.337z" fill="#FFB27D"/><path d="M180.489 172.697c-2.059-.236-1.511.284-4.394.327-2.883.043-3.878-.909-4.018-1.321-.124-.366 1.264-.675 2.748-1.037l.018.027s1.857.994 4.232.753c1.934-.195 3.908-1.005 5.243-1.151.085.437.172.884.137 1.337-.091 1.286-1.906 1.303-3.966 1.065z" fill="#233862"/><path d="M171.815 65.4c-.746-3.067.336-4.496 1.311-5.256.462-1.129.99-1.942 1.53-2.25.985-.56 2.165-.62 2.99-.572-.213-.22-.631-.299-.631-.299.513-.076 1.654.431 1.654.431 7.118-2.743 8.237 7.737 8.087 10.173-.149 2.434-.129 5.302 3.574 7.22 7.066 3.66-2.348 17.453-2.348 17.453.18-1.968-8.899-12.351-13.635-15.46-1.153-1.697-1.562-4.697-1.594-4.932.2 2.378.607 3.711.97 4.463-2.159-1.987-2.48-6.758-1.908-10.971z" fill="#A9453D"/><path d="M174.627 76.996c-.024.01 2.287 1.21 4.026.735 1.634-.447 2.703-2.565 2.68-2.57-.692-.138-.892-1.09-.877-5.178l-.312.061-5.263 1.043s.12 1.656.124 3.215c.001 1.311-.078 2.554-.378 2.694z" fill="#FFB27D"/><path d="M174.878 71.087s.119 1.656.123 3.215c2.945-.082 4.501-2.77 5.139-4.258l-5.262 1.043z" fill="#ED975D"/><path d="M153.466 164.772a1.29 1.29 0 0 0 1.171 1.681l2.055.097 2.175.066a1.746 1.746 0 0 0 1.408-.643c1.737-2.13 7.082-9.229 10.323-19.544.092-.29.187-.583.29-.879 2.14-6.243 6.579-14.08 8.919-21.173.373-1.13.707-2.192 1.007-3.199.095-.323.189-.639.278-.951 1.724-5.989 2.223-9.922 2.683-14.123l-16.89.135s-3.556 27.639-13.419 58.533z" fill="#2A4E96"/><path d="M169.25 96.534c.042 8.037-1.18 11.486-1.18 11.486s7.232 3.674 15.827.97c.102-.032 6.149-1.744 6.149-1.744-.143-.326-1.338-5.704-1.479-6.003-1.815-3.897-2.31-5.533-2.525-6.731-.399-2.237-.408-4.55-.208-6.735.525-5.778 2.085-10.574 2.085-10.574-2.342-.532-4.536-1.47-6.974-2.383-.56.698-2.274 1.429-3.761 1.396-1.712-.039-2.268-.77-2.179-1.572-1.824 1.016-3.28 1.974-3.28 1.974-1.551 2.694-4.696 5.31-4.923 9.44-.056 1.018 2.447 10.251 2.448 10.476z" fill="#fff"/><path d="M183.776 97.43c.738 1.045 2.155 7.397 5.676 8.195-1.816-4.526-3.194-6.512-3.408-7.904-.399-2.598-.408-5.286-.209-7.822-1.178-2.067-2.059-3.483-2.059-3.483-.093-.334-1.874-5.84-2.444-.919-.57 4.924 1.619 10.764 2.444 11.933z" fill="#5F9AA8"/><path d="M173.896 72.565s6.968.114 6.972-4.225c.005-4.34.907-7.248-3.542-7.505-4.448-.257-5.314 1.398-5.669 2.846-.353 1.448.426 8.742 2.239 8.884z" fill="#FFB27D"/><path d="M174.154 60.727s1.908 5.092 4.836 5.845c2.927.752 4.197-.032 4.197-.032s-2.246-1.784-2.712-4.898c0 0-4.882-3.338-6.321-.915z" fill="#A9453D"/><path d="M174.626 61.142s-1.424 1.136-1.771 2.242c-.347 1.104-.504 3.38-1.167 3.303 0 0-1.438-3.46.178-5.418 1.712-2.077 2.76-.127 2.76-.127z" fill="#A9453D"/><path d="M162.932 102.113l-3.29 10.033 1.876.752 5.441-8.863-4.027-1.922z" fill="#FFB27D"/><path d="M171.805 76.029s-3.881 1.539-5.003 3.94c-1.124 2.401-2.823 18.504-3.501 20.157a201.44 201.44 0 0 0-1.186 2.963s1.956 1.649 3.924 1.77c1.967.12 5.766-28.83 5.766-28.83z" fill="#F99746"/><path d="M175.006 74.644s-4.031 9.96-4.15 11.974c-.119 2.016-.474 32.959-.474 32.959s.237 1.422-2.491.83c-2.726-.593-3.438-1.186-3.438-1.186s2.608-19.087 1.897-25.726c-.712-6.64 5.453-17.468 5.453-17.468l3.203-1.383z" fill="#F99746"/><path d="M156.692 166.55l2.362.073c.422.012.826-.17 1.096-.495 1.587-1.922 7.124-9.12 10.449-19.698.092-.29.187-.582.29-.879 2.141-6.243 6.579-14.079 8.919-21.172a114.573 114.573 0 0 0 1.286-4.15l-2.488-1.888s-7.468 12.092-9.78 23.472c-2.009 9.884-10.052 21.779-12.134 24.737z" fill="#1E3D70"/><path d="M178.346 142.873c-.04 5.236.207 16.905.846 22.609a1.03 1.03 0 0 0 1.025.917h1.762c.742 0 1.299-.005 1.668-.01a.677.677 0 0 0 .653-.548c1.753-8.918 3.008-16.328 3.925-22.73.768-5.359 1.452-9.953 1.977-13.907.529-3.98.896-7.313 1.028-10.128.021-.444.036-.875.043-1.294.009-.421.011-.83.008-1.227l-14.593-1.422c.183 9.694 1.682 24.523 1.658 27.74z" fill="#2A4E96"/><path d="M181.979 166.398a116 116 0 0 0 1.549-.009.821.821 0 0 0 .794-.664c1.742-8.867 2.989-16.239 3.903-22.614.768-5.359 1.451-9.953 1.976-13.907.529-3.98.897-7.313 1.029-10.128l-5.355 3.15s3.418 1.206 2.113 10.334c-1.304 9.127-4.194 32.545-6.009 33.838z" fill="#1E3D70"/><path d="M181.289 118.984s1.028 3.714 4.584 3.24c3.557-.474 8.615-2.608 8.615-2.608s-1.521-4.802-3.411-11.112c-2.288-7.638-5.12-17.485-6.454-23.697-.375-1.74-.631-3.194-.726-4.235l-2.95-5.725s-4.4 9.873-4.637 12.364c-.237 2.49 4.979 31.773 4.979 31.773z" fill="#F99746"/><path d="M184.84 86.84l-3.895-11.992c.01.005 4.919 1.46 7.388 2.707 0 0 1.543 1.99 2.497 6.58 0 0 1.01 11.02-1.243 15.05 0 0-7.113 1.423-18.494-2.49v-2.608s12.448.652 14.997.948l-1.25-8.194z" fill="#FFB27D"/><path d="M181.447 92.428c.158 4.031 1.107 11.856 9.563 16.044.023.01.045.023.068.032-2.288-7.638-5.12-17.485-6.455-23.697-1.553 2.322-3.263 5.402-3.176 7.621z" fill="#ED7D2B"/><path d="M180.947 74.848s7.219.508 8.957 4.381c1.739 3.873 2.292 16.756.079 20.55 0 0-3.047.868-8.435-.14l-.199-.038s-1.719-4.208-.178-5.038c0 0 4.544.237 4.07-1.265-.474-1.503-4.294-18.45-4.294-18.45z" fill="#F99746"/><path d="M162.846 95.699l.212.684 11.845-3.685s.158-.18.08-.42c-.086-.264-.292-.264-.292-.264L162.846 95.7z" fill="#A9453D"/><path d="M161.989 96.345l.857-.646.212.684-1.069-.038z" fill="#A9453D"/><path d="M160.11 111.871s-3.005 1.66-3.4 2.926c-.396 1.266-.124 3.915.353 3.876.477-.04 1.188-2.847 1.584-3.044.395-.199.949-.791.949-.356 0 .434-.395 1.225-.198 1.344.198.119.83-1.107 1.265-1.344.434-.238.617-2.193 1.039-2.718.424-.525-1.592-.684-1.592-.684zM171.093 94.088s-2.687-1.654-3.815-1.4c-1.127.254-4 2.335-2.618 2.786 1.382.45 2.502-.022 3.033.305.531.328.924.925 3.4.918 2.477-.01 0-2.609 0-2.609z" fill="#FFB27D"/></svg>