<svg width="112" height="170" viewBox="0 0 112 170" fill="none" xmlns="http://www.w3.org/2000/svg"><path d="M76.162 60.437l-5.206 9.875-2.671-.971.867 2.634-5.22 15.72s-2.888-19.971 12.23-27.258z" fill="#233862"/><path d="M67.475 69.168s-5.758 21.218-6.312 41.464c0 0 4.776 1.664 12.278.347 7.54-1.325-5.966-41.81-5.966-41.81z" fill="#233862"/><path d="M39.906 98.59c1.545-.03 3.72.162 4.44-.624.815-.892 1.775-.76 1.775-.76l-.194-1.019-.233-1.216s-.088-.111-.406-.106c0 0-1.119.048-1.653-.143-1.302-.466-6.478 2.635-6.304 3.496.065.32 1.916.383 2.575.372z" fill="#E2915A"/><path d="M68.124 68.752S59.378 86.81 56.671 88.748c-2.706 1.938-12.355 6.13-12.355 6.13s-.253.6-.02 1.48c.245.915.726 1.174.726 1.174s13.49-1.204 16.627-3.155c3.136-1.951 10.052-9.73 10.052-9.73l-3.577-15.895zM93.725 170h5.177c.651-.354 1.231-1.164 1.415-2.37.252-1.667 2.122-2.577 2.527-3.94.404-1.362-1.668-3.282-1.668-3.282l-.346-.446-.36-.463-3.435.809s-.085.818-.136 1.86a23.815 23.815 0 0 0-.016 2.382c.1 1.817-.508 3.776-2.125 4.13-1.196.259-1.143.968-1.033 1.32zM63.683 170H75.52c.57-.695.36-3.257.273-4.094-.017-.168-.03-.267-.03-.267s-4.042-3.232-4.598-.757a2.867 2.867 0 0 1-.06.228c-.7 2.315-3.838 3.367-5.649 3.66-1.177.19-1.613.803-1.774 1.23z" fill="#233862"/><path d="M65.939 103.949s.614 7.654 1.335 16.856c.98 12.5 2.16 27.854 2.277 30.763.2 5.051 1.01 13.131 1.01 13.131s1.919 1.919 5.759 1.111c0 0 3.422-11.534 4.4-23.737l.046-.603c.91-12.423 2.324-38.582 2.324-38.582l-17.151 1.061z" fill="#F99746"/><path d="M65.939 103.949s.614 7.654 1.335 16.856l13.447 21.268.044-.603c.91-12.423 2.325-38.582 2.325-38.582l-17.151 1.061z" fill="#ED7D2B"/><path d="M68.741 104.858s11.065 27.724 18.339 40.752c7.275 13.029 9.548 16.665 9.548 16.665s4.169-1.665 4.548-2.802c0 0-2.783-25.153-7.655-31.284-2.752-3.465-5.986-13.863-6.138-17.499-.151-3.636-.985-10.832-.985-10.832l-17.657 5z" fill="#F99746"/><path d="M71.496 64.442c4.323 1.364 11.804-2.318 11.804-2.318s-3.986-2.99-3.777-9.208L76.18 55.61l-2.27 1.829s.01 1.079.257 2.968c.045.345.098.717.16 1.114a.8.8 0 0 1-.363.807c-1.575.974-2.468 2.115-2.468 2.115z" fill="#FFB27D"/><path d="M65.462 104.587c.13.107.282.173.455.173 1.624-.023 6.358.879 10.364.467 3.377-.324 6.367-1.323 9.577-2.762.427-.191 1.407-.714 1.386-1.191-.014-.522-.066-1.278-.132-2.23-.227-3.313-.622-9.009-.236-15.581a68.47 68.47 0 0 0 .11-3.633c.033-8.907-1.734-16.742-5.284-19.393 0 0-2.476 1.389-4.19 1.936-1.678.536-2.544.429-3.415-.15 0 0-1.696.843-2.42 1.632-1.677 1.828-2.987 4.256-3.853 7.74-.737 2.964-1.426 7.287-1.664 12.827-.11 2.511-.806 20.077-.698 20.165z" fill="#fff"/><path d="M86.459 75.154l-4.76-14.717s-11.425 4.308-11.955 20.435c-.208 3.675-1.09 18.736.506 31.217 0 0 8.901 3.466 19.816-3.375l-3.607-33.56z" fill="#2B478B"/><path d="M73.91 57.438s.01 1.079.257 2.968c2.516-.43 5.37-4.496 5.37-4.496-1.281-.37-2.403-.436-3.357-.301l-2.27 1.829z" fill="#ED975D"/><path d="M72.037 57.323s7.787 1.293 8.52-3.566c.73-4.86 2.227-7.966-2.713-8.997-4.941-1.032-6.188.677-6.828 2.24-.64 1.563-.987 9.861 1.021 10.323z" fill="#FFB27D"/><path d="M106.208 120.193l-15.9 2.265a3.812 3.812 0 0 1-4.298-3.225l-.982-6.887a3.81 3.81 0 0 1 3.226-4.297l15.9-2.265a3.812 3.812 0 0 1 4.299 3.225l.982 6.887a3.812 3.812 0 0 1-3.227 4.297z" fill="#233862"/><path d="M87.122 112.042l.994 6.967a3.822 3.822 0 0 0 3.485 3.265h.003c.27.021.547.014.828-.026l15.871-2.262a3.825 3.825 0 0 0 3.239-4.312l-.993-6.968a3.827 3.827 0 0 0-4.315-3.237l-5.465.779-.212-1.486a1.26 1.26 0 0 0-1.424-1.068l-.6.085-3.323.474-.826.118a1.252 1.252 0 0 0-.829.49c-.202.27-.288.602-.24.932l.213 1.486-3.166.45a4.257 4.257 0 0 0-.367.071l-.003.001h-.001a3.83 3.83 0 0 0-2.634 2.3v.001a3.78 3.78 0 0 0-.235 1.94zm12.865-5.684l-5.68.81-.212-1.486a.469.469 0 0 1 .4-.53l1.426-.204 2.616-.373.706-.101a.472.472 0 0 1 .532.399l.212 1.485z" fill="#2B478B"/><path d="M94.117 99.685s.835 1.112.868 1.556c.224 3.011-1.151 3.427 2.412 5.099 0 0 1.52.58 1.547-.6.026-1.181-1.056-1.199-.858-2.852.229-1.907.205-1.924-1.047-2.92l-.83-1.37-2.092 1.087z" fill="#FFB27D"/><path d="M96.24 100.537c-1.342.262-2.798.156-2.798.156s-3.986-12.307-4.498-13.43C88.43 86.136 77.106 72.83 77.106 72.83l4.593-12.394s2.695 1.576 5.542 6.489c3.52 6.068 7.387 15.842 8.075 17.43 2.055 4.749 2.768 15.396 2.768 15.396s-.79.581-1.844.785zM80.562 53.288s-.8-.134-.67-1.234c.129-1.1.126-2.538-.768-2.27-.896.268-.94.985-1.308.566-.367-.417-.374-2.18-3.037-2.302-2.663-.123-3.745.804-4.983.259-1.238-.545-1.304-2.418-1.304-2.418s.352.67.883.882c0 0-2.065-2.824.326-4.76 2.392-1.938 4.83-.67 6.215-.586 3.05.185 5.02.367 6.016 2.37.998 2.003.587 7.566-1.37 9.493z" fill="#2B478B"/><path d="M95.434 101.01s-.805.838-.855 1.186c-.164 1.119-.537 1.602-.35 1.724.39.254.905-.575 1.151-1.319.247-.743.054-1.591.054-1.591z" fill="#FFB27D"/><path d="M81.7 60.437l-5.207 9.875-2.67-.971.866 2.634-5.22 15.72S66.581 67.723 81.7 60.436z" fill="#233862"/><path d="M71.496 54.566s.303.801 1.061.822c.758.022 1.344-.715 1.344-.715s-1.646-.38-2.405-.107z" fill="#fff"/><path d="M30.864 128.116l15.812-3.663a3.851 3.851 0 0 0 2.875-4.607l-1.588-6.849a3.853 3.853 0 0 0-4.609-2.874l-15.812 3.662a3.852 3.852 0 0 0-2.875 4.607l1.588 6.85a3.852 3.852 0 0 0 4.609 2.874z" fill="#F99746"/><path d="M44.949 111.732a3.868 3.868 0 0 0-3.323-1.207h-.003a4.093 4.093 0 0 0-.372.066l-3.149.731-.342-1.478a1.259 1.259 0 0 0-.566-.791 1.266 1.266 0 0 0-.96-.16l-.82.19-3.306.766-.596.138a1.274 1.274 0 0 0-.953 1.525l.343 1.478-5.435 1.258a3.865 3.865 0 0 0-2.885 4.624l1.606 6.929a3.866 3.866 0 0 0 4.625 2.884l15.784-3.655c.279-.064.543-.157.79-.277h.001l.002-.001a3.86 3.86 0 0 0 2.093-4.347l-1.605-6.927a3.823 3.823 0 0 0-.93-1.746zm-13.612-.401a.476.476 0 0 1 .355-.569l.702-.164 2.603-.601 1.417-.328c.255-.06.511.1.57.355l.343 1.478-5.648 1.307-.342-1.478z" fill="#ED7D2B"/><path d="M34.58 102.818s-.478 1.693-.314 2.232c1.111 3.655 3.031 6.047-2.132 5.43 0 0 .213-.212-.775-2.071-1.14-2.146-1.12-2.176-.098-3.923l.353-1.994 2.966.326zM41.077 98.466c-1.559-.095-3.459-.502-4.15-1.327-.786-.934-1.57-1.185-1.57-1.185l.24-1.02.287-1.219s.093-.108.413-.09c0 0 1.223.275 1.676-.076.454-.35 1.284-.137 1.795.203.65.43 1.528.362 1.505.573 0 0-1.288.633-1.168.74 1.18 1.047 4.288 1.463 4.086 2.282-.08.323-2.45 1.159-3.114 1.119zM19.354 58.659l-.005.846s.231 2.65-3.032 3.036c-3.264.389-5.94.337-5.85-1.707.293-1.583.82-4.039.842-5.348a9.15 9.15 0 0 0-.116-1.587l6.323-.127 1.862.305-.024 4.582z" fill="#FFB27D"/><path d="M19.377 54.078l-.023 4.58a5.343 5.343 0 0 1-2.28.504c-2.905 0-4.784-2.13-5.766-3.676a9.15 9.15 0 0 0-.116-1.587l6.323-.127 1.862.306z" fill="#E2915A"/><path d="M10.708 52.882c.733 3.946 5.828 3.817 8.03 3.569a12.51 12.51 0 0 0 1.01-.148c.698-.187 1.088-1.286 1.269-2.727.359-2.851-.095-7.037-.577-8.107-.725-1.61-2.092-3.353-7.222-2.096-5.131 1.258-3.452 4.453-2.51 9.51z" fill="#FFB27D"/><path d="M6.54 169.729h7.22c-.055-.379-.238-1.53-.576-2.591a7.36 7.36 0 0 0-.409-1.039c-.702-1.401-5.162-.51-5.162-.51s-.414.355-.738 1.709c-.143.597-.27 1.39-.335 2.431zM28.355 167.451c.02.982.143 1.911.5 2.277h14.28c-.182-.516-.696-1.293-2.163-1.531-1.665-.27-4.261-1.072-5.778-2.674-.54-.569-.942-1.24-1.119-2.024-.672-2.99-5.554.916-5.554.916s-.198 1.575-.166 3.036z" fill="#233862"/><path d="M18.856 135.133c.2 1.095.325 1.993.36 2.637.453 8.851 7.452 29.088 8.704 29.559 1.937.731 4.988-.823 6.584-1.331.66-.211 1.107-.878.96-1.554-3.466-15.929-4.74-38.865-5.203-52.444-.235-6.84-1.409-11.564-1.409-11.564s-17.07-4.553-17.173 1.206c-.09 5.096 5.655 25.084 7.177 33.491z" fill="#2B478B"/><path d="M18.856 135.133L30.261 112c-.235-6.84-1.409-11.564-1.409-11.564s-17.07-4.553-17.173 1.206c-.09 5.096 5.655 25.084 7.177 33.491z" fill="#233862"/><path d="M22.655 101.662l-9.025 65.381s-3.963.955-7.045.19c0 0-2.643-34.772-2.422-43.179.22-8.406-1.897-22.493.483-24.047 2.38-1.553 18.01 1.655 18.01 1.655z" fill="#2B478B"/><path d="M20.638 46.087c-1.41.444-4.391-.01-5.637.998-1.246 1.009-.06 2.67-1.483 3.262l-.006.002a.703.703 0 0 1-.819-.204c-.394-.493-.94-.983-1.439-.78-.41.166-.43.696-.25 1.21.152.432.11.916-.152 1.292-.114.163-.188.341-.156.52.119.651.442 1.5.56 1.932l.034.455s-2.386-2.581-3.391-4.754c-.69-1.49-.677-7.062 2.697-8.69a.104.104 0 0 1-.032-.037c-.074-.13-.276-.1-.276-.1.29-.13.74-.048.74-.048-.01-.007.008-.028.049-.06.059-.394.456-.675.456-.675-.135.195-.192.39-.216.533.886-.467 3.613-1.502 5.774-.56 1.462.635 2.803.974 3.714 1.15.75.144 1.282.813 1.254 1.576-.039 1.07-.412 2.61-1.421 2.978z" fill="#233862"/><path d="M9.697 61.97l2.077 44.563s17.342.283 16.847-3.639c-.496-3.923-6.251-39.56-6.251-39.56" fill="#E9F3FE"/><path d="M15.413 89.885s-.88 11.902-2.572 19.375c0 0-10.119.537-12.521-3.368 0 0 1.901-16.08 1.901-19.34 0-1.146-.089-2.704-.229-4.447-.21-2.64-.536-5.695-.847-8.358C.715 70.038.32 67.09.32 67.09l8.344-6.777 6.749 29.571zM35.493 103.968s-1.888 1.181-4.861.785c-1.083 2.653-3.635 3.554-3.635 3.314 0-.03-.574-5.011-1.25-10.88-.066-.587-.135-1.182-.204-1.781-.006-.05-.013-.103-.017-.154l-.343-2.967-1.597-13.847c-1.774-10.859-3.276-18.035-3.276-18.035 3.786.394 6.34 1.742 7.36 3.507 3.021 5.235 5.209 18.329 6.49 28.13l.01.075c.22 1.691.415 3.285.58 4.72.011.09.022.179.031.267.472 4.107.712 6.866.712 6.866z" fill="#22407A"/><path d="M17.938 53.532s.164.51 1.45.323c0 0 1.078-.156 1-.723 0 0-1.086-.32-2.45.4z" fill="#fff"/><path d="M9.205 60.26c-.021-.425 1.995-1.013 1.995-1.013s2.306 3.197 6.106 3.253c0 0-1.082 2.106-2.36 2.652 0-.001-5.615-2.367-5.74-4.892zM17.306 62.424s2.014-1.193 2.02-2.486c0 0 1.3-.163 1.868.467 0 0 .477 2.217-.157 3.504.002 0-2.897-.44-3.73-1.485z" fill="#D9E9F9"/><path d="M15.94 62.232l2.73-.653s.356.03.346.476c-.009.444-.768 1.743-1.105 1.847-.336.103-2.617-.77-1.972-1.67z" fill="#BA4C43"/><path d="M9.523 60.04c-.022-.424 1.343-1.3 1.343-1.3s2.64 3.084 6.44 3.14c0 0-1.082 2.106-2.36 2.652 0-.001-5.298-1.966-5.423-4.491zM17.306 61.878s2.036-1.078 2.043-2.373c0 0 1.23.542 1.797 1.171 0 0 .526 1.4-.108 2.687 0 0-2.898-.442-3.732-1.485z" fill="#E9F3FE"/><path d="M22.297 99.245c-.106 1.277-.595 2.472-1.373 3.35l-1.224 1.381c-.307.347-.784.305-1.035-.09l-1.476-2.315c-.396-.62-.577-1.41-.508-2.203.157-1.767.451-5.17.691-8.454.196-2.662.358-5.246.383-6.818.082-5.018-.577-21.01-.577-21.01l.981.05s2.379 6.184 3.574 14.619c.295 2.077.516 4.288.614 6.58 0 .002.424 9.134-.05 14.91z" fill="#C65447"/><path d="M22.297 99.245c-.106 1.277-.595 2.472-1.373 3.35l-1.224 1.381c-.307.347-.784.305-1.035-.09l-1.476-2.315c-.396-.62-.577-1.41-.508-2.203.157-1.767.451-5.17.691-8.454 2.75-3.767 3.899-8.942 4.36-13.158.296 2.077.517 4.288.616 6.58 0 0 .424 9.133-.051 14.909z" fill="#BA4C43"/><path d="M10.866 58.74s5.405 22.627 4.545 31.15c0 0-1.988-9.108-6.77-16.568 0 0 1.745-1.535 1.65-2.1 0 0-1.295-.383-2.552-.125 0 0 .138-9.754.923-10.784.784-1.032 2.204-1.574 2.204-1.574zM19.35 59.505c-.811.066 5.355 22.112 5.813 29.178 0 0-.542-12.61-.488-16.245 0 0-2.245-1.187-2.245-1.604 0-.417 2.395-1.544 2.395-1.544s-1.516-7.766-2.344-8.62c-.83-.855-3.132-1.165-3.132-1.165z" fill="#233862"/><path d="M30.637 105.649s-.375.507-.136 1.778c.238 1.272.106 1.974.435 1.755.33-.219 1.01-1.746 1.01-1.746l-1.31-1.787z" fill="#FFB27D"/><path d="M14.754 93.372c-6.293-.939-10.5-6.817-12.76-11.267-.21-2.64-.537-5.695-.847-8.358l1.472-4.199 12.135 23.824zM34.78 97.102c-1.253.29-5.054.999-9.033.084-.066-.588-.135-1.182-.204-1.781l-.018-.154.393-1.531c2.251.806 7.283 2.57 8.831 3.115.012.09.021.179.031.267z" fill="#233862"/><path d="M8.663 60.312c.002.001-5.53.698-8.053 4.22-2.524 3.52 2.896 22.698 14.143 28.84 5.411 2.954 21.023 3.62 21.023 3.62s.859.086 1.199-1.642c.118-.602 0-1.629 0-1.629s-17.771-6.66-19.334-7.942c-1.562-1.284-8.978-25.467-8.978-25.467z" fill="#22407A"/><path d="M43.636 94.28s-1.86-.466-2.392-.578c-.622-.132-1.191-.6-1.373-.38-.337.41 1.087 1.13 1.648 2.396.276.622.83.96 1.943.503.558-.23 1.004-1.39.174-1.94z" fill="#E2915A"/><path d="M39 32.656a6.86 6.86 0 0 1 6.86-6.858 6.86 6.86 0 0 1 6.862 6.858 6.86 6.86 0 0 1-6.861 6.858A6.86 6.86 0 0 1 39 32.656zM66.183 20.907c5.68-.193 10.127-4.951 9.935-10.628C75.925 4.602 71.165.156 65.486.349c-5.68.192-10.128 4.95-9.935 10.627.193 5.677 4.953 10.123 10.632 9.93z" fill="#fff"/></svg>