<svg width="170" height="102" viewBox="0 0 170 102" fill="none" xmlns="http://www.w3.org/2000/svg"><g opacity=".6"><path opacity=".6" d="M121.548 101.802h-.045a.466.466 0 0 1-.465-.477l.706-30.582 2.078-.243-1.772 30.828a.503.503 0 0 1-.502.474zM109.436 101.802h-.045a.465.465 0 0 1-.465-.477l.705-30.582 2.079-.243-1.772 30.828a.504.504 0 0 1-.502.474zM142.858 101.802h.044a.466.466 0 0 0 .466-.477l-.706-30.582-2.078-.243 1.772 30.828a.503.503 0 0 0 .502.474zM108.058 68.846V47.89a6.677 6.677 0 0 1 6.677-6.677h15.099a6.677 6.677 0 0 1 6.677 6.677v21.757l-28.453-.8z" fill="#77A4E5"/><path opacity=".6" d="M139.216 72.154h-29.153a2.004 2.004 0 0 1-2.004-2.005v-1.304h31.158v3.309h-.001z" fill="#77A4E5"/><path opacity=".6" d="M142.709 72.154h-22.056a1.482 1.482 0 0 1-1.482-1.482v-.344c0-.818.663-1.482 1.482-1.482h22.056c.819 0 1.482.664 1.482 1.482v.344a1.48 1.48 0 0 1-1.482 1.482z" fill="#77A4E5"/></g><path d="M159.21 89.607c.211 1.054 1.713.877 3.39.468 1.678-.41 1.279.078 3.666-.187 2.387-.264 3.111-1.154 3.184-1.51.065-.315-1.114-.426-2.379-.572a32.817 32.817 0 0 1-.479-.057c-1.429-.18-2.475-1.1-3.773-1.858-1.229-.717-3.063-3.64-3.063-3.64l-3.275.26s1.719 2.61 2.384 3.744c.391.668.37 1.55.321 2.231-.025.371-.049.75.024 1.121z" fill="#FFB27D"/><path d="M162.6 90.075c1.678-.41 1.279.078 3.666-.187 2.387-.264 3.11-1.154 3.184-1.51.065-.315-1.115-.426-2.379-.572l-.012.024s-1.431 1.016-3.419 1.063c-1.619.04-3.335-.425-4.454-.407-.025.37-.049.749.025 1.12.21 1.055 1.711.878 3.389.469z" fill="#233862"/><path d="M131.073 94.32c-.651.855.474 1.864 1.891 2.85 1.418.987.789 1.01 2.566 2.626 1.777 1.616 2.923 1.569 3.237 1.39.28-.159-.418-1.118-1.145-2.164-.092-.13-.183-.264-.274-.396-.81-1.19-.81-2.585-1.102-4.059-.275-1.396 2.005-6.527 2.005-6.527l-3.663-.462s-.478 3.1-.89 4.348c-.242.734-1.26 1.219-1.803 1.633-.293.226-.593.459-.822.76z" fill="#FFB27D"/><path d="M132.965 97.17c1.417.987.788 1.01 2.565 2.626 1.777 1.616 2.924 1.569 3.238 1.39.279-.159-.418-1.118-1.146-2.164l-.026.008s-1.709-.402-3.059-1.861c-1.1-1.188-1.887-2.782-2.641-3.609-.295.227-.595.46-.824.76-.649.853.476 1.864 1.893 2.85z" fill="#233862"/><path d="M146.032 68.088l-3.345 9.001-4.368 11.754s-1.185.115-2.32-.212c-1.044-.302-2.243-1.092-2.243-1.092s1.212-12.62 3.475-19.865c.58-1.86 1.229-3.363 1.946-4.21 3.507-4.146 6.855 4.624 6.855 4.624z" fill="#163560"/><path d="M142.631 53.791c-2.192-.706-8.796-.284-15.076.945l-.961-1.683-13.562-1.059s-4.476 9.925-2.025 16.249c.36.929 1.075 1.525 2.296 1.545h.198s8.073-.005 10.694-.005c6.744 0 14.274-4.637 15.248-4.831 1.594-.32 2.232 2.87 3.826 6.218 1.594 3.348 14.986 14.827 14.986 14.827s2.058.02 2.908-.298c.914-.344 1.25-.788 1.25-.788s-14.839-29.526-19.782-31.12z" fill="#2A4E96"/><path d="M121.844 11.999c-1.909-.455-4.501.079-4.932.13-5.15.6-6.302 8.601-5.919 10.84.705 4.124-1.275 5.286-3.64 8.585-4.74 6.614-1.465 12.06 2.393 13.41 2.314.81 5.469-1.396 5.469-1.396.059.022 8.19-7.741 12.212-11.512 6.763-2.787-.717-18.898-5.583-20.057z" fill="#233862"/><path d="M122.947 30.863c.024.008-2.097 1.393-3.826 1.102-1.625-.273-3.347-2.394-3.325-2.4.657-.202 1.238-.968.828-4.925l.308.03 5.197.497s.044 1.616.193 3.126c.123 1.269.322 2.463.625 2.57z" fill="#FFB27D"/><path d="M122.13 25.166s.044 1.616.193 3.126c-2.86.206-4.627-2.245-5.389-3.625l5.196.5z" fill="#ED975D"/><path d="M123.225 26.5s-6.735.788-7.161-3.413c-.425-4.203-1.581-6.93 2.701-7.61 4.283-.68 5.282.839 5.765 2.206.483 1.368.436 8.505-1.305 8.818z" fill="#FFB27D"/><path d="M123.727 15.525s-3.253 4.656-6.014 5.67c-2.762 1.012-4.067.375-4.067.375s1.316-1.814 1.751-4.31a2.055 2.055 0 0 1 1.344-1.594c1.98-.691 5.798-1.75 6.986-.141z" fill="#233862"/><path d="M121.038 15.868s1.739.993 2.433 1.881c.67.857 1.385 3.134 1.283 4.137 0 0 1.095-4.78-.659-6.519-1.86-1.844-3.057.501-3.057.501z" fill="#233862"/><path d="M128.126 42.01c-.203 13.605-.056 10.762-1.544 12.053-.359.312-1.367.496-2.694.584-4.172.277-11.505-.41-11.783-1.181-.962-2.668-.283-3.495-1.085-7.58a33.51 33.51 0 0 0-.309-1.416c-.67-2.805-1.321-3.758 1.053-8.264 2.154-4.082 4.48-7.342 4.681-7.223 5.681 3.373 6.051.486 6.051.486s5.729 5.907 5.63 12.542z" fill="#fff"/><path d="M142.686 77.09l-4.467 12.243s-1.604.522-2.773.353c-1.191-.173-1.843-.822-1.843-.822s1.365-13.944 3.626-21.188l5.457 9.413z" fill="#2A4E96"/><path d="M122.496 29.466s5.846.992 6.532 3.509c.687 2.516 5.708 16.387 5.708 16.387s-3.952 1.46-5.326.087c-1.373-1.372-4.777-12.737-4.777-12.737l-2.137-7.246z" fill="#fff"/><path d="M123.888 54.647c-4.172.277-11.505-.41-11.783-1.18-.962-2.669-.283-3.496-1.085-7.58l1.956-4.456s-.277 5.099 1.584 6.757c1.858 1.66 7.617 3.204 8.522 4.59.436.665.724 1.333.806 1.869z" fill="#DFEBFD"/><path d="M124.229 51.744s1.242 1.071 1.597 1.158c.353.086.554.006.554.006l-.905-1.06-1.246-.104zM123.736 50.481l3.146.813s-.081.223-.437.28c-.356.054-1.312-.09-1.312-.09l-1.397-1.003z" fill="#FFB27D"/><path d="M118.402 52.215s4.491-1.998 5.334-1.734c.843.265 3.005 1.409 3.344 1.89.34.482-1.77-.06-2.429-.101-.427-.027-1.417.56-1.909.841-2.069 1.189-3.507 1.083-3.507 1.083l-.833-1.979z" fill="#FFB27D"/><path d="M116.444 28.98s-6.353 1.193-7.53 2.954c-2.567 3.842-8.034 19.761-4.972 21.896 3.447 2.403 15.692.629 15.692.629s.408-1.904-.159-2.826c-.567-.921-9.779-2.41-10.205-2.834-.424-.425 4.2-6.573 3.708-7.75-1.58-3.77 3.466-12.068 3.466-12.068z" fill="#fff"/><path d="M141.56 51.536s4.446 1.202 4.902 1.892c.458.69 1.353 2.8 1.315 3.35-.038.55-1.252-1.089-1.707-1.508-.295-.272-1.362-.431-1.885-.516-1.322-.215-1.959-.82-2.455-1.12-.332-.202-.736-.164-.736-.164l.566-1.934z" fill="#FFB27D"/><path d="M146.074 54.637s.27 1.514.477 1.784c.206.272.399.333.399.333l-.032-1.306-.844-.811zM146.463 53.427l1.807 2.449s-.192.114-.483-.056-.9-.84-.9-.84l-.424-1.553zM141.731 53.633s.412 1 1.236 1.358c.822.359 1.427.898 1.56.705.132-.194-.623-1.213-.623-1.213l-2.173-.85z" fill="#FFB27D"/><path d="M133.555 46.082l9.35 5.912s-.983 1.314-1.311 1.434c-1.731.635-9.519.027-12.186-3.977l4.147-3.369z" fill="#fff"/><path d="M129.85 52.506c.551 0 6.04-.38 6.04-.38s-.159.973.18 1.494l-5.348 1.023-1.1-.323.228-1.814z" fill="#F9DDBF"/><path d="M120.695 53.389l9.155-.883s-.322 1.693.873 2.136l-10.093.738s-.813-1.144.065-1.992z" fill="#F99746"/><path d="M135.875 52.247l-6.187.477s.048-.214.162-.216c.116-.003 6.146-.442 6.146-.442l-.022.17-.099.011zM130.721 54.643l5.45-1.036-.051-.141-5.807 1.112.408.065z" fill="#F99746"/><path d="M67.318 101.754h-.05a.517.517 0 0 1-.516-.531l.783-34.15 2.307-.27-1.968 34.422a.56.56 0 0 1-.556.529zM53.871 101.754h-.05a.517.517 0 0 1-.515-.531l.783-34.15 2.307-.27-1.968 34.422a.56.56 0 0 1-.556.529zM90.974 101.754h.05c.289 0 .523-.24.515-.531l-.783-34.15-2.307-.27 1.968 34.421a.56.56 0 0 0 .557.53zM52.343 64.956V41.553c0-4.117 3.319-7.455 7.411-7.455h16.762c4.095 0 7.412 3.338 7.412 7.456v24.294l-31.585-.894z" fill="#77A4E5"/><path d="M86.932 68.65H54.575c-1.233 0-2.232-1-2.232-2.233v-1.462h34.589v3.694z" fill="#77A4E5"/><path d="M90.805 68.65H66.33A1.65 1.65 0 0 1 64.68 67v-.393c0-.912.738-1.65 1.65-1.65h24.475c.911 0 1.65.738 1.65 1.65v.392a1.65 1.65 0 0 1-1.65 1.65z" fill="#77A4E5"/><path d="M77.643 25.456s-1.403 1.194-1.707 4.289c-.231 2.35 1.4 20.595 2.626 22.046 3.451 4.08 7.778 2.356 9.473 2.975l1.599-1.436s-5.621-4.149-6.048-5.501c-1.649-5.212-.628-20.405-5.943-22.373z" fill="#F9DDBF"/><path d="M76.636 10.574s.096-3.347-4.318-4.003c-4.413-.657-5.632.375-6.382 1.502-.75 1.124-2.157 5.72-2.016 7.55.141 1.829 5.175 4.09 5.092 5.158-.084 1.066 7.624-10.207 7.624-10.207z" fill="#163560"/><path d="M97.104 98.866c-.144 1.131 1.4 1.463 3.193 1.621 1.793.157 1.238.512 3.685 1.056 2.447.545 3.459-.106 3.648-.437.169-.295-.96-.808-2.161-1.383l-.454-.22c-1.351-.665-2.078-1.948-3.108-3.149-.974-1.139-1.812-4.699-1.812-4.699l-3.322-.85s.828 3.207 1.106 4.573c.164.803-.151 1.684-.427 2.353-.147.365-.299.737-.348 1.135z" fill="#FFB27D"/><path d="M100.297 100.488c1.793.157 1.238.512 3.685 1.056 2.447.545 3.459-.105 3.648-.437.169-.295-.96-.807-2.161-1.383l-.02.02s-1.753.535-3.732-.091c-1.613-.51-3.154-1.56-4.265-1.92-.149.363-.299.735-.348 1.134-.142 1.13 1.4 1.463 3.193 1.621z" fill="#233862"/><path d="M72.238 52.764s22.203 2.304 25.864 5.703c3.66 3.398 3.008 35.065 3.008 35.065-.57.591-.991.577-1.89.508-.865-.068-2.625-.811-2.625-.811s-4.755-15.55-4.815-19.15c-.06-3.6-.811-9.71-2.323-10.07-1.51-.359-19.485 1.656-21.456-4.022-1.97-5.678 1.302-10.35 1.302-10.35l2.935 3.127z" fill="#ED7D2B"/><path d="M61.866 58.475c.958.642 2.67 1.631 5.546 1.733 5.144.187 11.562-.426 12.825-1.62.328-.307.488-.818.534-1.465.14-1.974-.803-5.22-1.436-7.907-.41-1.747-.69-3.255-.462-4.026.698-2.347 2.867-7.128 3.053-8.7.187-1.572-1.688-9.993-4.28-11.035-2.595-1.044-12.602 0-12.602 0-3.91.793-4.074 9.129-2.776 16.224.034.183.067.365.103.544 1.405 7.206-3.178 14.462-.505 16.252z" fill="#F9DDBF"/><path d="M74.795 26.99c-.07.457-1.322 1.198-3.996.492-2.564-.676-2.872-1.51-2.87-2.061 0-.653 1.113-1.532 1.1-5.546l.307.06 5.168 1.024s-.118 1.626-.12 3.159c-.006 1.286.528 2.11.411 2.871z" fill="#FFB27D"/><path d="M74.503 20.959s-.118 1.626-.12 3.159c-2.892-.082-4.421-2.72-5.048-4.182l5.168 1.023z" fill="#ED975D"/><path d="M75.47 22.41s-6.843.112-6.848-4.15c-.005-4.262-.891-7.118 3.478-7.37 4.369-.251 5.219 1.373 5.566 2.796.347 1.42-.417 8.583-2.197 8.723z" fill="#FFB27D"/><path d="M75.215 10.785s-1.874 5-4.75 5.739c-2.874.738-4.121-.03-4.121-.03s2.205-1.752 2.663-4.81c.001 0 4.796-3.278 6.208-.899z" fill="#163560"/><path d="M74.751 11.192s1.4 1.116 1.74 2.201c.34 1.086.495 3.32 1.145 3.244 0 0 1.411-3.399-.175-5.32-1.68-2.04-2.71-.125-2.71-.125z" fill="#163560"/><path d="M80.429 99.795c-.017 1.14 1.553 1.293 3.353 1.243 1.8-.051 1.286.366 3.779.626 2.491.259 3.424-.504 3.577-.856.136-.312-1.043-.691-2.3-1.125-.16-.053-.317-.11-.476-.166-1.417-.505-2.282-1.696-3.439-2.771-1.095-1.018 1.324-5.947 1.324-5.947l-3.17-1.568s-.602 3.518-1.376 6.596c-.2.795-.851 2.105-1.051 2.801-.108.38-.216.767-.221 1.167z" fill="#FFB27D"/><path d="M62.003 57.629c.958.642 2.534 2.477 5.408 2.58 4.744-1.079 10.145-2.335 13.358-3.085.14-1.974-.803-5.22-1.436-7.907-3.747 1.144-9.322-2.753-11.196-4.294-1.97-1.618-1.908-7.009-1.908-7.009l-3.963 3.768c.034.183.067.364.103.544 1.407 7.203-3.04 13.612-.366 15.403z" fill="#F2CCAA"/><path d="M83.781 101.038c1.8-.051 1.286.366 3.779.626 2.491.259 3.424-.504 3.577-.856.136-.312-1.042-.691-2.3-1.125l-.019.023s-1.683.734-3.719.338c-1.66-.32-3.307-1.186-4.451-1.417-.107.379-.215.766-.22 1.168-.015 1.14 1.553 1.294 3.353 1.243z" fill="#233862"/><path d="M67.447 54.118c5.637-.16 22.474 1.183 25.71 3.623 3.98 3.002-7.394 35.463-7.394 35.463s-1.32.129-1.738.08c-1.807-.204-2.543-.755-2.543-.755s.045-19.107 1.373-22.761c1.228-3.377 1.98-4.572.442-4.773-1.537-.202-20.739 2.247-22.342-3.549-1.252-4.528.598-8.718.598-8.718s.693 1.539 5.894 1.39z" fill="#F99746"/><path d="M65.042 25.455s-3.916.333-4.221 3.428c-.231 2.35-1.935 19.02-.708 20.47 3.45 4.08 14.96 4.944 16.655 5.563l.466-1.93s-12.286-6.19-12.1-7.596c.19-1.406 3.664-20.492-.092-19.935z" fill="#F9DDBF"/><path d="M68.066 8.254s.281-1.786-2.195-2.246c-2.476-.46-2.522 4.799-2.787 6.067-.266 1.269.396 2.028 1.34 2.105.944.076 3.642-5.926 3.642-5.926z" fill="#163560"/><path d="M77.37 52.903s3.498-.99 4.332-.759c.834.231 3.689 2.123 3.288 2.636-.401.514-2.917-.307-4.075-.152-1.158.155-2.052.727-2.886.602-.834-.123-1.705-.45-1.705-.45l1.045-1.877z" fill="#FFB27D"/><path d="M77.37 52.903s1.711-.88 2.198-1.38a.136.136 0 0 1 .212.024c.131.206.253.603-.348.998-.864.569-2.063.358-2.063.358zM89.633 53.329s3.632.198 4.345.687c.713.49 2.801 3.205 2.255 3.56-.547.357-2.66-1.237-3.806-1.465-1.145-.229-2.177.022-2.926-.366-.749-.388-1.467-.98-1.467-.98l1.6-1.436z" fill="#FFB27D"/><path d="M64.688 102.051H49.914c-.711-.867-.45-4.067-.341-5.112.021-.211.037-.333.037-.333s5.045-4.036 5.737-.946c.022.097.048.192.075.285.874 2.89 4.79 4.204 7.051 4.57 1.47.24 2.014 1.004 2.215 1.536z" fill="#1B3051"/><path d="M24.373 54.043c.534 0 25.31 4.652 29.407 9.724 2.048 2.535 2.352 31.8 2.352 31.8s-2.533 3.141-8.003 1.317c0 0-4.01-20.023-3.714-26.097.081-1.679-16.927-.243-20.04-1.048-3.113-.806-10.72-7.579-9.044-10.878 1.674-3.298 9.043-4.818 9.043-4.818z" fill="#233862"/><path d="M42.311 52.669s1.585 1.368 3.212 1.755c.928.222 1.826.472 2.36.717 1.471.675 4.263 3.69 4.003 3.99-.832.96-4.183-1.543-4.825-1.366-.64.177 1.052 1.63.38 2.026-.35.206-1.011-1.05-1.63-1.227-.836-.239-1.391-1.502-1.641-1.588-.489-.168-2.523-1.993-2.523-1.993l.664-2.314z" fill="#FFB27D"/><path d="M71.218 102.051H56.444c-.71-.867-.449-4.067-.34-5.112.02-.211.036-.333.036-.333s5.045-4.036 5.738-.946c.021.097.047.192.075.285.873 2.89 4.79 4.204 7.05 4.57 1.471.24 2.014 1.004 2.215 1.536z" fill="#1E3C68"/><path d="M31.673 54.043c.534 0 25.31 4.652 29.407 9.724 2.048 2.535 2.352 31.8 2.352 31.8s-2.534 3.141-8.003 1.317c0 0-4.01-20.023-3.714-26.097.081-1.679-16.928-.243-20.04-1.048-3.113-.806-10.72-7.579-9.044-10.878 1.675-3.298 9.042-4.818 9.042-4.818z" fill="#2B478B"/><path d="M30.123 23.937c-1.782-.147-3.65-.622-5.266-1.146-2.019-.655-3.647-1.614-2.598-3.458.966-1.7 2.53-5.5 2.425-8.647l3.757 3.028 2.553 2.056s-.01 1.213-.29 3.337c-.051.388-.11.806-.18 1.252a.91.91 0 0 0 .419.914l.057.035c1.269.797.616 2.751-.877 2.63z" fill="#FFB27D"/><path d="M30.994 15.268s.13.44-.094 2.066c-2.275-.371-4.402-2.186-4.402-2.186 1.158-.318 1.58-1.57 2.442-1.453l2.054 1.573z" fill="#ED975D"/><path d="M33.097 15.64s-8.751 1.453-9.572-4.01c-.822-5.464-2.504-8.957 3.048-10.116 5.552-1.16 6.954.762 7.672 2.519.718 1.758 1.108 11.088-1.148 11.606z" fill="#FFB27D"/><path d="M35.533 1.615c.376 1.316-.63 2.919-2.319 3.446-2.506.783-1.952 3.858-3.08 3.816-1.127-.042-1.582-1.767-2.59-.389-.86 1.176.716 2.569.606 3.215-.185 1.107-1.919 3.37-3.482 3.258-1.563-.114-4.486-7.54-3.901-9.836C21.35 2.828 23.69.405 25.904.07c2.215-.334 5.288.621 5.999.621.71 0 3.427.213 3.63.923z" fill="#2B478B"/><path d="M37.704 52.405c-.147 1.26-.412 2.119-.83 2.397a72.57 72.57 0 0 1-4.964 3.035c-6.845 3.817-16.217 7.501-18.123 1.05-2.24-7.577-.768-21.804 1.427-30.64 1.264-5.092 4.76-10.434 7.125-10.428 4.028.007 9.818 1.07 12.155 6.838.905 2.234 2.236 9.975 2.915 17.068.404 4.226.577 8.22.295 10.68z" fill="#fff"/><path d="M21.932 17.869l.911-2.054s8.085.823 9.457 5.47c.001 0-6.249-3.316-10.368-3.416zM37.704 52.405c-.147 1.26-.412 2.119-.83 2.397a72.57 72.57 0 0 1-4.964 3.035c-2.015-1.224-6.151-4.146-7.118-7.59-1.264-4.504-.378-10.045-.378-10.045l13.29 12.203z" fill="#DFEBFD"/><path d="M23.571 24.799s.702 19.352 1.803 23.18c1.876 6.524 18.993 8.848 18.993 8.848s1.009-1.144.558-3.042c0 0-10.233-8.065-10.533-9.6-.299-1.536 2.23-11.941-.66-15.725-2.89-3.783-8.218-7.061-10.16-3.661z" fill="#fff"/><path d="M2.115 101.868l-.056-.001c-.462-.009-.818-.385-.773-.819L4.361 70.34l2.683.239-4.416 30.874a.503.503 0 0 1-.513.415zM17.94 101.868l-.055-.001c-.461-.009-.817-.385-.773-.819l3.075-30.708 2.683.239-4.416 30.874a.502.502 0 0 1-.513.415zM47.653 101.868l.056-.001c.461-.009.817-.385.773-.819L45.407 70.34l-2.683.239 4.415 30.874a.503.503 0 0 0 .514.415zM2.983 65.989L.064 40.34c-.382-3.697.854-7.316 6.188-7.595l9.383-.572c5.561-.23 8.073 4.4 8.777 7.962l5.57 28.194-27-2.341z" fill="#77A4E5"/><path d="M4.55 70.789h41.647c.836 0 1.522-.686 1.522-1.522v-1.873c0-.837-.686-1.522-1.522-1.522H3.03v3.395c0 .837.685 1.522 1.522 1.522z" fill="#77A4E5"/><path d="M4.211 70.789h24.591c.65 0 1.182-.532 1.182-1.181v-2.554c0-.65-.531-1.18-1.182-1.18H3.03v3.734c0 .65.532 1.18 1.182 1.18z" fill="#77A4E5"/></svg>