<svg width="125" height="154" viewBox="0 0 125 154" fill="none" xmlns="http://www.w3.org/2000/svg"><path d="M41.966 89.121l1.177.955s3.218-1.153 3.944 2.671c0 0 .194 1.63-.838 1.633-1.032.003-.607-.179-2.069-.136-1.462.043-2.674-.727-2.888-1.914l-.7-1.006 1.374-2.203z" fill="#EA8E50"/><path d="M41.833 91.173c.939-.98.863-1.704.863-1.704s-10.87-8.899-11.972-9.624c-.751-.494-8.756-7.59-12.498-11.917-1.856-2.146-4.155-1.313-6.786-.559l-2.166.622c-2.615.75-3.296 4.408-1.15 6.186 6.045 5.006 16.1 10.638 17.982 11.82 4.67 2.938 13.813 6.429 13.813 6.429s1.107-.413 1.914-1.253z" fill="#1E3D70"/><path d="M54.237 145.844s2.638 1.976 6.68.932c0 0 3.259-.743 3.974.882 0 0-4.999 2.54-6.264 3.233-.953.523-1.947 1.349-2.65 1.988a1.311 1.311 0 0 1-1.898-.146c-.22-.271-.471-.592-.747-.966-.77-1.045-2.566-4.418-2.566-4.418l3.471-1.505z" fill="#233862"/><path d="M55.785 144.84s-1.607 3.703-5.314 3.022c0 0-7.566-6.248-12.757-12.738-1.686-2.108-3.12-4.241-3.964-6.194-3.441-7.968-12.73-19.852-18.636-25.874l14.776-5.345s4.733 9.52 11.03 21.213c4.54 8.427 9.888 17.98 14.865 25.916z" fill="#2B478B"/><path d="M56.647 74.522c.099-.917.126-1.825.086-2.718a1.02 1.02 0 0 1 .586-.971l4.363-2.025a.997.997 0 0 0 .517-1.243l-1.506-4.141a.969.969 0 0 0-1.142-.61l-4.304 1.056a.998.998 0 0 1-1.088-.45 17.731 17.731 0 0 0-3.655-4.263 1.004 1.004 0 0 1-.248-1.21l1.19-2.422c.226-.461.069-1.02-.366-1.295l-3.69-2.339a.999.999 0 0 0-1.33.24l-2.59 3.402a17.736 17.736 0 0 0-2.456-.441 17.69 17.69 0 0 0-3.317-.05.986.986 0 0 1-.973-.565l-1.634-3.519a1.02 1.02 0 0 0-1.274-.529l-4.068 1.48c-.496.18-.776.704-.65 1.217l.883 3.597a1 1 0 0 1-.425 1.08 17.686 17.686 0 0 0-3.163 2.604c-.305.317-.783.4-1.178.205l-3.93-1.93a1.013 1.013 0 0 0-1.3.367l-2.33 3.675a1.016 1.016 0 0 0 .243 1.352l3.825 2.91a.997.997 0 0 1 .357 1.053 17.808 17.808 0 0 0-.6 4.144 1.04 1.04 0 0 1-.601.918l-4.192 1.946a.992.992 0 0 0-.514 1.237l1.489 4.09c.18.497.706.778 1.219.652l3.41-.837c.452-.111.925.1 1.138.514a17.74 17.74 0 0 0 3.23 4.415c.31.31.392.78.199 1.174l-1.74 3.542a1.037 1.037 0 0 0 .376 1.333l3.666 2.324c.44.278 1.019.174 1.333-.24l2.54-3.337c.26-.34.702-.482 1.112-.362a17.726 17.726 0 0 0 4.751.71c.388.005.739.231.902.583l1.657 3.57c.226.485.785.718 1.288.535l4.074-1.481c.487-.178.762-.693.639-1.195l-.704-2.87c-.111-.451.1-.923.512-1.138A17.724 17.724 0 0 0 52.7 83.87a1 1 0 0 1 1.212-.258l3.18 1.562c.462.227 1.02.07 1.296-.366l2.328-3.672a1.022 1.022 0 0 0-.244-1.36l-3.67-2.792a1.007 1.007 0 0 1-.378-.994c.095-.485.17-.973.224-1.469zM42.84 81.475c-9.166 3.277-16.782-6.25-11.515-14.49.79-1.236 2.572-2.669 3.95-3.176 9.178-3.38 16.852 6.102 11.686 14.35-.816 1.305-2.67 2.797-4.121 3.316z" fill="#AFCDFB"/><path d="M40.921 118.924l-3.205 16.2c-1.686-2.108-3.121-4.241-3.964-6.194-3.442-7.968-12.73-19.852-18.636-25.874l14.776-5.345s4.732 9.52 11.03 21.213zM28.843 147.992s-.161 2.956 3.421 3.35c0 0 2.163.044 2.168 1.925H23.905s-.303-.759-.376-2.384c-.057-1.247 1.21-4.509 1.21-4.509l4.104 1.618z" fill="#233862"/><path d="M25.045 97.71s6.582 7.234 10.761 20.264c2.274 7.089-4.167 24.914-5.422 31.106 0 0-4.321.366-7.276-.776 0 0-.224-12.791 1.504-22.65.967-5.517-8.667-11.8-12.877-21.769-2.864-6.782.62-6.668 4.902-6.83l8.408.656z" fill="#2B478B"/><path d="M17.446 65.444c-3.663 2.069-11.16.16-11.16.16s3.045-3.48 1.661-9.086l2.875 1.46 3.09 1.569s.2.99.338 2.768c.035.458.067.969.089 1.529 1.88.57 3.107 1.6 3.107 1.6z" fill="#FFB07B"/><path d="M30.875 97.338c0 .643-.741.952-.898.983-1.478.27-5.602 1.874-9.317 2.242-3.128.328-6.034.018-9.224-.623-.423-.086-1.415-.353-1.485-.758C9.86 98.74-2.36 74.27 7.14 63.76c.223-.246 2.098.198 3.813.605 1.583.376 3.037.167 4.334-.355l1.608.847c1.975 1.1 5.712 5.01 6.15 8.077.222 1.56 1.114 2.716 1.373 4.088a88.296 88.296 0 0 0 .895 4.194 71.642 71.642 0 0 0 1.728 6.044 64.299 64.299 0 0 0 1.76 4.63c.702 1.653 1.294 2.89 1.663 3.835.26.667.41 1.19.41 1.614z" fill="#2A4E96"/><path d="M30.464 95.726C13.213 87.599 7.238 71.993 7.238 71.993s14.016 5.17 17.473 6.516c.195.948.396 1.85.602 2.707a71.642 71.642 0 0 0 1.728 6.044 64.335 64.335 0 0 0 1.76 4.63c.701 1.654 1.293 2.89 1.663 3.836z" fill="#1E3D70"/><path d="M40.557 91.017l1.49.547s2.986-2.111 4.845 1.322c0 0 .672 1.5-.392 1.825-1.064.326-.678.02-2.173.517-1.496.498-2.97.139-3.535-.93l-1.013-.743.778-2.538z" fill="#FFB07B"/><path d="M41.784 93.124l.802-2.09s-11.264-9.18-12.412-9.967c-.782-.536-8.568-6.357-12.364-10.892a7.946 7.946 0 0 0-7.724-2.676l-2.365.495c-2.855.599-3.783 4.213-1.568 6.111 6.238 5.348 16.759 11.55 18.72 12.839 4.87 3.203 15.642 7.69 15.642 7.69s.836-.38 1.269-1.51z" fill="#2A4E96"/><path d="M14.25 62.315c-3.601.202-5.943-2.771-5.943-2.771s1.628-.902 2.516-1.567l3.089 1.569s.2.991.338 2.769z" fill="#EA8E50"/><path d="M15.784 58.618s-5.457 3.916-7.843.481c-2.387-3.436-4.698-5.243-1.315-7.889 3.383-2.645 4.978-1.81 6.054-.856 1.075.952 4.462 7.157 3.104 8.264z" fill="#FFB07B"/><path d="M13.256 47.25c-.195-1.32-.635-2.25-.635-2.25s-.342 1.419-2.935 1.222c-2.592-.195-6.702.255-8.072 3.21a6.363 6.363 0 0 0-.234.579c-.247-.655-.307-1.637-.307-1.637-.493 1.271 0 2.862 0 2.862-.008.046-.014.093-.02.139C.48 51.859 0 53.362 0 53.362c.173-.419.594-.693.97-.861-.013 2.298.92 4.546 2.556 5.215 2.392.978 2.373.231 4.78 1.828 0 0 .646-.802.205-1.339-.44-.538-2.103-1.32-1.174-2.104.93-.782 1.272.099 1.615-.44.343-.538-1.37-2.103.83-3.57 2.202-1.467 3.67-3.52 3.474-4.841z" fill="#233862"/><path d="M124.347 122.737v4.597c0 .949-.777 1.726-1.725 1.726H95.439a1.73 1.73 0 0 1-1.726-1.726v-4.597a1.73 1.73 0 0 1 1.726-1.725h27.183a1.73 1.73 0 0 1 1.725 1.725z" fill="#F99746"/><path d="M124.347 126.498v.836c0 .949-.777 1.726-1.725 1.726H95.439a1.73 1.73 0 0 1-1.726-1.726v-.906h30.14c.171 0 .337.025.494.07z" fill="#ED7D2B"/><path d="M100.256 129.061l-1.225 4.641-.001.001-5.102 19.315h-.536l2.948-16.025.01-.049 1.458-7.925 2.448.042z" fill="#E8C6A7"/><path d="M100.256 129.061l-1.225 4.641-.001.001c-.07.034-2.302 1.188-2.68 3.241l1.459-7.925 2.447.042z" fill="#C69D7B"/><path d="M124.347 153.018h-.536l-4.156-15.734v-.003l-.945-3.578-.001-.001-1.226-4.641 2.448-.042.835 4.531.624 3.394.009.049 2.948 16.025zM116.062 135.138c-.004.001-.006 0-.009-.005-.011-.021-.009-.017.009.005z" fill="#E8C6A7"/><path d="M120.765 133.55c-.452.657-1.075 1.892-1.11 3.731l-.945-3.578-.001-.001-1.225-4.641 2.448-.042.833 4.531z" fill="#C69D7B"/><path d="M89.984 30.496c.631-.658 1.06-.412 1.06-.412s7.46 5.728 8.172 6.145c.712.416 10.415.697 10.415.697s3.886-.044 4.829 1.951c.819 1.734.241 3.226-.605 4.323a4.015 4.015 0 0 1-4.306 1.387c-3.557-1.037-10.63-3.157-11.955-3.965-2.945-1.803-8.266-8.997-8.266-8.997s.16-.612.656-1.13z" fill="#599DAD"/><path d="M98.025 24.93L94.3 22.688a.962.962 0 0 1-.455-.896c.038-.46.057-.925.057-1.396 0-.872-.062-1.726-.195-2.557a.95.95 0 0 1 .451-.973l3.892-2.348a.933.933 0 0 0 .355-1.219l-1.831-3.73a.925.925 0 0 0-1.139-.46l-3.933 1.428a.926.926 0 0 1-1.067-.313A16.793 16.793 0 0 0 86.572 6.6c-.356-.242-.503-.708-.356-1.11l.873-2.391a.967.967 0 0 0-.474-1.186L82.909.1a.928.928 0 0 0-1.22.357l-1.68 2.78-.407.678a16.832 16.832 0 0 0-5.466.124.925.925 0 0 1-.973-.432L71.273.471a.96.96 0 0 0-1.247-.365l-2.852 1.4-.816.404a.973.973 0 0 0-.488 1.205l1.191 3.288a.925.925 0 0 1-.285 1.053 16.692 16.692 0 0 0-2.51 2.534c-.072.075-.128.151-.19.232a.949.949 0 0 1-1.09.313l-3.887-1.409a.963.963 0 0 0-1.18.474l-1.813 3.692a.96.96 0 0 0 .365 1.243l3.886 2.34a.927.927 0 0 1 .442.953 16.94 16.94 0 0 0-.138 3.952.977.977 0 0 1-.47.916l-3.74 2.258a.933.933 0 0 0-.356 1.21l1.818 3.686a.976.976 0 0 0 1.21.489l3.113-1.13a.957.957 0 0 1 1.124.366 16.782 16.782 0 0 0 3.478 3.82.952.952 0 0 1 .303 1.076l-1.271 3.501c-.171.47.042.992.488 1.215l3.678 1.808a.942.942 0 0 0 1.224-.36l.1-.162 1.95-3.23a.963.963 0 0 1 1-.451h.005a16.663 16.663 0 0 0 4.531.184.945.945 0 0 1 .906.451l1.917 3.184a.977.977 0 0 0 1.267.375l3.672-1.808a.97.97 0 0 0 .479-1.187l-.958-2.623a.97.97 0 0 1 .365-1.12 16.69 16.69 0 0 0 4.66-4.679.938.938 0 0 1 1.105-.365l3.145 1.143a.958.958 0 0 0 1.182-.474l.043-.086 1.769-3.596c.22-.46.059-1-.373-1.26zm-29.404-7.092c.18-.641.427-1.29.749-1.94.616-1.239 2.14-2.772 3.383-3.383.132-.066.266-.128.398-.19 8.133-3.653 15.976 4.332 12.033 12.469-.517 1.063-1.66 2.31-2.776 3.084-.26.175-.517.332-.758.446-1.134.55-2.263.873-3.365.996-6.272.697-11.434-5.068-9.664-11.482z" fill="#F99746"/><path d="M81.74 32.372s.01-2.755-.424-3.556c-.435-.801-1.432-1.802-2-1.482-.567.32-.741 3.005-.567 3.485.174.481 1.464 2.284 1.464 2.284l1.527-.731z" fill="#FFB27D"/><path d="M115.889 121.012c.614-.526.245-3.469.245-3.469s-3.161-2.53-3.596-.593c-.435 1.937-3.005 2.806-4.466 3.044-.976.158-1.299.684-1.408 1.019h9.225v-.001z" fill="#2C3A64"/><path d="M116.242 117.68c-2.927.454-3.998-.243-3.998-.243.037-2.883-.852-9.384-2.071-16.848-1.607-9.842-3.786-21.359-5.164-28.46a1036.74 1036.74 0 0 0-1.319-6.705l2.392-.047 11.933-.236s-.893 13.206-.649 19.727c.059 1.557.183 2.734.399 3.258 2.033 4.942-1.523 29.554-1.523 29.554z" fill="#35488B"/><path d="M117.367 84.868c-1.62 3.033-5.682 10.846-7.192 15.72-1.607-9.842-3.787-21.359-5.164-28.46.068-2.683.389-5.028 1.072-6.752l11.933-.236s-.893 13.206-.649 19.728zM105.837 121.012c.615-.526.246-3.469.246-3.469s-3.161-2.53-3.596-.593c-.435 1.937-3.004 2.806-4.466 3.044-.976.158-1.3.684-1.409 1.019h9.225v-.001z" fill="#2C3A64"/><path d="M98.502 65.136s4.689 43.371 3.759 52.117c0 0 1.003.784 3.959.605 0 0 5.355-24.985 4.22-29.029-.788-2.81 2.353-22.664 2.353-22.664l-14.29-1.029z" fill="#35488B"/><path d="M110.043 34.122s-5.961 2.976-8.918 1.62c0 0 1.243-1.608 2.634-2.276-.03-.53-.047-1.009-.055-1.433-.027-1.41.045-2.204.045-2.204l2.57-1.87 1.744-1.269c-.099.785-.115 1.51-.071 2.176.23 3.431 2.051 5.256 2.051 5.256z" fill="#FFB27D"/><path d="M107.991 28.867s-1.39 2.772-4.287 3.167c-.027-1.41.045-2.204.045-2.204l2.57-1.87c1.123.422 1.672.907 1.672.907z" fill="#ED975D"/><path d="M103.083 29.65s5.336 1.9 6.467-1.44c1.133-3.341 2.584-5.346-.775-6.7-3.36-1.355-4.457-.305-5.106.718-.648 1.023-1.945 6.841-.586 7.422z" fill="#FFB27D"/><path d="M118.393 65.136c-.836 1.74-19.326 1.663-20.24.436-.372-.499-.797-5.489-1.042-11.292a216.518 216.518 0 0 1-.199-9.765c.028-5.037.31-9.069 1.02-9.376 3.963-1.72 6.413-2.813 11.589-2.655a4.292 4.292 0 0 1 3.737 2.408c1.243 2.574 3.009 7.133 3.143 12.52.21 8.3 3.044 15.532 1.992 17.724z" fill="#6BB7BF"/><path d="M102.895 41.097s-.602 8.68-5.784 13.184a216.518 216.518 0 0 1-.199-9.765c1.55-2.07 3.592-3.561 5.983-3.419z" fill="#599DAD"/><path d="M105.444 32.669s-5.686.035-7.472 1.692c-1.278 1.188-9.496 7.665-10.018 7.577-.523-.088-5.813-10.649-5.813-10.649s-2.608.222-3.043 1.35c0 0 2.46 13.187 7.768 16.053 0 0 13.419-2.545 17.4-6.983 2.05-2.284 1.178-9.04 1.178-9.04z" fill="#6BB7BF"/><path d="M103.319 19.62s.316 3.188 1.273 4.057c.957.87.704 2.068.809 2.242.104.174 1.095-.338 1.269-.045.401.674-.225 1.166-.622 1.329-.395.163 1.011 2.899 2.043 3 1.786.174 4.544-4.763 4.777-6.21.305-1.892-.767-4.844-3.84-4.7-4.827.23-5.806-.817-5.709.328z" fill="#2B478B"/></svg>