<svg width="234" height="189" viewBox="0 0 234 189" fill="none" xmlns="http://www.w3.org/2000/svg"><path d="M216.313 101.037l-80.827 75.149-41.611-39.394c-7.79 7.623-19.821 19.39-31.924 31.199-8.272 8.071-14.968 14.59-20.395 19.868l-37.8-.044c10.484-9.919 52.693-51.142 81.129-78.999l8.695-8.518 42.065 39.823 61.754-57.418 18.914 18.334z" fill="#D5E5FB"/><path d="M187.387 73.662l38.092 40.065L233.097 68l-45.71 5.662zM165.867 68.008a8.584 8.584 0 0 0 8.036-9.098 8.585 8.585 0 0 0-9.103-8.032c-4.732.294-8.33 4.367-8.035 9.098.294 4.73 4.369 8.327 9.102 8.032z" fill="#D5E5FB"/><path d="M162.574 55.989a2.755 2.755 0 1 1 5.51 0 2.755 2.755 0 0 1-5.51 0z" fill="#fff"/><path d="M165.329 58.744a4.822 4.822 0 0 0-4.823 4.82h9.644a4.819 4.819 0 0 0-4.821-4.82z" fill="#fff"/><path d="M107.513 37.942a5.79 5.79 0 0 0-4.306-6.964 5.789 5.789 0 1 0-2.662 11.268 5.792 5.792 0 0 0 6.968-4.304z" fill="#C6DCF7"/><path d="M100.013 34.278a1.859 1.859 0 1 1 3.717 0 1.859 1.859 0 0 1-3.717 0z" fill="#fff"/><path d="M101.871 36.136a3.253 3.253 0 0 0-3.254 3.252h6.506a3.25 3.25 0 0 0-3.252-3.252z" fill="#fff"/><path d="M143.168 7.533a.505.505 0 1 1 .964.298.505.505 0 0 1-.964-.298zM145.398 8.22a.505.505 0 1 1 .964.297.505.505 0 0 1-.964-.298zM147.992 9.544a.504.504 0 1 1 .296-.964.504.504 0 0 1-.296.964zM149.917 9.61a.505.505 0 1 1 .964.297.505.505 0 0 1-.964-.298zM152.147 10.294a.505.505 0 1 1 .964.298.505.505 0 0 1-.964-.298zM154.74 11.62a.504.504 0 1 1 .296-.964.504.504 0 0 1-.296.964zM156.575 11.656a.505.505 0 1 1 .964.298.505.505 0 0 1-.964-.298zM158.806 12.343a.505.505 0 1 1 .964.297.505.505 0 0 1-.964-.297zM161.398 13.667a.505.505 0 1 1 .298-.964.505.505 0 0 1-.298.964zM163.324 13.733a.505.505 0 1 1 .964.297.505.505 0 0 1-.964-.297zM165.555 14.418a.504.504 0 1 1 .963.296.504.504 0 0 1-.963-.296zM168.147 15.743a.505.505 0 1 1 .298-.964.505.505 0 0 1-.298.964zM170.079 15.81a.505.505 0 1 1 .964.298.505.505 0 0 1-.964-.298zM172.309 16.495a.503.503 0 1 1 .962.294.503.503 0 0 1-.962-.294zM174.902 17.82a.504.504 0 1 1 .295-.964.504.504 0 0 1-.295.963zM176.828 17.885a.504.504 0 1 1 .964.297.504.504 0 0 1-.964-.297zM179.058 18.571a.504.504 0 1 1 .963.296.504.504 0 0 1-.963-.296zM181.651 19.896a.504.504 0 1 1 .296-.964.504.504 0 0 1-.296.964zM183.486 19.933a.505.505 0 1 1 .964.298.505.505 0 0 1-.964-.298zM185.716 20.618a.505.505 0 1 1 .964.298.505.505 0 0 1-.964-.298zM188.309 21.943a.504.504 0 1 1 .298-.963.504.504 0 0 1-.298.963zM190.235 22.008a.505.505 0 1 1 .964.298.505.505 0 0 1-.964-.298zM192.465 22.695a.505.505 0 1 1 .964.297.505.505 0 0 1-.964-.297zM195.058 24.02a.504.504 0 1 1 .298-.964.504.504 0 0 1-.298.963zM171.346 50.652a.503.503 0 1 1 .595-.812.503.503 0 1 1-.595.812zM172.724 48.77a.503.503 0 1 1 .595-.811.503.503 0 1 1-.595.812zM174.826 46.756a.504.504 0 1 1-.812-.595.504.504 0 0 1 .812.595zM175.518 44.958a.503.503 0 1 1 .595-.812.503.503 0 1 1-.595.812zM176.896 43.077a.503.503 0 1 1 .598-.812.503.503 0 1 1-.598.812zM178.998 41.062a.503.503 0 1 1-.812-.596.503.503 0 0 1 .812.596zM179.694 39.26a.503.503 0 1 1 .595-.812.503.503 0 0 1-.595.812zM181.073 37.379a.503.503 0 1 1 .595-.812.503.503 0 0 1-.595.812zM183.175 35.363a.504.504 0 1 1-.812-.595.504.504 0 0 1 .812.595zM183.867 33.566a.503.503 0 1 1 .595-.811.503.503 0 0 1-.595.811zM185.245 31.684a.503.503 0 1 1 .595-.812.503.503 0 0 1-.595.812zM187.348 29.67a.504.504 0 1 1-.812-.596.504.504 0 0 1 .812.596zM187.983 27.949a.503.503 0 1 1 .595-.812.503.503 0 0 1-.595.812zM189.362 26.068a.503.503 0 1 1 .597-.813c.225.165.274.48.109.704a.506.506 0 0 1-.706.109zM191.464 24.053a.504.504 0 1 1-.812-.595.504.504 0 0 1 .812.595zM192.156 22.255a.503.503 0 1 1 .595-.812.503.503 0 0 1-.595.812zM193.535 20.374a.503.503 0 1 1 .595-.812.503.503 0 0 1-.595.812zM195.637 18.358a.504.504 0 1 1-.812-.595.504.504 0 0 1 .812.595zM175.519 58.55a.505.505 0 1 1 .997-.162.505.505 0 0 1-.997.162zM177.821 58.173a.504.504 0 1 1 .996-.163.504.504 0 0 1-.996.163zM180.733 58.206a.505.505 0 1 1-.163-.997.505.505 0 0 1 .163.997zM182.486 57.408a.504.504 0 1 1 .996-.163.504.504 0 0 1-.996.163zM184.789 57.031a.504.504 0 1 1 .995-.163.504.504 0 0 1-.995.163zM187.701 57.064a.504.504 0 1 1-.163-.995.504.504 0 0 1 .163.995zM189.461 56.266a.505.505 0 1 1 .996-.163.505.505 0 0 1-.996.163zM191.764 55.888a.504.504 0 1 1 .994-.164.504.504 0 0 1-.994.164zM194.676 55.922a.504.504 0 1 1-.164-.994.504.504 0 0 1 .164.994zM196.429 55.124a.504.504 0 1 1 .994-.164.504.504 0 0 1-.994.164zM198.731 54.746a.505.505 0 1 1 .996-.163.505.505 0 0 1-.996.163zM201.644 54.78a.505.505 0 1 1-.163-.997.505.505 0 0 1 .163.997zM203.304 53.997a.504.504 0 1 1 .994-.164.504.504 0 0 1-.994.164zM205.606 53.62a.504.504 0 1 1 .996-.162.504.504 0 0 1-.996.163zM208.517 53.653a.505.505 0 1 1-.163-.997.505.505 0 0 1 .163.997zM210.271 52.856a.505.505 0 1 1 .997-.161.505.505 0 0 1-.997.161zM212.574 52.479a.505.505 0 1 1 .996-.163.505.505 0 0 1-.996.163zM215.485 52.513a.505.505 0 1 1-.163-.997.505.505 0 0 1 .163.997zM162.266 49.357a.505.505 0 0 1-.307-.959.504.504 0 0 1 .307.96zM161.555 47.135a.504.504 0 1 1 0 0zM161.162 44.25a.503.503 0 1 1-.957.309.503.503 0 0 1 .957-.308zM160.115 42.634a.504.504 0 1 1-.307-.96.504.504 0 0 1 .307.96zM159.405 40.413a.504.504 0 1 1-.307-.96.504.504 0 0 1 .307.96zM159.012 37.529a.505.505 0 1 1-.962.306.505.505 0 0 1 .962-.306zM157.964 35.906a.503.503 0 1 1-.307-.96.503.503 0 0 1 .307.96zM157.253 33.685a.503.503 0 1 1-.307-.96.503.503 0 0 1 .307.96zM156.861 30.8a.504.504 0 1 1-.961.306.504.504 0 0 1 .961-.306zM155.814 29.182a.505.505 0 0 1-.308-.959.505.505 0 0 1 .308.96zM155.104 26.962a.505.505 0 0 1-.308-.96.504.504 0 0 1 .308.96zM154.709 24.077a.503.503 0 1 1-.957.308.503.503 0 0 1 .957-.308zM153.693 22.55a.505.505 0 1 1-.307-.961.505.505 0 0 1 .307.96zM152.983 20.329a.505.505 0 0 1-.308-.96.505.505 0 0 1 .308.96zM152.588 17.444a.504.504 0 1 1-.96.308.504.504 0 0 1 .96-.308zM151.542 15.828a.503.503 0 1 1-.307-.959.503.503 0 0 1 .307.959zM150.831 13.605a.504.504 0 1 1-.307-.96.504.504 0 0 1 .307.96zM150.438 10.722a.505.505 0 1 1-.962.306.505.505 0 0 1 .962-.306zM105.096 33.774a.505.505 0 1 1 .831-.572.505.505 0 0 1-.831.572zM107.017 32.45a.505.505 0 1 1 .831-.572.505.505 0 0 1-.831.572zM109.664 31.236a.503.503 0 1 1-.573-.828.503.503 0 0 1 .573.828zM110.908 29.765a.503.503 0 1 1 .828-.573.503.503 0 0 1-.828.573zM112.828 28.44a.503.503 0 1 1 .828-.573.503.503 0 0 1-.828.574zM115.474 27.227a.505.505 0 1 1-.574-.83.505.505 0 0 1 .574.83zM116.723 25.753a.505.505 0 1 1 .831-.572.505.505 0 0 1-.831.572zM118.644 24.427a.504.504 0 1 1 .829-.573.504.504 0 0 1-.829.573zM121.291 23.215a.503.503 0 1 1-.573-.828.503.503 0 0 1 .573.828zM122.535 21.743a.504.504 0 1 1 .828-.574.504.504 0 0 1-.828.574zM124.455 20.418a.504.504 0 1 1 .828-.573.504.504 0 0 1-.828.573zM127.101 19.204a.505.505 0 1 1-.574-.83.505.505 0 0 1 .574.83zM128.267 17.788a.505.505 0 1 1 .831-.572.505.505 0 0 1-.831.572zM130.188 16.462a.503.503 0 1 1 .702.128.505.505 0 0 1-.702-.128zM132.834 15.249a.503.503 0 1 1-.573-.828.503.503 0 0 1 .573.828zM134.079 13.778a.504.504 0 1 1 .828-.574.504.504 0 0 1-.828.574zM135.998 12.454a.505.505 0 1 1 .831-.573.505.505 0 0 1-.831.572zM138.646 11.24a.505.505 0 1 1-.573-.83.505.505 0 0 1 .573.83zM201.498 26.882a.504.504 0 1 1 .698.727.504.504 0 0 1-.698-.727zM203.113 28.566a.503.503 0 1 1 .697.727.504.504 0 1 1-.697-.727zM204.732 30.984a.504.504 0 1 1 .726-.698.504.504 0 0 1-.726.698zM206.383 31.979a.504.504 0 1 1 .698.727.504.504 0 0 1-.698-.727zM207.997 33.662a.504.504 0 1 1 .698.728.504.504 0 0 1-.698-.728zM209.617 36.08a.504.504 0 1 1 .727-.697.504.504 0 0 1-.727.698zM211.273 37.08a.504.504 0 1 1 .698.726.504.504 0 0 1-.698-.727zM212.886 38.763a.504.504 0 1 1 .698.727.504.504 0 0 1-.698-.727zM214.508 41.181a.504.504 0 1 1 .728-.698.504.504 0 0 1-.728.698zM216.157 42.176a.504.504 0 1 1 .698.727.504.504 0 0 1-.698-.727zM217.771 43.86a.504.504 0 1 1 .698.726.504.504 0 0 1-.698-.727zM219.392 46.278a.504.504 0 1 1 .729-.698.504.504 0 0 1-.729.698z" fill="#D5E5FB"/><path d="M154.296 9.326a7.132 7.132 0 0 0-5.9-8.183 7.132 7.132 0 1 0-2.286 14.081 7.134 7.134 0 0 0 8.186-5.898z" fill="#D5E5FB"/><path d="M144.959 5.323a2.29 2.29 0 1 1 4.579.001 2.29 2.29 0 0 1-4.579 0z" fill="#fff"/><path d="M147.249 7.614a4.008 4.008 0 0 0-4.008 4.006h8.016a4.007 4.007 0 0 0-4.008-4.006z" fill="#fff"/><path d="M207.591 22.262c.821-6.014-3.392-11.553-9.408-12.373-6.017-.82-11.559 3.39-12.379 9.404-.821 6.014 3.392 11.554 9.408 12.374 6.016.82 11.559-3.39 12.379-9.405z" fill="#C6DCF7"/><path d="M196.689 19.886a3.528 3.528 0 1 0 0-7.056 3.529 3.529 0 1 0 0 7.056z" fill="#fff"/><path d="M196.688 19.884a6.174 6.174 0 0 0-6.175 6.174h12.351a6.176 6.176 0 0 0-6.176-6.174z" fill="#fff"/><path d="M231.588 51.622a7.42 7.42 0 0 0-6.655-8.114 7.42 7.42 0 0 0-1.463 14.766 7.422 7.422 0 0 0 8.118-6.652z" fill="#D5E5FB"/><path d="M74.027 72.163s.756 6.2.84 7.075l-7.048 2.418-1.262-4.372s1.623-3.054 1.296-7.591l6.174 2.47z" fill="url(#paint0_linear_199_19556)"/><path d="M74.652 72.646s-7.187.328-7.322-4.15c-.136-4.479-1.155-7.453 3.428-7.851 4.583-.4 5.527 1.282 5.936 2.766.409 1.484-.176 9.034-2.042 9.235z" fill="#E5B0B4"/><path d="M67.33 68.495s.537-5.976 6.938-5.762c6.403.214 3.634-5.84-1.868-6.733 0 0 .575 2.134-2.886 2.471-7.264.707-2.83 9.076-2.185 10.024z" fill="#555CA3"/><path d="M76.908 184.474l1.125 3.619h11.165s-2.856-4.882-12.29-3.619zM57.075 184.452l.996 3.619h9.887c-.001 0-2.53-4.881-10.883-3.619z" fill="#221E50"/><path d="M82.372 117.126h-21.24s7.218 35.83 15.595 67.549l10.106.295-4.46-67.844z" fill="#2B295E"/><path d="M70.596 118.601l-.161.587-12.38-2.369s-4.72 26.89-1.533 68.152h8.654l5.42-54.391c.158-1.587 2.606-2.978 2.606-2.978v-9.318l-2.606.317z" fill="#333381"/><path d="M59.365 122.324c4.899 0 7.028-3.555 7.05-3.59l-.227-.133c-.021.036-2.13 3.547-6.997 3.459l-.005.262c.06.002.12.002.179.002zM82.161 121.156l.063-.255c-1.17-.287-2.274-1.676-2.285-1.69l-.206.162c.047.061 1.172 1.474 2.428 1.783z" fill="#221E50"/><path d="M58.558 177.579c.785-5.175 1.434-11.317 1.791-17.725a261.34 261.34 0 0 0 .276-6.344c.012-.381-.093-.821-.194-1.248-.095-.396-.191-.806-.184-1.135.105-4.218.018-8.08-.058-11.489-.02-.894-.04-1.769-.055-2.626-.142-7.749-.197-12.141-.195-12.184-.002.043-.195 4.412-.052 12.172.015.858.035 1.733.055 2.627.076 3.405.163 7.264.058 11.475-.01.368.093.797.19 1.212.097.407.198.827.187 1.169a272.94 272.94 0 0 1-.276 6.336c-.357 6.399-.832 12.595-1.616 17.762l.073-.002z" fill="#2B295E"/><path d="M83.103 88.998c-1.405 3.811-1.772 11.656-1.797 18.376-.445 9.092-12.754 11.732-12.754 11.732a377.54 377.54 0 0 1-4.494-.167h-.002c-.848-.037-1.607-.08-2.24-.103-.267-.011-.51-.017-.73-.018a10.805 10.805 0 0 1-.493-.013c-3.634-.181-2.637-2.194-2.637-2.194.682-2.206.231-6.202.398-9.731.194-4.14-1.143-8.387-1.625-10.965l-.03-.163c-.047-.272.325-15.997.679-16.1 1.612-.47 3.63-1.508 8.654-2.612.407 1.104 2.52 2.314 5.985 2.135.381-.02 1.413-.173 1.42-.174 2.735-.386 3.62-1.842 3.493-2.04.114.01.237-.018.34.031.759.346 3.23.918 4.42 1.37 1.653.627 2.35.843 2.45 1.614.415 3.267-1.037 9.022-1.037 9.022z" fill="#DDE3F2"/><path d="M60.592 118.805c-3.634-.181-2.637-2.194-2.637-2.194.682-2.206.231-6.202.397-9.731.195-4.14-1.142-8.387-1.624-10.965-.05-.329-.098-.635-.138-.916.301-.644 2.372-1.557 3.122.755.669 2.055 3.795 18.399.88 23.051z" fill="#CED4EA"/><path d="M102.723 112.251l1.473.593s3.155-1.16 5.123 1.957c0 0 .712 1.336-.412 1.404-1.125.068-.716-.108-2.298.02-1.581.128-3.14-.432-3.738-1.4l-2.376-.996 2.228-1.578z" fill="#E5B0B4"/><path d="M69.67 78.914h2.864s.346.115.23.554c-.116.439-1.177 1.547-1.535 1.57-.359.023-2.415-1.385-1.56-2.124z" fill="#C3592D"/><path d="M67.245 76.002s1.876 2.698 4.033 2.848l-2.123 3.134s-4.742-2.235-4.45-4.64c0 0 1.848-1.291 2.54-1.342z" fill="#CED4EA"/><path d="M74.386 75.944s-1.273 3.05-3.259 2.891l2.002 3.15s3.963-2.39 4.082-4.648c0 0-2.134-1.342-2.825-1.393z" fill="#CED4EA"/><path d="M74.444 75.599s-1.009 3.1-3.166 3.251l2.056 2.747s3.816-2.348 3.936-4.605c0 0-2.134-1.342-2.826-1.393zM67.186 75.675s1.935 3.025 4.091 3.175l-2.045 2.807s-4.41-2.056-4.528-4.313c0 0 1.79-1.618 2.482-1.669z" fill="#DDE3F2"/><path d="M70.761 80.834s-.653 6.163-.77 8.225c-.325 5.8-.445 23.233-.445 23.233s-.172 1.522.845 2.736c1.015 1.214 2.076 2.045 2.076 2.045s1.491-1.304 2.082-3.754c.393-1.63-.55-15.318-1.503-24.436a81.831 81.831 0 0 0-1.27-8.172s-.78-.137-1.015.123z" fill="#D3652C"/><path d="M82.291 111.468c.03 2.629.143 4.93.383 6.504-.115.171-.307.288-.493.378l-.001.002a3.936 3.936 0 0 1-.64.233c-2.449.69-8.156.665-12.99.52 0 0 12.31-2.639 12.754-11.732.025-6.721.393-14.565 1.797-18.376 0 0-.564 8.19-.756 16.173a181.64 181.64 0 0 0-.054 6.298z" fill="#CED4EA"/><path d="M77.267 76.992s5.408.936 6.953 2.43c1.546 1.493 6.663 24.415 7.618 25.506.955 1.091 12.278 7.5 12.278 7.5l-1.641 2.614s-14.651-2.886-15.645-4.25c-.993-1.364-7.098-20.83-7.098-20.83l-2.465-12.97z" fill="#DDE3F2"/><path d="M47 127.391l-1.159 9.09a1.225 1.225 0 0 0 1.06 1.37l16.594 2.116a1.224 1.224 0 0 0 1.37-1.06l1.16-9.09a1.225 1.225 0 0 0-1.061-1.37l-4.378-.558.153-1.198a1.078 1.078 0 0 0-.931-1.204l-5.704-.728a1.078 1.078 0 0 0-1.203.931l-.153 1.198-4.378-.557a1.225 1.225 0 0 0-1.37 1.06zm12.528.363l-5.722-.73.152-1.198c.001-.005.006-.009.011-.008l5.703.727c.006.001.01.005.009.011l-.153 1.198z" fill="#DA8B39"/><path opacity=".6" d="M46.562 130.801l19.025 2.426.045-.355-19.024-2.426-.046.355z" fill="#CC7630"/><path d="M56.899 120.058l-.222 1.851s2.758 1.38 1.412 4.435c0 0-.654 1.224-1.361.534-.708-.689-.33-.525-1.35-1.476-1.021-.95-1.479-2.279-1.053-3.219l.368-2.397 2.206.272z" fill="#E5B0B4"/><path d="M64.703 77.344s-8.159 1.034-9.207 2.85c0 0-3.03 8.299-2.485 23.899 0 0 1.226 16.373 1.226 17.757l2.68.202s2.407-16.065 2.64-17.959c.233-1.894 5.146-26.749 5.146-26.749z" fill="#DDE3F2"/><path d="M186.366 184.534l-1.103 3.55h-10.954s2.802-4.789 12.057-3.55z" fill="#221E50"/><path d="M177.863 116.786l14.576 2.634s-1.844 33.753-5.627 65.492l-10.224-.102 1.275-68.024z" fill="#2B295E"/><path d="M205.626 184.534l-1.103 3.55h-10.955s2.802-4.789 12.058-3.55z" fill="#221E50"/><path d="M173.115 118.327l-.626 1.94s-2.646 2.84-.208 6.329c0 0 1.104 1.356 1.679.189.576-1.167.205-.811 1.049-2.437.843-1.626.944-3.536.182-4.605l.247-2.465-2.323 1.049z" fill="#AD7041"/><path d="M206.615 184.972s-4.443-56.607-9.961-67.043l-16.634-1.202.316 10.246s1.878.891 2.707 2.584l14.196 55.304 9.376.111z" fill="#333380"/><path d="M181.824 79.095l-2.592 11.451-.303 6.916 1.375 6.349-4.694 16.336-1.332-.154-1.666-.101.722-16.384c.592-6.072-.092-21.016 1.186-21.916 2.244-1.581 7.304-2.497 7.304-2.497z" fill="#EECF70"/><path d="M182.341 73.354s.588 2.168 1.189 6.594c0 0 3.461 2.993 4.901 2.72 1.25-.236 2.707-4.207 2.707-4.207s-1.378-1.96-2.74-7.53l-6.057 2.423z" fill="#99613A"/><path opacity=".2" d="M178.928 97.462l1.436 5.683-4.755 17.003-1.332-.154c.43-3.552 1.364-19.554 1.431-22.183.073-2.849 2.777-4.485 2.777-4.485l.443 4.136z" fill="#DA8B39"/><path d="M181.467 75.53s6.908 1.45 7.745-2.865c.837-4.316 2.293-7.036-2.082-8.144-4.376-1.109-5.555.37-6.184 1.744-.631 1.372-1.255 8.776.521 9.265z" fill="#AD7041"/><path d="M189.21 72.665s.422-5.873-5.812-6.674c-6.234-.801-2.597-6.229 2.871-6.226 0 0-.893 1.976 2.406 2.848 6.923 1.829 1.31 9.235.535 10.052z" fill="#D25C2A"/><path d="M196.44 125.26c-4.808 0-6.896-3.487-6.917-3.523l.222-.13c.01.018 1.556 1.806 3.224 2.709 1.689.916 3.5.944 3.471.944z" fill="#221E50"/><path d="M203.413 180.101c-.092-5.136-.473-11.182-1.18-17.44a266.582 266.582 0 0 0-.776-6.181c-.05-.37-.224-.779-.392-1.175-.156-.368-.318-.748-.364-1.068-.592-4.097-1.311-7.819-1.944-11.103-.166-.861-.329-1.705-.485-2.532a1675.527 1675.527 0 0 1-2.19-11.752c.006.042.537 4.299 1.95 11.782.156.828.319 1.67.485 2.532.634 3.281 1.351 7 1.942 11.091.052.356.221.755.384 1.14.161.378.327.768.372 1.1a265.487 265.487 0 0 1 .773 6.175c.707 6.248 1.265 12.319 1.357 17.445l.068-.014z" fill="#2B295E"/><path d="M197.382 119.826c-.109.04-2.42 1.613-12.998.19-2.346-.316-6.416-.36-7.472-3.289-.324-10.017-2.511-35.087-2.395-35.134-.043.154 3.231-1.895 8.847-2.799-.346.988-.522 1.937.809 1.974 1.601.044 5.711-1.57 6.967-2.308 1.584.123 3.257.365 5.009.76.16.036.771 6.416 1.183 14.045.123 2.266.228 4.643.298 6.997.275 9.137 1.514 18.926-.248 19.564z" fill="#EECF70"/><path opacity=".2" d="M183.406 80.227s-.353-.94-.167-1.154l-.125-.838s-2.4 1.199-1.9 3.76l2.192-1.768z" fill="#DA8B39"/><path d="M183.018 79.782l2.83.441s.324.167.142.584c-.182.416-1.402 1.348-1.759 1.315-.358-.032-2.172-1.742-1.213-2.34z" fill="#4F549C"/><path d="M183.625 81.61s-1.437 6.03-1.816 8.06c-1.067 5.71-2.44 21.884-2.44 21.884s-.201 2.727.652 4.061a51.536 51.536 0 0 0 1.803 2.612s1.313-.925 2.214-3.28c.599-1.566.6-15.899.822-25.064.112-4.606-.212-8.267-.212-8.267s-.756-.233-1.023-.005z" fill="#555CA1"/><path opacity=".2" d="M197.63 100.262c-1.694.773-4.994 1.975-5.135-.312-.189-3.083 2.325-8.064 3.321-8.254.581-.112 1.146.794 1.516 1.57.122 2.266.228 4.643.298 6.996z" fill="#DA8B39"/><path d="M196.769 96.743l-14.105 6.244 8.31 18.772 14.105-6.244-8.31-18.772z" fill="#D05C2B"/><path d="M191.603 109.673l-.504.627s-3.457-1.817-6.199 1.472c0 0-1.024 1.43.261 1.68 1.285.25.841-.015 2.643.373 1.801.39 3.681-.018 4.519-1.041l.922-1.142-1.642-1.969z" fill="#AD7041"/><path d="M191.202 78.46s7.194.058 8.155.77c.962.711 10.578 16.649 10.738 22.768 0 0-6.293 6.365-17.191 10.065l-1.806-1.763s8.166-8.816 12.083-10.334c0 0-6.481-6.578-7.907-10.12-1.425-3.541-4.072-11.386-4.072-11.386zM183.7 79.888s-.295-.794-.336-1.095l-.125-.837s-2.4 1.198-1.9 3.76l2.361-1.828z" fill="#EECF70"/><path opacity=".2" d="M190.734 78.04s-3.474 2.265-5.212 2.459l1.219 2.87s5.54-2.903 5.229-4.619c0 .001-.416-.442-1.236-.71z" fill="#DA8B39"/><path d="M190.733 77.75s-3.61 2.207-5.348 2.4l1.355 2.928s5.541-2.904 5.229-4.62c0 .002-.416-.441-1.236-.709z" fill="#EECF70"/><path d="M26.326 112.121l1.957.794s2.13-1.35 3.495.99c0 0 .497 1.019-.266 1.214-.763.195-.487-.002-1.559.3-1.071.301-2.104-.076-2.52-.803l-1.78-.397.673-2.098z" fill="#AB7041"/><path d="M19.683 89.043s2.345 1.428 2.48 4.66c.137 3.23.704 15.942 1.05 16.426.345.485 5.436 2.728 5.436 2.728l-.822 2.23s-6.391-1.018-6.816-1.927c-.423-.909-1.328-24.117-1.328-24.117z" fill="#CF7E2E"/><path d="M20.81 177.828l3.348 8.412 2.71-1.514-.757-7.421-5.3.523z" fill="#E3AEB2"/><path d="M23.118 184.888l.969 3.206h9.615s-2.46-4.324-10.584-3.206z" fill="#DA8B39"/><path d="M6.3 177.291l2.126 8.8 2.896-1.116.299-7.454-5.321-.23z" fill="#E3AEB2"/><path d="M21.895 121.9l6.062 58.485h-6.824s-17.54-39.073-12.68-58.331l13.442-.154z" fill="#333381"/><path d="M7.655 184.888l.969 3.206h9.615c.001 0-2.46-4.324-10.584-3.206z" fill="#DA8B39"/><path d="M3.627 129.693c-.497 8.885 2.697 51.98 2.697 51.98l3.58.067 3.075.058s2.03-18.895 2.972-25.449c1.2-8.348 3.074-34.309 3.074-34.309l-13.403-.824c0-.001-1.598 1.386-1.995 8.477z" fill="#555CA1"/><path d="M3.627 129.693c-.497 8.885 2.697 51.98 2.697 51.98l3.58.067c-1.754-8.252-1.574-48.432-1.46-52.583.073-2.695 1.265-5.728 2.156-7.635l-4.977-.306c-.001-.001-1.6 1.386-1.996 8.477z" fill="#4F549C"/><path d="M19.078 76.784s-.173-7.683-7.675-6.722c-7.504.961-8.134 10.797-6.62 14.076 1.513 3.279-3.027 3.341-4.351 6.242-1.324 2.9.819 6.179.82 6.999 0 .82-1.45 4.161 3.53 4.035 4.981-.126 15.826.378 15.321-4.099-.504-4.476-.875-6.94-2.483-8.953-1.606-2.014 1.458-11.578 1.458-11.578z" fill="#333380"/><path d="M15.828 83.53s-.854 4.964 2.236 7.307l-2.224 3.331-4.466-.218-2.063-5.34s.633-.123.934-6.779l5.583 1.7z" fill="#9C5F33"/><path d="M16.915 84.95s-6.81.312-6.938-3.932c-.129-4.244-1.094-7.061 3.248-7.439 4.342-.378 5.237 1.216 5.624 2.622.387 1.405-.166 8.56-1.934 8.75z" fill="#AB7041"/><path d="M18.686 88.49c-.286 0-5.765-1.064-13.994 1.041 0 0 4.507 20.647 2.976 24.539-1.531 3.892-2.113 7.345-2.113 7.345l16.608.206s-.233-13.357.533-18.084c.765-4.728-4.01-15.048-4.01-15.048z" fill="#9C5F33"/><path d="M4.464 99.553l.029.065s3.982 9.62 2.928 12.682c-1.054 3.063-2.73 9.322-1.82 9.322.191 0 1.296.218 2.851.432h.001c1.485.204 3.38.402 5.283.402 3.25 0 6.75-.383 8.158-.556a.817.817 0 0 0 .714-.728c.12-1.188.314-3.777-.033-5.796-.581-3.386.472-10.409.588-14.327.098-3.269-1.426-11.638-1.426-11.638s-1.375-.723-3.886-1.022c0 0 .381 3.435-.894 5.03 0 0-7.48-3.423-8.301-4.71 0 0-5.23.436-6.407 1.775-1.113 1.269 1.89 8.315 2.215 9.069z" fill="#EECF70"/><path d="M18.452 74.067c-.932-1.477-4.364-1.311-4.364-1.311-1.154-.284-3.154-.507-4.69.765-2.29 1.897.313 9.342.313 9.342s.133-4.313 2.67-6.354c1.641-1.32 2.263-2.38 2.496-2.962.354.282.856.634 1.567 1.046 1.989 1.152 2.407 5.183 2.407 5.183.994-1.59.533-4.232-.4-5.709z" fill="#333380"/><path d="M15.145 82.332s.198.54 1.522.288c0 0 1.112-.212.998-.817.001 0-1.142-.298-2.52.53z" fill="#fff"/><path d="M16.745 129.799c-.853.84-6.931.255-10.97-.241-2.083-.255-3.625-.486-3.625-.486s2.252-14.457 2.728-16.981c.274-1.455-.893-8.046-1.785-13.58-.656-4.067-1.164-7.562-.844-8.026.756-1.096 5.259-1.647 5.259-1.647l6.577 5.956s3.955 33.732 2.66 35.005z" fill="#DA8B39"/><path d="M14.087 94.793l-4.775-6.182s-1.278-.222-1.803.227l6.578 5.956zM18.082 88.418l2.04 5.75-.489-5.706s-1.007-.241-1.551-.044z" fill="#CF7E2E"/><path d="M20.12 94.169s1.962 28.903 1.604 34.357c0 0 2.774-.392 2.956-2.424.182-2.032-1.273-16.528-.818-19.281.455-2.753-.034-16.555-2.131-17.457l-2.097-.901.487 5.706z" fill="#DA8B39"/><path d="M23.62 105.826l11.395-2.667-4.97 14.273-11.639 2.578 5.214-14.184z" fill="#555CA1"/><path d="M13.53 112.7l5.395 2.765s2.586-1.219 4.488 1.274c0 0 .703 1.079-.245 1.221-.948.142-.615-.039-1.944.188-1.33.227-2.663-.235-3.243-1.01l-6.28-1.9 1.83-2.538z" fill="#AB7041"/><path opacity=".6" d="M5.775 129.558c-2.084-.255-3.625-.486-3.625-.486s2.252-14.457 2.728-16.981c.274-1.454-.893-8.046-1.785-13.58l1.598-1.717s5.555 5.092 5.907 10.092c.35 5-2.18 21.697-4.823 22.672z" fill="#CC7630"/><path d="M4.694 89.531s-2.79-.113-3.079 2.414c-.313 2.734 1.151 16.063 3.94 21.094 0 0 1.691 1.342 5.94 2.484l2.241-3.108s-3.699-2.043-4.425-2.589c-.726-.545 1.37-20.525-4.617-20.295z" fill="#DA8B39"/><path d="M144.076 128.991l.931 9.353a1.257 1.257 0 0 0 1.375 1.126l17.076-1.702a1.256 1.256 0 0 0 1.125-1.375l-.932-9.353a1.257 1.257 0 0 0-1.375-1.126l-4.505.45-.123-1.234a1.105 1.105 0 0 0-1.208-.988l-5.869.585a1.105 1.105 0 0 0-.989 1.208l.123 1.233-4.505.449a1.255 1.255 0 0 0-1.124 1.374zm12.608-2.52l-5.889.587-.123-1.233c-.001-.005.004-.01.009-.011l5.87-.585c.005-.001.01.003.011.009l.122 1.233z" fill="#555CA1"/><path d="M144.42 132.501l19.577-1.951-.036-.367-19.577 1.952.036.366z" fill="#333380"/><path d="M138.165 184.836l-.984 3.256h-9.769s2.499-4.392 10.753-3.256zM152.156 184.836l-.984 3.256h-9.769c-.001 0 2.498-4.392 10.753-3.256z" fill="#221E50"/><path d="M135.124 120.592s1.739 44.781 8.645 64.928h8.644s-2.486-61.145-4.173-65.121l-13.116.193z" fill="#2B295E"/><path d="M140.137 78.723c-.273-2.975-.155-4.717-.155-4.717l6.026-4.141c-.691 6.274 2.96 9.632 2.96 9.632s-6.802 3.554-11.069 1.84c0 0 .948-1.42 2.238-2.614z" fill="#9C5F33"/><path d="M138.653 73.8s7.13 1.752 8.152-2.705c1.022-4.457 2.631-7.233-1.879-8.54-4.509-1.307-5.786.19-6.489 1.595-.703 1.404-1.613 9.08.216 9.65z" fill="#AB7041"/><path d="M146.735 71.402s.315-6.052-6.191-7.523c-4.457-1.008-1.44-4.566-.879-5.123 0 0 3.396.92 6.863 1.964 7.277 2.19 1.057 9.844.207 10.682z" fill="#2B295E"/><path d="M151.576 120.583l-.234 1.429s-1.871 2.71 1.24 4.35c0 0 1.357.591 1.64-.371.283-.962.01-.611.444-1.962.434-1.352.096-2.676-.872-3.174l-2.218-.272z" fill="#AB7041"/><path d="M153.849 120.706c-1.386-.066-3.065.824-3.065.824s-1.123-12.511-1.358-13.742c-.235-1.232-8.192-17.072-8.192-17.072l7.489-10.498s7.004 23.134 7.682 26.238c.677 3.104-.792 14.345-.792 14.345s-.676-.044-1.764-.095z" fill="#333381"/><path d="M155.31 120.785l-3.735-.202-.233 1.429 3.509.465.459-1.692z" fill="#CED4EA"/><path d="M148.754 121.234s-.991 9.347-2.169 24.927c-1.07 14.152-3.408 24.796-7.698 39.359h-8.143s-1.957-57.959-1.257-62.656l19.267-1.63z" fill="#333380"/><path d="M135.257 184.4c-.453-5.946-.669-12.979-.53-20.289a320.017 320.017 0 0 1 .224-7.229c.019-.434.175-.926.327-1.402.14-.442.285-.899.304-1.273.239-4.801.665-9.182 1.041-13.047.098-1.013.195-2.006.286-2.979.82-8.791 1.254-13.776 1.256-13.824-.001.049-.153 5.029-.974 13.832-.091.974-.188 1.967-.286 2.98-.376 3.862-.801 8.239-1.04 13.031-.021.418-.174.897-.321 1.36-.144.454-.294.924-.31 1.313a294.182 294.182 0 0 0-.225 7.222c-.138 7.3-.124 14.38.327 20.316l-.079-.011z" fill="#2B295E"/><path d="M143.065 125.363c-4.427 1.212-7.23-1.472-7.258-1.5l.171-.175c3.644 2.769 7.247 1.629 7.247 1.629-.053.017-.107.031-.16.046z" fill="#221E50"/><path d="M150.976 101.336c-1.146 8.516-1.146 15.997-1.253 18.376-.021.479.102 1.358-.372 1.43-8.447 1.296-17.708 3.15-20.203 1.461-.601-.406.37-12.29.397-13.112 0-.009.663-7.803.857-10.871.253-3.996.814-7.092 1.973-9.78 1.439-3.333 5.784-8.559 7.761-10.117.015 0 1.682.843 3.34.18 1.814-.724 3.767-1.51 4.041-1.27 3.841 3.355 4.862 13.291 3.459 23.703z" fill="#EECF70"/><path d="M148.527 78.748s2.594 3.376 3.048 6.92c.454 3.544.836 37.969.836 37.969s-12.601 1.563-24.26.498c0 0 1.806-31.591 6.763-37.815 4.957-6.222 9.281-7.228 9.281-7.228l4.332-.344z" fill="#555CA1"/><path d="M112.802 113.237l-1.927.509s-3.357-1.921-6.189 1.237c0 0-1.065 1.38.199 1.673 1.263.293.833.014 2.602.464 1.769.449 3.646.113 4.511-.87l1.367-.688-.563-2.325z" fill="#AB7041"/><path d="M148.513 90.28c-.045 1.498-.526 3.121-1.304 4.788-4.016 8.623-15.915 18.424-15.915 18.424-2.299 1.221-13.714 2.426-17.609 2.807l-.088-1.105-.209-2.65c8.662-4.335 14.171-5.91 14.171-5.91 12.675-26.343 17.266-25.818 17.266-25.818s.036.002.102.014c.616.109 3.837 1.08 3.586 9.45z" fill="#555CA1"/><path d="M146.867 76.109s1.842 1.923 1.66 2.64c0 0-6.337 1.51-6.991 1.836-.652.326-6.062 4.57-6.622 5.736 0 0 5.083-6.668 6.016-7.321.932-.654 5.937-2.891 5.937-2.891zM147.21 95.068c-4.017 8.623-15.916 18.424-15.916 18.424-2.299 1.221-13.714 2.426-17.609 2.807l-.087-1.105c3.21-.541 14.656-2.502 15.834-3.214 1.372-.829 5.997-5.607 10.084-11.547 2.782-4.043 5.953-5.102 7.694-5.365z" fill="#4F549C"/><path d="M135.845 115.458c-1.864 0-3.445-.336-3.469-.342.035.008 3.593.574 6.29-.181l.051.18c-.919.258-1.931.343-2.872.343z" fill="#221E50"/><path d="M111.751 113.04l1.636-.495.298 3.754-1.419.391-.515-3.65z" fill="#CED4EA"/><defs><linearGradient id="paint0_linear_199_19556" x1="70.712" y1="81.657" x2="70.712" y2="69.693" gradientUnits="userSpaceOnUse"><stop offset=".512" stop-color="#E5B0B4"/><stop offset="1" stop-color="#C78A91"/></linearGradient></defs></svg>