<svg width="56" height="130" viewBox="0 0 56 130" fill="none" xmlns="http://www.w3.org/2000/svg"><path d="M41.632 128.077c.106 1.441 2.134 1.456 4.437 1.188 2.303-.268 1.69.316 4.915.36 3.224.045 4.335-1.022 4.491-1.483.14-.409-1.414-.754-3.074-1.158a47.87 47.87 0 0 1-.628-.156c-1.872-.477-3.113-1.881-4.716-3.107-1.518-1.162-3.476-5.364-3.476-5.364l-4.404-.198s1.854 3.766 2.551 5.391c.41.955.235 2.128.057 3.029-.095.49-.19.992-.153 1.498z" fill="#FFB27D"/><path d="M46.07 129.265c2.302-.268 1.69.316 4.914.36 3.224.045 4.335-1.022 4.491-1.483.14-.409-1.414-.754-3.074-1.158l-.02.03s-2.075 1.116-4.73.848c-2.164-.216-4.373-1.121-5.864-1.283-.096.49-.191.99-.153 1.498.104 1.441 2.132 1.456 4.435 1.188z" fill="#233862"/><path d="M11.216 128.376c.105 1.441 2.133 1.459 4.436 1.192 2.303-.265 1.69.318 4.914.367 3.225.048 4.336-1.019 4.493-1.48.14-.409-1.412-.755-3.073-1.162-.209-.05-.419-.103-.628-.156-1.872-.479-3.11-1.884-4.713-3.112-1.516-1.163-.001-8.046-.001-8.046l-4.844-.473s.232 5.796.23 8.431c-.002 1.039-.48 2.04-.66 2.941-.095.49-.19.99-.154 1.498z" fill="#FFB27D"/><path d="M15.652 129.57c2.303-.265 1.69.317 4.914.366 3.225.049 4.336-1.018 4.493-1.479.14-.409-1.412-.755-3.073-1.163l-.019.031s-2.077 1.114-4.73.843c-2.164-.219-4.372-1.126-5.865-1.289-.095.49-.19.991-.154 1.498.103 1.44 2.13 1.458 4.434 1.193z" fill="#233862"/><path d="M25.353 9.406c.833-3.436-.375-5.036-1.465-5.886C23.37 2.255 22.78 1.344 22.178 1c-1.102-.627-2.421-.694-3.344-.64.238-.246.705-.335.705-.335-.572-.086-1.849.482-1.849.482C9.73-2.563 8.48 9.174 8.647 11.9c.167 2.726.145 5.938-3.997 8.086-7.9 4.1 2.626 19.548 2.626 19.548-.201-2.204 9.951-13.832 15.248-17.315 1.289-1.901 1.747-5.259 1.781-5.524-.222 2.663-.677 4.157-1.084 4.997 2.413-2.224 2.771-7.566 2.132-12.286z" fill="#A9453D"/><path d="M22.208 22.393c.027.012-2.557 1.355-4.502.823-1.828-.5-3.023-2.873-2.998-2.88.775-.154.998-1.22.982-5.797l.35.07 5.884 1.167s-.133 1.854-.138 3.601c-.001 1.468.087 2.858.422 3.016z" fill="#FFB27D"/><path d="M21.926 15.776s-.134 1.854-.138 3.601c-3.294-.093-5.034-3.101-5.747-4.768l5.885 1.167z" fill="#ED975D"/><path d="M45.87 120.693c.288.905-.36 1.84-1.308 1.884l-2.3.107-2.431.075a1.95 1.95 0 0 1-1.574-.719c-1.942-2.386-7.919-10.337-11.544-21.889-.102-.324-.21-.652-.324-.983-2.394-6.992-7.358-15.768-9.973-23.712a131.607 131.607 0 0 1-1.437-4.648c-1.928-6.707-2.486-11.11-3-15.816l18.888.152c-.001-.002 3.974 30.95 15.003 65.549z" fill="#2A4E96"/><path d="M28.22 44.273c-.047 9.002 1.319 12.864 1.319 12.864s-8.088 4.115-17.7 1.086c-.113-.035-2.639-14.871-2.4-16.214.447-2.505.456-5.097.234-7.541-.586-6.472-2.33-11.843-2.33-11.843 2.618-.596 5.071-1.645 7.796-2.668.628.782 2.544 1.6 4.206 1.563 1.915-.043 2.535-.862 2.437-1.759a63.866 63.866 0 0 1 3.668 2.211c1.734 3.017 5.251 5.946 5.505 10.573.065 1.137-2.733 11.476-2.735 11.728z" fill="#D2E3FC"/><path d="M11.978 45.277c-.826 1.17-2.41 8.283-6.348 9.177 2.03-5.07 3.57-7.293 3.811-8.852.447-2.91.456-5.92.234-8.76 1.318-2.314 2.303-3.9 2.303-3.9.103-.374 2.094-6.541 2.733-1.03.637 5.516-1.812 12.056-2.733 13.365z" fill="#5F9AA8"/><path d="M25.363 21.308s2.802 1.523 3.983 3.026c1.182 1.503 8.1 13.953 8.1 15.2 0 1.246-7.021.431-7.021.431l-5.062-18.657z" fill="#F99746"/><path d="M23.025 17.43s-7.792.128-7.796-4.732c-.006-4.86-1.014-8.117 3.959-8.406 4.975-.287 5.943 1.566 6.338 3.188.397 1.622-.474 9.791-2.5 9.95z" fill="#FFB27D"/><path d="M22.737 4.175s-2.134 5.702-5.407 6.545c-3.274.843-4.694-.035-4.694-.035s2.512-1.998 3.032-5.486c0 0 5.46-3.738 7.07-1.024z" fill="#A9453D"/><path d="M22.21 4.637s1.593 1.273 1.98 2.51c.388 1.239.563 3.786 1.306 3.7 0 0 1.607-3.876-.199-6.069-1.916-2.324-3.088-.141-3.088-.141z" fill="#A9453D"/><path d="M21.783 19.76s4.508 11.152 4.641 13.41c.133 2.256.531 36.909.531 36.909s-.264 1.594 2.784.928c3.05-.664 3.844-1.327 3.844-1.327s-2.916-21.376-2.12-28.81c.795-7.435-6.1-19.56-6.1-19.56l-3.58-1.55z" fill="#F99746"/><path d="M42.263 122.684l-2.641.081a1.52 1.52 0 0 1-1.224-.553c-1.776-2.153-7.967-10.213-11.686-22.061-.1-.324-.21-.652-.323-.983-2.394-6.992-7.358-15.768-9.973-23.712a131.976 131.976 0 0 1-1.437-4.648l2.782-2.113s8.35 13.542 10.936 26.287c2.244 11.069 11.238 24.389 13.566 27.702z" fill="#1E3D70"/><path d="M18.049 96.168c.046 5.862-.232 18.931-.945 25.32a1.153 1.153 0 0 1-1.146 1.026h-1.971c-.83 0-1.452-.006-1.865-.012a.76.76 0 0 1-.732-.614C9.43 111.9 8.027 103.604 7 96.433c-.86-6-1.622-11.146-2.21-15.575-.591-4.457-1.003-8.19-1.15-11.342a48.132 48.132 0 0 1-.056-2.823l16.32-1.594c-.205 10.86-1.881 27.467-1.855 31.069z" fill="#2A4E96"/><path d="M13.987 122.514c-.747 0-1.324-.005-1.733-.011a.92.92 0 0 1-.89-.743c-1.945-9.93-3.341-18.187-4.363-25.326-.86-6-1.622-11.146-2.21-15.574-.59-4.457-1.002-8.19-1.15-11.342l5.99 3.528s-3.823 1.35-2.364 11.573c1.458 10.221 4.69 36.446 6.72 37.895z" fill="#1E3D70"/><path d="M14.758 69.415s-1.149 4.16-5.126 3.628C5.655 72.51 0 70.12 0 70.12s1.699-5.378 3.812-12.444c2.559-8.554 5.726-19.583 7.22-26.538.418-1.95.705-3.577.81-4.743l3.3-6.411s4.92 11.058 5.185 13.847c.264 2.789-5.569 35.583-5.569 35.583z" fill="#F99746"/><path d="M14.582 39.675c-.178 4.514-1.239 13.277-10.695 17.968-.025.012-.05.025-.075.035 2.559-8.554 5.726-19.582 7.22-26.538 1.735 2.6 3.647 6.05 3.55 8.535z" fill="#ED7D2B"/><path d="M10.787 33.418l4.355-13.43c-.012.006-5.501 1.635-8.261 3.032 0 0-1.725 2.228-2.794 7.368 0 0-1.129 12.341 1.39 16.855 0 0 7.954 1.593 20.681-2.788v-2.921s-13.92.73-16.77 1.063l1.4-9.179z" fill="#FFB27D"/><path d="M15.142 19.986s-8.073.57-10.017 4.907c-1.945 4.338-2.563 18.765-.089 23.014 0 0 3.407.971 9.433-.156.073-.013.148-.028.223-.043 0 0 1.922-4.712.198-5.643 0 0-5.082.265-4.551-1.416.53-1.682 4.803-20.663 4.803-20.663z" fill="#F99746"/><path d="M35.382 43.338l-.238.766-13.246-4.127s-.176-.202-.09-.47c.097-.296.328-.296.328-.296l13.246 4.127zM36.34 44.063l-.958-.725-.238.766 1.196-.041z" fill="#A9453D"/><path d="M26.158 41.534s3.006-1.853 4.267-1.569c1.26.286 4.473 2.615 2.927 3.12-1.546.505-2.796-.025-3.39.342-.594.366-1.033 1.036-3.804 1.027-2.768-.009 0-2.92 0-2.92z" fill="#FFB27D"/><path d="M25.055 57.939l13.764.006L44.118 37.9l-13.765-.005-5.298 20.043z" fill="#233862"/><path d="M30.948 36.515s-1.054.172-.595 1.382h4.7l-1.504-1.382h-2.601z" fill="#9DB0F4"/><path d="M30.948 36.515s2.075 0 2.795 1.675c.88 2.046.504 7.764.504 7.764H45.29s1.743-6.719-1.901-9.438H30.948v-.001z" fill="#fff"/><path d="M41.433 47.88s-1.663-1.246-2.177-.528c-.514.72.395 4.388 1.483 4.117 1.087-.27 1.1-2.842.694-3.589z" fill="#FFB27D"/></svg>