<svg width="121" height="153" viewBox="0 0 121 153" fill="none" xmlns="http://www.w3.org/2000/svg"><path d="M72.959 150.799c.092 1.257 1.869 1.271 3.884 1.038 2.016-.233 1.48.276 4.303.315 2.822.039 3.795-.892 3.932-1.295.122-.357-1.237-.658-2.691-1.012a27.492 27.492 0 0 1-.55-.136c-1.64-.416-2.725-1.642-4.128-2.712-1.33-1.013-3.043-4.682-3.043-4.682l-3.855-.174s1.624 3.289 2.234 4.706c.358.834.206 1.858.05 2.645-.086.428-.17.864-.136 1.307z" fill="#FFB27D"/><path d="M76.843 151.837c2.016-.233 1.48.276 4.303.315 2.822.039 3.795-.892 3.932-1.295.122-.357-1.237-.658-2.691-1.011l-.018.027s-1.817.974-4.141.741c-1.895-.19-3.828-.98-5.134-1.121-.084.428-.167.866-.133 1.309.09 1.254 1.867 1.268 3.882 1.035z" fill="#233862"/><path d="M46.331 151.06c.091 1.257 1.868 1.274 3.884 1.042 2.015-.232 1.48.278 4.3.32 2.823.042 3.797-.889 3.934-1.291.122-.358-1.237-.66-2.69-1.015-.184-.044-.367-.09-.55-.136-1.64-.418-2.724-1.645-4.126-2.716-1.328-1.015-.002-7.024-.002-7.024l-4.24-.412s.204 5.059.201 7.359c-.001.907-.42 1.779-.576 2.566-.083.427-.167.864-.135 1.307z" fill="#FFB27D"/><path d="M50.215 152.101c2.015-.232 1.48.277 4.3.319 2.823.042 3.797-.888 3.934-1.29.122-.358-1.237-.66-2.69-1.015l-.018.027s-1.818.973-4.143.737c-1.893-.191-3.826-.983-5.132-1.126-.084.428-.169.865-.135 1.307.091 1.257 1.868 1.272 3.884 1.041z" fill="#233862"/><path d="M58.707 47.21c.73-2.998-.328-4.394-1.283-5.137-.453-1.104-.97-1.9-1.498-2.199-.964-.547-2.118-.606-2.927-.559.208-.214.617-.292.617-.292-.5-.075-1.619.42-1.619.42-6.968-2.68-8.064 7.566-7.917 9.945.145 2.38.126 5.184-3.5 7.058-6.917 3.579 2.3 17.062 2.3 17.062-.177-1.923 8.712-12.073 13.348-15.113 1.128-1.659 1.53-4.59 1.56-4.822-.196 2.325-.593 3.63-.95 4.363 2.116-1.942 2.428-6.607 1.869-10.726z" fill="#A9453D"/><path d="M55.955 58.546c.023.01-2.24 1.184-3.94.719-1.601-.436-2.647-2.508-2.625-2.513.678-.134.873-1.064.858-5.061l.307.06 5.152 1.018s-.117 1.619-.121 3.144c-.003 1.282.074 2.496.369 2.633z" fill="#FFB27D"/><path d="M55.707 52.77s-.117 1.619-.121 3.144c-2.882-.081-4.407-2.708-5.03-4.163l5.15 1.02z" fill="#ED975D"/><path d="M76.669 144.353a1.262 1.262 0 0 1-1.147 1.644l-2.012.094-2.13.065a1.706 1.706 0 0 1-1.378-.629c-1.7-2.081-6.932-9.023-10.106-19.107a33.83 33.83 0 0 0-.284-.859c-2.096-6.103-6.441-13.764-8.731-20.697a110.705 110.705 0 0 1-.985-3.127c-.093-.316-.186-.625-.272-.93-1.688-5.855-2.176-9.699-2.626-13.806l16.535.133s3.48 27.018 13.136 57.219z" fill="#2A4E96"/><path d="M61.218 77.646c-.042 7.858 1.154 11.229 1.154 11.229s-7.08 3.592-15.494.948c-.099-.031-6.966-1.597-6.966-1.597.14-.318 1.393-5.613 1.53-5.905 1.777-3.81 3.125-5.48 3.336-6.652.391-2.186.4-4.45.205-6.583-.512-5.648-2.04-10.337-2.04-10.337 2.293-.522 4.44-1.436 6.826-2.33.549.683 2.227 1.397 3.682 1.364 1.677-.036 2.22-.753 2.132-1.536a56.384 56.384 0 0 1 3.212 1.93c1.518 2.633 4.597 5.19 4.82 9.23.054.994-2.396 10.019-2.397 10.24z" fill="#fff"/><path d="M46.997 78.521c-.723 1.022-2.109 7.23-5.556 8.012 1.777-4.425 3.125-6.366 3.337-7.726.39-2.54.4-5.167.205-7.646 1.154-2.02 2.016-3.405 2.016-3.405.09-.326 1.833-5.71 2.392-.898.556 4.812-1.587 10.521-2.394 11.663z" fill="#5F9AA8"/><path d="M56.67 54.214s-6.822.113-6.826-4.13c-.004-4.243-.888-7.086 3.467-7.338 4.356-.25 5.203 1.367 5.55 2.782.345 1.417-.417 8.548-2.191 8.686z" fill="#FFB27D"/><path d="M56.417 42.643s-1.867 4.978-4.733 5.713c-2.866.736-4.11-.03-4.11-.03s2.198-1.745 2.654-4.789c.002 0 4.78-3.263 6.19-.894z" fill="#A9453D"/><path d="M55.955 43.047s1.395 1.112 1.735 2.191c.34 1.081.492 3.305 1.142 3.23 0 0 1.407-3.384-.174-5.298-1.677-2.029-2.703-.123-2.703-.123z" fill="#A9453D"/><path d="M67.403 83.1l3.221 9.808-1.837.736-5.327-8.666 3.943-1.879z" fill="#FFB27D"/><path d="M58.716 57.6s3.8 1.505 4.898 3.852c1.1 2.348 2.765 18.09 3.428 19.705a194.187 194.187 0 0 1 1.161 2.896s-1.915 1.612-3.841 1.73c-1.926.12-5.646-28.183-5.646-28.183z" fill="#F99746"/><path d="M55.584 56.247s3.945 9.736 4.062 11.706c.117 1.97.464 32.218.464 32.218s-.232 1.391 2.437.811c2.67-.579 3.365-1.16 3.365-1.16s-2.552-18.658-1.857-25.149c.696-6.49-5.338-17.075-5.338-17.075l-3.133-1.35z" fill="#F99746"/><path d="M73.51 146.092l-2.312.071a1.343 1.343 0 0 1-1.073-.484c-1.554-1.88-6.974-8.915-10.23-19.256-.09-.283-.183-.569-.283-.859-2.096-6.103-6.442-13.764-8.731-20.697a110.046 110.046 0 0 1-.985-3.128c-.094-.315-.186-.624-.273-.929l2.435-1.845s7.311 11.822 9.574 22.946c1.968 9.662 9.84 21.29 11.879 24.181z" fill="#1E3D70"/><path d="M52.313 122.945c.04 5.118-.203 16.525-.827 22.102-.057.51-.49.895-1.004.895h-1.725c-.727 0-1.271-.006-1.633-.011a.662.662 0 0 1-.64-.535c-1.717-8.719-2.944-15.961-3.843-22.22-.752-5.239-1.42-9.729-1.934-13.596-.519-3.89-.878-7.149-1.007-9.9-.02-.434-.035-.856-.043-1.266-.008-.412-.011-.811-.007-1.2l14.287-1.391c-.18 9.481-1.647 23.978-1.624 27.122z" fill="#2A4E96"/><path d="M48.756 145.942a94.37 94.37 0 0 1-1.516-.01.805.805 0 0 1-.779-.648c-1.703-8.669-2.925-15.876-3.82-22.108-.752-5.239-1.42-9.729-1.935-13.596-.518-3.89-.877-7.149-1.006-9.9l5.242 3.079s-3.346 1.179-2.07 10.103c1.278 8.925 4.108 31.818 5.884 33.08z" fill="#1E3D70"/><path d="M49.432 99.593s-1.006 3.631-4.488 3.166c-3.482-.463-8.433-2.549-8.433-2.549S38 95.516 39.85 89.347c2.24-7.467 5.014-17.093 6.32-23.165.366-1.701.617-3.122.71-4.14l2.89-5.596s4.306 9.654 4.538 12.088c.232 2.432-4.875 31.058-4.875 31.058z" fill="#F99746"/><path d="M45.956 68.17l3.813-11.724c-.011.006-4.816 1.428-7.233 2.647 0 0-1.51 1.945-2.445 6.432 0 0-.988 10.773 1.218 14.714 0 0 6.964 1.39 18.105-2.434v-2.55s-12.186.639-14.682.927l1.224-8.011z" fill="#FFB27D"/><path d="M49.278 73.632c-.156 3.94-1.084 11.59-9.363 15.684a.986.986 0 0 1-.067.031c2.24-7.467 5.014-17.093 6.32-23.165 1.522 2.27 3.194 5.281 3.11 7.45z" fill="#ED7D2B"/><path d="M49.767 56.446s-7.067.497-8.769 4.283c-1.702 3.786-2.243 16.38-.077 20.088 0 0 2.983.848 8.258-.137l.195-.036s1.683-4.115.173-4.927c0 0-4.448.232-3.985-1.236.466-1.467 4.205-18.035 4.205-18.035z" fill="#F99746"/><path d="M67.487 76.83l-.209.667-11.597-3.603s-.154-.176-.078-.409c.084-.258.286-.258.286-.258l11.598 3.602z" fill="#A9453D"/><path d="M68.325 77.462l-.838-.633-.207.67 1.045-.037z" fill="#A9453D"/><path d="M70.167 92.64s2.942 1.624 3.329 2.86c.386 1.237.12 3.827-.346 3.79-.467-.04-1.164-2.784-1.55-2.977-.387-.193-.93-.772-.93-.348 0 .426.387 1.198.194 1.314-.194.117-.812-1.082-1.238-1.314-.426-.231-.605-2.144-1.019-2.656-.415-.514 1.56-.669 1.56-.669zM59.412 75.254s2.632-1.618 3.734-1.369c1.104.25 3.916 2.284 2.564 2.724-1.352.44-2.448-.022-2.97.298-.52.32-.904.904-3.328.896-2.424-.006 0-2.549 0-2.549z" fill="#FFB27D"/><path d="M79.016 16.767C78.547 5.157 88.291 0 98.254 0S119.06 2.578 120 18.014c.604 9.931-4.698 16.041-19.964 16.041-5.149 0-9.15-.811-12.214-2.256l-7.631 6.77 3.75-9.359c-3.323-3.084-4.723-7.433-4.925-12.443z" fill="#fff" fill-opacity=".81"/><path d="M13.364 152.58s-.28-2.18-.929-3.477c-.65-1.296-4.781-.471-4.781-.471s-.826.707-1.004 4.008l6.714-.06zM27.442 152.552c-.971-.592-.418-5.006-.418-5.006s4.524-3.614 5.146-.847c.623 2.767 4.297 4.009 6.39 4.348 1.445.234 1.891 1.032 2.03 1.505H27.443z" fill="#233862"/><path d="M18.071 120.446c.184 1.013.301 1.845.332 2.439.42 8.192 6.906 26.92 8.065 27.357 1.795.676 4.622-.761 6.1-1.231.613-.195 1.027-.812.89-1.438-3.21-14.742-4.392-35.969-4.82-48.536-.218-6.33-1.306-10.703-1.306-10.703s-15.815-4.213-15.909 1.117c-.084 4.716 5.237 23.213 6.648 30.995z" fill="#213F7A"/><path d="M18.07 120.446l10.566-21.41c-.217-6.33-1.305-10.703-1.305-10.703s-15.816-4.214-15.91 1.116c-.082 4.718 5.239 23.215 6.65 30.997z" fill="#233862"/><path d="M21.589 89.468l-8.36 60.509s-3.672.884-6.528.177c0 0-2.448-32.18-2.243-39.96.203-7.78-1.757-20.818.447-22.257 2.205-1.438 16.684 1.53 16.684 1.53z" fill="#213F7A"/><path d="M3.277 88.46a1.16 1.16 0 0 0 .836 1.198c1.167.338 2.511.573 5.105 1.109 2.436.505 5.713.952 9.738.977 6.404.04 8.83-2.164 8.83-2.164.274.006-.146-1.332-.526-7.697a247.858 247.858 0 0 1-.342-8.342c-.081-3.107-.135-6.8-.14-11.178-.008-5.27-8.174-10.936-8.325-10.936l-.001.002c0 .759-1.198 2.16-3.041 2.28-2.19.144-4.874-.945-4.874-2.204 0-.012-3.956 6.32-5.361 13.068-.711 3.397-.424 3.305-1.9 23.887z" fill="#B0D0FF"/><path d="M18.454 51.427s7.593-.065 9.421 2.495c1.827 2.56 5.834 16.328 3.744 20.908-2.092 4.581-6.004-1.895-8.175-4.701-2.172-2.805-4.99-18.702-4.99-18.702z" fill="#B0D0FF"/><path d="M18.53 50.27l-.004.784s.215 2.452-2.809 2.81c-3.023.358-5.267-.458-5.184-2.35.273-1.465.525-2.97.546-4.182a8.58 8.58 0 0 0-.108-1.468l5.859-.116 1.725.281-.024 4.241z" fill="#FFB27D"/><path d="M18.554 46.03l-.023 4.24a4.966 4.966 0 0 1-2.112.465c-2.692 0-4.433-1.971-5.341-3.403a8.591 8.591 0 0 0-.107-1.468l5.858-.116 1.725.281z" fill="#E2915A"/><path d="M10.52 44.924c.68 3.653 5.4 3.533 7.44 3.304.573-.064.934-.137.934-.137.647-.172 1.008-1.19 1.176-2.523.334-2.639-.088-6.513-.535-7.504-.67-1.491-1.936-3.103-6.69-1.94-4.752 1.164-3.195 4.12-2.324 8.8z" fill="#FFB27D"/><path d="M26.218 61.688s2.937 6.477 2.852 8.418c0 0-1.454-.05-2.852.366-2.296.684 0-8.784 0-8.784z" fill="#98BAF4"/><path d="M20.997 34.586s-2.092-.162-4.56-1.233c-2.003-.87-4.53.088-5.35.52.021-.131.074-.311.2-.493 0 0-.369.26-.424.626-.038.028-.054.047-.045.054 0 0-.418-.076-.686.045 0 0 .187-.027.255.093a.139.139 0 0 0 .03.034C7.293 35.74 7.004 40.67 8.009 41.81c1.21 1.372 3.036 4.478 3.036 4.478s.153-.745-.068-1.953c-.22-1.208.825-1.208 2.144-1.757 1.32-.548.22-2.086 1.374-3.019 1.155-.933 5.388-.385 5.334-1.098 1.574-.572 1.168-3.714 1.168-3.875z" fill="#233862"/><path d="M9.565 73.82c1.24 4.97 14.648 7.54 17.696 8.063a248.115 248.115 0 0 1-.342-8.342l-17.354.279z" fill="#98BAF4"/><path d="M12.508 75.436c-.127 0-2.981-.426-3.491-.68-.51-.255-2.849-3.572-1.317-4.422 1.53-.851 5.638 2.55 5.638 2.55l-.83 2.552z" fill="#FFB27D"/><path d="M29.86 76.422s-11.034.597-18.439-.986c0 0-.187-2.136 2.14-3.086 0 0 11.541-2.442 14.315-1.762 2.771.682 1.984 5.834 1.984 5.834z" fill="#B0D0FF"/><path d="M4.52 67.775c2.29 2.758 5.283 5.007 8.583 5.536l.002-.002c.027-.042 1-1.514.816-3.68-.084-1.002-.415-2.152-1.201-3.378a7.463 7.463 0 0 1-.649-1.305c-1.803-4.592-1.534-13.44-1.534-13.44s-7.653.8-10.037 4.2c-1.461 2.084.401 7.71 4.02 12.07z" fill="#B0D0FF"/><path d="M17.96 48.226c.575-.063.935-.136.935-.136.648-.173 1.008-1.191 1.177-2.524-1.214.298-1.77 1.235-2.001 1.634-.105.178-.126.58-.11 1.026z" fill="#E2915A"/><path d="M21.044 50.293s2.643-4.355.587-4.544c-2.055-.19-2.88 1.2-3.178 1.71-.297.508.078 2.811.078 2.811l2.513.023z" fill="#FFB27D"/><path d="M10.97 69.483c.082.552.246 1.06.45 1.511.646 1.432 1.684 2.315 1.684 2.315l.001-.001c6.865-3.094 8.254-13.718 8.486-19.556.093-2.346 0-3.92 0-3.92-3.097-1.023-3.968.756-3.968.756s-3.655 8.682-5.553 14.356c-.724 2.173-1.192 3.904-1.1 4.539z" fill="#B0D0FF"/><path d="M4.52 67.775c2.29 2.758 5.283 5.007 8.584 5.536v-.002c6.866-3.093 8.255-13.718 8.486-19.555 0 0-3.248 11.763-7.669 15.875-.798.744-1.637 1.238-2.5 1.365 0 0-5.574-1.573-6.743-3.054-.084-.105-.136-.158-.158-.165z" fill="#98BAF4"/></svg>