<svg width="110" height="48" viewBox="0 0 110 48" fill="none" xmlns="http://www.w3.org/2000/svg"><rect width="110" height="48" rx="5" fill="#3C3D47"/><path d="M29.005 36c6.63 0 12.005-5.373 12.005-12s-5.375-12-12.005-12C22.375 12 17 17.373 17 24s5.375 12 12.005 12z" fill="#C71D23"/><path fill-rule="evenodd" clip-rule="evenodd" d="M35.082 22.667h-6.818a.593.593 0 0 0-.593.592v1.482c0 .327.265.593.593.593h4.15c.328 0 .593.265.593.592v.296c0 .982-.796 1.778-1.778 1.778h-5.633a.593.593 0 0 1-.593-.593v-5.629c0-.982.796-1.778 1.779-1.778h8.298a.594.594 0 0 0 .594-.592v-1.482a.592.592 0 0 0-.592-.593h-8.3a4.445 4.445 0 0 0-4.446 4.445v8.296c0 .327.265.593.593.593h8.744a4 4 0 0 0 4.002-4v-3.408a.593.593 0 0 0-.593-.592z" fill="#fff"/><path d="M51.708 33.245c1.804 0 3.245-.352 4.321-1.055 1.077-.704 1.615-1.615 1.615-2.734 0-1.804-1.347-2.706-4.042-2.706h-1.66c-.553 0-.95-.054-1.19-.163-.241-.108-.362-.288-.362-.54 0-.253.078-.464.235-.632.06-.073.138-.097.234-.073.386.109.752.163 1.101.163 1.24 0 2.247-.298 3.023-.893.776-.596 1.164-1.477 1.164-2.643 0-.434-.078-.819-.235-1.155-.012-.024-.009-.051.01-.081a.089.089 0 0 1 .08-.046h.415c.301 0 .554-.102.758-.306a1.03 1.03 0 0 0 .307-.758v-.253c0-.288-.102-.538-.307-.748a1.015 1.015 0 0 0-.758-.316h-2.652c-.084 0-.175-.012-.27-.036a5.197 5.197 0 0 0-1.535-.217 5.53 5.53 0 0 0-2.147.406 3.72 3.72 0 0 0-1.615 1.3c-.427.595-.64 1.301-.64 2.12 0 .565.132 1.082.396 1.55.265.47.596.849.993 1.138.024.012.036.03.036.054s-.012.048-.036.072c-.337.24-.608.532-.812.875a2.036 2.036 0 0 0-.307 1.055c0 .77.307 1.366.92 1.787.024.012.036.033.036.063s-.012.057-.036.081c-.48.24-.845.535-1.091.884-.247.349-.37.734-.37 1.155 0 .601.204 1.106.613 1.515.41.41.936.701 1.58.876.643.174 1.386.261 2.228.261zm.252-9.725c-.397 0-.718-.141-.965-.424-.247-.282-.37-.689-.37-1.218 0-.517.123-.917.37-1.2.247-.282.568-.424.965-.424s.719.139.966.415c.246.277.37.68.37 1.21 0 .528-.124.934-.37 1.217-.247.283-.569.424-.966.424zm.253 7.668c-.686 0-1.23-.093-1.633-.28-.403-.186-.605-.466-.605-.838 0-.301.139-.584.415-.848.036-.037.09-.055.163-.055h.054c.3.06.758.09 1.371.09h.993c.53 0 .917.055 1.164.163.246.108.37.307.37.595 0 .337-.214.617-.641.84-.427.222-.977.333-1.651.333zm8.734-14.398c.54 0 .986-.156 1.335-.469.349-.313.523-.716.523-1.209 0-.493-.174-.899-.523-1.218-.349-.318-.794-.478-1.335-.478-.554 0-1.008.16-1.363.478a1.564 1.564 0 0 0-.532 1.218c0 .493.177.896.532 1.21.355.312.81.468 1.363.468zm.559 11.98c.289 0 .538-.105.749-.315.21-.21.316-.46.316-.749v-8.39c0-.288-.106-.538-.316-.749-.21-.21-.46-.315-.749-.315h-1.137c-.3 0-.553.105-.758.315-.204.21-.306.46-.306.75v8.389c0 .289.102.538.306.749.205.21.457.316.758.316h1.137zm7.85.253c.457 0 .908-.042 1.353-.126a.924.924 0 0 0 .667-.47c.109-.18.163-.366.163-.559 0-.084-.006-.174-.018-.27l-.072-.289a.96.96 0 0 0-.451-.604 1.627 1.627 0 0 0-.813-.244c-.83-.036-1.245-.577-1.245-1.624v-3.879c0-.084.043-.126.127-.126h1.28c.29 0 .54-.105.75-.316.21-.21.316-.46.316-.749v-.45c0-.29-.106-.54-.316-.75-.21-.21-.46-.315-.75-.315h-1.28c-.084 0-.127-.042-.127-.127v-1.57c0-.3-.105-.553-.315-.757a1.039 1.039 0 0 0-.75-.307h-.613c-.3 0-.565.1-.794.298a1.216 1.216 0 0 0-.415.749l-.198 1.587c-.012.085-.066.133-.163.145l-.415.036c-.3.024-.553.147-.758.37a1.122 1.122 0 0 0-.306.785v.306c0 .289.105.538.316.749.21.21.46.316.748.316h.235c.084 0 .126.042.126.126v3.915c0 1.311.301 2.33.902 3.059.602.727 1.54 1.091 2.816 1.091zm8.823 0c.963 0 1.913-.222 2.852-.667a.878.878 0 0 0 .505-.632.82.82 0 0 0 .054-.289c0-.18-.054-.36-.163-.54l-.054-.11a1.058 1.058 0 0 0-.631-.504 1.503 1.503 0 0 0-.397-.054c-.157 0-.307.024-.451.072a3.77 3.77 0 0 1-1.264.216c-1.419 0-2.28-.631-2.58-1.894a.1.1 0 0 1 .018-.1.11.11 0 0 1 .09-.045h4.963c.313 0 .59-.099.83-.297a.985.985 0 0 0 .379-.75v-.342c0-1.515-.385-2.742-1.155-3.68-.77-.939-1.889-1.408-3.356-1.408-.638 0-1.255.13-1.85.388a5.1 5.1 0 0 0-1.588 1.083c-.463.463-.836 1.046-1.119 1.75a6.115 6.115 0 0 0-.424 2.3c0 1.696.502 3.037 1.507 4.024 1.004.986 2.283 1.48 3.834 1.48zm1.227-6.676h-3.302c-.084 0-.126-.03-.126-.09 0-.493.235-.932.704-1.317.337-.289.74-.433 1.209-.433.541 0 .947.153 1.218.46.27.307.418.719.442 1.236v.018c0 .084-.048.126-.145.126zm9.78 6.676c.963 0 1.913-.222 2.852-.667a.878.878 0 0 0 .505-.632.817.817 0 0 0 .054-.289c0-.18-.054-.36-.162-.54l-.054-.11a1.058 1.058 0 0 0-.632-.504 1.502 1.502 0 0 0-.397-.054c-.156 0-.307.024-.451.072a3.77 3.77 0 0 1-1.263.216c-1.42 0-2.28-.631-2.58-1.894a.1.1 0 0 1 .017-.1.111.111 0 0 1 .09-.045h4.963c.313 0 .59-.099.83-.297a.986.986 0 0 0 .38-.75v-.342c0-1.515-.386-2.742-1.156-3.68-.77-.939-1.889-1.408-3.356-1.408-.638 0-1.254.13-1.85.388a5.102 5.102 0 0 0-1.588 1.083c-.463.463-.836 1.046-1.118 1.75a6.115 6.115 0 0 0-.424 2.3c0 1.696.502 3.037 1.506 4.024 1.005.986 2.283 1.48 3.835 1.48zm1.228-6.676h-3.302c-.085 0-.127-.03-.127-.09 0-.493.235-.932.704-1.317.337-.289.74-.433 1.21-.433.54 0 .946.153 1.217.46.27.307.418.719.442 1.236v.018c0 .084-.048.126-.144.126z" fill="#fff"/></svg>