<svg width="110" height="48" viewBox="0 0 110 48" fill="none" xmlns="http://www.w3.org/2000/svg"><rect width="110" height="48" rx="5" fill="#523F8A"/><path fill-rule="evenodd" clip-rule="evenodd" d="M31 13c-6.63 0-12 5.37-12 12 0 5.31 3.435 9.795 8.205 11.385.6.105.825-.255.825-.57 0-.285-.015-1.23-.015-2.235-3.015.555-3.795-.735-4.035-1.41-.135-.345-.72-1.41-1.23-1.695-.42-.225-1.02-.78-.015-.795.945-.015 1.62.87 1.845 1.23 1.08 1.815 2.805 1.305 3.495.99.105-.78.42-1.305.765-1.605-2.67-.3-5.46-1.335-5.46-5.925 0-1.305.465-2.385 1.23-3.225-.12-.3-.54-1.53.12-3.18 0 0 1.005-.315 3.3 1.23.96-.27 1.98-.405 3-.405s2.04.135 3 .405c2.295-1.56 3.3-1.23 3.3-1.23.66 1.65.24 2.88.12 3.18.765.84 1.23 1.905 1.23 3.225 0 4.605-2.805 5.625-5.475 5.925.435.375.81 1.095.81 2.22 0 1.605-.015 2.895-.015 3.3 0 .315.225.69.825.57A12.02 12.02 0 0 0 43 25c0-6.63-5.37-12-12-12z" fill="#fff"/><path d="M57.089 24.572h-3.533a.166.166 0 0 0-.166.166v1.723c0 .087.07.166.166.166h1.373v2.142s-.306.105-1.163.105c-1.006 0-2.414-.367-2.414-3.463 0-3.095 1.47-3.506 2.842-3.506 1.19 0 1.706.21 2.029.315.105.035.201-.07.201-.166l.394-1.67a.17.17 0 0 0-.061-.132c-.132-.087-.936-.542-2.982-.542-2.361 0-4.775 1.006-4.775 5.824s2.763 5.535 5.098 5.535c1.933 0 3.104-.822 3.104-.822.053-.026.053-.096.053-.122v-5.387a.166.166 0 0 0-.166-.166zm18.189-4.285a.166.166 0 0 0-.167-.166h-1.985a.166.166 0 0 0-.166.166v3.839h-3.095v-3.839a.166.166 0 0 0-.166-.166h-1.986a.166.166 0 0 0-.166.166v10.397c0 .088.07.167.166.167H69.7a.172.172 0 0 0 .166-.167v-4.45h3.095l-.008 4.45c0 .088.07.167.166.167h1.993a.172.172 0 0 0 .166-.167V20.287zM60.84 21.652a1.29 1.29 0 0 0-1.285-1.295c-.708 0-1.277.578-1.277 1.295s.578 1.294 1.277 1.294a1.29 1.29 0 0 0 1.285-1.294zm-.14 6.838v-4.8a.166.166 0 0 0-.166-.167H58.55c-.087 0-.175.096-.175.184v6.873c0 .201.123.262.29.262h1.783c.192 0 .245-.096.245-.262.009-.367.009-1.81.009-2.09zM82.824 23.54h-1.968a.172.172 0 0 0-.166.166v5.099s-.498.367-1.215.367c-.709 0-.901-.324-.901-1.023v-4.443a.166.166 0 0 0-.166-.166h-2.003a.172.172 0 0 0-.166.166v4.784c0 2.063 1.154 2.57 2.737 2.57 1.303 0 2.353-.716 2.353-.716s.052.376.07.42a.176.176 0 0 0 .148.087l1.277-.009a.172.172 0 0 0 .166-.166v-6.978a.165.165 0 0 0-.166-.158zm5.395-.227c-1.119 0-1.88.498-1.88.498v-3.524a.166.166 0 0 0-.166-.166H84.18a.166.166 0 0 0-.166.166v10.398c0 .087.07.166.166.166h1.382a.156.156 0 0 0 .14-.088c.035-.052.087-.48.087-.48s.814.769 2.361.769c1.81 0 2.851-.918 2.851-4.128-.009-3.2-1.661-3.611-2.78-3.611zm-.778 5.85a2.312 2.312 0 0 1-1.145-.332v-3.288s.454-.28 1.023-.332c.708-.062 1.39.148 1.39 1.845-.009 1.784-.315 2.142-1.268 2.107zm-21.03-5.64h-1.487v-1.968c0-.078-.035-.113-.123-.113h-2.029c-.078 0-.122.035-.122.113v2.038l-1.084.262a.168.168 0 0 0-.123.157v1.277c0 .096.07.166.166.166h1.041v3.078c0 2.283 1.6 2.51 2.685 2.51.498 0 1.084-.157 1.18-.192.061-.018.096-.079.096-.149v-1.408a.172.172 0 0 0-.166-.166c-.087 0-.306.035-.542.035-.734 0-.98-.341-.98-.778v-2.921h1.487c.088 0 .166-.07.166-.166v-1.61c-.008-.087-.078-.165-.166-.165z" fill="#fff"/></svg>