<svg width="120" height="48" viewBox="0 0 120 48" fill="none" xmlns="http://www.w3.org/2000/svg"><rect width="120" height="48" rx="5" fill="#3D7DDD"/><path d="M17 24a12 12 0 1 0 24 0 12 12 0 0 0-24 0z" fill="#fff" fill-opacity=".31"/><path d="M28.958 16.568a.96.96 0 0 0-.96.96v7.796a.96.96 0 1 0 1.92 0v-7.798a.959.959 0 0 0-.96-.958z" fill="#fff"/><path d="M32.462 21.82a.959.959 0 0 0-1.358 0l-2.824 2.825a.96.96 0 1 0 1.357 1.357l2.825-2.825a.959.959 0 0 0 0-1.357z" fill="#fff"/><path d="M25.442 21.806a.959.959 0 0 0 0 1.357l2.839 2.838a.959.959 0 1 0 1.357-1.357l-2.839-2.838a.959.959 0 0 0-1.357 0z" fill="#fff"/><path d="M35.614 25.61a.96.96 0 0 0-.96.961v.825a.611.611 0 0 1-.505.48H23.73a.614.614 0 0 1-.478-.508v-.795a.96.96 0 1 0-1.922 0v1.749a1.595 1.595 0 0 0 1.418 1.476h12.384a1.598 1.598 0 0 0 1.442-1.422v-1.803a.958.958 0 0 0-.959-.963zM47.492 21.07v-1.422h6.07a17.459 17.459 0 0 0-.765-1.914l1.695-.273c.11.365.292.893.547 1.586.11.255.182.456.219.601h5.195v1.422h-2.242c-.547 2.297-1.55 4.211-3.008 5.742 1.422.948 3.208 1.678 5.36 2.188a9.953 9.953 0 0 0-.93 1.367c-2.443-.729-4.339-1.568-5.688-2.515-1.093.802-2.953 1.695-5.578 2.68a17.593 17.593 0 0 0-.93-1.477c2.188-.584 3.974-1.331 5.36-2.242-1.495-1.532-2.516-3.446-3.063-5.743h-2.242zm6.453 4.758c1.35-1.24 2.224-2.825 2.625-4.758h-5.25c.438 1.86 1.313 3.446 2.625 4.758zm12.633-1.695c-.219-.11-.583-.255-1.094-.438-.109-.036-.2-.073-.273-.11.693-1.312 1.258-3.025 1.695-5.14l1.422.274a12.27 12.27 0 0 1-.437 1.75h1.859v-2.953h1.477v2.953h3.007v1.422h-3.007v2.953h3.445v1.476h-3.445v4.266H69.75V26.32h-4.54v-1.476h4.54V21.89h-2.297a23.812 23.812 0 0 1-.875 2.242zm-4.922 1.476c-.11-.729-.218-1.385-.328-1.968 1.057-1.641 1.95-3.664 2.68-6.07l1.422.382a21.007 21.007 0 0 1-1.04 2.79v9.788H62.97v-6.945a13.66 13.66 0 0 1-1.313 2.023zm13.836-5.742v-1.476h13.016v1.476h-6.235v3.336l.875-1.094a92.04 92.04 0 0 1 4.758 2.953l-1.039 1.368-3.117-2.078a52.665 52.665 0 0 0-1.477-1.04v7.165h-1.695v-10.61h-5.086zm14.383-.055v-1.039H92.5V17.57h1.422v1.203h2.46v1.04h-2.46v1.093h3.281a101.998 101.998 0 0 1-.055-3.39h1.422c0 1.458.019 2.588.055 3.39h3.992v1.203H98.68c.11 1.641.237 2.862.382 3.664.584-.765 1.112-1.75 1.586-2.953l1.258.602c-.729 1.495-1.513 2.807-2.351 3.937l.11.22c.364.947.728 1.421 1.093 1.421.219 0 .346-.146.383-.438.073-.255.164-.71.273-1.367a4.35 4.35 0 0 0 .055-.547 5.83 5.83 0 0 0 1.203.438c-.146 1.13-.31 1.896-.492 2.297-.183.693-.638 1.057-1.368 1.094-.911 0-1.677-.62-2.296-1.86a17.446 17.446 0 0 1-2.079 1.75 15.677 15.677 0 0 0-.765-1.148c.073-.073.2-.146.383-.219a.638.638 0 0 0 .164-.11l-1.914.055v1.64h-1.368V29c-.62.037-1.513.073-2.68.11a4.452 4.452 0 0 1-.546.054l-.164-1.094a75.82 75.82 0 0 1 3.39-.164v-1.093h-2.953v-1.094c.329-.256.675-.711 1.04-1.367h-1.368v-1.04h1.969l.164-.328c.146-.255.255-.474.328-.656l1.477.11c-.146.328-.31.62-.492.875h3.664v1.039h-4.32c-.329.546-.639 1.02-.93 1.421h1.64v-.984h1.149v.984h2.242v1.04h-2.242v.984c.765 0 1.53-.037 2.297-.11-.037.146-.055.456-.055.93.036 0 .073-.018.11-.055.473-.437.929-.893 1.366-1.367-.4-1.203-.656-2.898-.765-5.086h-7.875v-1.203H92.5v-1.093h-2.625zm10.992.657a28.207 28.207 0 0 0-1.75-1.805l.93-.71a21.207 21.207 0 0 1 1.859 1.64l-1.039.875z" fill="#fff"/></svg>