<svg width="150" height="48" viewBox="0 0 150 48" fill="none" xmlns="http://www.w3.org/2000/svg"><rect width="150" height="48" rx="5" fill="#2D89EB"/><path fill-rule="evenodd" clip-rule="evenodd" d="M70.089 24.478c.268-.268.582-.48.941-.634a2.863 2.863 0 0 1 1.15-.233c.37 0 .712.062 1.026.186.313.124.614.308.899.55a.885.885 0 0 0 .57.203.833.833 0 0 0 .626-.254.87.87 0 0 0 .249-.634.863.863 0 0 0-.303-.668c-.862-.767-1.885-1.15-3.067-1.15-1.299 0-2.408.462-3.326 1.387-.919.925-1.378 2.04-1.378 3.349 0 1.308.46 2.424 1.378 3.349.918.924 2.027 1.386 3.326 1.386 1.177 0 2.2-.383 3.067-1.15a.892.892 0 0 0 .278-.65.852.852 0 0 0-.535-.821.844.844 0 0 0-.34-.06.938.938 0 0 0-.553.187c-.281.243-.578.424-.891.545-.313.121-.656.182-1.026.182-.408 0-.792-.077-1.15-.232a2.947 2.947 0 0 1-1.806-2.736 2.956 2.956 0 0 1 .865-2.102zm14.514-2.093a.974.974 0 0 0-.19-.283.822.822 0 0 0-.276-.19.873.873 0 0 0-.344-.068.85.85 0 0 0-.472.135l-5.024 3.29v-6.596a.86.86 0 0 0-.256-.63.84.84 0 0 0-.617-.258.848.848 0 0 0-.626.258.857.857 0 0 0-.257.63v11.755c0 .242.085.45.258.626a.84.84 0 0 0 .625.261.832.832 0 0 0 .617-.261.862.862 0 0 0 .257-.626v-3.053l1.025-.677 3.882 4.39a.81.81 0 0 0 .588.227.874.874 0 0 0 .344-.067.83.83 0 0 0 .277-.19.951.951 0 0 0 .189-.284.819.819 0 0 0 .071-.339c0-.229-.087-.45-.244-.616l-3.612-4.093 3.52-2.3c.225-.153.336-.386.336-.702a.819.819 0 0 0-.072-.339zm-20.098 5.34a3 3 0 0 1-1.566 1.586c-.363.159-.755.24-1.151.237-.414 0-.801-.08-1.16-.237a2.967 2.967 0 0 1-1.79-2.731c0-.406.077-.79.231-1.15.155-.36.364-.675.626-.944.263-.268.574-.48.933-.638a2.849 2.849 0 0 1 1.16-.237c.408 0 .791.08 1.15.237a3.003 3.003 0 0 1 1.567 1.585c.155.358.231.74.231 1.147 0 .406-.076.788-.23 1.145zm.61-4.494c-.93-.925-2.039-1.387-3.327-1.387-1.3 0-2.409.462-3.327 1.387-.919.925-1.379 2.04-1.379 3.349 0 1.308.46 2.424 1.379 3.349.918.924 2.027 1.386 3.327 1.386 1.288 0 2.397-.462 3.327-1.386.918-.914 1.377-2.03 1.377-3.35 0-.622-.118-1.24-.349-1.818a4.645 4.645 0 0 0-1.028-1.53zm37.759-.795a1.652 1.652 0 0 0-.593-.36 3.46 3.46 0 0 0-.782-.182 6.652 6.652 0 0 0-.793-.05 4.563 4.563 0 0 0-1.58.27c-.496.183-.959.445-1.37.778v-.169a.85.85 0 0 0-.256-.621.841.841 0 0 0-.617-.259.847.847 0 0 0-.626.259.851.851 0 0 0-.257.621v7.712a.853.853 0 0 0 .257.623c.17.171.38.258.626.258a.838.838 0 0 0 .617-.258.848.848 0 0 0 .256-.623V26.58c0-.787.31-1.543.862-2.102.267-.268.579-.48.937-.634a2.87 2.87 0 0 1 1.15-.233c.415 0 .799.071 1.152.212.14.062.263.093.369.093a.871.871 0 0 0 .345-.068.822.822 0 0 0 .276-.19.97.97 0 0 0 .19-.283.846.846 0 0 0 .072-.347.783.783 0 0 0-.236-.592h.001zM87.498 25.7c.09-.31.227-.593.412-.85.184-.256.403-.476.654-.66.253-.183.53-.325.832-.427a2.914 2.914 0 0 1 1.862 0c.593.2 1.11.58 1.478 1.087.188.256.33.54.424.85h-5.662zm6.158-2.47c-.93-.924-2.039-1.386-3.327-1.386-1.299 0-2.409.462-3.327 1.387-.919.925-1.378 2.04-1.378 3.349 0 1.308.46 2.424 1.378 3.349.918.924 2.028 1.386 3.328 1.386 1.181 0 2.206-.383 3.074-1.15a.88.88 0 0 0 .252-.634.858.858 0 0 0-.535-.82.914.914 0 0 0-.919.16 2.77 2.77 0 0 1-.856.508c-.326.116-.67.173-1.017.17-.324 0-.637-.052-.936-.153a2.95 2.95 0 0 1-1.895-1.937h6.653a.862.862 0 0 0 .82-.54.87.87 0 0 0 .063-.34 4.77 4.77 0 0 0-.344-1.822 4.608 4.608 0 0 0-1.034-1.526zm-39.561 4.496a2.99 2.99 0 0 1-1.567 1.586 2.836 2.836 0 0 1-1.15.236c-.415 0-.801-.08-1.16-.237a2.968 2.968 0 0 1-1.79-2.731c0-.406.077-.79.23-1.15.155-.36.364-.675.627-.944a2.98 2.98 0 0 1 .933-.638 2.849 2.849 0 0 1 1.16-.237c.408 0 .792.08 1.15.237a2.992 2.992 0 0 1 1.567 1.585c.154.358.23.74.23 1.147a2.87 2.87 0 0 1-.23 1.145v.001zm1.104-9.941a.845.845 0 0 0-.815.539.853.853 0 0 0-.058.34v4.22c-.851-.694-1.834-1.04-2.949-1.04-1.3 0-2.408.462-3.327 1.387s-1.377 2.04-1.377 3.349c0 1.308.458 2.424 1.377 3.349.919.924 2.028 1.386 3.327 1.386 1.289 0 2.398-.462 3.327-1.386.92-.914 1.379-2.03 1.379-3.35v-7.915a.871.871 0 0 0-.544-.817.862.862 0 0 0-.339-.062zm-24.35 3.817h3.441v-3.118h-3.442v3.118zm-4.067 0h3.442v-3.118h-3.442v3.118zm-4.066 0h3.44v-3.118h-3.441v3.118zm-4.068 0h3.442v-3.118h-3.442v3.118zm-4.066 0h3.441v-3.118h-3.44v3.118zm4.067-3.742h3.441v-3.118h-3.442v3.118h.001zm4.067 0h3.44v-3.118h-3.441v3.118zm4.066 0h3.442v-3.118h-3.442v3.118zm0-3.742h3.442V11h-3.442v3.118zm14.041 5.232c-.17-1.248-.868-2.33-2.137-3.308l-.73-.485-.487.728c-.621.936-.934 2.234-.831 3.48.046.437.19 1.22.642 1.91-.45.241-1.34.575-2.52.552H12.129l-.045.26c-.212 1.25-.208 5.153 2.335 8.153 1.931 2.28 4.828 3.437 8.61 3.437 8.196 0 14.26-3.762 17.099-10.599 1.116.022 3.522.007 4.758-2.345.03-.054.105-.196.32-.642l.12-.244-.695-.462c-.752-.501-2.479-.685-3.808-.435z" fill="#fff"/><g opacity=".5" fill="#fff"><path d="M107.086 29.462a.683.683 0 0 1-.48-.167.664.664 0 0 1-.166-.465v-7.81c0-.198.055-.354.166-.464a.647.647 0 0 1 .48-.183c.188 0 .337.06.447.183.122.11.182.265.182.465v.565c.354-.41.79-.731 1.309-.964a4.199 4.199 0 0 1 1.706-.349c.784 0 1.486.166 2.104.499a3.49 3.49 0 0 1 1.458 1.429c.364.63.547 1.4.547 2.31v4.32a.61.61 0 0 1-.183.448.605.605 0 0 1-.447.183.628.628 0 0 1-.464-.183.612.612 0 0 1-.182-.449v-4.32c0-1.03-.287-1.789-.861-2.276-.564-.499-1.265-.748-2.104-.748a3.38 3.38 0 0 0-1.474.316c-.431.21-.774.498-1.028.864-.254.365-.381.78-.381 1.246v4.918c0 .188-.06.344-.182.465a.602.602 0 0 1-.447.166zm0-3.706a.647.647 0 0 1-.48-.183.664.664 0 0 1-.166-.465v-7.975c0-.2.055-.355.166-.465a.647.647 0 0 1 .48-.183c.188 0 .337.06.447.183.122.11.182.265.182.465v7.975a.63.63 0 0 1-.182.465.572.572 0 0 1-.447.183zM121.593 29.561c-.784 0-1.485-.16-2.104-.482a3.703 3.703 0 0 1-1.474-1.445c-.353-.632-.53-1.401-.53-2.31v-4.32c0-.177.061-.327.182-.448a.609.609 0 0 1 .447-.183.627.627 0 0 1 .646.631v4.32c0 1.02.282 1.778.845 2.277.563.498 1.27.747 2.121.747.541 0 1.027-.105 1.457-.315.442-.21.79-.499 1.044-.864.254-.366.381-.781.381-1.247v-4.918c0-.188.055-.338.166-.448a.626.626 0 0 1 .463-.183c.188 0 .343.06.464.183.122.11.182.26.182.448v7.81c0 .199-.06.36-.182.481a.661.661 0 0 1-.464.166.66.66 0 0 1-.463-.166.687.687 0 0 1-.166-.482v-.564a3.86 3.86 0 0 1-1.325.963 4.085 4.085 0 0 1-1.69.35zM133.45 29.545c-.862 0-1.64-.2-2.336-.599a4.539 4.539 0 0 1-1.64-1.628c-.397-.698-.602-1.479-.613-2.343v-7.842c0-.2.055-.355.166-.465a.647.647 0 0 1 .48-.183c.188 0 .337.06.448.183.121.11.182.265.182.465v4.885c.364-.52.845-.936 1.441-1.246a4.254 4.254 0 0 1 2.021-.482c.85 0 1.612.205 2.286.615a4.281 4.281 0 0 1 1.59 1.644c.398.698.596 1.485.596 2.36 0 .886-.204 1.678-.612 2.376a4.47 4.47 0 0 1-1.64 1.661c-.696.4-1.486.599-2.369.599zm0-1.164c.64 0 1.215-.15 1.723-.448.508-.31.905-.726 1.192-1.246.298-.52.448-1.114.448-1.778 0-.654-.15-1.24-.448-1.761a3.153 3.153 0 0 0-1.192-1.247 3.333 3.333 0 0 0-1.723-.448c-.63 0-1.198.15-1.706.448-.508.3-.906.715-1.193 1.247a3.587 3.587 0 0 0-.431 1.76c0 .665.144 1.258.431 1.779.287.52.685.936 1.193 1.246a3.298 3.298 0 0 0 1.706.448z"/></g></svg>