<svg width="120" height="48" viewBox="0 0 120 48" fill="none" xmlns="http://www.w3.org/2000/svg"><rect width="120" height="48" rx="5" fill="#4DB4EE"/><path d="M23.765 21.876a5.875 5.875 0 0 1-.096-1.054 6.292 6.292 0 0 1 12.583 0c.024.351.024.703 0 1.054a5.781 5.781 0 1 1-4.167 9.82 1.437 1.437 0 0 1 0-2.027 1.453 1.453 0 0 1 2.044 0 2.906 2.906 0 1 0 .111-4.28l-.16.176-.111.096-6.02 6.02a5.781 5.781 0 1 1-4.184-9.805zm0 8.687a2.923 2.923 0 1 0-2.035-.856 2.922 2.922 0 0 0 2.067.856h-.032zm6.164-6.387a3.4 3.4 0 1 0-3.37-3.354 3.417 3.417 0 0 0 3.402 3.401l-.032-.047z" fill="#fff"/><path d="M33.362 21.19a.653.653 0 0 1 0-.176 1.453 1.453 0 1 1 2.906 0 .787.787 0 0 1 0 .192 6.292 6.292 0 0 1-12.551 0v-.192a1.453 1.453 0 0 1 2.906 0v.176a3.417 3.417 0 0 0 6.787 0h-.048zM58.998 21.104h-4.844c.154-.56.28-1.148.378-1.75h5.852v-1.428h-12.74v1.428h5.432c-.084.588-.21 1.176-.364 1.75h-3.626v9.352h1.484v-.49h6.958v.49h1.47v-9.352zm-8.428 7.434v-2.366h6.958v2.366H50.57zm0-3.71v-2.31h6.958v2.31H50.57zm14.014.35v1.246h.966c.56.7 1.246 1.33 2.058 1.89-1.19.434-2.534.756-4.032.952l.63 1.302c1.834-.308 3.458-.784 4.858-1.428 1.316.644 2.912 1.12 4.76 1.428l.63-1.288c-1.498-.196-2.828-.49-3.976-.91a10.55 10.55 0 0 0 2.45-2.114v-1.078h-8.344zm2.562 1.246h3.794c-.588.476-1.246.91-1.974 1.288a8.001 8.001 0 0 1-1.82-1.288zm-3.08-4.088h1.988v2.156h5.95v-2.156h2.072v-1.344h-2.072v-.882H70.59v.882h-3.108v-.868h-1.428v.868h-1.988v-1.176h10.01v-1.372H69.4a13.38 13.38 0 0 0-.434-1.05l-1.554.252c.168.252.322.518.462.798H62.61v4.55c-.028 2.744-.42 4.9-1.148 6.44l1.106.994c.952-1.876 1.442-4.354 1.498-7.434v-.658zm3.416 0h3.108v.952h-3.108v-.952zm13.916 4.872l.966-.966a40.032 40.032 0 0 0-1.47-2.142c.322-1.148.588-2.408.798-3.808l-1.344-.238c-.126.924-.294 1.82-.49 2.66a22.13 22.13 0 0 0-1.344-1.596l-.826.798v-2.562h8.624v7.448a58.575 58.575 0 0 0-1.47-2.338c.392-1.232.714-2.618.952-4.13l-1.372-.238a27.871 27.871 0 0 1-.588 2.898 23.862 23.862 0 0 0-1.33-1.708l-.896.868c.602.784 1.19 1.582 1.75 2.408-.476 1.316-1.064 2.464-1.764 3.472l.924 1.148c.672-.896 1.26-1.946 1.764-3.178.392.616.756 1.246 1.12 1.89l.91-.91v1.582c0 .308-.168.462-.49.462l-1.288-.07.364 1.414h1.4c.966 0 1.456-.49 1.456-1.47V17.954H76.246V30.47h1.442v-8.4a54.965 54.965 0 0 1 1.736 2.212c-.42 1.288-.952 2.436-1.596 3.416l.924 1.148c.63-.896 1.176-1.96 1.638-3.192.336.504.672 1.022 1.008 1.554zm8.68-5.81v1.344h1.848c-.224.728-.714 1.358-1.442 1.89l1.12 1.008c.938-.784 1.526-1.75 1.764-2.898h1.61l-.728.854c.882.504 1.596 1.036 2.156 1.624l.854-1.036c-.602-.518-1.316-.994-2.142-1.442h3.752v.854c0 .378-.14.574-.42.574-.28 0-.602-.028-.952-.056l.364 1.302h.994c.966 0 1.456-.434 1.456-1.302v-1.372h1.708v-1.344h-1.708v-3.15h-3.948c.14-.224.252-.448.336-.7l-1.47-.196c-.084.308-.21.602-.364.896H92.08v3.15h-2.002zm8.792 0h-2.016l.574-.7a10.225 10.225 0 0 0-1.778-1.134h3.22v1.834zm-3.528-1.834l-.63.742c.616.336 1.148.7 1.596 1.092h-2.814v-1.834h1.848zm5.614 6.188h-9.94v3.094h-1.33v1.302h12.698v-1.302h-1.428v-3.094zm-8.526 3.094v-1.778h1.4v1.778h-1.4zm2.814 0v-1.778h1.442v1.778h-1.442zm2.856 0v-1.778h1.442v1.778H98.1z" fill="#fff"/></svg>