<svg width="390" height="660" viewBox="0 0 390 660" fill="none" xmlns="http://www.w3.org/2000/svg"><mask id="a" style="mask-type:alpha" maskUnits="userSpaceOnUse" x="0" y="0" width="390" height="660"><path fill="#3A6CCB" d="M0 0h390v660H0z"/></mask><g mask="url(#a)" fill-opacity=".57"><path d="M686.146 13v33.372L92.372 640.146H59L686.146 13z" fill="url(#paint0_radial_180_4262)"/><path d="M25.423 601.353l-190.694-.639L436.764-1.322h191.309L25.423 601.353z" fill="url(#paint1_radial_180_4262)"/><path opacity=".87" d="M375.867 103L-66.564 545.5H-229L213.431 103h162.436z" fill="url(#paint2_radial_180_4262)"/><path opacity=".2" d="M629.976 19.855L27.314 622.529H-47.44L555.222 19.855h74.754z" fill="url(#paint3_radial_180_4262)"/><path d="M-8.69 177.119H-86L169.119-78h77.309L-8.69 177.119z" fill="url(#paint4_radial_180_4262)"/><path d="M595.434 452.288L421.65 626.06h-77.297l173.772-173.772h77.309z" fill="url(#paint5_radial_180_4262)"/><path d="M247.318 651.128H115.015l233.44-233.944h132.303l-233.44 233.944z" fill="url(#paint6_radial_180_4262)"/><path d="M340.531 648.983h-73.055l227.613-227.614h73.043L340.531 648.983z" fill="url(#paint7_radial_180_4262)"/><path d="M-120.127-41.96H4.97L-252.152 215.05h-125.097L-120.127-41.96z" fill="url(#paint8_radial_180_4262)"/><path d="M245.774-1L49.584 195.203H8L204.191-1h41.583z" fill="url(#paint9_radial_180_4262)"/><path opacity=".2" d="M215.092 140.653L-27.902 383.658h-26.843L188.25 140.653h26.843z" fill="url(#paint10_radial_180_4262)"/><path opacity=".2" d="M60.834 19.855l-203.278 203.29h-14.801L46.033 19.855h14.801z" fill="url(#paint11_radial_180_4262)"/><path opacity=".2" d="M531.187 427.881L288.194 670.898h-26.855l242.994-243.017h26.854z" fill="url(#paint12_radial_180_4262)"/><path d="M46.578 317.194l-181.837 181.849h-68.246l181.826-181.849h68.257z" fill="url(#paint13_radial_180_4262)"/><path opacity=".2" d="M542.882 16h73.199L93.798 549.788H12L542.882 16z" fill="url(#paint14_radial_180_4262)"/><path opacity=".2" d="M261.269-344h73.199l-522.283 533.788h-81.798L261.269-344z" fill="url(#paint15_radial_180_4262)"/><path d="M-50.73 894.914h-93.673l291.855-292.155h93.658L-50.73 894.914z" fill="url(#paint16_radial_180_4262)"/><path d="M-7.976 788.376h-58.446l182.098-182.322h58.436L-7.976 788.376z" fill="url(#paint17_radial_180_4262)"/></g><defs><radialGradient id="paint0_radial_180_4262" cx="0" cy="0" r="1" gradientUnits="userSpaceOnUse" gradientTransform="matrix(620.483 0 0 1022.84 514.49 54.507)"><stop stop-opacity=".03"/><stop offset=".802" stop-opacity=".12"/></radialGradient><radialGradient id="paint1_radial_180_4262" cx="0" cy="0" r="1" gradientUnits="userSpaceOnUse" gradientTransform="matrix(784.916 0 0 982.925 410.927 38.566)"><stop stop-opacity=".03"/><stop offset=".802" stop-opacity=".12"/></radialGradient><radialGradient id="paint2_radial_180_4262" cx="0" cy="0" r="1" gradientUnits="userSpaceOnUse" gradientTransform="matrix(407.623 0 0 407.735 263.099 152.546)"><stop stop-opacity=".03"/><stop offset=".802" stop-opacity=".12"/></radialGradient><radialGradient id="paint3_radial_180_4262" cx="0" cy="0" r="1" gradientUnits="userSpaceOnUse" gradientTransform="matrix(670.22 0 0 982.925 444.561 59.742)"><stop stop-opacity=".03"/><stop offset=".802" stop-opacity=".12"/></radialGradient><radialGradient id="paint4_radial_180_4262" cx="0" cy="0" r="1" gradientUnits="userSpaceOnUse" gradientTransform="matrix(328.897 0 0 416.083 155.439 -61.115)"><stop stop-opacity=".03"/><stop offset=".802" stop-opacity=".12"/></radialGradient><radialGradient id="paint5_radial_180_4262" cx="0" cy="0" r="1" gradientUnits="userSpaceOnUse" gradientTransform="matrix(248.414 0 0 283.411 526.711 463.789)"><stop stop-opacity=".03"/><stop offset=".802" stop-opacity=".12"/></radialGradient><radialGradient id="paint6_radial_180_4262" cx="0" cy="0" r="1" gradientUnits="userSpaceOnUse" gradientTransform="matrix(361.858 0 0 381.548 380.65 432.668)"><stop stop-opacity=".03"/><stop offset=".802" stop-opacity=".12"/></radialGradient><radialGradient id="paint7_radial_180_4262" cx="0" cy="0" r="1" gradientUnits="userSpaceOnUse" gradientTransform="matrix(297.462 0 0 371.224 485.839 436.434)"><stop stop-opacity=".03"/><stop offset=".802" stop-opacity=".12"/></radialGradient><radialGradient id="paint8_radial_180_4262" cx="0" cy="0" r="1" gradientUnits="userSpaceOnUse" gradientTransform="matrix(378.158 0 0 419.166 -99.647 -24.95)"><stop stop-opacity=".03"/><stop offset=".802" stop-opacity=".12"/></radialGradient><radialGradient id="paint9_radial_180_4262" cx="0" cy="0" r="1" gradientUnits="userSpaceOnUse" gradientTransform="matrix(235.248 0 0 319.995 180.693 11.986)"><stop stop-opacity=".03"/><stop offset=".802" stop-opacity=".12"/></radialGradient><radialGradient id="paint10_radial_180_4262" cx="0" cy="0" r="1" gradientUnits="userSpaceOnUse" gradientTransform="matrix(266.969 0 0 396.327 141.235 156.736)"><stop stop-opacity=".03"/><stop offset=".802" stop-opacity=".12"/></radialGradient><radialGradient id="paint11_radial_180_4262" cx="0" cy="0" r="1" gradientUnits="userSpaceOnUse" gradientTransform="matrix(215.762 0 0 331.554 1.144 33.31)"><stop stop-opacity=".03"/><stop offset=".802" stop-opacity=".12"/></radialGradient><radialGradient id="paint12_radial_180_4262" cx="0" cy="0" r="1" gradientUnits="userSpaceOnUse" gradientTransform="matrix(266.981 0 0 396.347 457.327 443.965)"><stop stop-opacity=".03"/><stop offset=".802" stop-opacity=".12"/></radialGradient><radialGradient id="paint13_radial_180_4262" cx="0" cy="0" r="1" gradientUnits="userSpaceOnUse" gradientTransform="matrix(247.426 0 0 296.586 -21.872 329.229)"><stop stop-opacity=".03"/><stop offset=".802" stop-opacity=".12"/></radialGradient><radialGradient id="paint14_radial_180_4262" cx="0" cy="0" r="1" gradientUnits="userSpaceOnUse" gradientTransform="matrix(597.663 0 0 870.575 450.738 51.328)"><stop stop-opacity=".03"/><stop offset=".802" stop-opacity=".12"/></radialGradient><radialGradient id="paint15_radial_180_4262" cx="0" cy="0" r="1" gradientUnits="userSpaceOnUse" gradientTransform="matrix(597.663 0 0 870.575 169.125 -308.672)"><stop stop-opacity=".03"/><stop offset=".802" stop-opacity=".12"/></radialGradient><radialGradient id="paint16_radial_180_4262" cx="0" cy="0" r="1" gradientUnits="userSpaceOnUse" gradientTransform="matrix(381.418 0 0 476.488 135.591 622.095)"><stop stop-opacity=".03"/><stop offset=".802" stop-opacity=".12"/></radialGradient><radialGradient id="paint17_radial_180_4262" cx="0" cy="0" r="1" gradientUnits="userSpaceOnUse" gradientTransform="matrix(237.978 0 0 297.357 108.276 618.121)"><stop stop-opacity=".03"/><stop offset=".802" stop-opacity=".12"/></radialGradient></defs></svg>