<svg width="357" height="350" viewBox="0 0 357 350" fill="none" xmlns="http://www.w3.org/2000/svg">
<path d="M117.743 309.759V276.059L219.636 254.409L288.399 258.024V291.724L181.898 350L117.743 309.759Z" fill="#5A7DC2"/>
<path d="M117.743 276.059L219.636 220.71L288.399 258.024L181.898 316.313L117.743 276.059Z" fill="#567AD6"/>
<path d="M125.33 275.384L218.166 224.947L280.825 258.951L183.778 312.063L125.33 275.384Z" fill="url(#paint0_linear_306_4022)"/>
<path d="M288.413 205.681V239.367L181.898 297.656L129.753 264.936L125.741 262.407L117.756 257.402V223.702L219.649 202.052L288.413 205.681Z" fill="#5A7DC2"/>
<path d="M117.743 223.702L219.636 168.366L288.399 205.681L181.898 263.957L117.743 223.702Z" fill="#567AD6"/>
<path d="M157.52 244.412C157.52 247.312 152.766 250.04 150.449 250.715C149.48 250.91 148.535 251.207 147.629 251.602C146.729 252.049 146.159 252.968 146.159 253.972C146.265 254.82 146.967 255.495 147.152 256.329C147.248 257.051 147.157 257.785 146.887 258.461C146.013 261.269 142.491 263.016 141.591 265.81C136.731 265.334 134.533 265.731 129.673 264.936L125.701 262.407L131.765 251.245C132.548 249.662 133.507 248.174 134.626 246.809C135.951 245.454 137.451 244.282 139.088 243.326C143.311 240.636 147.703 238.221 152.237 236.096C151.667 236.375 157.52 243.604 157.52 244.412Z" fill="url(#paint1_linear_306_4022)"/>
<path d="M125.33 223.04L218.166 172.603L280.825 206.607L183.778 259.719L125.33 223.04Z" fill="url(#paint2_linear_306_4022)"/>
<path d="M116.471 205.72V172.021L218.365 150.371L287.128 153.999V187.699L180.627 245.975L116.471 205.72Z" fill="#5A7DC2"/>
<path d="M154.686 231.276C155.189 232.865 155.64 234.746 154.686 236.083C154.231 236.659 153.62 237.091 152.925 237.328C151.277 238.125 149.32 237.925 147.867 236.811C147.117 236.001 146.589 235.011 146.331 233.938C145.093 230.053 144.207 226.064 143.683 222.021C143.412 221.191 143.861 220.298 144.689 220.021C146.847 218.882 150.211 217.955 151.429 220.498C152.885 223.742 153.601 227.794 154.686 231.276Z" fill="#567AD6"/>
<path d="M148.185 233.13C147.74 233.068 147.287 233.109 146.861 233.249C146.565 233.418 146.304 233.643 146.093 233.911L141.432 239.208C140.531 240.228 139.565 241.618 140.2 242.823C140.663 243.497 141.4 243.933 142.213 244.015C144.479 244.208 146.754 243.748 148.768 242.69C150.211 242.068 151.628 241.366 153.018 240.651C154.063 240.194 154.974 239.479 155.666 238.572C156.726 236.944 157.057 233.051 155.15 231.832C154.197 231.223 153.349 231.66 152.502 232.084C151.169 232.777 149.687 233.136 148.185 233.13Z" fill="#5A7DC2"/>
<path d="M128.812 249.126C128.774 249.426 128.81 249.731 128.918 250.013C129.076 250.297 129.31 250.53 129.594 250.689C130.482 251.299 131.523 251.648 132.6 251.695C133.7 251.724 134.75 251.234 135.433 250.371C135.937 249.573 136.237 248.663 136.307 247.722C136.705 245.726 136.9 243.694 136.89 241.658C136.915 241.37 136.824 241.084 136.638 240.863C136.481 240.741 136.293 240.663 136.095 240.638C134.414 240.294 131.077 239.42 130.216 241.472C129.33 243.929 128.856 246.515 128.812 249.126Z" fill="#567AD6"/>
<path d="M121.675 248.901C120.236 248.968 118.814 249.24 117.451 249.708C116.075 250.183 114.954 251.203 114.353 252.529C114.078 253.18 114.046 253.908 114.26 254.581C114.728 255.561 115.545 256.331 116.551 256.74C121.365 259.304 126.798 260.477 132.242 260.13C133.645 260.175 135.011 259.677 136.056 258.739C136.814 257.619 137.169 256.274 137.062 254.926L137.247 248.57C136.029 248.384 134.904 249.166 133.752 249.563C131.752 250.238 130.958 248.609 129.302 248.239C127.144 247.749 123.887 248.715 121.675 248.901Z" fill="#5A7DC2"/>
<path d="M148.185 233.13C147.74 233.068 147.287 233.109 146.861 233.249C146.565 233.418 146.304 233.643 146.093 233.911L141.432 239.208C140.531 240.228 139.565 241.618 140.2 242.823C140.663 243.497 141.4 243.933 142.213 244.015C144.479 244.208 146.754 243.748 148.768 242.69C150.211 242.068 151.628 241.366 153.018 240.651C154.063 240.194 154.974 239.479 155.666 238.572C156.726 236.944 157.057 233.051 155.15 231.832C154.197 231.223 153.349 231.66 152.502 232.084C151.169 232.777 149.687 233.136 148.185 233.13Z" fill="url(#paint3_linear_306_4022)"/>
<path d="M121.675 248.901C120.236 248.968 118.814 249.24 117.451 249.708C116.075 250.183 114.954 251.203 114.353 252.529C114.078 253.18 114.046 253.908 114.26 254.581C114.728 255.561 115.545 256.331 116.551 256.74C121.365 259.304 126.798 260.477 132.242 260.13C133.645 260.175 135.011 259.677 136.056 258.739C136.814 257.619 137.169 256.274 137.062 254.926L137.247 248.57C136.029 248.384 134.904 249.166 133.752 249.563C131.752 250.238 130.958 248.609 129.302 248.239C127.144 247.749 123.887 248.715 121.675 248.901Z" fill="url(#paint4_linear_306_4022)"/>
<path d="M116.471 172.021L218.365 116.671L287.128 153.999L180.627 212.275L116.471 172.021Z" fill="#567AD6"/>
<path d="M124.045 171.359L216.895 120.922L279.554 154.926L182.507 208.038L124.045 171.359Z" fill="url(#paint5_linear_306_4022)"/>
<path d="M198.86 179.939C201.771 179.69 204.699 179.738 207.599 180.085C207.98 180.095 208.351 180.21 208.672 180.416C209.035 180.763 209.249 181.238 209.268 181.74C209.678 185.712 206.62 189.076 203.203 191.155C194.12 196.782 182.652 196.597 172.602 200.252C171.65 200.512 170.803 201.063 170.179 201.827C169.78 202.652 169.58 203.559 169.596 204.476C169.146 209.772 166.206 214.539 165.227 219.756C164.247 224.973 165.306 230.429 164.498 235.646C161.201 232.137 155.6 231.581 152.263 228.112C149.178 224.92 148.569 220.167 148.105 215.731L146.861 203.628C146.72 202.87 146.761 202.09 146.98 201.351C147.427 200.439 148.156 199.697 149.059 199.232C163.916 189.804 181.289 181.462 198.86 179.939Z" fill="url(#paint6_linear_306_4022)"/>
<path d="M138.929 178.721C137.556 178.999 136.284 179.644 135.248 180.588C134.197 182.063 133.726 183.873 133.924 185.673C133.95 198.526 136.375 211.262 141.074 223.226C141.188 224.069 141.7 224.806 142.45 225.207C143.2 225.608 144.097 225.625 144.861 225.252C147.669 224.47 150.449 223.557 153.177 222.497L149.483 198.093C149.315 197.408 149.356 196.689 149.602 196.027C149.877 195.569 150.259 195.183 150.714 194.902C154.902 191.832 159.33 189.104 163.956 186.745C167.637 184.865 171.901 182.773 172.894 178.721C173.301 177.355 173.025 175.876 172.152 174.748C171.564 174.186 170.877 173.737 170.126 173.424C167.677 172.219 164.578 170.67 161.758 170.961C159.507 171.186 158.633 172.497 156.752 173.464C151.548 176.073 144.61 177.066 138.929 178.721Z" fill="#282328"/>
<path d="M164.088 140.003C162.274 144.995 161.44 150.291 159.784 155.35C159.429 156.686 158.803 157.934 157.944 159.018C156.819 160.105 155.46 160.921 153.971 161.401C151.853 162.222 149.694 162.937 147.496 163.546C146.04 163.957 144.279 164.619 144.12 166.115C144.089 166.615 144.194 167.114 144.424 167.558C145.572 169.608 147.704 170.913 150.052 171.001C152.362 171.067 154.663 170.689 156.832 169.889C158.796 169.48 160.591 168.488 161.983 167.042C162.805 165.846 163.373 164.494 163.651 163.069C165.883 155.183 168.969 147.564 172.854 140.347C174.015 138.436 174.928 136.385 175.568 134.243C176.469 130.522 176.482 121.663 172.615 124.974C169.438 127.569 165.452 136.229 164.088 140.003Z" fill="#FBC6D7"/>
<path d="M178.879 178.244C176.602 177.366 174.39 176.331 172.258 175.146C164.114 170.657 170.775 168.445 173.503 163.043C175.423 159.203 174.655 154.621 173.635 150.45C171.861 143.141 169.504 135.58 171.212 128.257C171.415 127.073 171.866 125.945 172.536 124.947C173.034 124.334 173.603 123.783 174.231 123.305C175.955 121.832 177.928 120.68 180.057 119.902C184.175 118.578 188.73 119.544 192.584 121.478C207.758 129.092 211.003 148.318 210.393 163.692C210.221 167.955 209.572 172.471 206.818 175.728C204.17 178.787 200.197 180.244 196.225 180.734C190.326 181.34 184.369 180.485 178.879 178.244Z" fill="white"/>
<path d="M181.143 131.872C181.144 132.296 181.316 132.702 181.62 132.998C181.901 133.17 182.233 133.241 182.56 133.196C184.707 133.096 186.705 132.07 188.038 130.383C189.371 128.697 189.909 126.517 189.512 124.404C189.179 123.118 188.781 121.85 188.32 120.604C187.605 118.075 187.737 115.175 186.122 113.096C184.725 116.283 183.128 119.379 181.342 122.365C180.432 123.571 180.106 125.119 180.455 126.589C180.693 128.403 180.918 130.111 181.143 131.872Z" fill="#FBC6D7"/>
<path d="M180.349 125.252L180.958 129.356C180.958 129.356 187.936 125.914 187.022 119.505C186.109 113.096 180.349 125.252 180.349 125.252Z" fill="url(#paint7_linear_306_4022)"/>
<path d="M172.192 121.306C172.557 122.603 173.31 123.758 174.35 124.616C174.861 124.948 175.425 125.19 176.018 125.331C180.252 126.139 184.525 124.136 186.612 120.365C188.576 116.57 188.784 112.105 187.181 108.143C186.56 106.018 185.135 104.217 183.209 103.125C181.031 102.268 178.569 102.561 176.654 103.906C174.084 105.693 172.098 108.199 170.947 111.11C169.861 114.089 171.185 118.472 172.192 121.306Z" fill="#FBC6D7"/>
<path d="M141.564 195.763C139.827 197.968 138.45 200.435 137.486 203.072C132.158 215.922 128.698 229.469 127.21 243.3C131.559 243.843 135.958 243.843 140.306 243.3C140.65 233.524 142.161 223.824 144.808 214.407C145.271 212.382 146.068 210.449 147.165 208.686C149.112 205.892 152.29 204.264 155.335 202.741C162.374 199.317 169.731 196.594 177.303 194.611C180.507 193.723 183.725 192.929 186.863 191.87C189.553 191.069 192.075 189.786 194.305 188.083C196.534 186.345 197.967 183.781 198.277 180.972C198.277 181.687 182.388 180.972 180.918 180.76C175.952 180.23 170.086 177.383 165.187 179.436C161.347 180.998 157.838 184.282 154.382 186.533C150.131 189.314 144.967 191.83 141.564 195.763Z" fill="#473F47"/>
<path d="M164.194 194.703L191.829 181.21L159.837 169.862L134.625 180.879L164.194 194.703Z" fill="#567AD6"/>
<g filter="url(#filter0_d_306_4022)">
<path d="M202.555 136.904C202.634 137.368 202.687 137.831 202.74 138.228C203.495 145.154 202.74 151.973 202.555 158.859C202.396 163.122 201.826 171.253 197.258 173.424C188.81 177.582 172.51 176.073 172.51 176.073C170.611 175.77 168.671 175.847 166.802 176.298C165.796 176.602 164.856 177.145 163.863 177.529C160.288 178.853 156.289 178.205 152.528 177.529C151.876 177.451 151.246 177.244 150.674 176.92C149.218 175.94 149.284 173.61 150.37 172.233C151.593 170.955 153.178 170.081 154.912 169.73C159.67 168.169 164.771 167.972 169.636 169.161C170.258 169.367 170.89 169.539 171.53 169.677C172.283 169.796 173.045 169.849 173.807 169.836H179.581C186.201 169.902 192.465 169.929 193.471 162.156C193.843 159.285 193.919 156.383 193.696 153.496C193.299 148.199 191.935 143.101 192.213 137.884C192.23 136.23 192.643 134.605 193.418 133.144C194.218 131.672 195.719 130.717 197.39 130.615C199.146 130.751 200.703 131.796 201.495 133.369C202.055 134.475 202.414 135.672 202.555 136.904Z" fill="#FBC6D7"/>
</g>
<path d="M124.244 156.025L159.467 173.954L164.194 194.703L134.625 180.879L124.244 156.025Z" fill="#5A7DC2"/>
<path d="M182.546 113.334C183.444 114.68 184.186 116.124 184.758 117.638C185.407 116.314 184.387 114.063 185.791 113.573C186.625 113.268 187.499 114.248 187.419 115.148C187.234 116.037 186.7 116.815 185.936 117.307C187.022 120.524 190.438 121.65 193.312 122.696C196.531 123.953 199.32 126.109 201.349 128.906C203.816 132.503 205.802 136.407 207.255 140.519C208.01 139.195 209.797 138.996 211.228 138.573C215.669 137.045 218.356 132.532 217.583 127.9C216.581 123.344 212.833 119.903 208.208 119.293C206.806 119.313 205.419 118.991 204.17 118.353C202.607 117.254 202.356 115.095 201.667 113.321C200.007 109.295 195.82 106.915 191.511 107.548C191.704 105.859 191.56 104.149 191.087 102.516C190.198 100.4 188.472 98.746 186.32 97.9477C184.176 97.174 181.913 96.7841 179.633 96.7957C177.462 96.7162 175.118 96.7957 173.423 98.1198C171.45 99.6955 170.973 102.516 171.106 105.045C169.783 104.975 168.57 105.775 168.113 107.018C167.688 108.244 167.774 109.59 168.352 110.752C168.696 111.528 169.18 112.233 169.782 112.831C170.166 111.653 170.708 110.448 171.874 110.699C173.039 110.951 174.098 112.023 175.224 112.407C176.429 112.788 177.672 113.036 178.931 113.149C180.14 113.091 181.35 113.153 182.546 113.334Z" fill="#1F1917"/>
<path d="M180.626 214.5L182 349.5L288.399 291.724L185.526 316.313V292.28L288.412 239.367L186.122 262.765V239.5L287.128 187.699L180.626 214.5Z" fill="url(#paint8_linear_306_4022)"/>
<path d="M166.471 80.5349L69.3976 123.146V42.6112L166.471 0V80.5349Z" fill="#5A7DC2"/>
<path d="M86 244.284L0 282V210.716L86 173V244.284Z" fill="#BDDFFE"/>
<path d="M356.029 95.2062L288.837 124.355V69.2637L356.029 40.1146V95.2062Z" fill="#FFCD6E"/>
<path d="M234.467 87.9502L201.045 102.622V74.8808L234.467 60.2224V87.9502Z" fill="#50CEDF"/>
<path d="M155.295 58.4613C155.215 60.803 154.446 63.0691 153.084 64.9761C151.78 66.941 149.942 68.4936 147.787 69.4517L95.9071 90.1085C91.736 91.7769 88.3462 89.5524 88.3462 85.1429C88.3814 82.8117 89.0996 80.542 90.4119 78.6149C91.7164 76.6533 93.554 75.1051 95.7085 74.1525L97.4696 73.4507C97.0966 72.1596 96.9093 70.822 96.9134 69.4782C97.0614 64.8536 98.5825 60.3777 101.283 56.6207C103.885 52.7199 107.566 49.6604 111.876 47.8151L116.286 46.054C122.046 43.7632 127.038 45.2197 129.527 49.2584C130.712 48.1314 132.094 47.2335 133.606 46.6101L134.731 46.1599C139.684 44.1869 143.709 46.822 143.709 52.0391V52.5158C143.7 53.4405 143.58 54.3608 143.351 55.2568L147.655 53.5487C151.853 51.8273 155.295 54.0518 155.295 58.4613Z" fill="white"/>
<path d="M160 10L86 41.7461L160 70V10Z" fill="white" fill-opacity="0.14"/>
<path d="M231 67L212 75.4656L231 83V67Z" fill="white" fill-opacity="0.14"/>
<path d="M351 49L304 69.635L351 88V49Z" fill="white" fill-opacity="0.14"/>
<path d="M81 182V236L11 212.724L81 182Z" fill="white" fill-opacity="0.22"/>
<defs>
<filter id="filter0_d_306_4022" x="149.567" y="130.615" width="54.5024" height="49.6833" filterUnits="userSpaceOnUse" color-interpolation-filters="sRGB">
<feFlood flood-opacity="0" result="BackgroundImageFix"/>
<feColorMatrix in="SourceAlpha" type="matrix" values="0 0 0 0 0 0 0 0 0 0 0 0 0 0 0 0 0 0 127 0" result="hardAlpha"/>
<feOffset dx="1" dy="2"/>
<feComposite in2="hardAlpha" operator="out"/>
<feColorMatrix type="matrix" values="0 0 0 0 0 0 0 0 0 0 0 0 0 0 0 0 0 0 0.1 0"/>
<feBlend mode="normal" in2="BackgroundImageFix" result="effect1_dropShadow_306_4022"/>
<feBlend mode="normal" in="SourceGraphic" in2="effect1_dropShadow_306_4022" result="shape"/>
</filter>
<linearGradient id="paint0_linear_306_4022" x1="133.063" y1="285.477" x2="276.3" y2="172.12" gradientUnits="userSpaceOnUse">
<stop offset="0.01" stop-opacity="0.54"/>
<stop offset="0.13" stop-opacity="0.63"/>
<stop offset="0.25" stop-opacity="0.36"/>
<stop offset="1" stop-opacity="0"/>
</linearGradient>
<linearGradient id="paint1_linear_306_4022" x1="113.241" y1="228.69" x2="182.534" y2="292.763" gradientUnits="userSpaceOnUse">
<stop offset="0.01"/>
<stop offset="0.13" stop-opacity="0.69"/>
<stop offset="0.25" stop-opacity="0.32"/>
<stop offset="1" stop-opacity="0"/>
</linearGradient>
<linearGradient id="paint2_linear_306_4022" x1="133.063" y1="233.133" x2="276.3" y2="119.777" gradientUnits="userSpaceOnUse">
<stop offset="0.01" stop-opacity="0.54"/>
<stop offset="0.13" stop-opacity="0.63"/>
<stop offset="0.25" stop-opacity="0.36"/>
<stop offset="1" stop-opacity="0"/>
</linearGradient>
<linearGradient id="paint3_linear_306_4022" x1="140.968" y1="235.716" x2="164.849" y2="247.565" gradientUnits="userSpaceOnUse">
<stop offset="0.01"/>
<stop offset="0.13" stop-opacity="0.69"/>
<stop offset="0.25" stop-opacity="0.32"/>
<stop offset="1" stop-opacity="0"/>
</linearGradient>
<linearGradient id="paint4_linear_306_4022" x1="119.755" y1="257.951" x2="125.705" y2="244.567" gradientUnits="userSpaceOnUse">
<stop offset="0.01"/>
<stop offset="0.13" stop-opacity="0.69"/>
<stop offset="0.25" stop-opacity="0.32"/>
<stop offset="1" stop-opacity="0"/>
</linearGradient>
<linearGradient id="paint5_linear_306_4022" x1="131.778" y1="181.449" x2="275.026" y2="68.0919" gradientUnits="userSpaceOnUse">
<stop offset="0.01"/>
<stop offset="0.13" stop-opacity="0.69"/>
<stop offset="0.25" stop-opacity="0.32"/>
<stop offset="1" stop-opacity="0"/>
</linearGradient>
<linearGradient id="paint6_linear_306_4022" x1="144.226" y1="164.942" x2="227.443" y2="280.271" gradientUnits="userSpaceOnUse">
<stop offset="0.01"/>
<stop offset="0.13" stop-opacity="0.69"/>
<stop offset="0.25" stop-opacity="0.32"/>
<stop offset="1" stop-opacity="0"/>
</linearGradient>
<linearGradient id="paint7_linear_306_4022" x1="182.19" y1="113.48" x2="193.196" y2="137.505" gradientUnits="userSpaceOnUse">
<stop offset="0.01"/>
<stop offset="0.13" stop-opacity="0.69"/>
<stop offset="0.25" stop-opacity="0.32"/>
<stop offset="1" stop-opacity="0"/>
</linearGradient>
<linearGradient id="paint8_linear_306_4022" x1="364.788" y1="79.1049" x2="21.7937" y2="279.879" gradientUnits="userSpaceOnUse">
<stop offset="0.01"/>
<stop offset="0.13" stop-opacity="0.69"/>
<stop offset="0.25" stop-opacity="0.32"/>
<stop offset="1" stop-opacity="0"/>
</linearGradient>
</defs>
</svg>
