<svg width="2560" height="413" viewBox="0 0 2560 413" fill="none" xmlns="http://www.w3.org/2000/svg"><mask id="a" style="mask-type:alpha" maskUnits="userSpaceOnUse" x="0" y="0" width="2560" height="413"><path fill="url(#paint0_radial_183_4377)" d="M0 0h2560v413H0z"/></mask><g mask="url(#a)"><rect x="31" y="213.074" width="925" height="195.399" rx="97.7" transform="rotate(-45 31 213.074)" fill="url(#paint1_linear_183_4377)"/><rect x="177" y="470.073" width="1115.92" height="130.688" rx="65.344" transform="rotate(-45 177 470.073)" fill="url(#paint2_linear_183_4377)"/><rect x="1592" y="555.073" width="1115.92" height="130.688" rx="65.344" transform="rotate(-45 1592 555.073)" fill="url(#paint3_linear_183_4377)"/><rect x="2119" y="512.073" width="1115.92" height="130.688" rx="65.344" transform="rotate(-45 2119 512.073)" fill="url(#paint4_linear_183_4377)"/><rect x="1592" y="413.073" width="1115.92" height="130.688" rx="65.344" transform="rotate(-45 1592 413.073)" fill="url(#paint5_linear_183_4377)"/><rect x="1043" y="456.073" width="1115.92" height="146.479" rx="73.24" transform="rotate(-45 1043 456.073)" fill="url(#paint6_linear_183_4377)"/><rect opacity=".74" x="1245" y="445.073" width="1115.92" height="59.378" rx="29.689" transform="rotate(-45 1245 445.073)" fill="url(#paint7_linear_183_4377)"/><rect opacity=".74" x="78" y="539.824" width="1275.37" height="59.378" rx="29.689" transform="rotate(-45 78 539.824)" fill="url(#paint8_linear_183_4377)"/><rect x="974" y="159.073" width="1115.92" height="130.688" rx="65.344" transform="rotate(-45 974 159.073)" fill="url(#paint9_linear_183_4377)"/><rect opacity=".39" x="37" y="433.073" width="1115.92" height="76.274" rx="38.137" transform="rotate(-45 37 433.073)" fill="url(#paint10_linear_183_4377)"/><rect opacity=".39" x="1167" y="661.073" width="1115.92" height="76.274" rx="38.137" transform="rotate(-45 1167 661.073)" fill="url(#paint11_linear_183_4377)"/><rect x="618" y="234.885" width="1300.91" height="251.412" rx="125.706" transform="rotate(-45 618 234.885)" fill="url(#paint12_linear_183_4377)"/><rect x="1919.66" y="449.548" width="1300.91" height="134.146" rx="67.073" transform="rotate(-45 1919.66 449.548)" fill="url(#paint13_linear_183_4377)"/></g><defs><radialGradient id="paint0_radial_183_4377" cx="0" cy="0" r="1" gradientUnits="userSpaceOnUse" gradientTransform="matrix(1320.73083 357.0011 -698.95372 2585.78964 495.515 48.5)"><stop stop-color="#314774"/><stop offset="1" stop-color="#22355B"/></radialGradient><linearGradient id="paint1_linear_183_4377" x1="952.474" y1="213.074" x2="115.146" y2="213.074" gradientUnits="userSpaceOnUse"><stop stop-color="#fff" stop-opacity=".1"/><stop offset="1" stop-color="#fff" stop-opacity="0"/></linearGradient><linearGradient id="paint2_linear_183_4377" x1="1288.66" y1="470.073" x2="278.513" y2="470.073" gradientUnits="userSpaceOnUse"><stop stop-color="#fff" stop-opacity=".07"/><stop offset=".594" stop-color="#fff" stop-opacity="0"/><stop offset="1" stop-color="#fff" stop-opacity=".04"/></linearGradient><linearGradient id="paint3_linear_183_4377" x1="2703.66" y1="555.073" x2="1693.51" y2="555.073" gradientUnits="userSpaceOnUse"><stop stop-color="#fff" stop-opacity=".07"/><stop offset=".594" stop-color="#fff" stop-opacity="0"/><stop offset="1" stop-color="#fff" stop-opacity=".04"/></linearGradient><linearGradient id="paint4_linear_183_4377" x1="3230.66" y1="512.073" x2="2220.51" y2="512.073" gradientUnits="userSpaceOnUse"><stop stop-color="#fff" stop-opacity=".07"/><stop offset=".594" stop-color="#fff" stop-opacity="0"/><stop offset="1" stop-color="#fff" stop-opacity=".04"/></linearGradient><linearGradient id="paint5_linear_183_4377" x1="2703.66" y1="413.073" x2="1693.51" y2="413.073" gradientUnits="userSpaceOnUse"><stop stop-color="#fff" stop-opacity=".06"/><stop offset="1" stop-color="#fff" stop-opacity="0"/></linearGradient><linearGradient id="paint6_linear_183_4377" x1="2154.66" y1="456.073" x2="1144.51" y2="456.073" gradientUnits="userSpaceOnUse"><stop stop-color="#fff" stop-opacity=".05"/><stop offset="1" stop-color="#fff" stop-opacity="0"/></linearGradient><linearGradient id="paint7_linear_183_4377" x1="2356.66" y1="445.073" x2="1346.51" y2="445.073" gradientUnits="userSpaceOnUse"><stop stop-color="#fff" stop-opacity=".1"/><stop offset="1" stop-color="#fff" stop-opacity="0"/></linearGradient><linearGradient id="paint8_linear_183_4377" x1="1348.51" y1="539.824" x2="194.018" y2="539.824" gradientUnits="userSpaceOnUse"><stop stop-color="#fff" stop-opacity=".04"/><stop offset="1" stop-color="#fff" stop-opacity="0"/></linearGradient><linearGradient id="paint9_linear_183_4377" x1="1456.65" y1="464.845" x2="1384.17" y2="182.356" gradientUnits="userSpaceOnUse"><stop stop-color="#fff" stop-opacity=".1"/><stop offset="1" stop-color="#fff" stop-opacity="0"/></linearGradient><linearGradient id="paint10_linear_183_4377" x1="492.075" y1="620.199" x2="476.552" y2="444.072" gradientUnits="userSpaceOnUse"><stop stop-color="#fff" stop-opacity=".1"/><stop offset="1" stop-color="#fff" stop-opacity="0"/></linearGradient><linearGradient id="paint11_linear_183_4377" x1="1622.07" y1="848.199" x2="1606.55" y2="672.072" gradientUnits="userSpaceOnUse"><stop stop-color="#fff" stop-opacity=".1"/><stop offset="1" stop-color="#fff" stop-opacity="0"/></linearGradient><linearGradient id="paint12_linear_183_4377" x1="1595.85" y1="328.304" x2="848.789" y2="294.01" gradientUnits="userSpaceOnUse"><stop stop-color="#fff" stop-opacity=".07"/><stop offset="1" stop-color="#fff" stop-opacity="0"/></linearGradient><linearGradient id="paint13_linear_183_4377" x1="2897.51" y1="499.394" x2="2154.38" y2="435.458" gradientUnits="userSpaceOnUse"><stop stop-color="#fff" stop-opacity=".07"/><stop offset="1" stop-color="#fff" stop-opacity="0"/></linearGradient></defs></svg>