<svg width="12" height="12" viewBox="0 0 12 12" fill="none" xmlns="http://www.w3.org/2000/svg"><path d="M.382 6.928C-.057 7.985-.128 8.993.224 9.18c.243.131.625-.165.982-.708.142.591.49 1.125.99 1.556-.525.197-.866.52-.866.886 0 .6.925 1.086 2.067 1.086 1.03 0 1.884-.395 2.041-.914.082-.002.164-.002.246 0 .158.519 1.013.914 2.043.914 1.142 0 2.068-.487 2.068-1.086 0-.366-.342-.689-.866-.886.5-.429.85-.965.99-1.556.356.543.737.837.98.708.353-.187.282-1.197-.158-2.252-.345-.83-.814-1.441-1.17-1.577a1.636 1.636 0 0 0-.228-1.018.92.92 0 0 0-.09-.462C9.162 1.713 7.786 0 5.562 0 3.336 0 1.96 1.713 1.871 3.871a.93.93 0 0 0-.094.405l.002.057a1.648 1.648 0 0 0-.228 1.018c-.355.136-.825.747-1.17 1.577z" fill="#fff"/></svg>