<svg width="14" height="14" viewBox="0 0 14 14" fill="none" xmlns="http://www.w3.org/2000/svg"><path d="M13.935 6.828a7.412 7.412 0 0 0-2.671-3.47A7.342 7.342 0 0 0 7 2a7.327 7.327 0 0 0-4.264 1.357 7.419 7.419 0 0 0-2.67 3.471L0 7l.065.172a7.412 7.412 0 0 0 2.671 3.47A7.341 7.341 0 0 0 7 12a7.327 7.327 0 0 0 4.264-1.357 7.419 7.419 0 0 0 2.67-3.471L14 7l-.065-.172zM7 11.019c-2.604 0-4.97-1.607-5.953-4.017A6.458 6.458 0 0 1 7 2.985c2.604 0 4.97 1.607 5.953 4.017-.982 2.41-3.351 4.017-5.953 4.017z" fill="#CCC"/><path d="M6.977 4.894A2.11 2.11 0 0 0 4.87 7.002a2.11 2.11 0 0 0 2.107 2.107 2.11 2.11 0 0 0 2.107-2.107 2.11 2.11 0 0 0-2.107-2.108zm0 3.418a1.311 1.311 0 1 1 .001-2.622 1.311 1.311 0 0 1-.001 2.622z" fill="#CCC"/></svg>