<svg width="64" height="64" viewBox="0 0 64 64" fill="none" xmlns="http://www.w3.org/2000/svg"><path d="M21.703 22.007h7.467v7.455h-7.467v-7.455zM34.141 34.43h7.468v7.457h-7.468V34.43zm-12.438 0h7.467v7.457h-7.467V34.43zm16.172-12.423a3.737 3.737 0 0 0-3.734 3.727 3.736 3.736 0 0 0 3.734 3.728 3.736 3.736 0 0 0 3.735-3.728 3.735 3.735 0 0 0-3.735-3.727z" fill="#2EC4CD"/><path d="M54.621 16.373l-.005-.004L42.782 4.017l-.023-.023-.386-.403H12.507A4.196 4.196 0 0 0 8.313 7.78v48.338a4.195 4.195 0 0 0 4.194 4.186h38.3A4.194 4.194 0 0 0 55 56.117V16.769l-.379-.396zM30.703 42.461a.956.956 0 0 1-.957.956h-8.617a.956.956 0 0 1-.957-.956V33.86c0-.53.428-.957.957-.957h8.617c.53 0 .957.428.957.957v8.601zm0-12.425a.956.956 0 0 1-.957.955h-8.617a.956.956 0 0 1-.957-.955v-8.602c0-.528.428-.955.957-.956h8.617a.957.957 0 0 1 .957.956v8.602zM43.14 42.46a.956.956 0 0 1-.957.956h-8.617a.956.956 0 0 1-.956-.956V33.86c0-.53.429-.957.956-.957h8.617c.53 0 .958.428.958.957v8.601zm-5.265-11.47a5.26 5.26 0 0 1-5.265-5.257 5.261 5.261 0 0 1 5.265-5.257 5.261 5.261 0 0 1 5.266 5.257 5.26 5.26 0 0 1-5.266 5.257z" fill="#2EC4CD"/><path d="M42.359 3.592v10.686a2.495 2.495 0 0 0 2.496 2.491h10.132l-9.77-10.197-2.858-2.98z" fill="#fff" fill-opacity=".44"/></svg>