<svg width="16" height="16" viewBox="0 0 16 16" fill="none" xmlns="http://www.w3.org/2000/svg"><g clip-path="url(#clip0_148_21521)" fill="#fff"><path d="M2.392 14.559c0-1.832-.003-3.663 0-5.495 0-.053.03-.122.07-.157 1.81-1.569 3.623-3.135 5.435-4.7.012-.01.026-.017.055-.034.046.039.097.08.146.123 1.769 1.578 3.536 3.156 5.306 4.731a.288.288 0 0 1 .107.239c-.002 1.764 0 3.528 0 5.292h-3.26c0-.848.005-1.696-.002-2.544A2.292 2.292 0 0 0 7.87 9.735c-1.188.038-2.187.995-2.214 2.154-.02.89-.004 1.78-.003 2.669H2.393z"/><path d="M0 8.596c.075-.242.243-.41.429-.571 2.462-2.154 4.92-4.31 7.38-6.466.043-.037.087-.072.142-.117l3.229 2.827c0-.12.006-.196-.002-.27-.016-.148.054-.245.185-.285.171-.054.347-.107.524-.127.434-.05.868-.05 1.293.072.285.082.33.146.33.436-.001.693 0 1.386-.004 2.08 0 .096.026.16.1.225.682.59 1.359 1.183 2.036 1.776.31.271.341.724.074 1.03a.725.725 0 0 1-1.041.062c-.939-.822-1.875-1.646-2.813-2.467L8.045 3.455c-.027-.024-.055-.046-.093-.076-.035.027-.072.052-.105.082L1.388 9.119c-.054.048-.105.1-.159.148a.73.73 0 0 1-1.171-.27C.04 8.958.019 8.918 0 8.877v-.28z"/></g><defs><clipPath id="clip0_148_21521"><path fill="#fff" d="M0 0h16v16H0z"/></clipPath></defs></svg>