<svg width="64" height="64" viewBox="0 0 64 64" fill="none" xmlns="http://www.w3.org/2000/svg"><path d="M55.727 55.727A5.273 5.273 0 0 1 50.456 61h-36.91a5.273 5.273 0 0 1-5.272-5.273V8.273A5.273 5.273 0 0 1 13.546 3h26.363l15.819 15.818v36.91z" fill="#1E7BE2"/><path d="M39.91 3l15.817 15.818H43.864a3.955 3.955 0 0 1-3.955-3.954V3z" fill="#fff" fill-opacity=".4"/><path d="M18.159 20.136h17.136c1.319 0 1.977.66 1.977 1.978s-.658 1.977-1.977 1.977H18.16c-1.318 0-1.977-.66-1.977-1.977 0-1.319.659-1.978 1.977-1.978zM18.159 32h25.045c1.319 0 1.978.66 1.978 1.977 0 1.319-.66 1.978-1.978 1.978H18.16c-1.318 0-1.977-.66-1.977-1.978S16.84 32 18.159 32zM18.159 43.864h25.045c1.319 0 1.978.659 1.978 1.977s-.66 1.977-1.978 1.977H18.16c-1.318 0-1.977-.659-1.977-1.977s.659-1.977 1.977-1.977z" fill="#fff" fill-opacity=".881"/></svg>