<svg width="64" height="64" viewBox="0 0 64 64" fill="none" xmlns="http://www.w3.org/2000/svg"><path d="M50 52c1.2 0 2 .8 2 2s-.8 2-2 2H14c-1.2 0-2-.8-2-2s.8-2 2-2h36zm6-44c2.4 0 4 1.6 4 4v32c0 2.4-1.6 4-4 4H8c-2.4 0-4-1.6-4-4V12c0-2.4 1.6-4 4-4h48zm0 4H8v32h48V12z" fill="#D2A98E"/><path fill-rule="evenodd" clip-rule="evenodd" d="M31.99 17.23c-5.944 0-10.76 4.817-10.76 10.76 0 5.944 4.816 10.76 10.76 10.76s10.76-4.816 10.76-10.76c0-5.943-4.816-10.76-10.76-10.76zm-5.388 5.372a7.566 7.566 0 0 1 5.388-2.232c2.036 0 3.948.79 5.389 2.232a7.559 7.559 0 0 1 2.231 5.388c0 2.04-.79 3.948-2.231 5.389a7.559 7.559 0 0 1-5.389 2.232c-2.04 0-3.947-.79-5.388-2.232a7.566 7.566 0 0 1-2.232-5.389c0-2.035.79-3.947 2.232-5.388z" fill="#D2A98E"/><path d="M31.99 22.641c-.865 0-1.57.705-1.57 1.57v4.263c0 .865.705 1.57 1.57 1.57.865 0 1.57-.705 1.57-1.57v-4.263c0-.865-.705-1.57-1.57-1.57z" fill="#D2A98E"/></svg>