<svg width="47" height="48" viewBox="0 0 47 48" fill="none" xmlns="http://www.w3.org/2000/svg"><path d="M42.26 13.585l.99-.906c.331-.604.331-1.207.331-1.811-.33-.604-.66-1.208-1.32-1.51L26.081.906c-1.98-1.208-4.622-1.208-6.603 0L3.632 9.358c-.66 0-.99.302-.99.906-.33.604-.661 1.208-.33 1.812.33.603.66 1.207 1.32 1.509l16.177 8.453c.991.604 2.312.905 3.302.905.99 0 2.311-.302 3.302-.905l15.847-8.453zM21.13 19.32L6.273 11.47 21.46 3.624a3.235 3.235 0 0 1 3.302 0l14.857 7.849-15.187 7.849a3.236 3.236 0 0 1-3.302 0zm-2.971 5.132L4.952 17.509c-.66 0-.99-.302-1.65-.302-1.981 0-3.302 1.51-3.302 3.02v15.396c0 2.113 1.32 4.226 3.302 5.132l13.206 6.943c.66.302.99.302 1.65.302 1.982 0 3.302-1.208 3.302-3.019V29.585c0-2.113-1.32-3.925-3.301-5.132zm0 20.83L4.952 38.34c-.99-.604-1.65-1.51-1.65-2.717V20.226l.66-1.207-.66 1.207 13.206 6.944c.99.604 1.65 1.51 1.65 2.717v15.396zM42.92 17.207c-.66 0-.99 0-1.651.302l-13.207 6.944c-1.98 1.207-3.301 3.019-3.301 5.132V44.98c0 1.811 1.32 3.019 3.302 3.019.66 0 .99 0 1.65-.302l13.207-6.943c1.98-1.208 3.301-3.02 3.301-5.132V20.226c0-1.509-1.32-3.018-3.301-3.018zm0 18.416c0 1.207-.66 2.113-1.651 2.717l-13.207 6.943V29.887c0-1.208.66-2.113 1.651-2.717l13.207-6.944v15.397z" fill="#477ADC"/></svg>