<svg width="24" height="24" viewBox="0 0 24 24" fill="none" xmlns="http://www.w3.org/2000/svg"><g clip-path="url(#clip0_94_21830)" fill="#4E84D6"><path d="M24.01 7.189v13.538c0 1.369-1.185 2.567-2.546 2.567H2.545C1.185 23.294 0 22.1 0 20.727V7.189C0 6.144.53 5.298 1.49 4.82l.161-.163 3.221-3.244c.32-.478.936-.706 1.716-.706h11.157a2.833 2.833 0 0 1 1.71.528l3.07 3.42.146.157A2.728 2.728 0 0 1 24.01 7.19v-.001zm-6.026-4.483a.379.379 0 0 0-.187-.114.834.834 0 0 0-.214-.017H6.426a.6.6 0 0 0-.276.037.41.41 0 0 0-.125.09l-1.899 1.92h15.612l-1.752-1.916h-.002zm4.17 18.019V7.189a.65.65 0 0 0-.684-.695H2.545a.649.649 0 0 0-.69.696v13.538a.649.649 0 0 0 .69.696h18.92a.65.65 0 0 0 .683-.696l.006-.003z"/><path d="M15.605 12.828a.912.912 0 0 1 1.285-.026l.027.026c.4.403.342.977-.166 1.314l-4.075 3.914c-.266.264-.427.36-.74.36-.312 0-.47-.096-.733-.359l-4.081-3.916a.912.912 0 0 1-.027-1.285l.027-.028a.912.912 0 0 1 1.282-.033l.025.024 2.737 2.433v-5.93a.935.935 0 1 1 1.871 0v5.918l2.568-2.416v.004z"/></g><defs><clipPath id="clip0_94_21830"><path fill="#fff" d="M0 0h24v24H0z"/></clipPath></defs></svg>