<svg width="28" height="28" viewBox="0 0 28 28" fill="none" xmlns="http://www.w3.org/2000/svg">
<g filter="url(#filter0_d_224_5317)">
<path d="M14 0C6.272 0 0 6.272 0 14C0 21.728 6.272 28 14 28C21.728 28 28 21.728 28 14C28 6.272 21.728 0 14 0ZM13.916 4.9C16.24 4.9 18.13 6.79 18.13 9.114C18.13 11.438 16.24 13.328 13.916 13.328C11.592 13.328 9.702 11.438 9.702 9.114C9.702 6.79 11.578 4.9 13.916 4.9ZM6.538 21.644C6.496 17.318 8.61 14.63 11.256 13.58L13.972 18.116L16.842 13.678C19.404 14.798 21.434 17.444 21.476 21.644C16.772 23.506 11.816 23.646 6.538 21.644Z" fill="#C8DFF4"/>
</g>
<defs>
<filter id="filter0_d_224_5317" x="-4" y="0" width="36" height="36" filterUnits="userSpaceOnUse" color-interpolation-filters="sRGB">
<feFlood flood-opacity="0" result="BackgroundImageFix"/>
<feColorMatrix in="SourceAlpha" type="matrix" values="0 0 0 0 0 0 0 0 0 0 0 0 0 0 0 0 0 0 127 0" result="hardAlpha"/>
<feOffset dy="4"/>
<feGaussianBlur stdDeviation="2"/>
<feComposite in2="hardAlpha" operator="out"/>
<feColorMatrix type="matrix" values="0 0 0 0 0 0 0 0 0 0 0 0 0 0 0 0 0 0 0.25 0"/>
<feBlend mode="normal" in2="BackgroundImageFix" result="effect1_dropShadow_224_5317"/>
<feBlend mode="normal" in="SourceGraphic" in2="effect1_dropShadow_224_5317" result="shape"/>
</filter>
</defs>
</svg>
