<svg width="48" height="48" viewBox="0 0 48 48" fill="none" xmlns="http://www.w3.org/2000/svg"><path d="M30.854 37.156a2.962 2.962 0 0 1 0 4.175l-1.67 1.67a16.936 16.936 0 0 1-5.657 3.748 17.125 17.125 0 0 1-6.439 1.244c-2.222 0-4.389-.418-6.435-1.244A16.944 16.944 0 0 1 4.995 43a16.94 16.94 0 0 1-3.75-5.657A17.126 17.126 0 0 1 0 30.905c0-2.222.418-4.385 1.245-6.435.857-2.133 2.578-4.488 4.203-6.113l1.214-1.214a2.953 2.953 0 0 1 4.176 4.176l-1.21 1.214c-2.106 2.105-3.724 5.372-3.724 8.372a11.13 11.13 0 0 0 3.264 7.92 11.12 11.12 0 0 0 7.92 3.264c3 0 5.815-1.159 7.92-3.264l1.67-1.67a2.95 2.95 0 0 1 4.176 0zm6.493-35.911a16.996 16.996 0 0 1 9.408 9.408A17.199 17.199 0 0 1 48 17.088a17.12 17.12 0 0 1-1.245 6.436 16.931 16.931 0 0 1-3.747 5.657l-1.67 1.676a2.953 2.953 0 0 1-4.176-4.176l1.67-1.67a11.117 11.117 0 0 0 3.264-7.92c0-3-1.162-5.814-3.264-7.92a11.118 11.118 0 0 0-7.92-3.263c-3 0-5.815 1.162-7.92 3.264l-1.67 1.67a2.954 2.954 0 0 1-4.176-4.177l1.67-1.67a16.94 16.94 0 0 1 5.657-3.75A17.129 17.129 0 0 1 30.916 0c2.221 0 4.388.418 6.435 1.245h-.004zm-7.271 20.852L22.1 30.07a2.963 2.963 0 0 1-4.176 0 2.963 2.963 0 0 1 0-4.176l7.974-7.972a2.963 2.963 0 0 1 4.177 0 2.962 2.962 0 0 1 0 4.176z" fill="#8992C8"/></svg>