<svg width="24" height="24" viewBox="0 0 24 24" fill="none" xmlns="http://www.w3.org/2000/svg"><path d="M1.5 2.993c0-.825.676-1.493 1.507-1.493h5.986c.833 0 1.507.675 1.507 1.493v18.015c0 .825-.677 1.493-1.507 1.493H3.007A1.505 1.505 0 0 1 1.5 21.007V2.992v.001zm1.5.758v16.498c0 .416.334.751.748.751h4.504A.752.752 0 0 0 9 20.25V3.75A.748.748 0 0 0 8.252 3H3.748A.752.752 0 0 0 3 3.75zm9-.744c0-.833.673-1.507 1.505-1.507h7.49c.831 0 1.505.676 1.505 1.507v5.986c0 .833-.673 1.507-1.505 1.507h-7.49A1.507 1.507 0 0 1 12 8.993V3.007zm1.5.74v4.505a.75.75 0 0 0 .746.748h6.008A.751.751 0 0 0 21 8.252V3.748A.75.75 0 0 0 20.254 3h-6.008a.751.751 0 0 0-.746.748zM12 13.506c0-.832.673-1.505 1.505-1.505h7.49c.831 0 1.505.673 1.505 1.505v7.49a1.503 1.503 0 0 1-1.505 1.505h-7.49A1.503 1.503 0 0 1 12 20.995v-7.49zm1.5.742v6.007c0 .405.335.746.746.746h6.008a.751.751 0 0 0 .746-.746v-6.008a.751.751 0 0 0-.746-.746h-6.008a.751.751 0 0 0-.746.746v.001z" fill="#4E84D6"/></svg>