<svg class="icon" viewBox="0 0 1024 1024" xmlns="http://www.w3.org/2000/svg" width="16" height="16"><path d="M423.458 260.262c.524 0 .751.799.751 2.814l.034.002s-.034 76.132.02 77.242c1.274 36.824 29.065 67.392 64.74 71.16l.224.025c91.21 8.658 171.732 45.48 239.335 109.438 48.62 46 90.071 105.187 123.304 176.05 1.071 2.285.731 5.728-1.655 5.728-.936 0-2.188-.53-3.792-1.868-71.021-59.17-207.321-104.095-349.546-107.063l-.004.06c-38.766.28-71.229 32.24-72.609 71.547-.058 1.1-.028 71.79-.02 95.722 0 1.747-.153 2.62-.735 2.62-.55 0-1.486-.777-3.038-2.332-59.473-59.496-242.27-233.516-242.27-233.516-4.261-5.509-6.602-12.467-6.602-19.723 0-8.5 3.144-16.408 8.863-22.335l.037-.019s182.436-165.553 240.48-223.612c1.16-1.157 1.967-1.94 2.482-1.94m-.024-55.886c-15.711.006-29.836 6.17-41.984 18.316-54.527 54.541-224.734 209.226-237.739 221.036a55.173 55.173 0 0 0-3.468 3.3c-15.823 16.395-24.536 38.107-24.536 61.141 0 19.528 6.492 38.673 18.282 53.917a55.81 55.81 0 0 0 5.67 6.284c1.825 1.735 182.976 174.22 241.278 232.545 12.409 12.413 26.73 18.708 42.567 18.708 25.843 0 48.36-17.595 54.754-42.792 1.672-6.59 1.866-12.125 1.866-15.735v-1.884c-.01-21.124-.03-83.985.009-92.316.568-9.133 8.467-17.1 17.135-17.162.313-.003.626-.007.936-.014 141.979 3.467 259.102 49.626 312.442 94.068 14.698 12.246 29.628 14.815 39.565 14.815 19.915 0 38.185-10.037 48.871-26.85 10.938-17.204 12.233-39.617 3.383-58.491-36.206-77.203-81.792-142.11-135.495-192.918-38.113-36.059-80.499-64.888-125.983-85.685-45.47-20.79-94.632-33.833-146.12-38.76-7.82-.828-14.21-8.266-14.726-17.04-.028-6.6-.022-49.244-.008-75.757a56.337 56.337 0 0 0-.15-4.127c-.25-4.443-.912-8.618-2.01-12.671-6.683-24.688-29.102-41.93-54.514-41.93h-.025z" fill="#bfbfbf"/></svg>