<svg width="24" height="24" viewBox="0 0 24 24" fill="none" xmlns="http://www.w3.org/2000/svg"><g clip-path="url(#clip0_94_21841)" fill="#4E84D6"><path d="M3.126 12.002L7.37 7.76l1.06 1.06-4.242 4.243-1.06-1.061z"/><path d="M4.187 10.938L8.43 15.18l-1.06 1.06-4.244-4.242 1.061-1.06zm16.69 1.064l-4.244 4.243-1.06-1.06 4.242-4.243 1.061 1.06z"/><path d="M19.816 13.06l-4.242-4.244 1.06-1.06 4.243 4.242-1.06 1.061zm-6.214-5.302l1.299.75-4.5 7.794-1.3-.75 4.5-7.794z"/><path d="M22.303 5.872C20.207 2.36 16.367 0 11.987 0 5.634 0 .418 4.954.002 11.197a.753.753 0 0 0 .75.803c.394 0 .72-.304.746-.694C1.858 5.84 6.426 1.5 11.987 1.5a10.51 10.51 0 0 1 9.026 5.134l-1.811 1.068 3.825.98.975-3.815-1.699 1.005zM1.701 18.128C3.797 21.64 7.637 24 12.017 24c6.352 0 11.569-4.954 11.985-11.197a.753.753 0 0 0-.75-.803.746.746 0 0 0-.746.694c-.36 5.467-4.928 9.806-10.49 9.806a10.51 10.51 0 0 1-9.025-5.134l1.81-1.069-3.824-.978-.975 3.813L1.7 18.128z"/></g><defs><clipPath id="clip0_94_21841"><path fill="#fff" d="M0 0h24v24H0z"/></clipPath></defs></svg>