<svg width="64" height="64" viewBox="0 0 64 64" fill="none" xmlns="http://www.w3.org/2000/svg"><path d="M58.056 43.666c0 3.436-1.938 6.535-5.375 6.535H12.24c-3.436 0-7.381-3.098-7.381-6.535V13.041c0-3.435 10.167-9.04 13.604-9.04h32.083c4.813 0 7.514 2.817 7.514 7.58v32.085h-.003z" fill="#2D6BCA"/><path d="M55.256 49.888c0 3.435-2.25 7.312-5.685 7.312H15.349c-3.435 0-7.691-3.877-7.691-7.312V12.556c0-6.408 1.437-5.754 9.248-5.754h32.666c3.435 0 5.685 2.317 5.685 5.754v37.332h-.001z" fill="#CCD6DD"/><path d="M51.056 51.134A4.666 4.666 0 0 1 46.39 55.8H9.524a4.666 4.666 0 0 1-4.666-4.666V14.268a4.666 4.666 0 0 1 4.666-4.666H46.39a4.666 4.666 0 0 1 4.666 4.666v36.866z" fill="#E1E8ED"/><path d="M51.056 53.778A6.222 6.222 0 0 1 44.834 60H12.48a6.221 6.221 0 0 1-6.221-6.222V20.023a6.221 6.221 0 0 1 6.221-6.221h32.355a6.222 6.222 0 0 1 6.222 6.221v33.755z" fill="#3D7EDF"/><path d="M48.256 52.998c0 3.436-1.471 7.002-4.908 7.002H13.794c-3.436 0-7.536-3.566-7.536-7.002v-31.11c0-3.436 4.1-5.288 7.536-5.288H43.87c3.435 0 4.386 1.329 4.386 4.766v31.632z" fill="#3D7EDF"/><path d="M13.794 13.802c-2.625 0-2.694-3.38-1.555-4.667 1.293-1.463 3.305-2.333 6.903-2.333h1.116v-2.8h-2.916c-6.174 0-12.486 3.109-12.486 7.58v41.416c0 3.436 3.946 7.002 7.381 7.002h2.42V13.8h-.863v.002z" fill="#2D6BCA"/><path d="M41.46 29.175c0 1.54-1.26 2.8-2.8 2.8H26.955c-1.54 0-2.8-1.26-2.8-2.8V26.05c0-1.54 1.26-2.8 2.8-2.8H38.66c1.54 0 2.8 1.26 2.8 2.8v3.125z" fill="#fff" fill-opacity=".5"/></svg>