<svg width="64" height="64" viewBox="0 0 64 64" fill="none" xmlns="http://www.w3.org/2000/svg"><path d="M9.6 4h44.8C58.133 4 60 5.867 60 9.6v44.8c0 3.733-1.867 5.6-5.6 5.6H9.6C5.867 60 4 58.133 4 54.4V9.6C4 5.867 5.867 4 9.6 4z" fill="#3483DF"/><path d="M46.022 32.89L37.44 22.16a2.45 2.45 0 1 1 3.82-3.04l9.8 12.25a2.45 2.45 0 0 1 0 3.038l-9.8 12.25a2.449 2.449 0 0 1-1.91.93 2.45 2.45 0 0 1-1.913-3.968l8.585-10.732v.002zm-33.61 0c0-.532.173-1.066.528-1.517l9.8-12.25a2.45 2.45 0 0 1 3.822 3.038l-8.585 10.73 8.585 10.732a2.449 2.449 0 0 1-1.912 3.967 2.45 2.45 0 0 1-1.91-.93l-9.8-12.25a2.44 2.44 0 0 1-.529-1.52zm9.788 0a2.45 2.45 0 1 1 4.9 0 2.45 2.45 0 0 1-4.9 0zm7.35 0a2.45 2.45 0 1 1 4.9 0 2.45 2.45 0 0 1-4.9 0zm7.35 0a2.45 2.45 0 1 1 4.9 0 2.45 2.45 0 0 1-4.9 0z" fill="#fff"/></svg>