<svg width="15" height="12" viewBox="0 0 15 12" fill="none" xmlns="http://www.w3.org/2000/svg"><path d="M10.042 3.631c.17 0 .338.016.506.03C10.096 1.566 7.83 0 5.25 0 2.364.01 0 1.96 0 4.437c0 1.428.788 2.605 2.097 3.517L1.57 9.518l1.838-.91c.658.128 1.187.257 1.837.257.168 0 .329-.008.49-.022a3.975 3.975 0 0 1-.161-1.095c.007-2.27 1.975-4.116 4.47-4.116zM7.218 2.22c.399 0 .658.257.658.653 0 .386-.26.653-.658.653-.39 0-.788-.258-.788-.653 0-.396.397-.653.788-.653zM3.543 3.526c-.39 0-.788-.258-.788-.653 0-.396.399-.653.788-.653.39 0 .659.257.659.653 0 .386-.26.653-.659.653zm11.293 4.168c0-2.081-2.097-3.782-4.464-3.782-2.495 0-4.463 1.7-4.463 3.782 0 2.088 1.968 3.782 4.463 3.782.522 0 1.05-.128 1.578-.258l1.439.782-.398-1.299c1.057-.797 1.845-1.838 1.845-3.007zm-5.91-.654c-.26 0-.529-.257-.529-.524 0-.257.27-.524.529-.524.399 0 .658.258.658.524 0 .267-.26.524-.658.524zm2.886 0c-.26 0-.52-.257-.52-.524 0-.257.259-.524.52-.524.398 0 .659.258.659.524 0 .267-.26.524-.659.524z" fill="#fff"/></svg>