<svg width="24" height="24" viewBox="0 0 24 24" fill="none" xmlns="http://www.w3.org/2000/svg"><g clip-path="url(#clip0_94_21828)"><path d="M21.478 20.587h-4.326v1.704H6.838v-1.704H2.566C1.134 20.587 0 19.312 0 17.779V4.519c0-1.569 1.163-2.81 2.566-2.81h18.881c1.433 0 2.566 1.274 2.566 2.81v13.26c.03 1.533-1.134 2.808-2.535 2.808zm.84-15.89c0-.699-.52-1.271-1.157-1.271H2.85c-.637 0-1.156.572-1.156 1.27v12.902c0 .7.52 1.271 1.156 1.271h18.31c.636 0 1.158-.57 1.158-1.27V4.696zM8.55 12h12.027v3.409H8.55v-3.41zm0-5.146h12.027v3.41H8.55v-3.41zm-5.125 5.117h3.438v3.466H3.425v-3.466zm0-5.105h3.438v3.4H3.425v-3.4z" fill="#4E84D6"/></g><defs><clipPath id="clip0_94_21828"><path fill="#fff" d="M0 0h24v24H0z"/></clipPath></defs></svg>