<svg width="12" height="12" viewBox="0 0 12 12" fill="none" xmlns="http://www.w3.org/2000/svg"><path d="M10.35 11.1h-8.7a.75.75 0 0 1-.75-.75V4.952h10.2v5.398a.75.75 0 0 1-.75.75zm-8.7-9h.75v.75a.45.45 0 1 0 .9 0V2.1h5.4v.75a.45.45 0 1 0 .9 0V2.1h.75a.75.75 0 0 1 .75.75v1.202H.9V2.85a.75.75 0 0 1 .75-.75zm8.7-.9H9.6V.45a.45.45 0 1 0-.9 0v.75H3.3V.45a.45.45 0 0 0-.9 0v.75h-.75A1.652 1.652 0 0 0 0 2.85v7.5C0 11.26.74 12 1.65 12h8.7c.91 0 1.65-.74 1.65-1.65v-7.5c0-.91-.74-1.65-1.65-1.65zM2.4 6.9H3v-.6h-.6v.6zm-.6.6h1.8V5.7H1.8v1.8zM9 6.9h.6v-.6H9v.6zm-.6.6h1.8V5.7H8.4v1.8zm-2.7-.6h.6v-.6h-.6v.6zm-.6.6h1.8V5.7H5.1v1.8zM2.4 9.6H3V9h-.6v.6zm-.6.6h1.8V8.4H1.8v1.8zM9 9.6h.6V9H9v.6zm-.6.6h1.8V8.4H8.4v1.8zm-2.7-.6h.6V9h-.6v.6zm-.6.6h1.8V8.4H5.1v1.8z" fill="#CCC"/></svg>