<svg width="64" height="64" viewBox="0 0 64 64" fill="none" xmlns="http://www.w3.org/2000/svg"><path d="M58.525 50.435l-26.16 11.408-26.16-11.408h52.32zm0-11.916l-26.16 11.408-26.16-11.408" fill="#0060B6"/><path d="M32.365 61.843V49.927L6.205 38.519v11.916l26.16 11.408zm26.16-23.324v11.916l-26.16 11.408V49.927l26.16-11.408z" fill="#64ACE2"/><path d="M58.525 38.458l-26.16 11.408-26.16-11.408h52.32zm0-11.916l-26.16 11.407-26.16-11.407" fill="#70BCFF"/><path d="M32.365 49.866V37.95L6.205 26.54v11.917l26.16 11.408zm26.16-23.325v11.917l-26.16 11.408V37.95l26.16-11.409z" fill="#70BCFF"/><path d="M58.525 26.541L32.365 37.95 6.205 26.54" fill="#B3EDFF"/><path d="M32.365 25.526L6.205 14.118 32.366 2.71l26.16 11.408-26.16 11.408z" fill="#fff"/><path d="M32.365 37.95V25.526L6.205 14.118v12.423l26.16 11.409zm26.16-23.832v12.423L32.365 37.95V25.526l26.16-11.408z" fill="#B3EDFF"/><path d="M60.399 38.473l.001-.015V14.118a1.88 1.88 0 0 0-.019-.258l-.015-.08a1.92 1.92 0 0 0-.038-.169c-.008-.03-.019-.06-.029-.09a1.892 1.892 0 0 0-.176-.377c-.016-.027-.031-.053-.048-.078a1.9 1.9 0 0 0-.107-.14c-.016-.02-.03-.04-.048-.06a1.9 1.9 0 0 0-.18-.177l-.005-.004a1.884 1.884 0 0 0-.183-.136l-.02-.011c-.02-.014-.043-.025-.065-.037a1.953 1.953 0 0 0-.164-.087l-.028-.015L33.115.991a1.875 1.875 0 0 0-1.5 0L5.457 12.4c-.01.005-.02.012-.032.017a1.887 1.887 0 0 0-.153.081c-.025.014-.05.027-.075.043l-.018.01c-.06.04-.117.083-.172.128l-.015.012a1.853 1.853 0 0 0-.18.177c-.018.02-.033.04-.05.06-.036.046-.072.091-.105.139l-.049.08a1.934 1.934 0 0 0-.175.374l-.03.092c-.015.055-.027.11-.037.166-.005.028-.012.056-.015.083-.013.086-.019.171-.02.257v24.34l.002.014v.004l-.001.037V50.453c.002.076.008.151.017.225l.008.056c.013.078.03.155.052.23l.014.044c.02.063.044.125.071.186l.025.055c.034.07.072.14.115.206l.018.026c.04.06.084.117.13.172l.033.037c.054.06.112.119.175.172l.012.01c.074.06.152.116.235.166.07.042.142.082.22.116l26.16 11.408c.067.03.135.053.204.075l.047.012a1.948 1.948 0 0 0 .498.07c.064 0 .127-.004.19-.01l.05-.008a1.9 1.9 0 0 0 .258-.052l.047-.013c.07-.02.138-.045.205-.074l26.16-11.408a1.86 1.86 0 0 0 .269-.148 1.92 1.92 0 0 0 .186-.135l.01-.009c.064-.053.122-.112.176-.172l.031-.036c.048-.056.092-.114.133-.174l.017-.024c.043-.068.081-.137.116-.209l.023-.05c.027-.064.052-.128.073-.193.004-.013.01-.026.013-.038.022-.077.04-.156.053-.235l.006-.05c.01-.077.017-.155.017-.234l.001-.012V38.514v-.041zM39.537 56.67l-5.297 2.31v-7.825l22.41-9.773v7.825L39.537 56.67zM8.08 49.207v-7.825l6.477 2.825 15.932 6.948v7.825L8.08 49.207zM56.65 37.23l-9.612 4.191-12.798 5.581v-7.825l22.41-9.772v7.825zm-26.16 1.948v7.825l-12.82-5.59-9.59-4.183v-7.825l6.477 2.825 15.932 6.948zm26.16-13.864l-6.2 2.703-16.21 7.07v-8.333l22.41-9.772v8.332zm-26.16 1.44v8.332L8.08 25.314V16.98l22.41 9.773zm1.874-21.999l21.47 9.363-21.47 9.362-21.469-9.362 21.47-9.363z" fill="#6E6E96"/></svg>