<svg width="48" height="48" viewBox="0 0 48 48" fill="none" xmlns="http://www.w3.org/2000/svg"><path d="M43.49 20.169c-1.118-2.168-2.38-4.626-3.243-6.895C37.97 7.215 34.052 1.01 22.225 1.01c-12.296 0-20.156 10.684-20.156 18.04 0 6.562 2.927 11.383 4.856 14.575.845 1.4 1.51 2.5 1.502 3.089v9.25c0 .537.69 1.024 1.39 1.024.811 0 1.494-.341 1.494-1.016v-9.258c0-1.127-.896-2.808-2.048-4.941-1.81-3.38-4.292-7.996-4.31-12.723-.042-7.928 8.577-14.533 16.188-15.104v12.706c-3.242.572-5.649 3.66-5.649 7.347 0 3.883 2.97 6.801 6.912 6.801a7.034 7.034 0 0 0 3.994-1.237l3.046 2.159c-.085 1.408 1.11 2.602 2.5 2.602a2.511 2.511 0 0 0 2.51-2.5c0-1.69-1.64-2.867-3.226-2.39l-2.79-1.97a6.976 6.976 0 0 0 1.075-3.738c0-3.234-2.279-6.101-5.462-6.938V3.99c6.835.512 11.452 4.045 13.372 10.24.529 1.733 2.253 4.822 3.635 7.305.905 1.63 1.929 3.473 1.997 3.857-.213.46-2.594 1.647-4.702 2.492l-.247.094v5.913c0 .051-.035 1.263-1.306 2.56-1.186 1.22-3.942 1.297-3.968 1.297h-3.209v8.218l.026.068c.137.35.572.947 1.331.947 1.067 0 1.46-.665 1.528-1.024l.008-5.316c.939.026 3.26-.094 5.47-1.493 3.038-1.929 3.012-5.137 3.004-5.274v-3.96c1.092-.383 4.71-1.791 4.94-3.763.103-.972-.81-2.816-2.44-5.981zm-16.879 3.566a4.208 4.208 0 0 1-4.207 4.199c-2.32 0-4.215-1.886-4.215-4.199a4.208 4.208 0 0 1 4.207-4.198c2.32.009 4.215 1.886 4.215 4.198z" fill="#477ADC"/></svg>