<svg width="24" height="24" viewBox="0 0 24 24" fill="none" xmlns="http://www.w3.org/2000/svg"><path d="M19.2 9.507a7.2 7.2 0 0 0-14.4 0 4.8 4.8 0 0 0 0 9.6h2.4v-1.92H4.8a2.883 2.883 0 0 1-2.88-2.88 2.883 2.883 0 0 1 2.88-2.88h1.92v-1.92A5.286 5.286 0 0 1 12 4.227a5.286 5.286 0 0 1 5.28 5.28v1.92h1.92a2.883 2.883 0 0 1 2.88 2.88 2.883 2.883 0 0 1-2.88 2.88h-2.4v1.92h2.4a4.8 4.8 0 0 0 0-9.6z" fill="#fff"/><path d="M11.986 21.692l5.186-5.578-1.51-1.407-2.597 2.795V9.615h-2.16V17.5l-2.597-2.793-1.51 1.407 5.188 5.578z" fill="#fff"/></svg>