<svg width="1920" height="700" viewBox="0 0 1920 700" fill="none" xmlns="http://www.w3.org/2000/svg"><mask id="a" style="mask-type:alpha" maskUnits="userSpaceOnUse" x="0" y="0" width="1920" height="700"><path fill="#C4C4C4" d="M0 0h1920v700H0z"/></mask><g mask="url(#a)"><path d="M976-31V-.615L435.385 540H405L976-31z" fill="url(#paint0_radial_152_25803)"/><path d="M336.622 548.72L163 548.138 711.138 0H885.32L336.622 548.72z" fill="url(#paint1_radial_152_25803)"/><path opacity=".87" d="M760.301-.473L457.396 302.414l-196.419-.445L563.437-.473h196.864z" fill="url(#paint2_radial_152_25803)"/><path opacity=".2" d="M887.053 19.28L338.344 568h-68.062L818.991 19.28h68.062z" fill="url(#paint3_radial_152_25803)"/><path d="M327.941 409.774h-70.388l232.279-232.279h70.388L327.941 409.774z" fill="url(#paint4_radial_152_25803)"/><path d="M855.603 413L697.377 571.215H627L785.215 413h70.388z" fill="url(#paint5_radial_152_25803)"/><path d="M576.459 550H456l212.541-213H789L576.459 550z" fill="url(#paint6_radial_152_25803)"/><path d="M690.462 427.333h-66.515l207.237-207.236h66.503L690.462 427.333z" fill="url(#paint7_radial_152_25803)"/><path d="M922.103 320H1036L801.897 554H688l234.103-234z" fill="url(#paint8_radial_152_25803)"/><path d="M115.103 129H229L-5.103 363H-119l234.103-234z" fill="url(#paint9_radial_152_25803)"/><path d="M204.103-37H318L83.897 197H-30L204.103-37z" fill="url(#paint10_radial_152_25803)"/><path d="M505.612 19.28L326.986 197.918h-37.861L467.752 19.28h37.86z" fill="url(#paint11_radial_152_25803)"/><path opacity=".2" d="M509.311 129.264l-221.24 221.25h-24.439l221.239-221.25h24.44z" fill="url(#paint12_radial_152_25803)"/><path opacity=".2" d="M368.863 19.28L183.784 204.371h-13.476l185.079-185.09h13.476z" fill="url(#paint13_radial_152_25803)"/><path opacity=".2" d="M262.041 193.594L81 374.646V361.17l167.565-167.576h13.476z" fill="url(#paint14_radial_152_25803)"/><path opacity=".2" d="M901.11 455.57L788.702 567.989h-13.476L887.634 455.57h13.476z" fill="url(#paint15_radial_152_25803)"/><path opacity=".2" d="M834.914 346.739L613.675 568h-24.45l221.239-221.261h24.45z" fill="url(#paint16_radial_152_25803)"/><path d="M355.884 290L190.325 455.57h-62.136L293.737 290h62.147z" fill="url(#paint17_radial_152_25803)"/><path opacity=".2" d="M1009.35 43H1076L600.475 529H526l483.35-486z" fill="url(#paint18_radial_152_25803)"/><path opacity=".2" d="M551.354-312H618L142.475 174H68l483.354-486z" fill="url(#paint19_radial_152_25803)"/><path opacity=".47" d="M1158.6-25h32.4L767.023 413H728l430.6-438z" fill="url(#paint20_radial_152_25803)"/><path d="M1742.49-52.83v28.071L1243.02 474.71h-28.07l527.54-527.54z" fill="url(#paint21_radial_152_25803)"/><path d="M1143.71 474.72l-173.627-.582L1518.22-74h174.18l-548.69 548.72z" fill="url(#paint22_radial_152_25803)"/><path d="M946.622 819.72L773 819.138 1321.14 271h174.18L946.622 819.72z" fill="url(#paint23_radial_152_25803)"/><path d="M1585.81-74l-395.64 395.641-256.554-.582L1328.68-74h257.13z" fill="url(#paint24_radial_152_25803)"/><path opacity=".2" d="M1725.48-74l-548.71 548.72h-68.06L1657.42-74h68.06z" fill="url(#paint25_radial_152_25803)"/><path d="M1166.37 316.494h-70.39l232.28-232.28h70.39l-232.28 232.28z" fill="url(#paint26_radial_152_25803)"/><path d="M1452 416l-169.57 170H1207l169.56-170H1452z" fill="url(#paint27_radial_152_25803)"/><path d="M1687 342l-211.8 213H1381l211.78-213H1687z" fill="url(#paint28_radial_152_25803)"/><path d="M1481.36 397.889h-140.53l247.96-248.016h140.53l-247.96 248.016z" fill="url(#paint29_radial_152_25803)"/><path d="M1528.89 334.053h-66.52l207.24-207.237h66.5l-207.22 207.237z" fill="url(#paint30_radial_152_25803)"/><path d="M1513.29 743H1428l392.5-392.773h85.27L1513.29 743z" fill="url(#paint31_radial_152_25803)"/><path d="M267.287 816H182l265.727-266H533L267.287 816z" fill="url(#paint32_radial_152_25803)"/><path d="M1552.21 646H1499l165.8-166h53.2l-165.79 166z" fill="url(#paint33_radial_152_25803)"/><path d="M306.214 719H253l165.795-166H472L306.214 719z" fill="url(#paint34_radial_152_25803)"/><path d="M1919 53.77h90.95L1646.5 417.227h-90.96L1919 53.771z" fill="url(#paint35_radial_152_25803)"/><path d="M1293.94 7.209l-178.63 178.637h-37.86L1256.08 7.209h37.86z" fill="url(#paint36_radial_152_25803)"/><path opacity=".2" d="M1347.74 35.983l-221.24 221.25h-24.44l221.24-221.25h24.44z" fill="url(#paint37_radial_152_25803)"/><path opacity=".2" d="M1207.29-74l-185.08 185.09h-13.48L1193.81-74h13.48z" fill="url(#paint38_radial_152_25803)"/><path opacity=".2" d="M1100.47 100.314L919.427 281.366v-13.477l167.563-167.575h13.48z" fill="url(#paint39_radial_152_25803)"/><path opacity=".2" d="M1739.54 362.289l-112.41 112.42h-13.48l112.41-112.42h13.48z" fill="url(#paint40_radial_152_25803)"/><path opacity=".2" d="M1673.34 253.458L1452.1 474.719h-24.45l221.24-221.261h24.45z" fill="url(#paint41_radial_152_25803)"/><path d="M1256.09 129L972.136 412.967H910L1193.95 129h62.14z" fill="url(#paint42_radial_152_25803)"/><path opacity=".2" d="M1742.49 15.132v68.062l-309.47 309.472h-68.06l377.53-377.534z" fill="url(#paint43_radial_152_25803)"/><path opacity=".87" d="M1797.5 81.5h24.45l-186.94 186.967h-24.45L1797.5 81.5z" fill="url(#paint44_radial_152_25803)"/></g><defs><radialGradient id="paint0_radial_152_25803" cx="0" cy="0" r="1" gradientUnits="userSpaceOnUse" gradientTransform="matrix(564.934 0 0 931.266 819.712 6.791)"><stop stop-color="#2753C6" stop-opacity=".19"/><stop offset=".802" stop-color="#23459B" stop-opacity=".38"/></radialGradient><radialGradient id="paint1_radial_152_25803" cx="0" cy="0" r="1" gradientUnits="userSpaceOnUse" gradientTransform="matrix(714.646 0 0 894.928 687.614 36.316)"><stop stop-color="#2753C6" stop-opacity=".19"/><stop offset=".802" stop-color="#23459B" stop-opacity=".38"/></radialGradient><radialGradient id="paint2_radial_152_25803" cx="0" cy="0" r="1" gradientUnits="userSpaceOnUse" gradientTransform="matrix(494.02 0 0 493.99 623.631 19.573)"><stop stop-color="#2753C6" stop-opacity=".19"/><stop offset=".802" stop-color="#23459B" stop-opacity=".38"/></radialGradient><radialGradient id="paint3_radial_152_25803" cx="0" cy="0" r="1" gradientUnits="userSpaceOnUse" gradientTransform="matrix(610.218 0 0 894.928 718.236 55.597)"><stop stop-color="#2753C6" stop-opacity=".19"/><stop offset=".802" stop-color="#23459B" stop-opacity=".38"/></radialGradient><radialGradient id="paint4_radial_152_25803" cx="0" cy="0" r="1" gradientUnits="userSpaceOnUse" gradientTransform="matrix(299.452 0 0 378.833 477.377 192.868)"><stop stop-color="#2753C6" stop-opacity=".19"/><stop offset=".802" stop-color="#23459B" stop-opacity=".38"/></radialGradient><radialGradient id="paint5_radial_152_25803" cx="0" cy="0" r="1" gradientUnits="userSpaceOnUse" gradientTransform="matrix(226.174 0 0 258.038 793.032 423.471)"><stop stop-color="#2753C6" stop-opacity=".19"/><stop offset=".802" stop-color="#23459B" stop-opacity=".38"/></radialGradient><radialGradient id="paint6_radial_152_25803" cx="0" cy="0" r="1" gradientUnits="userSpaceOnUse" gradientTransform="matrix(329.462 0 0 347.39 697.855 351.097)"><stop stop-color="#2753C6" stop-opacity=".19"/><stop offset=".802" stop-color="#23459B" stop-opacity=".38"/></radialGradient><radialGradient id="paint7_radial_152_25803" cx="0" cy="0" r="1" gradientUnits="userSpaceOnUse" gradientTransform="matrix(270.831 0 0 337.99 822.762 233.813)"><stop stop-color="#2753C6" stop-opacity=".19"/><stop offset=".802" stop-color="#23459B" stop-opacity=".38"/></radialGradient><radialGradient id="paint8_radial_152_25803" cx="0" cy="0" r="1" gradientUnits="userSpaceOnUse" gradientTransform="matrix(344.303 0 0 381.64 940.749 335.487)"><stop stop-color="#2753C6" stop-opacity=".19"/><stop offset=".802" stop-color="#23459B" stop-opacity=".38"/></radialGradient><radialGradient id="paint9_radial_152_25803" cx="0" cy="0" r="1" gradientUnits="userSpaceOnUse" gradientTransform="matrix(344.303 0 0 381.64 133.749 144.487)"><stop stop-color="#2753C6" stop-opacity=".19"/><stop offset=".802" stop-color="#23459B" stop-opacity=".38"/></radialGradient><radialGradient id="paint10_radial_152_25803" cx="0" cy="0" r="1" gradientUnits="userSpaceOnUse" gradientTransform="matrix(344.303 0 0 381.64 222.749 -21.513)"><stop stop-color="#2753C6" stop-opacity=".19"/><stop offset=".802" stop-color="#23459B" stop-opacity=".38"/></radialGradient><radialGradient id="paint11_radial_152_25803" cx="0" cy="0" r="1" gradientUnits="userSpaceOnUse" gradientTransform="matrix(214.188 0 0 291.347 446.358 31.103)"><stop stop-color="#2753C6" stop-opacity=".19"/><stop offset=".802" stop-color="#23459B" stop-opacity=".38"/></radialGradient><radialGradient id="paint12_radial_152_25803" cx="0" cy="0" r="1" gradientUnits="userSpaceOnUse" gradientTransform="matrix(243.069 0 0 360.846 442.066 143.907)"><stop stop-color="#2753C6" stop-opacity=".19"/><stop offset=".802" stop-color="#23459B" stop-opacity=".38"/></radialGradient><radialGradient id="paint13_radial_152_25803" cx="0" cy="0" r="1" gradientUnits="userSpaceOnUse" gradientTransform="matrix(196.446 0 0 301.871 314.517 31.53)"><stop stop-color="#2753C6" stop-opacity=".19"/><stop offset=".802" stop-color="#23459B" stop-opacity=".38"/></radialGradient><radialGradient id="paint14_radial_152_25803" cx="0" cy="0" r="1" gradientUnits="userSpaceOnUse" gradientTransform="matrix(179.118 0 0 295.285 212.488 205.577)"><stop stop-color="#2753C6" stop-opacity=".19"/><stop offset=".802" stop-color="#23459B" stop-opacity=".38"/></radialGradient><radialGradient id="paint15_radial_152_25803" cx="0" cy="0" r="1" gradientUnits="userSpaceOnUse" gradientTransform="matrix(124.547 0 0 183.349 866.654 463.01)"><stop stop-color="#2753C6" stop-opacity=".19"/><stop offset=".802" stop-color="#23459B" stop-opacity=".38"/></radialGradient><radialGradient id="paint16_radial_152_25803" cx="0" cy="0" r="1" gradientUnits="userSpaceOnUse" gradientTransform="matrix(243.08 0 0 360.864 767.667 361.383)"><stop stop-color="#2753C6" stop-opacity=".19"/><stop offset=".802" stop-color="#23459B" stop-opacity=".38"/></radialGradient><radialGradient id="paint17_radial_152_25803" cx="0" cy="0" r="1" gradientUnits="userSpaceOnUse" gradientTransform="matrix(225.275 0 0 270.034 293.562 300.958)"><stop stop-color="#2753C6" stop-opacity=".19"/><stop offset=".802" stop-color="#23459B" stop-opacity=".38"/></radialGradient><radialGradient id="paint18_radial_152_25803" cx="0" cy="0" r="1" gradientUnits="userSpaceOnUse" gradientTransform="matrix(544.157 0 0 792.636 925.459 75.165)"><stop stop-color="#2753C6" stop-opacity=".19"/><stop offset=".802" stop-color="#23459B" stop-opacity=".38"/></radialGradient><radialGradient id="paint19_radial_152_25803" cx="0" cy="0" r="1" gradientUnits="userSpaceOnUse" gradientTransform="matrix(544.157 0 0 792.636 467.459 -279.835)"><stop stop-color="#2753C6" stop-opacity=".19"/><stop offset=".802" stop-color="#23459B" stop-opacity=".38"/></radialGradient><radialGradient id="paint20_radial_152_25803" cx="0" cy="0" r="1" gradientUnits="userSpaceOnUse" gradientTransform="matrix(458.081 0 0 714.351 1064.27 3.989)"><stop stop-color="#2753C6" stop-opacity=".19"/><stop offset=".802" stop-color="#23459B" stop-opacity=".38"/></radialGradient><radialGradient id="paint21_radial_152_25803" cx="0" cy="0" r="1" gradientUnits="userSpaceOnUse" gradientTransform="matrix(521.935 0 0 860.384 1598.1 -17.916)"><stop stop-color="#2753C6" stop-opacity=".19"/><stop offset=".802" stop-color="#23459B" stop-opacity=".38"/></radialGradient><radialGradient id="paint22_radial_152_25803" cx="0" cy="0" r="1" gradientUnits="userSpaceOnUse" gradientTransform="matrix(714.646 0 0 894.928 1494.7 -37.684)"><stop stop-color="#2753C6" stop-opacity=".19"/><stop offset=".802" stop-color="#23459B" stop-opacity=".38"/></radialGradient><radialGradient id="paint23_radial_152_25803" cx="0" cy="0" r="1" gradientUnits="userSpaceOnUse" gradientTransform="matrix(714.646 0 0 894.928 1297.61 307.317)"><stop stop-color="#2753C6" stop-opacity=".19"/><stop offset=".802" stop-color="#23459B" stop-opacity=".38"/></radialGradient><radialGradient id="paint24_radial_152_25803" cx="0" cy="0" r="1" gradientUnits="userSpaceOnUse" gradientTransform="translate(1407.3 -47.815) scale(645.266)"><stop stop-color="#2753C6" stop-opacity=".19"/><stop offset=".802" stop-color="#23459B" stop-opacity=".38"/></radialGradient><radialGradient id="paint25_radial_152_25803" cx="0" cy="0" r="1" gradientUnits="userSpaceOnUse" gradientTransform="matrix(610.218 0 0 894.928 1556.66 -37.684)"><stop stop-color="#2753C6" stop-opacity=".19"/><stop offset=".802" stop-color="#23459B" stop-opacity=".38"/></radialGradient><radialGradient id="paint26_radial_152_25803" cx="0" cy="0" r="1" gradientUnits="userSpaceOnUse" gradientTransform="matrix(299.452 0 0 378.833 1315.8 99.588)"><stop stop-color="#2753C6" stop-opacity=".19"/><stop offset=".802" stop-color="#23459B" stop-opacity=".38"/></radialGradient><radialGradient id="paint27_radial_152_25803" cx="0" cy="0" r="1" gradientUnits="userSpaceOnUse" gradientTransform="matrix(242.397 0 0 277.26 1384.94 427.251)"><stop stop-color="#2753C6" stop-opacity=".19"/><stop offset=".802" stop-color="#23459B" stop-opacity=".38"/></radialGradient><radialGradient id="paint28_radial_152_25803" cx="0" cy="0" r="1" gradientUnits="userSpaceOnUse" gradientTransform="matrix(302.749 0 0 347.39 1603.24 356.097)"><stop stop-color="#2753C6" stop-opacity=".19"/><stop offset=".802" stop-color="#23459B" stop-opacity=".38"/></radialGradient><radialGradient id="paint29_radial_152_25803" cx="0" cy="0" r="1" gradientUnits="userSpaceOnUse" gradientTransform="matrix(384.358 0 0 404.499 1622.99 166.288)"><stop stop-color="#2753C6" stop-opacity=".19"/><stop offset=".802" stop-color="#23459B" stop-opacity=".38"/></radialGradient><radialGradient id="paint30_radial_152_25803" cx="0" cy="0" r="1" gradientUnits="userSpaceOnUse" gradientTransform="matrix(270.831 0 0 337.99 1661.19 140.532)"><stop stop-color="#2753C6" stop-opacity=".19"/><stop offset=".802" stop-color="#23459B" stop-opacity=".38"/></radialGradient><radialGradient id="paint31_radial_152_25803" cx="0" cy="0" r="1" gradientUnits="userSpaceOnUse" gradientTransform="matrix(472.697 0 0 640.589 1775 376.222)"><stop stop-color="#2753C6" stop-opacity=".19"/><stop offset=".802" stop-color="#23459B" stop-opacity=".38"/></radialGradient><radialGradient id="paint32_radial_152_25803" cx="0" cy="0" r="1" gradientUnits="userSpaceOnUse" gradientTransform="matrix(347.271 0 0 433.83 436.928 567.605)"><stop stop-color="#2753C6" stop-opacity=".19"/><stop offset=".802" stop-color="#23459B" stop-opacity=".38"/></radialGradient><radialGradient id="paint33_radial_152_25803" cx="0" cy="0" r="1" gradientUnits="userSpaceOnUse" gradientTransform="matrix(216.673 0 0 270.736 1658.06 490.987)"><stop stop-color="#2753C6" stop-opacity=".19"/><stop offset=".802" stop-color="#23459B" stop-opacity=".38"/></radialGradient><radialGradient id="paint34_radial_152_25803" cx="0" cy="0" r="1" gradientUnits="userSpaceOnUse" gradientTransform="matrix(216.673 0 0 270.736 412.058 563.987)"><stop stop-color="#2753C6" stop-opacity=".19"/><stop offset=".802" stop-color="#23459B" stop-opacity=".38"/></radialGradient><radialGradient id="paint35_radial_152_25803" cx="0" cy="0" r="1" gradientUnits="userSpaceOnUse" gradientTransform="matrix(449.581 0 0 592.773 1885.58 77.826)"><stop stop-color="#2753C6" stop-opacity=".19"/><stop offset=".802" stop-color="#23459B" stop-opacity=".38"/></radialGradient><radialGradient id="paint36_radial_152_25803" cx="0" cy="0" r="1" gradientUnits="userSpaceOnUse" gradientTransform="matrix(214.188 0 0 291.347 1234.69 19.032)"><stop stop-color="#2753C6" stop-opacity=".19"/><stop offset=".802" stop-color="#23459B" stop-opacity=".38"/></radialGradient><radialGradient id="paint37_radial_152_25803" cx="0" cy="0" r="1" gradientUnits="userSpaceOnUse" gradientTransform="matrix(243.069 0 0 360.846 1280.49 50.626)"><stop stop-color="#2753C6" stop-opacity=".19"/><stop offset=".802" stop-color="#23459B" stop-opacity=".38"/></radialGradient><radialGradient id="paint38_radial_152_25803" cx="0" cy="0" r="1" gradientUnits="userSpaceOnUse" gradientTransform="matrix(196.446 0 0 301.871 1152.94 -61.75)"><stop stop-color="#2753C6" stop-opacity=".19"/><stop offset=".802" stop-color="#23459B" stop-opacity=".38"/></radialGradient><radialGradient id="paint39_radial_152_25803" cx="0" cy="0" r="1" gradientUnits="userSpaceOnUse" gradientTransform="matrix(179.118 0 0 295.285 1050.91 112.296)"><stop stop-color="#2753C6" stop-opacity=".19"/><stop offset=".802" stop-color="#23459B" stop-opacity=".38"/></radialGradient><radialGradient id="paint40_radial_152_25803" cx="0" cy="0" r="1" gradientUnits="userSpaceOnUse" gradientTransform="matrix(124.547 0 0 183.349 1705.08 369.73)"><stop stop-color="#2753C6" stop-opacity=".19"/><stop offset=".802" stop-color="#23459B" stop-opacity=".38"/></radialGradient><radialGradient id="paint41_radial_152_25803" cx="0" cy="0" r="1" gradientUnits="userSpaceOnUse" gradientTransform="matrix(243.08 0 0 360.864 1606.09 268.102)"><stop stop-color="#2753C6" stop-opacity=".19"/><stop offset=".802" stop-color="#23459B" stop-opacity=".38"/></radialGradient><radialGradient id="paint42_radial_152_25803" cx="0" cy="0" r="1" gradientUnits="userSpaceOnUse" gradientTransform="matrix(342.415 0 0 463.134 1161.36 147.794)"><stop stop-color="#2753C6" stop-opacity=".19"/><stop offset=".802" stop-color="#23459B" stop-opacity=".38"/></radialGradient><radialGradient id="paint43_radial_152_25803" cx="0" cy="0" r="1" gradientUnits="userSpaceOnUse" gradientTransform="matrix(373.522 0 0 615.734 1639.15 40.119)"><stop stop-color="#2753C6" stop-opacity=".19"/><stop offset=".802" stop-color="#23459B" stop-opacity=".38"/></radialGradient><radialGradient id="paint44_radial_152_25803" cx="0" cy="0" r="1" gradientUnits="userSpaceOnUse" gradientTransform="matrix(209.15 0 0 304.932 1764.09 93.874)"><stop stop-color="#2753C6" stop-opacity=".19"/><stop offset=".802" stop-color="#23459B" stop-opacity=".38"/></radialGradient></defs></svg>