<svg width="225" height="200" viewBox="0 0 225 200" fill="none" xmlns="http://www.w3.org/2000/svg"><path d="M111.458 187.952c56.727 0 102.715 2.697 102.715 6.024S168.185 200 111.458 200c-56.728 0-102.715-2.697-102.715-6.024s45.987-6.024 102.715-6.024z" fill="#F5F5F5"/><path d="M3.02 7.112a2.899 2.899 0 0 0-2.888 2.906v144.444a2.899 2.899 0 0 0 2.887 2.906H105.31a2.904 2.904 0 0 0 2.893-2.906V10.018a2.905 2.905 0 0 0-2.893-2.906H3.02zm102.29 150.389H3.02A3.031 3.031 0 0 1 0 154.462V10.018a3.031 3.031 0 0 1 3.02-3.012h102.29a3.031 3.031 0 0 1 3.025 3.038v144.418a3.032 3.032 0 0 1-3.025 3.039M117.606 7.112a2.905 2.905 0 0 0-2.893 2.906v144.444a2.904 2.904 0 0 0 2.893 2.906h102.296a2.904 2.904 0 0 0 2.892-2.906V10.018a2.904 2.904 0 0 0-2.892-2.906H117.606zm102.296 150.389H117.606a3.039 3.039 0 0 1-3.026-3.039V10.018a3.038 3.038 0 0 1 3.026-3.012h102.296c1.656.006 3 1.348 3.014 3.012v144.444a3.032 3.032 0 0 1-3.014 3.039" fill="#E7E7E7"/><path d="M7.514 184.471h21.831v.133H7.516v-.133zM51.95 183.407h21.895v.133H51.95v-.133zM97.038 183.407h5.297v.133h-5.297v-.133zM24.885 187.952h24.501v.133H24.885v-.133zM122.689 184.402h11.442v.133h-11.442v-.133zM138.846 184.402h14.796v.133h-14.796v-.133zM191.922 186.653H225v.133h-33.078v-.133z" fill="#E1E1E1"/><path d="M172.29 36.539h25.221v17.705H172.29V36.539z" fill="#E7E7E7"/><path d="M183.663 54.244H172.29V36.539h11.373v17.705z" fill="#F0F0F0"/><path opacity=".4" d="M177.968 38.938a3.764 3.764 0 0 1 3.756 3.773 3.764 3.764 0 0 1-3.756 3.773 3.765 3.765 0 0 1-3.756-3.773 3.765 3.765 0 0 1 3.756-3.773z" fill="#E1E1E1"/><path d="M179.8 50.072c0 1.017-.82 1.841-1.833 1.841a1.837 1.837 0 0 1-1.833-1.841c0-1.017.821-1.842 1.833-1.842 1.013 0 1.833.825 1.833 1.842z" fill="#E1E1E1"/><path d="M179.009 42.967c0 .593-.478 1.074-1.069 1.074-.59 0-1.068-.48-1.068-1.074 0-.593.478-1.073 1.068-1.073.591 0 1.069.48 1.069 1.073z" fill="#FAFAFA"/><path d="M143.665 54.25h-10.907V30.198h10.907V54.25z" fill="#F0F0F0"/><path d="M157.839 54.25h-14.471V30.198h14.471V54.25z" fill="#E7E7E7"/><path d="M138.172 37.835c.834 0 1.511.68 1.511 1.518 0 .837-.677 1.517-1.511 1.517-.834 0-1.511-.68-1.511-1.517 0-.839.677-1.518 1.511-1.518zM138.172 35.467c.417 0 .755.34.755.759a.757.757 0 0 1-.755.759.756.756 0 0 1-.755-.76c0-.419.337-.758.755-.758zM138.172 33.167c.417 0 .755.34.755.76a.757.757 0 0 1-.755.758.757.757 0 0 1-.755-.759c0-.42.338-.759.755-.759z" fill="#fff"/><path d="M157.585 44.069h-24.583v-.38h24.583v.38zM157.585 46.202h-24.583v-.38h24.583v.38zM157.585 48.336h-24.583v-.38h24.583v.38zM157.585 50.47h-24.583v-.379h24.583v.38zM157.585 52.604h-24.583v-.38h24.583v.38zM138.432 45.381h-1.039v-1.043h1.039v1.043zM138.432 47.625h-1.039v-1.043h1.039v1.043zM138.432 49.648h-1.039v-1.044h1.039v1.044zM138.432 51.83h-1.039v-1.044h1.039v1.043zM138.432 53.949h-1.039v-1.043h1.039v1.043zM111.918 77.935h-.529V57.551c0-2.287 1.852-4.149 4.13-4.149h17.484v.532h-17.484c-1.985 0-3.601 1.623-3.601 3.617v20.384z" fill="#E1E1E1"/><path d="M110.859 77.966h-.53V57.403c0-2.776 2.248-5.034 5.011-5.034h17.663v.532H115.34c-2.471 0-4.481 2.02-4.481 4.502v20.563z" fill="#E1E1E1"/><path d="M52.85 26.84H36.265v17.737h16.587V26.841z" fill="#E7E7E7"/><path d="M52.85 44.578h4.25V26.841h-4.25v17.737z" fill="#F5F5F5"/><path d="M44.375 24.106h-12.46v20.472h12.46V24.106z" fill="#E7E7E7"/><path d="M44.37 44.578h3.602V24.106h-3.603v20.472z" fill="#F5F5F5"/><path d="M40.704 26.84H30.199v17.737h10.505V26.841z" fill="#ECECEC"/><path d="M40.703 44.578h2.4V26.841h-2.4v17.737z" fill="#F5F5F5"/><path d="M32.106 29.843h-13.78v14.735h13.78V29.843z" fill="#E7E7E7"/><path d="M32.106 44.578h3.528V29.843h-3.528v14.735z" fill="#F5F5F5"/><path d="M25.066 27.57H14.715v17.008h10.35V27.57z" fill="#E7E7E7"/><path d="M25.06 44.578h2.993V27.57H25.06v17.008z" fill="#F5F5F5"/><path d="M22.014 29.843H11.959v14.735h10.055V29.843z" fill="#E7E7E7"/><path d="M22.02 44.578h1.992V29.843H22.02v14.735z" fill="#F0F0F0"/><path d="M.208 49.701H108.28v-5.133H.209V49.7z" fill="#E7E7E7"/><path d="M19.601 49.823h5.98l-4.356 6.605h-1.624v-6.605z" fill="#E1E1E1"/><path d="M18.74 49.824h.862v6.605h-.862v-6.605zM86.726 49.823h5.978l-4.355 6.605h-1.623v-6.605z" fill="#E1E1E1"/><path d="M85.864 49.824h.862v6.605h-.862v-6.605z" fill="#E1E1E1"/><path d="M222.831 59.383H114.76V54.25h108.071v5.133z" fill="#E7E7E7"/><path d="M203.438 66.11h-1.624l-4.355-6.606h5.979v6.606zM204.299 66.11h-.861v-6.605h.861v6.605zM136.313 66.11h-1.624l-4.355-6.606h5.979v6.606zM137.175 66.11h-.862v-6.605h.862v6.605z" fill="#E1E1E1"/><path d="M75.904 38.416c-2.215 0-4.008-1.804-4.008-4.029 0-2.224 1.793-4.029 4.008-4.029 2.214 0 4.01 1.805 4.01 4.03 0 2.224-1.796 4.028-4.01 4.028zm7.715-4.184c0-.783-.115-1.54-.332-2.25l1.965-1.737-1.236-2.153-2.48.843a7.7 7.7 0 0 0-3.88-2.252l-.515-2.578h-2.475l-.513 2.578a7.708 7.708 0 0 0-3.881 2.252l-2.48-.843-1.237 2.153 1.965 1.737a7.763 7.763 0 0 0-.331 2.25c0 .784.116 1.539.331 2.251l-1.965 1.735 1.237 2.153 2.48-.842a7.729 7.729 0 0 0 3.88 2.254l.514 2.576h2.475l.515-2.576a7.722 7.722 0 0 0 3.88-2.254l2.48.842 1.236-2.153-1.965-1.735a7.722 7.722 0 0 0 .332-2.251M94.102 40.547a2.633 2.633 0 0 1-3.63-.878 2.66 2.66 0 0 1 .873-3.647 2.634 2.634 0 0 1 3.63.877 2.66 2.66 0 0 1-.873 3.648zm2.9-5.014a5.048 5.048 0 0 0-.956-1.15l.51-1.653-1.432-.781-1.104 1.33a5.058 5.058 0 0 0-2.95.074l-1.17-1.27-1.39.855.594 1.625a5.11 5.11 0 0 0-1.409 2.605l-1.681.383.042 1.637 1.698.296a5.127 5.127 0 0 0 1.54 2.528l-.509 1.653 1.431.782 1.105-1.33a5.06 5.06 0 0 0 2.95-.075l1.17 1.27 1.39-.855-.593-1.624a5.112 5.112 0 0 0 1.407-2.606l1.681-.383-.042-1.636-1.697-.296a5.07 5.07 0 0 0-.584-1.379z" fill="#F0F0F0"/><path d="M183.156 6.646c-13.034-9.827-32.32-7.23-47.753-1.973-15.433 5.257-28.785 16.44-36.708 30.744-4.636 8.371-7.58 17.891-14.1 24.882-10.02 10.744-28.024 12.748-40.142 4.468-6.339-4.33-12.424-11.404-19.946-9.919-4.26.841-7.562 4.478-9.118 8.55-1.556 4.07-1.638 8.545-1.498 12.903.383 11.905 2.32 23.882 7.03 34.813 4.708 10.931 12.33 20.793 22.473 26.962 12.022 7.312 27.018 8.988 40.716 5.83 13.698-3.159 26.109-10.896 36.06-20.867 7.85-7.864 14.237-17.068 21.723-25.282 7.485-8.216 16.456-15.63 27.192-18.406 7.623-1.971 15.656-1.483 23.432-2.712 7.775-1.23 15.943-4.807 19.291-11.964 2.918-6.238 1.467-13.626-.813-20.127-5.611-15.994-14.338-27.722-27.839-37.902z" fill="#BADBFF"/><path opacity=".8" d="M183.156 6.646c-13.034-9.827-32.319-7.231-47.753-1.974-15.433 5.257-28.784 16.44-36.707 30.745-4.637 8.37-7.58 17.89-14.1 24.882-10.02 10.744-28.025 12.748-40.143 4.468-6.338-4.33-12.424-11.404-19.946-9.92-4.259.842-7.561 4.479-9.118 8.55-1.556 4.07-1.638 8.546-1.498 12.904.383 11.905 2.32 23.881 7.03 34.812 4.708 10.932 12.33 20.793 22.473 26.963 12.023 7.312 27.018 8.988 40.716 5.829s26.109-10.896 36.06-20.866c7.85-7.864 14.238-17.068 21.723-25.283 7.486-8.215 16.457-15.63 27.193-18.406 7.622-1.97 15.655-1.482 23.431-2.712 7.776-1.23 15.943-4.807 19.291-11.963 2.918-6.238 1.467-13.627-.813-20.127-5.61-15.994-14.338-27.723-27.839-37.902z" fill="#BADBFF"/><path d="M3.684 121.096h215.939v2.73H3.684v-2.73z" fill="#3A8BE1"/><path d="M16.546 123.056v65.104h1.685l2.119-65.104h-3.804zM36.433 125.184V185.5h1.685l2.12-60.316h-3.805z" fill="#3A8BE1"/><path opacity=".5" d="M36.433 125.186v60.315h1.685l2.12-60.315h-3.805z" fill="#000"/><path d="M207.526 123.056v65.104h-1.68l-2.124-65.104h3.804zM187.645 125.184V185.5h-1.685l-2.119-60.316h3.804z" fill="#3A8BE1"/><path opacity=".5" d="M187.646 125.186v60.315h-1.685l-2.12-60.315h3.805z" fill="#000"/><path d="M211.368 126.748H12.573l-4.397-2.921h207.589l-4.397 2.921z" fill="#3A8BE1"/><path opacity=".5" d="M211.367 126.747H12.572l-4.397-2.92h207.589l-4.397 2.92z" fill="#000"/><path d="M18.936 112.729c0-.146.118-.264.263-.264h.886v3.498c0 .048.005.095.006.142l-1.078-1.083a.267.267 0 0 1-.077-.187v-2.106zm-1.06 0v2.106c0 .354.138.688.387.94l1.682 1.688c.154.155.341.261.544.324a4.309 4.309 0 0 0 3.91 2.51h.629c2.383 0 4.315-1.94 4.315-4.334v-4.965h-9.258v.402h-.886c-.73 0-1.323.596-1.323 1.329z" fill="#3A8BE1"/><path opacity=".5" d="M18.936 112.729c0-.146.119-.264.264-.264h.885v3.498c0 .048.005.095.007.142l-1.078-1.083a.267.267 0 0 1-.078-.187v-2.106zm-1.06 0v2.106c0 .354.139.688.388.94l1.681 1.688c.154.155.342.261.545.324a4.309 4.309 0 0 0 3.91 2.51h.628c2.383 0 4.315-1.94 4.315-4.334v-4.965h-9.258v.402H19.2c-.73 0-1.323.596-1.323 1.329z" fill="#fff"/><path d="M31.54 121.008H18.222c-.866 0-1.568-.788-1.568-.788h16.454s-.702.788-1.568.788z" fill="#3A8BE1"/><path opacity=".5" d="M31.54 121.01H18.224c-.866 0-1.568-.787-1.568-.787h16.454s-.702.787-1.568.787z" fill="#fff"/><path d="M206.955 118.543v-5.588c1.536.227 2.598.438 2.372 1.981-.181 1.233-1.145 3.425-2.372 3.607zm3.761-4.022c-.07-2.112-1.671-2.63-3.761-2.868v-.771a.335.335 0 0 0-.34-.33h-7.22a.342.342 0 0 0-.354.329v10.064h7.914v-1.1c2.094-.236 3.697-3.208 3.761-5.324" fill="#3A8BE1"/><path opacity=".5" d="M206.955 118.543v-5.589c1.537.227 2.598.439 2.373 1.982-.182 1.232-1.146 3.425-2.373 3.607zm3.761-4.023c-.07-2.111-1.67-2.629-3.761-2.867v-.772a.334.334 0 0 0-.34-.329h-7.22a.342.342 0 0 0-.354.329v10.064h7.914v-1.101c2.095-.236 3.698-3.207 3.761-5.324" fill="#fff"/><path d="M114.58 120.864h-6.245v-12.746h6.245v12.746z" fill="#3A8BE1"/><path opacity=".5" d="M114.58 120.863h-6.245v-12.746h6.245v12.746z" fill="#fff"/><path d="M117.401 121.092h-11.834l2.886-2.552h6.061l2.887 2.552z" fill="#3A8BE1"/><path opacity=".5" d="M117.399 121.091h-11.833l2.886-2.552h6.061l2.886 2.552z" fill="#fff"/><path d="M143.418 116.966h-29.582l5.345 4.142h29.577l-5.34-4.142z" fill="#3A8BE1"/><path opacity=".4" d="M143.417 116.967h-29.582l5.346 4.142h29.576l-5.34-4.142z" fill="#fff"/><path d="M114.519 121.108l-.683-4.142 5.345 4.142h-4.662z" fill="#3A8BE1"/><path opacity=".5" d="M114.519 121.109l-.684-4.142 5.346 4.142h-4.662z" fill="#000"/><path d="M84.384 77.952h53.843c.564 0 1.021.459 1.021 1.026v33.166c0 .567-.457 1.027-1.021 1.027H84.384c-.563 0-1.021-.46-1.021-1.027V78.978c0-.567.458-1.026 1.021-1.026z" fill="#3A8BE1"/><path opacity=".5" d="M137.162 110.846H85.393V80.153h51.769v30.693z" fill="#000"/><path opacity=".4" d="M135.516 104.531h-26.123V86.465h26.123v18.066z" fill="#000"/><path d="M135.517 88.12h-26.123v-1.655h26.123v1.655z" fill="#3A8BE1"/><path d="M114.18 96.456l4.271 2.377c.214.12.357.229.427.324a.585.585 0 0 1 .106.36.664.664 0 0 1-.199.483.63.63 0 0 1-.463.203c-.115 0-.29-.065-.521-.193l-5.509-3.078a.545.545 0 0 1 0-.952l5.509-3.078c.231-.125.404-.187.515-.187.18 0 .336.067.469.2a.655.655 0 0 1 .199.478.587.587 0 0 1-.106.362c-.07.095-.213.202-.427.323l-4.271 2.378zM125.169 92.024l-4.225 9.149c-.108.228-.204.377-.29.446a.625.625 0 0 1-.405.136.64.64 0 0 1-.467-.195.598.598 0 0 1-.196-.439c0-.116.052-.286.154-.51l4.24-9.142c.107-.229.201-.377.282-.447a.643.643 0 0 1 .406-.135c.18 0 .334.063.463.19a.6.6 0 0 1 .193.437c0 .116-.052.286-.155.51zM130.483 96.456l-4.272-2.378c-.214-.12-.356-.228-.427-.323a.587.587 0 0 1-.106-.362c0-.185.067-.344.2-.478a.641.641 0 0 1 .468-.2c.112 0 .284.062.515.187l5.51 3.078a.545.545 0 0 1 0 .952l-5.51 3.078c-.231.128-.403.193-.515.193a.639.639 0 0 1-.473-.205.682.682 0 0 1-.195-.48c0-.146.035-.267.106-.361.071-.095.213-.203.427-.324l4.272-2.377zM89.284 84.762h-1.768v-1.776h1.768v1.776zM89.284 89.36h-1.768v-1.776h1.768v1.776zM89.284 93.96h-1.768v-1.776h1.768v1.776zM89.284 98.559h-1.768v-1.776h1.768v1.776zM89.284 103.157h-1.768v-1.776h1.768v1.776zM89.284 107.756h-1.768v-1.776h1.768v1.776zM98.014 83.917h-7.05v-.532h7.05v.532zM95.119 88.53h-2.511v-.533h2.51v.532zM106.048 93.701h-2.511v-.532h2.511v.532zM95.119 97.807h-2.511v-.532h2.51v.532zM98.74 97.807H96.23v-.532h2.511v.532zM102.645 93.701h-6.416v-.532h6.416v.532zM104.191 97.807h-4.224v-.532h4.224v.532zM102.463 107.666h-2.511v-.532h2.511v.532zM106.084 107.666h-2.511v-.532h2.511v.532zM108.714 107.666h-1.402v-.532h1.402v.532zM104.191 88.53h-7.814v-.533h7.814v.532zM98.74 102.61H96.23v-.533h2.511v.533zM101.031 102.61h-1.452v-.533h1.452v.533zM106.241 102.61h-4.1v-.533h4.1v.533z" fill="#fff"/><path d="M106.92 63.295c-.128 6.44-6.791 11.837-14.88 12.052A17.102 17.102 0 0 1 84.793 74c-.812 2.023-2.53 3.758-7.453 4.534 5.136-3.985 2.327-7.356 1.156-10.322-.596-1.24-.9-2.67-.883-4.14.13-6.443 6.791-11.837 14.88-12.052 8.093-.233 14.557 4.836 14.427 11.276z" fill="#3A8BE1"/><path d="M92.44 57.085h-7.05v-.532h7.05v.532zM89.543 61.697h-2.511v-.532h2.511v.532zM100.473 66.868h-2.511v-.532h2.511v.532zM89.543 70.974h-2.511v-.532h2.511v.532zM93.165 70.974h-2.511v-.532h2.51v.532zM97.07 66.868h-6.416v-.532h6.416v.532zM98.616 70.974H94.39v-.532h4.225v.532zM98.616 61.697h-7.814v-.532h7.814v.532z" fill="#fff"/><path d="M137.504 185.291l-3.862-1.161.901-9.509 3.862 1.16-.901 9.51z" fill="#FFCEA9"/><path opacity=".2" d="M138.722 173.632l-3.862-1.154-.503 5.327 3.904.729.461-4.902z" fill="#000"/><path d="M160.363 126.556s-26.557 2.251-25.905 13.836c.534 9.484 1.933 6.907-.816 35.105l6.681.37s6.796-23.065 5.88-32.229c7.485 0 24.623.66 27.112-6.125a30.27 30.27 0 0 0 1.775-10.749l-14.727-.208z" fill="#3A8BE1"/><path d="M141.386 177.166l-8.731-1.501.143-3.879 9.038 2.017-.45 3.363zM133.245 182.535l4.46.886c.158.023.271.19.255.377l-.371 4.237c-.068.456-.429.765-.816.697-1.547-.339-2.278-.591-4.238-.98-1.208-.239-3.968-.824-5.647-1.013-1.68-.188-1.478-2.161-.753-2.262 3.264-.433 5.118-.961 6.384-1.785a.989.989 0 0 1 .726-.157z" fill="#1A2E35"/><path d="M132.097 183.159c-.737 0-1.256-.085-1.41-.303a.336.336 0 0 1 0-.341.171.171 0 0 1 .122-.117c.27-.058.874.389 1.288.761zm-.853.144c.35.047.706.058 1.059.032a.084.084 0 0 0 .079-.059.101.101 0 0 0 0-.101c-.111-.112-1.112-1.064-1.626-.958a.336.336 0 0 0-.26.224.536.536 0 0 0 .032.532c.19.194.445.311.716.33" fill="#3A8BE1"/><path d="M132.034 181.627a.28.28 0 0 1 .185.117c.156.42.172.879.047 1.309a1.915 1.915 0 0 1-.476-1.325c0-.053.058-.112.195-.106l.049.005zm.275 1.708h.043a.106.106 0 0 0 .063-.069c0-.048.292-1.182-.047-1.634a.453.453 0 0 0-.372-.197.356.356 0 0 0-.381.224c-.165.42.291 1.352.647 1.655a.064.064 0 0 0 .047.021z" fill="#3A8BE1"/><path d="M120.287 186.769l-3.676-1.66 2.542-9.11 3.677 1.66-2.543 9.11z" fill="#FFCEA9"/><path opacity=".2" d="M123.45 175.317l-3.675-1.66-1.309 4.699 3.676 1.66 1.308-4.699z" fill="#000"/><path d="M152.459 126.555c-.174 0-29.772 3.06-29.809 13.144-.064 16.679-4.805 35.797-4.805 35.797l5.849 2.911s10.187-20.726 10.033-33.726c8.143-2.348 29.206 1.596 31.696-5.184 2.039-5.545.937-12.942.937-12.942h-13.901z" fill="#3A8BE1"/><path d="M124.63 179.252l-7.841-3.543.631-3.226 8.269 2.869-1.059 3.9zM116.976 182.049l4.471.933c.155.028.265.211.249.414l-.349 4.658c-.06.505-.423.852-.81.774l-.001-.001c-1.547-.359-2.278-.635-4.238-1.043-1.208-.248-4.498-1.05-6.156-1.485-1.658-.436-1.287-2.557-.53-2.571 3.28-.049 5.404-.587 6.665-1.507a.892.892 0 0 1 .699-.172z" fill="#1A2E35"/><path d="M115.738 182.433c-.575.454-1.058.674-1.311.596a.34.34 0 0 1-.202-.28.158.158 0 0 1 .033-.162c.189-.191.931-.207 1.48-.154zm-.598.621a5.03 5.03 0 0 0 .873-.604.099.099 0 0 0 .031-.102.09.09 0 0 0-.078-.062c-.155-.024-1.522-.203-1.877.194a.358.358 0 0 0-.072.335c.031.188.16.345.338.412.274.043.554-.019.785-.173z" fill="#3A8BE1"/><path d="M114.781 181.237a.27.27 0 0 1 .219-.022c.374.248.66.607.817 1.028a1.892 1.892 0 0 1-1.17-.784c-.031-.042-.018-.124.096-.201l.038-.021zm1.231 1.212l.039-.027a.081.081 0 0 0 .009-.087c-.028-.039-.463-1.129-1.002-1.294a.459.459 0 0 0-.412.064.362.362 0 0 0-.174.41c.113.438 1.027.914 1.497.946.015 0 .03-.004.043-.012z" fill="#3A8BE1"/><path d="M162.514 94.38c.779 1.682 1.42 3.3 2.061 4.981a77.25 77.25 0 0 1 1.732 5.088c.524 1.724.98 3.491 1.346 5.321.399 1.902.597 3.841.593 5.785a11.97 11.97 0 0 1-.503 3.368 7.616 7.616 0 0 1-.885 1.895 6.008 6.008 0 0 1-.758.926l-.227.223c-.128.107-.265.224-.398.314a4.102 4.102 0 0 1-.71.394 5.47 5.47 0 0 1-1.144.367 7.391 7.391 0 0 1-.938.139c-.537.034-1.077.034-1.615 0a22.53 22.53 0 0 1-2.85-.32 53.862 53.862 0 0 1-10.283-2.958l.768-2.933c3.364.405 6.797.836 10.034.985.805 0 1.589.037 2.32 0 .326-.017.65-.059.97-.122.264-.048.492-.144.413-.139a.596.596 0 0 0-.149.075.937.937 0 0 0-.148.111s.027-.042.048-.09c.069-.152.122-.311.159-.474a7.517 7.517 0 0 0 .143-1.777 23.608 23.608 0 0 0-.673-4.518c-.36-1.597-.826-3.151-1.335-4.731a92.633 92.633 0 0 0-1.663-4.736 156.298 156.298 0 0 0-1.865-4.64l5.557-2.534z" fill="#FFCEA9"/><path d="M150.165 117.769l-3.512-1.985-1.765 3.821s4.106 1.719 4.97.644l.307-2.48zM143.807 116.507l-1.604 2.554 2.685.517 1.764-3.821-2.845.75z" fill="#FFCEA9"/><path d="M154.324 97.415a115.022 115.022 0 0 1-2.119 4.965 193.248 193.248 0 0 1-2.268 4.88 93.789 93.789 0 0 1-5.297 9.579c-.53.787-1.06 1.57-1.653 2.352-.297.394-.625.782-.975 1.181-.19.203-.344.389-.567.596l-.317.309-.181.17a4.476 4.476 0 0 1-1.737.926 7.52 7.52 0 0 1-1.028.219c-.566.068-1.136.092-1.706.069a22.087 22.087 0 0 1-2.935-.293 53.695 53.695 0 0 1-10.499-2.991l.773-2.937c3.428.415 6.929.857 10.224.995.778.03 1.556.02 2.331-.032.313-.025.623-.075.927-.149.1-.023.196-.059.287-.107.031 0 0-.037-.144.054a.736.736 0 0 0-.143.106s.038-.048.053-.064l.149-.165c.095-.095.212-.255.323-.383.217-.277.44-.575.662-.899.44-.633.869-1.336 1.293-2.049.847-1.426 1.637-2.943 2.41-4.475a157.349 157.349 0 0 0 2.246-4.673c1.457-3.14 2.882-6.36 4.238-9.526l5.653 2.342z" fill="#FFCEA9"/><path d="M125.32 117.205l-3.518-2.011-1.764 3.821s4.106 1.724 4.975.649l.307-2.459z" fill="#FFCEA9"/><path d="M118.963 115.951l-1.611 2.549 2.686.516 1.764-3.821-2.839.756zM163.42 78.534l-2.246 2.613-3.428 3.562c.07.175.165.403.262.645.264.656.42 1.354.457 2.06.075 1.429-.061 2.636-2.303 3.604 0 0-2.352 3.087 3.242 2.23 5.594-.857 6.437-3.773 6.437-3.773-2.479-1.772-2.617-7.663-2.421-10.941z" fill="#FFCEA9"/><path d="M152.015 75.586c0 .351-.175.65-.409.66-.233.01-.418-.266-.423-.617-.006-.352.18-.65.407-.66.228-.011.419.266.425.617zM153.184 74.276a.2.2 0 0 1-.169-.096 1.72 1.72 0 0 0-1.282-.82.212.212 0 0 1-.201-.213.207.207 0 0 1 .211-.202c.67.06 1.272.435 1.622 1.011a.215.215 0 0 1-.064.288.23.23 0 0 1-.117.032z" fill="#1A2E35"/><path d="M151.887 75.783a11.296 11.296 0 0 1-1.219 2.725c.441.25.969.288 1.442.106l-.223-2.831z" fill="#FFCEA9"/><path d="M163.738 73.813c-.207 4.343-.112 6.918-2.257 9.217a5.613 5.613 0 0 1-7.954.388 5.657 5.657 0 0 1-1.698-2.894c-.975-3.848-.466-10.303 3.709-12.24 2.815-1.401 6.228-.244 7.623 2.584.45.913.649 1.93.577 2.945z" fill="#FFCEA9"/><path d="M165.699 75.262a16.107 16.107 0 0 1-2.808 5.055l-5.626 1.065s-4.445-1.868-3.257-4.944c-.753-.639-.472-2.613.057-3.698.848.68 2.242.74 3.004-.08.615 1.133 2.459 1.293 3.258.271.917 1.022 2.871.708 3.422-.553.679.447 1.653.383 2.268-.15.026-.026.053-.047.079-.074.09.777 0 1.794-.397 3.108z" fill="#1A2E35"/><path opacity=".1" d="M165.7 75.263a16.128 16.128 0 0 1-2.808 5.055l-5.626 1.065s-4.445-1.868-3.258-4.944c-.752-.639-.472-2.613.058-3.698.848.68 2.242.74 3.004-.08.614 1.133 2.458 1.293 3.258.271.917 1.022 2.871.708 3.422-.553.679.447 1.653.383 2.268-.15.026-.026.052-.047.079-.074.09.777 0 1.793-.397 3.108z" fill="#fff"/><path d="M166.51 69.998a1.97 1.97 0 0 1-.414 2.155c-.026.027-.053.048-.079.075-.615.532-1.589.596-2.267.149-.551 1.26-2.506 1.575-3.423.553-.8 1.022-2.643.862-3.258-.271-.763.82-2.156.76-3.003.08a1.833 1.833 0 0 1-.604-.836 1.272 1.272 0 0 1-.149.144c-.514.425-1.324.49-1.886.111-.46-.308-.715-.883-.678-1.431.006-.117.027-.229.059-.34a.957.957 0 0 1-.159.218c-.461.494-1.436.516-1.886-.048-.562-.698-.244-1.858.524-2.32.307-.182.647-.267.996-.267.541 0 1.091.197 1.521.527-.461-.665-.297-1.681.349-2.166.646-.479 1.664-.346 2.162.288-.069-.756.18-1.208.566-1.443.732-.425 1.95-.058 2.543.655 0 0 .816-1.98 2.225-1.756.308.042 1.754.686 1.717 1.208 0 .037-.01.069-.027.101a.875.875 0 0 1 .069-.117c.276-.436.832-.655 1.356-.644.567.005 1.108.224 1.632.436 1.096.453 2.262.958 2.898 1.964.63 1.011.355 2.656-.784 2.975z" fill="#1A2E35"/><path d="M156.49 76.842a5.1 5.1 0 0 1-1.398 2.841c-.959.921-1.775 0-1.785-1.4 0-1.266.471-3.272 1.589-3.644 1.118-.373 1.801.825 1.594 2.203z" fill="#FFCEA9"/><path d="M173.432 90.987c-.397-1.064-2.251-2.129-3.39-2.129h-.753c-1.314 0-2.951.107-4.54.293a80.613 80.613 0 0 0-9.006 1.522 39.85 39.85 0 0 0-3.734 1.213c-1.335.532-2.119.889-2.119.889s1.462 9.784 2.219 19.501c.421 5.408.247 10.779.382 14.472h22.599c.779-4.438.656-8.309.72-16.323.037-4.811-.741-15.058-2.378-19.438z" fill="#1A2E35"/><path opacity=".2" d="M151.621 106.846c.169 2.038.344 4.178.53 6.317 2.649-3.885 4.116-14.513 4.116-14.513l-4.646 8.196z" fill="#000"/><path d="M148.612 93.49c-3.236 1.831-6.409 11.199-6.409 11.199l7.411 5.618c2.829-2.688 6.966-9.356 7.417-12.022.726-4.092-3.232-7.71-8.419-4.795zM142.217 188.849a2.31 2.31 0 0 1-2.305 2.315 2.31 2.31 0 0 1-2.304-2.315 2.31 2.31 0 0 1 2.304-2.315 2.31 2.31 0 0 1 2.305 2.315zM176.593 188.849a2.31 2.31 0 0 0 2.304 2.315 2.31 2.31 0 0 0 2.305-2.315 2.31 2.31 0 0 0-2.305-2.315 2.31 2.31 0 0 0-2.304 2.315zM157.162 188.109a2.309 2.309 0 0 0 2.304 2.315 2.309 2.309 0 0 0 2.304-2.315 2.31 2.31 0 0 0-2.304-2.315 2.31 2.31 0 0 0-2.304 2.315zM158.751 185.252v-4.475h-6.601a20.933 20.933 0 0 0-3.862.362l-12.291 2.399a1.123 1.123 0 0 0 .249 2.225l22.505-.511z" fill="#1A2E35"/><path d="M158.75 185.252v-4.476h6.607c1.295.001 2.587.121 3.861.362l13.814 2.218c.606.119 1.002.709.883 1.317a1.118 1.118 0 0 1-1.132.908l-24.033-.329z" fill="#1A2E35"/><path d="M154.661 160.289h8.175v20.493h-8.175v-20.493zM155.837 150.752h5.827v9.531h-5.827v-9.531z" fill="#1A2E35"/><path opacity=".5" d="M155.837 153.553l5.827 1.474v-4.273h-5.827v2.799z" fill="#000"/><path d="M136.951 129.188h2.961v12.693h-2.961v-12.693z" fill="#1A2E35"/><path d="M154.759 150.753V95.577a7.26 7.26 0 0 1 2.462-5.453l3.915-3.442a7.194 7.194 0 0 1 4.752-1.795h14.142l6.911 7.386v58.48h-32.182z" fill="#3A8BE1"/><path d="M133.704 140.077h32.262v10.675h-37.518c-2.106.002-3.815-1.712-3.817-3.828a3.847 3.847 0 0 1 .533-1.957 9.91 9.91 0 0 1 8.54-4.89z" fill="#3A8BE1"/><path opacity=".7" d="M186.944 92.276v58.48h-58.496a3.824 3.824 0 0 1-3.815-3.832c0-.686.181-1.362.53-1.952a9.9 9.9 0 0 1 8.524-4.892h16.25c2.664 0 4.824-2.169 4.824-4.845v-39.66a7.24 7.24 0 0 1 2.463-5.449l3.915-3.443a7.175 7.175 0 0 1 4.752-1.793h14.139l6.914 7.386z" fill="#fff"/><path d="M159.466 150.753V95.577c0-2.09.898-4.077 2.462-5.453l3.915-3.442a7.196 7.196 0 0 1 4.752-1.795h11.022c1.991 0 3.894.826 5.257 2.284l2.818 3.01a7.264 7.264 0 0 1 1.956 4.963v50.084c0 3.051-2.461 5.525-5.499 5.525h-26.683z" fill="#3A8BE1"/><path opacity=".5" d="M159.466 150.75V95.574c0-2.089.898-4.076 2.462-5.452l3.915-3.443a7.196 7.196 0 0 1 4.752-1.794h11.022c1.991 0 3.894.826 5.257 2.283l2.818 3.011a7.264 7.264 0 0 1 1.956 4.963v50.084c0 3.051-2.461 5.524-5.499 5.524h-26.683z" fill="#fff"/><path d="M148.49 133.062a30.404 30.404 0 0 0-20.131 0 2.856 2.856 0 0 1-3.544-1.357c-.604-1.283.206-2.943 1.849-3.523a35.478 35.478 0 0 1 23.51 0c1.642.574 2.453 2.24 1.849 3.523a2.861 2.861 0 0 1-3.533 1.357z" fill="#3A8BE1"/><path opacity=".7" d="M148.49 133.065a30.404 30.404 0 0 0-20.131 0 2.857 2.857 0 0 1-3.544-1.357c-.604-1.283.207-2.943 1.849-3.523a35.481 35.481 0 0 1 23.511 0c1.641.574 2.452 2.24 1.848 3.523a2.861 2.861 0 0 1-3.533 1.357z" fill="#fff"/><path d="M66.16 80.267c-.112.314-.033.628.174.697.207.07.461-.123.567-.436.107-.314.032-.634-.169-.703-.202-.07-.461.123-.573.442z" fill="#1A2E35"/><path d="M66.101 80.592a12.02 12.02 0 0 0 .567 3.225c-.54.156-1.12.066-1.59-.245l1.023-2.98z" fill="#FBCDAA"/><path d="M65.65 78.129a.19.19 0 0 0 .122 0c.471-.158.99-.079 1.393.213.088.064.21.044.274-.044a.198.198 0 0 0-.02-.254 1.936 1.936 0 0 0-1.758-.293.197.197 0 0 0 0 .373l-.01.005z" fill="#1A2E35"/><path d="M54.541 81.427c.594 3.028 1.182 8.579-.927 10.6 0 0 .827 3.071 6.432 3.071 6.161 0 2.945-3.07 2.945-3.07-3.363-.81-2.822-3.316-2.234-5.668l-6.215-4.933z" fill="#FFCEA9"/><path d="M55.913 75.935c-1.101 3.96-1.95 6.221-.688 8.887 1.891 4.018 8.5 4.539 10.303-.06 1.372-4.234 2.73-8.71-.513-11.567a5.566 5.566 0 0 0-7.883.468 5.622 5.622 0 0 0-1.219 2.272z" fill="#FFCEA9"/><path d="M51.642 77.252c-.287-1.458-.36-3.054.363-4.35.726-1.297 2.482-2.09 3.756-1.335 1.1-2.332 3.762-3.814 6.313-3.518 2.55.296 4.805 2.35 5.346 4.871.543 2.522-.667 5.326-2.87 6.653.295-1.088.59-2.176.883-3.264a6.347 6.347 0 0 1-2.258 3.857l.511-3.264a5.005 5.005 0 0 1-2.405 3.754l.617-2.287c-.09.336-.914 2.73-1.195 3.06-.52.608-.868 4.61-2.694 4.735-6.24 1.256-5.697-5.505-6.367-8.912z" fill="#1A2E35"/><path d="M60.07 79.149a4.701 4.701 0 0 0 .648 2.91c.704 1.14 1.737.703 2.119-.462.338-1.065.376-2.9-.605-3.64-.98-.74-2.013-.032-2.161 1.192zM45.139 117.505c-.675-.225-3.826-1.852-4.327-1.562 1.455-3.729 2.362-4.301 3.023-6.675.37-1.326.116-2.359-.704-3.463-.931-1.252-1.258-1.887-2.806-1.733-2.13 3.577-4.811 7.991-5.86 12.024-.354 1.357-.61 2.388.194 3.535.709 1.011 2.02 1.419 3.245 1.53 2.953.266 7.333-.279 7.278-2.04-.035-1.111-.043-1.616-.043-1.616z" fill="#FFCEA9"/><path d="M44.638 117.373l2.503-.817-.223 4.541s-2.004.072-3.071-1.275l.79-2.449zM50.267 116.486l-.359 3.744-2.99.867.224-4.54 3.125-.071zM78.937 120.596s-3.487-2.746-8.067-11.822a101.337 101.337 0 0 1-1.95-3.838 83.23 83.23 0 0 1-1.792-3.943l5.412-2.343c1.115 2.44 2.85 4.955 4.08 7.377 1.228 2.421 4.13 8.155 4.492 8.691.181.275.376.503.564.758l.28.374-3.492 4.054.473.692zM83.518 102.952l-1.085-1.299-.5-1.944 3.268-3.05s.792.978 1.344 2.031c.084.161.12.344.114.526l-.133 3.418-3.008.318z" fill="#FFCEA9"/><path d="M81.98 97.605l2.445-2.234.775 1.304-3.269 3.036.049-2.106zM83.566 102.002c.086-.366.161.351.4.063.724-.869 1.774-.964 2.398-.021.625.943.09 10.44-.908 13.415-.663 1.976-1.017 3.553-2.713 4.755-.7.498-1.524.873-2.383.859-.857-.013-1.743-.484-2.067-1.283-.504-1.241 1.366-5.711 2.035-7.153 2.096-4.519 2.234-6.346 3.238-10.635z" fill="#FFCEA9"/><path d="M76.554 101.594l4.331-.043c.617-.005 1.257-.017 1.812-.288.727-.355 1.186-1.1 1.48-1.857.612-1.578.663-3.308.906-4.983.243-1.676.745-3.424 2.007-4.547-2.3.307-6.366-.417-8.132 1.475-.936 1.004-2.58 10.244-2.404 10.243z" fill="#3A8BE1"/><path opacity=".5" d="M76.554 101.593l4.33-.042c.617-.006 1.258-.018 1.813-.289.726-.355 1.186-1.1 1.48-1.856.611-1.578.663-3.308.906-4.984.243-1.675.745-3.423 2.007-4.546-2.3.307-6.366-.418-8.132 1.475-.936 1.004-2.581 10.243-2.404 10.242z" fill="#fff"/><path d="M83.96 95.135c-.248.066-.412.959-.358 1.21l.243.437.495 2.157 1.652-.918-1.49-2.656a.48.48 0 0 0-.541-.23z" fill="#FFCEA9"/><path d="M46.63 92.789c-3.868.888-9.586 12.992-9.586 12.992l7.76 5.322c1.93-2.782 4.56-6.985 6.039-10.032 2.294-4.821-.261-9.192-4.213-8.282z" fill="#3A8BE1"/><path d="M52.28 93.081c-.445-.974-.927-2.086.074-2.432 1.107-.383 7.168-.777 9.254-.058a2.163 2.163 0 0 1 1.512 2.652l-.013.04-10.827-.202z" fill="#1A2E35"/><path opacity=".2" d="M49.02 99.779l-5.516 10.432 1.3.892s2.5-3.496 4.216-6.519v-4.805z" fill="#000"/><path d="M70.143 98.114c.836 4.248-1.117 14.35-1.097 30.851H46.993c-.146-3.335 2.27-11.231-.73-26.962-.098-.51-.142-9.125.367-9.215a57.411 57.411 0 0 1 6.455-.765 79.882 79.882 0 0 1 9.377 0c1.274.129 3.285.924 4.552 1.382 1.979.716 2.721 2.636 3.13 4.709z" fill="#3A8BE1"/><path opacity=".2" d="M64.307 102.342c.575 3.497 2.858 8.117 5.132 10.827.09-1.985.288-4.058.283-5.649l-5.415-5.178z" fill="#000"/><path d="M62.738 97.088c-.53 3.922 7.152 13.937 7.152 13.937l7.729-5.321s-2.146-5.519-5.754-9.137c-4.11-4.151-8.523-3.747-9.127.521z" fill="#3A8BE1"/><path d="M88 183.894h4.122l.938-9.595h-4.121L88 183.894z" fill="#FFCEA9"/><path opacity=".2" d="M92.998 174.885l-.477 4.944h-4.127l.482-4.944h4.122z" fill="#000"/><path d="M71.743 183.894h4.121l2.071-9.595h-4.121l-2.071 9.595z" fill="#FFCEA9"/><path opacity=".2" d="M73.725 174.811h4.121l-1.07 4.944h-4.121l1.07-4.944z" fill="#000"/><path d="M92.355 182.035h-4.497c-.171.001-.318.156-.355.372l-.816 4.739c-.077.418.123.838.445.936a.442.442 0 0 0 .148.021c1.621-.034 3.968-.158 6.008-.158 2.39 0 4.45.165 7.247.165 1.695 0 2.166-2.225 1.456-2.424-3.225-.916-5.858-1.013-8.645-3.251a1.617 1.617 0 0 0-.99-.4z" fill="#1A2E35"/><path d="M96.286 182.772a.643.643 0 0 1 .186 0c.08.015.15.066.19.138.07.122.048.181 0 .213-.19.271-1.234.277-2.002.165a4.387 4.387 0 0 1 1.626-.516zm-.656.803c.53 0 1.06-.074 1.213-.314a.38.38 0 0 0 0-.431.532.532 0 0 0-.308-.229c-.688-.186-2.119.639-2.187.676a.09.09 0 0 0-.048.101.1.1 0 0 0 .074.08c.414.076.834.115 1.256.117" fill="#3A8BE1"/><path d="M95.391 181.781h.058c.175 0 .186.091.191.112.048.282-.625.985-1.133 1.289.041-.469.227-.914.53-1.273.098-.084.224-.13.354-.128zm-1.006 1.677h.042c.498-.224 1.483-1.117 1.404-1.597 0-.111-.095-.245-.36-.276a.716.716 0 0 0-.53.17c-.53.431-.636 1.548-.642 1.596-.003.035.011.07.038.091.014.009.03.014.048.016" fill="#3A8BE1"/><path d="M76.155 182.035h-4.63c-.169.002-.315.157-.349.372l-.816 4.739c-.07.427.14.848.469.94.044.013.09.018.135.017 1.615-.034 2.405-.158 4.439-.158 1.255 0 2.86.165 4.593.165s1.955-2.225 1.246-2.424c-3.18-.903-3.397-2.15-4.413-3.341a.877.877 0 0 0-.674-.31z" fill="#1A2E35"/><path d="M79.106 183.315a.454.454 0 0 1 .117 0 .248.248 0 0 1 .18.128c.09.165.037.229 0 .256-.175.228-1.017.233-1.637.133a3.164 3.164 0 0 1 1.33-.517h.01zm-.53.787c.354.047.711-.051.991-.27.1-.139.1-.326 0-.463a.447.447 0 0 0-.307-.229c-.604-.144-1.743.638-1.79.67a.113.113 0 0 0-.043.101.096.096 0 0 0 .074.075 5.05 5.05 0 0 0 1.076.116z" fill="#3A8BE1"/><path d="M78.359 182.315h.042c.127 0 .139.075.144.101.052.271-.478.958-.901 1.283.028-.473.198-.926.487-1.299a.347.347 0 0 1 .228-.085zm-.831 1.676h.042c.429-.234 1.255-1.138 1.165-1.597a.318.318 0 0 0-.313-.26.53.53 0 0 0-.412.127c-.478.395-.578 1.597-.584 1.639 0 .037.018.071.048.091a.097.097 0 0 0 .054 0z" fill="#3A8BE1"/><path d="M62.435 128.97s19.52 8.095 23.558 14.32c-2.4 15.826-6.708 33.856-6.708 33.856h-7.341s-.201-10.026 1.9-23.287c1.06-19.344-33.596.67-26.862-24.889h15.453z" fill="#1A2E35"/><path opacity=".3" d="M75.931 142.311c-1.368.053-2.724.262-4.076.471l-4.279.662a64.593 64.593 0 0 0 6.97 5.119c1.477.939 3.084 1.844 4.832 1.852 1.957.009 7.276-2.526 6.394-5.146-.894-2.656-7.616-3.044-9.841-2.958z" fill="#000"/><path d="M69.046 128.97s18.045 2.337 27.992 8.028c3.062 1.752 2.634 7.378 2.554 11.082a87.887 87.887 0 0 1-5.626 29.066h-6.124s.313-10.042.107-26.245c-.064-4.859-9.827-6.461-19.369-7.025-8.241-.521-15.476-5.691-18.668-13.342l-.652-1.564h19.786z" fill="#1A2E35"/><path d="M95.465 175.498c.032 0-.397 2.911-.397 2.911h-8.476l-.233-2.597 9.106-.314zM79.996 175.498c.032 0-.779 2.911-.779 2.911h-8.476l.154-2.597 9.101-.314zM57.219 143.655l-6.073 44.971-1.098-.15 4.688-45.162 2.483.341z" fill="#3A8BE1"/><path opacity=".4" d="M57.002 145.264l-5.856 43.36-1.097-.15 4.486-43.216 2.467.006z" fill="#000"/><path d="M78.582 145.265H44.147c0-2.181 1.76-3.949 3.931-3.949h26.573c2.171 0 3.93 1.768 3.93 3.949z" fill="#3A8BE1"/><path opacity=".7" d="M78.581 145.266H44.147c0-2.181 1.76-3.949 3.93-3.949H74.65c2.172 0 3.931 1.768 3.931 3.949z" fill="#fff"/><path d="M45.742 145.26l-5.192 43.723h1.113l6.584-43.723h-2.505zM76.987 145.26l5.191 43.723h-1.112l-6.58-43.723h2.5z" fill="#3A8BE1"/><path opacity=".4" d="M76.988 145.26l5.191 43.722h-1.112l-6.58-43.722h2.5z" fill="#000"/><path d="M70.042 145.26l.1 43.723h-1.106l-1.5-43.723h2.506z" fill="#3A8BE1"/></svg>