<svg width="300" height="224" viewBox="0 0 300 224" fill="none" xmlns="http://www.w3.org/2000/svg"><g clip-path="url(#clip0_86_16381)"><path d="M275 196H23v1h252v-1zM269.94 206.124h-19.872v.15h19.872v-.15zM198.732 207.756h-5.214v.15h5.214v-.15zM249.468 200.556h-11.514v.15h11.514v-.15zM57.39 201.564H31.476v.15H57.39v-.15zM66.534 201.564h-3.798v.15h3.798v-.15zM135.09 204.096H78.882v.15h56.208v-.15zM142.206 169.71H26.352a3.429 3.429 0 0 1-3.426-3.426V3.426A3.429 3.429 0 0 1 26.352 0h115.86a3.429 3.429 0 0 1 3.426 3.426v162.858a3.438 3.438 0 0 1-3.432 3.426zM26.352.15a3.28 3.28 0 0 0-3.276 3.276v162.858a3.28 3.28 0 0 0 3.276 3.276h115.86a3.28 3.28 0 0 0 3.276-3.276V3.426A3.28 3.28 0 0 0 142.212.15H26.352zM271.986 169.71h-115.86a3.429 3.429 0 0 1-3.426-3.426V3.426A3.429 3.429 0 0 1 156.126 0h115.86a3.429 3.429 0 0 1 3.426 3.426v162.858a3.429 3.429 0 0 1-3.426 3.426zM156.126.15a3.28 3.28 0 0 0-3.276 3.276v162.858a3.28 3.28 0 0 0 3.276 3.276h115.86a3.28 3.28 0 0 0 3.276-3.276V3.426A3.28 3.28 0 0 0 271.986.15h-115.86z" fill="#EBEBEB"/><path d="M65.982 153.583v9.103l-3.847 2.795h17.95l-5.737-2.122v-9.142l-8.366-.634z" fill="#E0E0E0"/><path d="M34.268 165.224v28.675h80.134v-28.675H34.268zm78.691 11.225H50.237v-9.372h62.722v9.372z" fill="#E0E0E0"/><path d="M48.308 165.224v28.675h66.094v-28.675H48.308zm64.651 11.225H50.237v-9.372h62.722v9.372z" fill="#EBEBEB"/><path d="M112.959 167.083h-12.93v9.373h12.93v-9.373zM66.232 171.77H50.237v4.686h15.995v-4.686zM79.45 173.667H67.412v2.782h12.04v-2.782zM93.701 170.757H82.233v5.692H93.7v-5.692zM61.603 178.494l-.34 1.116h-4.602l-.346-1.116h-6.078v12.437h20.175v-12.437h-8.809zM85.58 178.494l-.347 1.116H80.63l-.346-1.116h-8.802v12.437h20.175v-12.437h-6.078zM104.093 178.494l-.34 1.116h-4.602l-.347-1.116h-6.077v12.437h20.174v-12.437h-8.808zM102.683 159.025H43.07a2.263 2.263 0 0 1-2.263-2.263v-34.226a2.263 2.263 0 0 1 2.263-2.263h59.613a2.263 2.263 0 0 1 2.263 2.263v34.226a2.263 2.263 0 0 1-2.263 2.263z" fill="#E0E0E0"/><path d="M104.189 159.025H44.577a2.263 2.263 0 0 1-2.263-2.263v-34.226a2.263 2.263 0 0 1 2.263-2.263h59.612a2.263 2.263 0 0 1 2.263 2.263v34.226a2.263 2.263 0 0 1-2.263 2.263z" fill="#E6E6E6"/><path d="M104.565 157.144v-34.989h-60.37v34.989h60.37z" fill="#F0F0F0"/><path d="M189.022 116.914h57.401c6.225 0 11.27 5.045 11.27 11.27v44.823h-79.941v-44.823c0-6.225 5.045-11.27 11.27-11.27z" fill="#E6E6E6"/><path d="M160.783 150.134h10.27a6.7 6.7 0 0 1 6.699 6.699v37.066h-23.668v-37.066a6.692 6.692 0 0 1 6.699-6.699z" fill="#E0E0E0"/><path d="M160.783 150.134h.218a6.7 6.7 0 0 1 6.699 6.699v37.066h-13.616v-37.066a6.692 6.692 0 0 1 6.699-6.699z" fill="#EBEBEB"/><path d="M249.333 176.872h-78.774v17.027h78.774v-17.027z" fill="#E6E6E6"/><path d="M170.45 161.295h75.967a6.808 6.808 0 0 1 6.808 6.808v4.244a6.809 6.809 0 0 1-6.808 6.808H170.45a6.809 6.809 0 0 1-6.808-6.808v-4.244a6.808 6.808 0 0 1 6.808-6.808z" fill="#F5F5F5"/><path d="M236.871 161.295h9.424a6.808 6.808 0 0 1 6.808 6.808v4.244a6.809 6.809 0 0 1-6.808 6.808h-9.424a6.809 6.809 0 0 1-6.808-6.808v-4.244a6.808 6.808 0 0 1 6.808-6.808z" fill="#E0E0E0"/><path d="M247.308 150.134h10.269c3.699 0 6.7 3 6.7 6.699v37.066h-23.669v-37.066a6.696 6.696 0 0 1 6.7-6.699z" fill="#E0E0E0"/><path d="M247.308 150.134h.218a6.7 6.7 0 0 1 6.699 6.699v37.066h-13.617v-37.066a6.696 6.696 0 0 1 6.7-6.699z" fill="#F0F0F0"/><path d="M185.944 96.254h76.05V17.672h-76.05v78.582z" fill="#EBEBEB"/><path d="M183.285 96.254h76.049V17.672h-76.049v78.582z" fill="#F0F0F0"/><path d="M257.417 19.535h-72.12v74.896h72.12V19.536z" fill="#E0E0E0"/><path d="M257.417 19.535h-70.318v74.896h70.318V19.536z" fill="#F5F5F5"/><path d="M221.532 94.432h1.43V19.536h-1.43v74.896z" fill="#EBEBEB"/><path d="M213.337 19.535l-20.039 74.896h-1.923l20.039-74.895h1.923z" fill="#fff"/><path d="M220.918 95.866h1.225V18.38h-1.225v77.486z" fill="#F0F0F0"/><path d="M206.061 19.535l-18.962 70.877V51.454l8.539-31.919h10.423zM257.417 26.33v7.194L241.115 94.43h-1.923l18.225-68.1zM257.417 40.851v38.958l-3.91 14.622h-10.424l14.334-53.58z" fill="#fff"/><path d="M52.342 78.181H98.39V22.152H52.342v56.03z" fill="#E6E6E6"/><path d="M62.88 64.301l24.193-23.783-26.175-4.315 1.981 28.098z" fill="#E0E0E0"/><path d="M86.49 58.666l1.199-18.238-18.22 4.475-1.32 13.956 18.34-.193z" fill="#F0F0F0"/><path d="M67.855 38.205a7.353 7.353 0 1 0-10.399-10.399 7.353 7.353 0 0 0 10.399 10.399z" fill="#FAFAFA"/><path d="M84.111 65.167a3.565 3.565 0 1 1 7.13.001 3.565 3.565 0 0 1-7.13-.001z" fill="#E0E0E0"/><path d="M86.83 71.436l-10.296-6.27 8.654-7.134 1.641 13.404z" fill="#F5F5F5"/><path d="M74.668 29.28h-2.025v44.74h2.025V29.28z" fill="#E0E0E0"/><path d="M94.067 29.28h-2.622v42.759h2.622v-42.76zM70.348 58.859H56.962v13.385h13.386V58.86z" fill="#EBEBEB"/><path d="M150 224c69.036 0 125-3.358 125-7.5 0-4.142-55.964-7.5-125-7.5s-125 3.358-125 7.5c0 4.142 55.964 7.5 125 7.5z" fill="#F5F5F5"/><path d="M263.863 200.13H124.816v-96.596a2.736 2.736 0 0 1 2.737-2.737h133.579a2.736 2.736 0 0 1 2.737 2.737v96.596h-.006z" fill="#263238"/><path d="M261.126 106.932H127.553v85.371h133.573v-85.371z" fill="#527BCC"/><path opacity=".2" d="M193.121 105.438a1.333 1.333 0 1 0 .001-2.667 1.333 1.333 0 0 0-.001 2.667zM195.884 105.105a1 1 0 1 0 0-2 1 1 0 0 0 0 2zM194.884 194.053a1.696 1.696 0 0 0-.545-.096c-.968 0-1.75.782-1.75 1.75s.782 1.75 1.75 1.75 1.75-.782 1.75-1.75c0-.032-.006-.064-.012-.096a1.743 1.743 0 0 1-1.193-1.558z" fill="#fff"/><path d="M274.229 198.778v1.256c0 .34-.096.667-.263.943a1.825 1.825 0 0 1-1.058.826l-9.686 2.86a12.923 12.923 0 0 1-3.705.538H129.169c-1.251 0-2.501-.179-3.699-.538l-9.687-2.86a1.82 1.82 0 0 1-1.064-.826 1.827 1.827 0 0 1-.263-.943v-1.256h159.773z" fill="#263238"/><path opacity=".2" d="M274.229 198.778v1.256c0 .34-.096.667-.263.943a1.825 1.825 0 0 1-1.058.826l-9.686 2.86a12.923 12.923 0 0 1-3.705.538H129.169c-1.251 0-2.501-.179-3.699-.538l-9.687-2.86a1.82 1.82 0 0 1-1.064-.826 1.827 1.827 0 0 1-.263-.943v-1.256h159.773z" fill="#fff"/><path opacity=".2" d="M274.229 198.778v1.256c0 .34-.096.667-.263.943H114.719a1.827 1.827 0 0 1-.263-.943v-1.256h159.773z" fill="#fff"/><path opacity=".2" d="M205.584 198.778v.551a.545.545 0 0 1-.545.545h-21.386a.546.546 0 0 1-.551-.545v-.551h22.482z" fill="#000"/><path opacity=".1" d="M261.126 106.932s-18.469 73.319-133.573 85.371v-85.371h133.573z" fill="#fff"/><path d="M248.471 53.474v80.3l-13.373 13.372h-52.862a2.061 2.061 0 0 1-2.058-2.064V53.474c0-1.142.923-2.065 2.058-2.065h64.171c1.134 0 2.064.923 2.064 2.065z" fill="#527BCC"/><path opacity=".6" d="M248.471 56.98v76.794l-13.373 13.372h-52.862a2.061 2.061 0 0 1-2.058-2.064V56.98h68.293zM246.689 53.96a.994.994 0 1 1-1.986-.001.994.994 0 0 1 1.986.002zM242.881 53.96a.995.995 0 0 1-.994.995.994.994 0 1 1 .994-.994zM239.079 53.96a.994.994 0 1 1-1.988 0 .994.994 0 0 1 1.988 0z" fill="#fff"/><path d="M221.687 63.166h-36.605a.643.643 0 0 1-.641-.64c0-.353.289-.642.641-.642h36.605c.353 0 .641.289.641.641a.639.639 0 0 1-.641.642zM211.341 66.667h-26.259a.643.643 0 0 1-.641-.641c0-.353.289-.641.641-.641h26.259c.352 0 .641.288.641.64a.635.635 0 0 1-.641.642zM239.721 120.818H192.91a.643.643 0 0 1-.641-.641c0-.353.288-.642.641-.642h46.811c.352 0 .641.289.641.642a.644.644 0 0 1-.641.641zM231.893 134.825h-46.811a.644.644 0 0 1-.641-.641c0-.353.289-.641.641-.641h46.811c.353 0 .641.288.641.641a.643.643 0 0 1-.641.641zM239.721 124.318h-54.639a.644.644 0 0 1-.641-.641c0-.353.289-.641.641-.641h54.632c.353 0 .641.288.641.641a.633.633 0 0 1-.634.641zM239.721 127.818h-54.639a.643.643 0 0 1-.641-.641c0-.353.289-.641.641-.641h54.632c.353 0 .641.288.641.641a.637.637 0 0 1-.634.641zM239.721 131.325h-54.639a.644.644 0 0 1-.641-.641c0-.353.289-.642.641-.642h54.632c.353 0 .641.289.641.642a.633.633 0 0 1-.634.641z" fill="#527BCC"/><path opacity=".5" d="M248.471 133.774l-13.373 13.372v-13.372h13.373z" fill="#527BCC"/><path opacity=".4" d="M248.471 56.98h-3.776v76.794h3.776V56.98z" fill="#000"/><path d="M246.586 97.105a1.39 1.39 0 0 1-1.391-1.392v-7.846a1.39 1.39 0 1 1 2.782 0v7.846a1.39 1.39 0 0 1-1.391 1.392zM239.721 101.586H192.91a.643.643 0 0 1-.641-.641c0-.353.288-.642.641-.642h46.811c.352 0 .641.289.641.642a.644.644 0 0 1-.641.641zM231.893 115.593h-46.811a.644.644 0 0 1-.641-.641c0-.353.289-.641.641-.641h46.811c.353 0 .641.288.641.641a.643.643 0 0 1-.641.641zM239.721 105.086h-54.639a.644.644 0 0 1-.641-.641c0-.353.289-.641.641-.641h54.632c.353 0 .641.288.641.641a.633.633 0 0 1-.634.641zM239.721 108.586h-54.639a.643.643 0 0 1-.641-.641c0-.353.289-.641.641-.641h54.632c.353 0 .641.288.641.641a.637.637 0 0 1-.634.641zM239.721 112.093h-54.639a.644.644 0 0 1-.641-.641c0-.353.289-.641.641-.641h54.632c.353 0 .641.288.641.641a.633.633 0 0 1-.634.641zM239.714 70.846h-54.798v20.45h54.798v-20.45z" fill="#527BCC"/><path opacity=".2" d="M184.916 88.014h1.493v-3.718h1.718v-7.34h2.398v4.52h3.295v6.006h3.93v-4.186H201l2.148-2.154v-4.981h1.314v7.135h3.308v2.539h3.423v-12.95l.949-.949v3.552h2.186v1.596l2.096 2.096v3.789h3.013v-2.994h7.86v-2.243h1.775v-3.905h.635v6.148h1l2.263-2.263h2.128v-2.045h1.077v2.064h1.391v8.482h1.513v-4.231l.641.038V70.846h-54.804v17.168z" fill="#000"/><path d="M239.721 94.534h-14.758a.643.643 0 0 1-.641-.641c0-.353.289-.641.641-.641h14.758c.352 0 .641.288.641.64a.643.643 0 0 1-.641.642z" fill="#527BCC"/><path opacity=".2" d="M207.095 51.818v57.385l-10.32 8.725H180.05V53.603c0-.987.944-1.785 2.105-1.785h24.94z" fill="#000"/><path opacity=".4" d="M246.586 97.105a1.39 1.39 0 0 1-1.391-1.392v-7.846a1.39 1.39 0 1 1 2.782 0v7.846a1.39 1.39 0 0 1-1.391 1.392z" fill="#fff"/><path d="M167.543 63.48v80.301l-13.373 13.372h-52.862a2.061 2.061 0 0 1-2.058-2.064V63.481c0-1.142.923-2.065 2.058-2.065h64.171c1.134 0 2.064.924 2.064 2.065z" fill="#527BCC"/><path opacity=".6" d="M167.543 66.987v76.794l-13.373 13.372h-52.862a2.061 2.061 0 0 1-2.058-2.064V66.987h68.293zM165.761 63.974a.995.995 0 0 1-1.988 0 .995.995 0 0 1 1.988 0zM161.953 63.974a.995.995 0 0 1-1.988 0c0-.551.449-.993.994-.993a.987.987 0 0 1 .994.993zM158.151 63.974a.994.994 0 1 1-1.988 0 .994.994 0 0 1 1.988 0z" fill="#fff"/><path d="M115.527 73.526h-11.373a.643.643 0 0 1-.641-.64c0-.353.289-.642.641-.642h11.373c.352 0 .641.288.641.641a.643.643 0 0 1-.641.641zM120.886 77.026h-16.732a.643.643 0 0 1-.641-.64c0-.353.289-.642.641-.642h16.732c.353 0 .641.289.641.641a.643.643 0 0 1-.641.641zM115.713 80.527h-11.559a.643.643 0 0 1-.641-.642c0-.352.289-.64.641-.64h11.559c.352 0 .641.288.641.64a.643.643 0 0 1-.641.642zM158.786 137.883h-46.811a.644.644 0 0 1-.641-.641c0-.353.289-.641.641-.641h46.811c.352 0 .641.288.641.641a.64.64 0 0 1-.641.641zM133.143 141.383h-28.989a.644.644 0 0 1-.641-.641c0-.353.289-.641.641-.641h28.989c.353 0 .641.288.641.641a.64.64 0 0 1-.641.641z" fill="#527BCC"/><path opacity=".5" d="M167.543 143.781l-13.373 13.372v-13.372h13.373z" fill="#527BCC"/><path opacity=".4" d="M167.543 66.987h-3.776v76.794h3.776V66.987z" fill="#000"/><path d="M165.652 138.53a1.39 1.39 0 0 1-1.392-1.391v-7.847a1.39 1.39 0 0 1 1.392-1.391 1.39 1.39 0 0 1 1.391 1.391v7.847c0 .763-.622 1.391-1.391 1.391zM158.786 73.526h-8.808a.643.643 0 0 1-.641-.64c0-.353.288-.642.641-.642h8.808c.352 0 .641.288.641.641a.639.639 0 0 1-.641.641zM158.786 77.026h-4.552a.643.643 0 0 1-.641-.64c0-.353.289-.642.641-.642h4.552c.352 0 .641.289.641.641a.639.639 0 0 1-.641.641zM158.786 89.803h-46.811a.643.643 0 0 1-.641-.641c0-.353.289-.641.641-.641h46.811c.352 0 .641.288.641.64a.639.639 0 0 1-.641.642zM158.786 93.303h-54.632a.643.643 0 0 1-.641-.641c0-.353.289-.641.641-.641h54.632c.352 0 .641.288.641.64a.639.639 0 0 1-.641.642zM126.732 96.803h-22.578a.643.643 0 0 1-.641-.64c0-.353.289-.642.641-.642h22.578c.353 0 .642.288.642.641a.64.64 0 0 1-.642.641z" fill="#527BCC"/><path opacity=".7" d="M134.746 101.451h-21.527v5.77h21.527v-5.77z" fill="#527BCC"/><path opacity=".3" d="M122.97 108.496h-9.751v21.303h9.751v-21.303zM147.221 108.496h-11.199v21.303h11.199v-21.303z" fill="#527BCC"/><path opacity=".7" d="M158.786 101.451h-22.764v5.77h22.764v-5.77z" fill="#527BCC"/><path opacity=".3" d="M158.792 108.496H148.51v21.303h10.282v-21.303z" fill="#527BCC"/><path opacity=".5" d="M111.937 108.496h-7.783v21.303h7.783v-21.303z" fill="#527BCC"/><path d="M111.937 101.451h-7.783v5.77h7.783v-5.77z" fill="#FFC700"/><path opacity=".3" d="M134.739 108.496h-10.487v21.303h10.487v-21.303z" fill="#527BCC"/><path opacity=".4" d="M165.652 138.53a1.39 1.39 0 0 1-1.392-1.391v-7.847a1.39 1.39 0 0 1 1.392-1.391 1.39 1.39 0 0 1 1.391 1.391v7.847c0 .763-.622 1.391-1.391 1.391z" fill="#fff"/><path opacity=".2" d="M168.03 63.576v56.355h-38.994c-1.144 0-2.074-.778-2.074-1.741V61.835h38.987c1.144 0 2.081.779 2.081 1.741z" fill="#000"/><path d="M201.5 17.064v80.3l-13.373 13.373h-52.862a2.061 2.061 0 0 1-2.058-2.064V17.064c0-1.14.923-2.064 2.058-2.064h64.171c1.135 0 2.064.923 2.064 2.064z" fill="#527BCC"/><path opacity=".6" d="M201.5 20.57v76.794l-13.373 13.373h-52.862a2.061 2.061 0 0 1-2.058-2.064V20.571H201.5zM198.718 18.545a.994.994 0 1 0 0-1.988.994.994 0 0 0 0 1.988zM194.91 18.545a.994.994 0 1 0 0-1.988.994.994 0 0 0 0 1.988zM192.102 17.552a.994.994 0 0 1-1.987 0c0-.545.449-.994.994-.994a.986.986 0 0 1 .993.994z" fill="#fff"/><path d="M171.953 27.103h-13.058a.643.643 0 0 1-.641-.64c0-.353.288-.642.641-.642h13.058c.353 0 .641.289.641.641a.643.643 0 0 1-.641.641zM177.319 30.604h-23.784a.643.643 0 0 1-.641-.642c0-.352.289-.64.641-.64h23.784c.352 0 .641.288.641.64a.643.643 0 0 1-.641.642zM172.146 34.104h-13.437a.643.643 0 0 1-.641-.641c0-.353.288-.641.641-.641h13.437c.352 0 .641.288.641.64a.64.64 0 0 1-.641.642zM192.743 43.38h-46.811a.643.643 0 0 1-.641-.641c0-.353.289-.641.641-.641h46.811c.353 0 .641.288.641.641a.643.643 0 0 1-.641.641zM184.916 57.387h-46.811a.643.643 0 0 1-.641-.64c0-.353.288-.642.641-.642h46.811c.352 0 .641.289.641.641a.639.639 0 0 1-.641.641zM192.743 46.88h-54.632a.643.643 0 0 1-.641-.64c0-.353.289-.642.641-.642h54.632c.353 0 .641.289.641.641a.643.643 0 0 1-.641.641zM192.743 50.38h-54.632a.643.643 0 0 1-.641-.64c0-.353.289-.642.641-.642h54.632c.353 0 .641.289.641.641a.639.639 0 0 1-.641.642zM192.743 53.887h-54.632a.643.643 0 0 1-.641-.641c0-.353.289-.641.641-.641h54.632c.353 0 .641.288.641.641a.643.643 0 0 1-.641.641zM192.743 78.639h-46.811a.643.643 0 0 1-.641-.641c0-.353.289-.641.641-.641h46.811c.353 0 .641.288.641.64a.643.643 0 0 1-.641.642zM184.916 92.646h-46.811a.643.643 0 0 1-.641-.641c0-.353.288-.641.641-.641h46.811c.352 0 .641.288.641.64a.639.639 0 0 1-.641.642zM192.743 82.139h-54.632a.643.643 0 0 1-.641-.641c0-.353.289-.641.641-.641h54.632c.353 0 .641.288.641.64a.643.643 0 0 1-.641.642zM192.743 85.64h-54.632a.643.643 0 0 1-.641-.642c0-.353.289-.641.641-.641h54.632c.353 0 .641.288.641.641a.643.643 0 0 1-.641.641zM192.743 89.146h-54.632a.643.643 0 0 1-.641-.641c0-.353.289-.641.641-.641h54.632c.353 0 .641.288.641.64a.643.643 0 0 1-.641.642z" fill="#527BCC"/><path d="M192.743 25.693h-6.558v8.731h6.558v-8.731z" fill="#FFC700"/><path d="M141.746 32.963a3.635 3.635 0 1 0 0-7.27 3.635 3.635 0 0 0 0 7.27zM137.9 61.971c0 .423.346.77.769.77a.771.771 0 0 0 .769-.77.771.771 0 0 0-.769-.77.771.771 0 0 0-.769.77zM137.9 65.471c0 .423.346.77.769.77a.771.771 0 0 0 .769-.77.771.771 0 0 0-.769-.77.771.771 0 0 0-.769.77zM137.9 68.971c0 .423.346.77.769.77a.766.766 0 1 0 0-1.532.766.766 0 0 0-.769.762zM137.9 72.478c0 .423.346.77.769.77a.766.766 0 1 0 0-1.532.766.766 0 0 0-.769.762zM149.657 62.612h-8.347a.643.643 0 0 1-.641-.641c0-.353.289-.641.641-.641h8.347c.353 0 .641.288.641.64a.639.639 0 0 1-.641.642zM157.485 66.112h-16.168a.643.643 0 0 1-.641-.64c0-.353.288-.642.641-.642h16.168c.352 0 .641.289.641.641a.643.643 0 0 1-.641.641zM147.869 69.612h-6.552a.643.643 0 0 1-.641-.64c0-.353.288-.642.641-.642h6.552c.352 0 .641.289.641.641a.643.643 0 0 1-.641.641zM154.92 73.12h-13.603a.643.643 0 0 1-.641-.642c0-.352.288-.641.641-.641h13.603c.353 0 .641.288.641.641a.643.643 0 0 1-.641.641z" fill="#527BCC"/><path opacity=".5" d="M201.5 97.364l-13.373 13.373V97.364H201.5z" fill="#527BCC"/><path opacity=".2" d="M192.743 25.693l-6.558 8.731h6.558v-8.731zM143.868 27.206h-4.25v4.25h4.25v-4.25z" fill="#000"/><path opacity=".4" d="M201.494 20.57h-3.776v76.794h3.776V20.571z" fill="#000"/><path d="M199.609 35.053a1.39 1.39 0 0 1-1.391-1.392v-7.846a1.39 1.39 0 1 1 2.782 0v7.846a1.39 1.39 0 0 1-1.391 1.392z" fill="#527BCC"/><path opacity=".4" d="M199.609 35.053a1.39 1.39 0 0 1-1.391-1.392v-7.846a1.39 1.39 0 1 1 2.782 0v7.846a1.39 1.39 0 0 1-1.391 1.392z" fill="#fff"/><path d="M43.474 83.418H65.86a3.245 3.245 0 0 1 3.244 3.25v21.758a3.249 3.249 0 0 1-3.244 3.25h-9.084l.974 6.558-4.493-6.558h-9.783a3.245 3.245 0 0 1-3.244-3.25V86.668a3.245 3.245 0 0 1 3.244-3.25z" fill="#527BCC"/><path opacity=".6" d="M43.474 83.418H65.86a3.245 3.245 0 0 1 3.244 3.25v21.758a3.249 3.249 0 0 1-3.244 3.25h-9.084l.974 6.558-4.493-6.558h-9.783a3.245 3.245 0 0 1-3.244-3.25V86.668a3.245 3.245 0 0 1 3.244-3.25z" fill="#fff"/><path d="M52.82 93.02v1.738l.892.084c.122.583.352 1.121.666 1.602l-.577.693 1.225 1.224.692-.577a4.67 4.67 0 0 0 1.603.667l.083.89h1.738l.083-.89a4.67 4.67 0 0 0 1.603-.667l.692.577 1.224-1.224-.577-.693a4.67 4.67 0 0 0 .667-1.602l.891-.084v-1.737l-.89-.083a4.67 4.67 0 0 0-.668-1.603l.577-.692-1.224-1.225-.692.577a4.67 4.67 0 0 0-1.603-.667l-.083-.89h-1.738l-.083.89a4.67 4.67 0 0 0-1.603.667l-.692-.577-1.225 1.225.578.692a4.668 4.668 0 0 0-.667 1.603l-.891.083zm5.463-1.48a2.353 2.353 0 0 1 2.352 2.346 2.349 2.349 0 0 1-4.699 0 2.347 2.347 0 0 1 2.347-2.346z" fill="#F5F5F5"/><path d="M53.943 105.682a3.76 3.76 0 0 0 1.256-.519l.545.448.962-.961-.45-.545a3.5 3.5 0 0 0 .52-1.257l.699-.064v-1.359l-.699-.064a3.748 3.748 0 0 0-.52-1.256l.45-.545-.962-.962-.545.449a3.505 3.505 0 0 0-1.256-.52l-.064-.698h-1.36l-.064.699a3.75 3.75 0 0 0-1.256.519l-.545-.449-.962.962.45.545a3.5 3.5 0 0 0-.52 1.256l-.699.064v1.359l.699.064c.096.456.276.879.52 1.257l-.45.545.962.961.545-.448c.378.25.801.429 1.256.519l.064.699h1.36l.064-.699zm-2.59-3.577a1.84 1.84 0 1 1 3.68 0 1.84 1.84 0 0 1-3.68 0zM50.404 98.008l.378.456.943-.641-.289-.52c.263-.269.48-.596.628-.955l.59.058.212-1.122-.571-.167a2.97 2.97 0 0 0-.237-1.115l.455-.378-.641-.943-.52.289a3.13 3.13 0 0 0-.954-.629l.057-.59-1.122-.211-.16.57a2.97 2.97 0 0 0-1.115.238l-.379-.455-.942.64.288.52c-.262.27-.48.596-.628.955l-.59-.057-.211 1.121.57.16c.007.392.09.77.238 1.116l-.456.378.642.943.519-.289c.27.263.596.481.955.628l-.058.59 1.122.212.167-.57c.378 0 .756-.084 1.109-.232zm-2.699-3.122c.16-.84.968-1.39 1.808-1.23a1.545 1.545 0 1 1-1.808 1.23z" fill="#F5F5F5"/><path d="M80.355 163.025s1.577 14.2 2.09 15.893c.512 1.692 7.737 10.731 7.737 10.731l-2.051 1.071s-7.719-7.911-8.918-10.258c-1.198-2.346-3.051-14.59-3.051-14.59l4.193-2.847z" fill="#EBB376"/><path d="M78.912 156.711c2.66 1.41 3.532 21.104 3.532 21.104l1.34 2.077-4.09 2.91s-1.743-2.872-2.551-5.07c-.814-2.199-2.744-13.021-2.744-13.021l4.513-8z" fill="#263238"/><path opacity=".1" d="M78.912 156.711c2.66 1.41 3.532 21.104 3.532 21.104l1.34 2.077-4.09 2.91s-1.743-2.872-2.551-5.07c-.814-2.199-2.744-13.021-2.744-13.021l4.513-8z" fill="#fff"/><path d="M79.098 182.802l4.693-3.718 1.006 2.109-4.327 3.09-1.372-1.481z" fill="#527BCC"/><path opacity=".4" d="M79.098 182.802l4.693-3.718 1.006 2.109-4.327 3.09-1.372-1.481z" fill="#fff"/><path d="M68.424 182.11l4.79 7.584c9.506-2.212 39.976-6.86 43.713 3.59 4.648 12.994-28.957 23.347-47.554 23.982-18.597.635-33.521-9.956-21.764-37.066l20.815 1.91z" fill="#527BCC"/><path opacity=".2" d="M68.424 182.11l4.79 7.584c9.506-2.212 39.976-6.86 43.713 3.59 4.648 12.994-28.957 23.347-47.554 23.982-18.597.635-33.521-9.956-21.764-37.066l20.815 1.91z" fill="#000"/><path d="M111.549 211.65c-.045.026-.096.026-.135-.006a.093.093 0 0 1-.032-.115c.058-.206.68-1.994 1.301-2.186a.38.38 0 0 1 .372.109c.18.147.263.371.218.602a1.684 1.684 0 0 1-.583.84 6.378 6.378 0 0 1-1.141.756zm.16-.339a2.683 2.683 0 0 0 1.327-1.276.411.411 0 0 0-.16-.41c-.032-.045-.096-.058-.148-.045a.401.401 0 0 0-.141.083 5.23 5.23 0 0 0-.878 1.648z" fill="#527BCC"/><path d="M111.517 211.676a.109.109 0 0 1-.116-.032c-.057-.051-.916-1.135-.775-1.866a.678.678 0 0 1 .295-.448.394.394 0 0 1 .493-.045c.449.314.398 1.769.173 2.314l-.012.058a.105.105 0 0 1-.058.019zm-.487-2.122a.47.47 0 0 0-.148.263c-.09.461.34 1.154.577 1.487.141-.622.096-1.635-.167-1.82-.025-.013-.083-.058-.218.038l-.044.032zM78.854 214.702c.026-.045.077-.071.122-.058a.096.096 0 0 1 .084.084c.044.211.371 2.07-.084 2.538a.373.373 0 0 1-.378.083.624.624 0 0 1-.48-.416 1.642 1.642 0 0 1 .102-1.02c.173-.423.384-.826.634-1.211zm.026.378a2.639 2.639 0 0 0-.538 1.757c.044.153.18.262.333.282a.14.14 0 0 0 .147-.032.4.4 0 0 0 .084-.141 5.214 5.214 0 0 0-.026-1.866z" fill="#527BCC"/><path d="M91.028 205.291l-7.654 2.725-3.673 1.307.942 4.02 3.558-.757 8.693-1.852-1.866-5.443z" fill="#EBB376"/><path d="M81.643 213.535l-.641-4.744a.474.474 0 0 0-.545-.404l-2.34.391s-3.186.302-3.82 1.116c-1.853 2.385-.693 12.917.538 13.289.449.135.93-.481 1.122-.91.622-1.359 1.724-4.904 2.256-6.033.622-1.314 2.334-1.961 3.103-2.192a.46.46 0 0 0 .327-.513z" fill="#263238"/><path d="M78.867 214.663c.032-.032.077-.045.116-.025.077.013 1.352.551 1.583 1.256a.686.686 0 0 1-.045.539.396.396 0 0 1-.41.282c-.545-.058-1.199-1.353-1.276-1.943l-.013-.057c.013-.02.032-.039.045-.052zm1.462 1.622a.483.483 0 0 0 .006-.301c-.147-.449-.859-.846-1.224-1.026.173.609.705 1.481 1.026 1.513.032 0 .102.013.173-.134l.019-.052z" fill="#527BCC"/><path opacity=".2" d="M91.028 205.291l-7.654 2.725.827 4.57 8.693-1.852-1.866-5.443z" fill="#000"/><path d="M85.56 213.272l2.199.161-1.475-7.571-2.493 1.378 1.769 6.032z" fill="#527BCC"/><path opacity=".6" d="M85.56 213.272l2.199.161-1.475-7.571-2.493 1.378 1.769 6.032z" fill="#fff"/><path opacity=".2" d="M53.635 183.854l11.462 12.706s12.674-.282 28.06 7.237c0 0 16.514-6.821 18.026-12.488 1.988-7.423-37.964-1.622-37.964-1.622l-19.584-5.833z" fill="#000"/><path d="M107.395 192.829v1.884c0 .481-.571.68-1.045.68H68.713c-.481 0-1.064-.199-1.064-.68v-1.884h39.746z" fill="#263238"/><path opacity=".4" d="M107.395 192.829v1.884c0 .481-.571.68-1.045.68H68.713c-.481 0-1.064-.199-1.064-.68v-1.884h39.746z" fill="#fff"/><path opacity=".2" d="M107.395 192.829v1.884c0 .481-.571.68-1.045.68H81.528c-.481 0-1.058-.199-1.058-.68v-1.884h26.925z" fill="#000"/><path d="M113.69 173.276l-4.481 20.322c-.147.667-.795 1.154-1.455 1.154H83.278c-.654 0-1.07-.609-.917-1.276l4.475-20.168c.154-.667.795-.993 1.455-.993h24.476c.66 0 1.07.294.923.961z" fill="#263238"/><path opacity=".4" d="M113.69 173.276l-4.481 20.322c-.147.667-.795 1.154-1.455 1.154H84.111c-.66 0-1.07-.609-.923-1.276l4.481-20.168c.148-.667.795-.993 1.455-.993h23.643c.66 0 1.07.294.923.961z" fill="#fff"/><path opacity=".2" d="M101.625 183.604c0 1.743-1.865 3.16-3.23 3.16-1.366 0-2.18-1.417-1.79-3.154.392-1.705 1.75-3.096 3.09-3.148-.39 1.738.443 3.148 1.808 3.148.026 0 .122 0 .122-.006z" fill="#000"/><path d="M96.343 213.997l8.013 1.32 3.846.635 1.122-3.981-3.481-1.058-8.5-2.583-1 5.667z" fill="#EBB376"/><path d="M108.542 211.323l-1.731 4.462a.473.473 0 0 0 .282.616l2.238.795s2.929 1.282 3.885.871c2.775-1.192 6.859-10.968 5.962-11.891-.327-.34-1.045-.026-1.424.25-1.205.884-3.878 3.461-4.891 4.186-1.186.846-2.994.583-3.776.417a.477.477 0 0 0-.545.294z" fill="#263238"/><path opacity=".2" d="M96.343 213.997l8.013 1.32 1.487-4.404-8.5-2.583-1 5.667z" fill="#000"/><path d="M104.465 210.086s-32.675-18.373-43.952-17.847c-11.276.526-12.904 10.462-8.25 16.687 4.654 6.225 13.244 7.737 13.244 7.737s-5.846-8.263-5-10.59c.846-2.327 4.154.917 4.154.917s20.56 6.641 38.541 8.161l1.263-5.065z" fill="#527BCC"/><path d="M104.991 209.58l-1.847-1.244-2.378 7.302h2.853l1.372-6.058z" fill="#527BCC"/><path opacity=".6" d="M104.991 209.58l-1.847-1.244-2.378 7.302h2.853l1.372-6.058z" fill="#fff"/><path d="M47.615 180.2l20.816 1.91s3.263-6.757 5.763-9.392c2.494-2.641 4.718-16.007 4.718-16.007a44.401 44.401 0 0 0-5.218-2.128c-6.635-2.25-12.655-2.661-15.924-2.68h-.116c-1.551-.006-2.449.077-2.449.077-.512.282-1.006.872-1.48 1.686-2.231 3.846-4.007 12.821-5.058 19.264-.68 4.161-1.052 7.27-1.052 7.27z" fill="#263238"/><path opacity=".2" d="M48.667 172.93c4.59-2.103 10.853-5.661 10.526-9.27-.353-3.962-3.564-7.949-5.468-9.994-2.231 3.846-4.007 12.821-5.058 19.264z" fill="#000"/><path d="M58.79 151.922s2.371 7.802 8.859 8.648c6.487.846 7.564-5.442 7.564-5.442s-8.353-4.584-16.424-3.206z" fill="#263238"/><path opacity=".1" d="M58.79 151.922s2.371 7.802 8.859 8.648c6.487.846 7.564-5.442 7.564-5.442s-8.353-4.584-16.424-3.206z" fill="#fff"/><path d="M60.148 152.14s3.064 7.225 8.571 7.225 5.687-4.058 5.687-4.058-5.514-3.609-14.258-3.167z" fill="#527BCC"/><path opacity=".4" d="M60.148 152.14s3.064 7.225 8.571 7.225 5.687-4.058 5.687-4.058-5.514-3.609-14.258-3.167z" fill="#fff"/><path d="M70.13 153.262c.038 1.301.769 1.603.769 1.603.27 2.391-1.808 3.141-2.847 3.032-4.083-.417-5.378-5.334-5.378-5.334 2.974-1.179 3.641-4.455 3.763-6.404.058-.91 0-1.532 0-1.532l5.552 3.5c-.552.93-.95 1.731-1.244 2.43-.474 1.198-.628 2.07-.615 2.705z" fill="#EBB376"/><path opacity=".2" d="M71.655 147.698a20.07 20.07 0 0 0-.987 2.545c-.359 1.23-.43 2.122-.346 2.75-3.122.243-4.36-6.648-4.36-6.648l-.025-.039c-.032-.91-.154-1.519-.154-1.519l5.872 2.911z" fill="#000"/><path d="M75.207 132.293s4.07-4.693-.801-8.623c-4.879-3.929-14.514-2.154-16.29 6.719-1.776 8.879.673 12.629.673 12.629s0-5.654 1.628-7.302c0 0-.487 2.705 0 4.334.488 1.628 0 .589 0 .589s1.5-7.077 8.732-5.051c7.225 2.032 6.058-3.295 6.058-3.295z" fill="#263238"/><path d="M76.181 133.825c5.372 1.635 6.225 5.039 4.93 10.693-1.615 7.064-4.648 11.513-10.91 7.988-8.508-4.789-2.937-21.399 5.98-18.681z" fill="#EBB376"/><path d="M77.733 143.159s.314 1.628.884 2.705c0 0-.68.59-1.602.173l.718-2.878z" fill="#D58745"/><path d="M74.579 141.716c-.122.443-.468.738-.763.654-.295-.083-.436-.513-.314-.955.121-.442.468-.737.763-.654.294.084.435.513.314.955z" fill="#263238"/><path d="M74.136 140.748l1.07-.109s-.704.68-1.07.109zM80.124 143.172c-.122.442-.468.737-.763.654-.295-.084-.436-.513-.314-.956.121-.442.468-.737.763-.654.3.084.442.507.314.956z" fill="#263238"/><path d="M79.688 142.204l1.07-.109s-.711.679-1.07.109zM73.079 138.325a.234.234 0 0 1-.193-.102.23.23 0 0 1 .064-.321c1.218-.821 2.738-.147 2.802-.122a.236.236 0 0 1 .115.308c-.051.115-.192.167-.308.115-.012-.006-1.346-.589-2.352.084a.236.236 0 0 1-.128.038zM81.63 140.287a.227.227 0 0 1-.18-.084c-.852-1.038-1.775-1.019-1.813-1.012-.122 0-.238-.09-.244-.218a.23.23 0 0 1 .218-.244c.045-.006 1.186-.058 2.199 1.18a.233.233 0 0 1-.032.327.242.242 0 0 1-.148.051z" fill="#263238"/><path d="M67.552 141.088s3.86-3.647 4.514-7.167c0 0 11.968-1.103 9.199 9.86 0 0 3.962-9.277-5.2-12.302-9.154-3.026-13.244 10.487-9.705 15.969 0-.007-1.199-4.078 1.192-6.36z" fill="#263238"/><path d="M75.777 148.46c-.006 0-.006 0 0 0-2.628-.064-2.968-2.5-2.968-2.519-.013-.128.077-.244.199-.256a.242.242 0 0 1 .263.198c.013.084.295 2.065 2.513 2.116.128 0 .23.109.224.237a.237.237 0 0 1-.23.224zM66.623 140.011a.15.15 0 0 0 .083.173.084.084 0 0 0 .039.013l5.462 1.276c-.173 1 .34 2.032 1.378 2.538 1.314.642 2.962.193 3.667-.993.07-.116.115-.237.166-.359.289-.186.533-.257.706-.199.211.077.275.308.282.321-.167.993.352 2.019 1.384 2.519 1.315.641 2.962.192 3.667-.994.706-1.186.212-2.673-1.102-3.314-1.315-.641-2.962-.192-3.667.994a2 2 0 0 0-.167.359.667.667 0 0 0-.275-.18c-.206-.07-.45-.045-.712.071.173-1-.34-2.032-1.378-2.539-1.315-.641-2.962-.192-3.667.994-.09.154-.16.314-.212.474l-5.442-1.269c-.097-.019-.186.032-.212.115zm12.373 2.116c.615-1.039 2.057-1.43 3.205-.872 1.147.558 1.583 1.859.962 2.898-.616 1.038-2.058 1.429-3.206.871-1.147-.557-1.583-1.859-.961-2.897zm-6.206-1.282c.615-1.039 2.058-1.43 3.205-.872 1.148.557 1.584 1.859.962 2.897-.615 1.039-2.058 1.43-3.205.872-1.148-.564-1.577-1.859-.962-2.897z" fill="#263238"/><path opacity=".3" d="M66.623 140.011a.15.15 0 0 0 .083.173.084.084 0 0 0 .039.013l5.462 1.276c-.173 1 .34 2.032 1.378 2.538 1.314.642 2.962.193 3.667-.993.07-.116.115-.237.166-.359.289-.186.533-.257.706-.199.211.077.275.308.282.321-.167.993.352 2.019 1.384 2.519 1.315.641 2.962.192 3.667-.994.706-1.186.212-2.673-1.102-3.314-1.315-.641-2.962-.192-3.667.994a2 2 0 0 0-.167.359.667.667 0 0 0-.275-.18c-.206-.07-.45-.045-.712.071.173-1-.34-2.032-1.378-2.539-1.315-.641-2.962-.192-3.667.994-.09.154-.16.314-.212.474l-5.442-1.269c-.097-.019-.186.032-.212.115zm12.373 2.116c.615-1.039 2.057-1.43 3.205-.872 1.147.558 1.583 1.859.962 2.898-.616 1.038-2.058 1.429-3.206.871-1.147-.557-1.583-1.859-.961-2.897zm-6.206-1.282c.615-1.039 2.058-1.43 3.205-.872 1.148.557 1.584 1.859.962 2.897-.615 1.039-2.058 1.43-3.205.872-1.148-.564-1.577-1.859-.962-2.897z" fill="#fff"/><path d="M68.085 142.486c.23-.879-.218-2.609-1.879-2.924-1.718-.327-3.551 2.847.334 4.93.557.302 1.07-.179 1.545-2.006zM57.654 158.993s.68 13.7 1.834 16.77c1.154 3.071 13.263 14.418 13.263 14.418s3.379-.756 3.943-.532c.558.218 3.782 3.18 3.782 3.18h-9.314l-.815-1.443s-12.532-9.282-13.904-11.494c-1.02-1.635-4.289-18.283-4.289-18.283l5.5-2.616z" fill="#EBB376"/><path d="M55.206 151.98c2.173-1.135 3.23 2.506 4.532 9.859 1.295 7.353 1.083 14.072 1.083 14.072l1.86 3.301-4.687 4.321s-3.494-3.192-4.943-7.622c-1.455-4.43-5.449-19.969 2.154-23.931z" fill="#263238"/><path opacity=".1" d="M55.206 151.98c2.173-1.135 3.23 2.506 4.532 9.859 1.295 7.353 1.083 14.072 1.083 14.072l1.86 3.301-4.687 4.321s-3.494-3.192-4.943-7.622c-1.455-4.43-5.449-19.969 2.154-23.931z" fill="#fff"/><path d="M56.763 183.533l5.917-5.295 1.398 1.962-5.289 5.192-2.026-1.859z" fill="#527BCC"/><path opacity=".4" d="M56.763 183.533l5.917-5.295 1.398 1.962-5.289 5.192-2.026-1.859z" fill="#fff"/></g><defs><clipPath id="clip0_86_16381"><path fill="#fff" d="M0 0h300v223.566H0z"/></clipPath></defs></svg>