<svg width="407" height="84" viewBox="0 0 407 84" fill="none" xmlns="http://www.w3.org/2000/svg"><path d="M27.216 52.96c9.576 0 17.424-6.624 17.424-16.776 0-10.728-7.848-16.92-17.424-16.92H5.112V67h9.504V52.96h12.6zm-1.08-25.488c5.112 0 8.712 3.312 8.712 8.712 0 5.112-3.6 8.568-8.712 8.568h-11.52v-17.28h11.52zm35.318 40.392c4.824 0 8.496-1.944 10.44-4.608L72.11 67h8.568V33.232h-9v19.08c0 4.536-3.312 7.2-7.56 7.2-4.104 0-6.984-2.592-6.984-7.2v-19.08h-9v21.456c0 3.96 1.224 7.2 3.672 9.576 2.52 2.376 5.688 3.6 9.648 3.6zm45.535-.144c4.824 0 8.712-1.656 11.736-4.968 3.096-3.312 4.608-7.56 4.608-12.672 0-5.112-1.512-9.36-4.608-12.6-3.024-3.312-6.912-4.968-11.736-4.968-4.896 0-8.568 1.584-11.088 4.824V17.464h-8.856V67h8.856l.144-3.6c2.304 2.664 6.12 4.32 10.944 4.32zm7.344-17.64c0 2.664-.864 4.968-2.592 6.768-1.728 1.8-3.888 2.736-6.552 2.736-2.664 0-4.824-.936-6.552-2.736-1.728-1.8-2.592-4.104-2.592-6.768 0-2.736.864-4.968 2.592-6.768 1.728-1.8 3.888-2.664 6.552-2.664 5.4 0 9.144 3.96 9.144 9.432zm13.513-32.544V67h9V17.536h-9zm24.42 15.696h-9.072V67h9.072V33.232zm.648-10.8c0-3.096-2.16-5.184-5.256-5.184-2.952 0-5.112 2.088-5.112 5.184s2.16 5.184 5.112 5.184c3.096 0 5.256-2.088 5.256-5.184zm3.826 27.648c0 5.256 1.8 9.504 5.328 12.744 3.528 3.24 8.136 4.896 13.68 4.896 3.6 0 7.272-.864 10.944-2.52l-1.008-7.992c-3.168 1.512-6.264 2.232-9.288 2.232-6.264 0-10.584-3.672-10.584-9.36 0-5.976 4.464-9.288 10.872-9.288 3.096 0 6.048.648 8.856 1.872l.72-7.848a25.215 25.215 0 0 0-10.584-2.304c-5.544 0-10.152 1.584-13.68 4.752-3.528 3.168-5.256 7.416-5.256 12.816zm74.202 5.616c-3.816 2.304-8.352 3.456-13.752 3.456s-9.792-1.44-13.176-4.392c-3.384-2.952-5.04-6.912-5.04-11.736 0-10.08 8.208-15.696 18.432-15.696 4.968 0 9.432.936 13.392 2.88l.72-8.496c-4.536-2.088-9.504-3.168-14.976-3.168-15.048-.288-27.576 9.432-27.432 24.552-.216 14.616 11.664 24.912 26.784 24.624 5.904 0 11.376-1.224 16.344-3.6l-1.296-8.424zm49.112-21.312V67h9.504V19.264h-8.208l-18 21.384-18.072-21.384h-8.208V67h9.504V34.384l16.056 18h1.512l15.912-18zm33.343-15.84c-5.544 0-9.936 1.368-13.176 4.032-3.24 2.664-4.896 6.192-4.896 10.656 0 6.336 4.176 10.656 12.456 12.888l7.56 2.016c4.248 1.152 5.832 2.52 5.832 5.472 0 3.744-3.6 5.688-9 5.688-2.808 0-5.832-.36-9.144-1.152-3.312-.792-5.616-1.656-6.912-2.448l-.792 8.496c1.728.936 4.248 1.728 7.632 2.448 3.384.72 6.768 1.08 10.08 1.08 5.4 0 9.72-1.368 13.032-4.104 3.384-2.736 5.04-6.192 5.04-10.44 0-7.416-4.464-10.656-12.384-13.032l-6.84-2.016-.72-.216c-2.232-.648-2.592-.792-4.032-1.656-1.44-.864-1.944-2.016-1.944-3.816 0-3.744 3.384-5.544 8.856-5.544 2.52 0 5.112.36 7.776 1.008 2.736.648 4.752 1.296 6.048 2.088l.792-8.424c-4.464-2.016-9.576-3.024-15.264-3.024z" fill="#fff"/><path d="M350.52 26.072L356.696 8.6h3.776L352.504 31h-3.968L340.6 8.6h3.744l6.176 17.472zM376.24 23h2.56v3.36h-2.56V31h-3.552v-4.64h-11.232V23l7.296-14.4h3.936L365.424 23h7.264v-5.376h3.552V23zm5.559 6.464c0-.597.16-1.056.48-1.376.32-.341.778-.512 1.376-.512.597 0 1.056.17 1.376.512.32.32.48.779.48 1.376 0 .619-.16 1.099-.48 1.44-.32.32-.779.48-1.376.48-.598 0-1.056-.16-1.376-.48-.32-.341-.48-.821-.48-1.44zm15.362 1.952c-1.835 0-3.424-.48-4.768-1.44-1.344-.981-2.368-2.347-3.072-4.096-.704-1.75-1.056-3.776-1.056-6.08 0-2.304.352-4.33 1.056-6.08.704-1.75 1.728-3.104 3.072-4.064 1.344-.981 2.933-1.472 4.768-1.472s3.413.49 4.736 1.472c1.344.96 2.368 2.315 3.072 4.064.725 1.75 1.088 3.776 1.088 6.08 0 2.304-.363 4.33-1.088 6.08-.704 1.75-1.728 3.115-3.072 4.096-1.323.96-2.901 1.44-4.736 1.44zm0-3.584c1.643 0 2.944-.672 3.904-2.016.96-1.365 1.44-3.37 1.44-6.016 0-2.667-.48-4.672-1.44-6.016-.939-1.365-2.24-2.048-3.904-2.048-1.664 0-2.976.683-3.936 2.048-.939 1.344-1.408 3.35-1.408 6.016 0 2.645.469 4.65 1.408 6.016.96 1.344 2.272 2.016 3.936 2.016z" fill="#FFC01D"/></svg>