<svg width="115" height="146" viewBox="0 0 115 146" fill="none" xmlns="http://www.w3.org/2000/svg">
<path d="M52.1865 0.633179H0.735107V52.0845H52.1865V0.633179Z" fill="#6B8CE0"/>
<path d="M36.674 26.0725L27.4744 31.3828L18.2749 36.6932V26.0725V15.4517L27.4744 20.762L36.674 26.0725Z" fill="white"/>
<path d="M61.6614 49.3413C61.6614 59.0256 53.9492 66.87 44.4302 66.87C34.9221 66.87 27.21 59.0256 27.21 49.3413C27.21 42.3121 31.2644 36.2526 37.1367 33.4651V52.4702H52.4509V33.8287C57.9265 36.7594 61.6614 42.5986 61.6614 49.3413Z" fill="#E6E9FA"/>
<path d="M104.949 145.116C110.115 145.116 114.303 140.134 114.303 133.988C114.303 127.843 110.115 122.861 104.949 122.861C99.7831 122.861 95.5952 127.843 95.5952 133.988C95.5952 140.134 99.7831 145.116 104.949 145.116Z" fill="#728DED"/>
<path d="M43.2294 61.4604C43.2294 61.4604 34.3163 137.91 100.917 133.691" stroke="#E6E9FA" stroke-width="12" stroke-miterlimit="10" stroke-linecap="round"/>
</svg>
