<svg width="300" height="224" viewBox="0 0 300 224" fill="none" xmlns="http://www.w3.org/2000/svg"><g clip-path="url(#clip0_86_17069)"><path d="M300 196.47H0v.15h300v-.15zM269.94 206.124h-19.872v.15h19.872v-.15zM198.732 207.756h-5.214v.15h5.214v-.15zM249.468 200.556h-11.514v.15h11.514v-.15zM57.39 201.564H31.476v.15H57.39v-.15zM66.534 201.564h-3.798v.15h3.798v-.15zM135.09 204.096H78.882v.15h56.208v-.15zM142.206 169.71H26.352a3.429 3.429 0 0 1-3.426-3.426V3.426A3.429 3.429 0 0 1 26.352 0h115.86a3.429 3.429 0 0 1 3.426 3.426v162.858a3.438 3.438 0 0 1-3.432 3.426zM26.352.15a3.28 3.28 0 0 0-3.276 3.276v162.858a3.28 3.28 0 0 0 3.276 3.276h115.86a3.28 3.28 0 0 0 3.276-3.276V3.426A3.28 3.28 0 0 0 142.212.15H26.352zM271.986 169.71h-115.86a3.429 3.429 0 0 1-3.426-3.426V3.426A3.429 3.429 0 0 1 156.126 0h115.86a3.429 3.429 0 0 1 3.426 3.426v162.858a3.429 3.429 0 0 1-3.426 3.426zM156.126.15a3.28 3.28 0 0 0-3.276 3.276v162.858a3.28 3.28 0 0 0 3.276 3.276h115.86a3.28 3.28 0 0 0 3.276-3.276V3.426A3.28 3.28 0 0 0 271.986.15h-115.86z" fill="#EBEBEB"/><path d="M172.488 125.532H85.446V180.9h87.042v-55.368z" fill="#EBEBEB"/><path d="M172.488 125.532H85.446v3.75h87.042v-3.75z" fill="#E0E0E0"/><path d="M170.064 128.538a1.128 1.128 0 1 0 0-2.256 1.128 1.128 0 0 0 0 2.256zM166.308 128.538a1.128 1.128 0 1 0 0-2.256 1.128 1.128 0 0 0 0 2.256zM162.552 128.538a1.128 1.128 0 1 0 0-2.256 1.128 1.128 0 0 0 0 2.256z" fill="#FAFAFA"/><path d="M221.106 141.006h-87.042v55.368h87.042v-55.368z" fill="#F5F5F5"/><path d="M221.106 141.006h-87.042v3.75h87.042v-3.75z" fill="#E0E0E0"/><path d="M219.81 142.878c0 .624-.504 1.128-1.128 1.128a1.127 1.127 0 0 1-1.128-1.128c0-.624.504-1.128 1.128-1.128.624 0 1.128.504 1.128 1.128zM216.054 142.878c0 .624-.504 1.128-1.128 1.128a1.127 1.127 0 0 1-1.128-1.128c0-.624.504-1.128 1.128-1.128.624 0 1.128.504 1.128 1.128zM212.298 142.878c0 .624-.504 1.128-1.128 1.128a1.127 1.127 0 0 1-1.128-1.128c0-.624.504-1.128 1.128-1.128.624 0 1.128.504 1.128 1.128z" fill="#FAFAFA"/><path d="M159.132 19.158c-.072 0-.144.006-.222.012.096-.51.15-1.032.15-1.566a8.632 8.632 0 0 0-8.634-8.634c-.024 0-.042.006-.066.006a6.576 6.576 0 0 0-5.706-3.3 6.598 6.598 0 0 0-5.844 3.546 7.18 7.18 0 0 0-1.842-.246c-3.918 0-7.104 3.108-7.248 6.99a6.564 6.564 0 0 0-2.664 5.28 6.591 6.591 0 0 0 6.588 6.588c.546 0 1.074-.072 1.578-.198h22.614a4.33 4.33 0 0 0 5.628-4.134 4.333 4.333 0 0 0-4.332-4.344zM228.414 36.192c-.054 0-.114.006-.168.006.072-.39.114-.792.114-1.2a6.61 6.61 0 0 0-6.612-6.612h-.048a5.033 5.033 0 0 0-4.368-2.526 5.06 5.06 0 0 0-4.476 2.712 5.474 5.474 0 0 0-1.41-.186c-3 0-5.442 2.376-5.55 5.352a5.03 5.03 0 0 0-2.04 4.044 5.046 5.046 0 0 0 6.438 4.848h17.01c.348.126.726.198 1.122.198a3.321 3.321 0 0 0 3.318-3.318 3.328 3.328 0 0 0-3.33-3.318zM91.614 40.992c-.054 0-.114.006-.168.006.072-.39.114-.792.114-1.2a6.61 6.61 0 0 0-6.612-6.612H84.9a5.033 5.033 0 0 0-4.368-2.526 5.06 5.06 0 0 0-4.476 2.712 5.474 5.474 0 0 0-1.41-.186c-3 0-5.442 2.376-5.55 5.352a5.03 5.03 0 0 0-2.04 4.044 5.046 5.046 0 0 0 6.438 4.848h17.01c.348.126.726.198 1.122.198a3.321 3.321 0 0 0 3.318-3.318 3.328 3.328 0 0 0-3.33-3.318z" fill="#EBEBEB"/><path d="M47.268 175.098l-.756-1.05a1.462 1.462 0 0 0-1.176-.612H40.02c-.456 0-.87.228-1.104.612l-.636 1.05a1.28 1.28 0 0 1-1.104.612h-3.174c-.756 0-1.332.618-1.29 1.38l1.026 17.754c.042.762.696 1.38 1.452 1.38h25.146c.756 0 1.332-.618 1.29-1.38L60.6 177.09a1.477 1.477 0 0 0-1.452-1.38H48.444c-.456 0-.9-.228-1.176-.612z" fill="#E0E0E0"/><path d="M61.668 177.402h-23.04c-.96 0-1.806.774-1.896 1.728l-1.386 15.372a1.56 1.56 0 0 0 1.584 1.728h23.034c.96 0 1.806-.774 1.896-1.728l1.386-15.372c.09-.954-.618-1.728-1.578-1.728z" fill="#F0F0F0"/><path d="M250.626 175.35l-.756-1.05a1.462 1.462 0 0 0-1.176-.612h-5.316c-.456 0-.87.228-1.104.612l-.636 1.05a1.28 1.28 0 0 1-1.104.612h-3.174c-.756 0-1.332.618-1.29 1.38l1.026 17.754c.042.762.696 1.38 1.452 1.38h25.146c.756 0 1.332-.618 1.29-1.38l-1.026-17.754a1.477 1.477 0 0 0-1.452-1.38h-10.71a1.46 1.46 0 0 1-1.17-.612z" fill="#E0E0E0"/><path d="M265.026 177.654h-23.034c-.96 0-1.806.774-1.896 1.728l-1.386 15.372c-.084.954.624 1.722 1.584 1.722h23.034c.96 0 1.806-.774 1.896-1.722l1.386-15.372a1.56 1.56 0 0 0-1.584-1.728z" fill="#F0F0F0"/><path d="M178.182 161.004l-.756-1.05a1.462 1.462 0 0 0-1.176-.612h-5.316c-.456 0-.87.228-1.104.612l-.636 1.05a1.28 1.28 0 0 1-1.104.612h-3.174c-.756 0-1.332.618-1.29 1.38l1.026 17.754c.042.762.696 1.38 1.452 1.38h25.146c.756 0 1.332-.618 1.29-1.38l-1.026-17.754a1.477 1.477 0 0 0-1.452-1.38h-10.71a1.443 1.443 0 0 1-1.17-.612z" fill="#E0E0E0"/><path d="M192.576 163.314h-23.034c-.96 0-1.806.774-1.896 1.728l-1.386 15.372c-.084.954.624 1.722 1.584 1.722h23.034c.96 0 1.806-.774 1.896-1.722l1.386-15.372c.09-.96-.618-1.728-1.584-1.728z" fill="#F0F0F0"/><path d="M150 223.566c64.249 0 116.334-3.041 116.334-6.792s-52.085-6.792-116.334-6.792c-64.25 0-116.334 3.041-116.334 6.792s52.085 6.792 116.334 6.792z" fill="#F5F5F5"/><path d="M96.978 150.576H37.17a1.421 1.421 0 0 1-1.422-1.422V44.658c0-.786.636-1.422 1.422-1.422h59.808c.786 0 1.422.636 1.422 1.422v104.49c0 .786-.636 1.428-1.422 1.428z" fill="#567AD6"/><path opacity=".7" d="M96.978 150.576H37.17a1.421 1.421 0 0 1-1.422-1.422V44.658c0-.786.636-1.422 1.422-1.422h59.808c.786 0 1.422.636 1.422 1.422v104.49c0 .786-.636 1.428-1.422 1.428z" fill="#fff"/><path d="M51.804 56.832H40.002v1.602h11.802v-1.602zM51.804 60.432H40.002v1.602h11.802v-1.602zM93.828 56.832H82.026v1.602h11.802v-1.602zM71.826 49.428H60.024v1.602h11.802v-1.602zM93.828 46.626H40.002v1.602h53.826v-1.602zM93.822 65.43h-47.82v1.602h47.82V65.43zM93.828 68.628H40.002v1.602h53.826v-1.602zM93.828 71.826H40.002v1.602h53.826v-1.602zM93.828 75.03H40.002v1.602h53.826V75.03zM87.822 78.228h-47.82v1.602h47.82v-1.602zM93.822 84.042h-47.82v1.602h47.82v-1.602zM93.828 87.24H40.002v1.602h53.826V87.24zM93.828 90.438H40.002v1.602h53.826v-1.602zM93.828 93.642H40.002v1.602h53.826v-1.602zM87.822 96.84h-47.82v1.602h47.82V96.84zM93.822 102.654h-47.82v1.602h47.82v-1.602zM93.828 105.852H40.002v1.602h53.826v-1.602zM93.828 109.05H40.002v1.602h53.826v-1.602zM93.828 112.254H40.002v1.602h53.826v-1.602zM87.822 115.452h-47.82v1.602h47.82v-1.602zM93.822 121.866h-47.82v1.602h47.82v-1.602zM93.828 125.064H40.002v1.602h53.826v-1.602zM93.828 128.262H40.002v1.602h53.826v-1.602zM93.828 131.466H40.002v1.602h53.826v-1.602zM87.822 134.664h-47.82v1.602h47.82v-1.602zM93.828 143.886H82.026v1.602h11.802v-1.602z" fill="#567AD6"/><g opacity=".2" fill="#fff"><path opacity=".2" d="M51.804 56.832H40.002v1.602h11.802v-1.602zM51.804 60.432H40.002v1.602h11.802v-1.602zM93.828 56.832H82.026v1.602h11.802v-1.602zM71.826 49.428H60.024v1.602h11.802v-1.602zM93.828 46.626H40.002v1.602h53.826v-1.602zM93.822 65.43h-47.82v1.602h47.82V65.43zM93.828 68.628H40.002v1.602h53.826v-1.602zM93.828 71.826H40.002v1.602h53.826v-1.602zM93.828 75.03H40.002v1.602h53.826V75.03zM87.822 78.228h-47.82v1.602h47.82v-1.602zM93.822 84.042h-47.82v1.602h47.82v-1.602zM93.828 87.24H40.002v1.602h53.826V87.24zM93.828 90.438H40.002v1.602h53.826v-1.602zM93.828 93.642H40.002v1.602h53.826v-1.602zM87.822 96.84h-47.82v1.602h47.82V96.84zM93.822 102.654h-47.82v1.602h47.82v-1.602zM93.828 105.852H40.002v1.602h53.826v-1.602zM93.828 109.05H40.002v1.602h53.826v-1.602zM93.828 112.254H40.002v1.602h53.826v-1.602zM87.822 115.452h-47.82v1.602h47.82v-1.602zM93.822 121.866h-47.82v1.602h47.82v-1.602zM93.828 125.064H40.002v1.602h53.826v-1.602zM93.828 128.262H40.002v1.602h53.826v-1.602zM93.828 131.466H40.002v1.602h53.826v-1.602zM87.822 134.664h-47.82v1.602h47.82v-1.602zM93.828 143.886H82.026v1.602h11.802v-1.602z"/></g><path opacity=".1" d="M99.978 156.288H66.612a1.421 1.421 0 0 1-1.422-1.422v-27.234c0-.786.636-1.422 1.422-1.422h33.366c.786 0 1.422.636 1.422 1.422v27.234c0 .786-.636 1.422-1.422 1.422z" fill="#000"/><path d="M104.442 161.982H71.076a1.421 1.421 0 0 1-1.422-1.422v-27.24c0-.786.636-1.422 1.422-1.422h33.366c.786 0 1.422.636 1.422 1.422v27.234c0 .792-.636 1.428-1.422 1.428z" fill="#567AD6"/><path opacity=".3" d="M104.442 161.982H71.076a1.421 1.421 0 0 1-1.422-1.422v-27.24c0-.786.636-1.422 1.422-1.422h33.366c.786 0 1.422.636 1.422 1.422v27.234c0 .792-.636 1.428-1.422 1.428z" fill="#fff"/><path d="M80.4 149.43h-7.2v3.6h7.2v-3.6zM101.4 149.43H81v3.6h20.4v-3.6zM80.4 144.63h-7.2v4.2h7.2v-4.2zM80.4 140.43h-7.2v3.6h7.2v-3.6zM101.4 144.63H81v4.2h20.4v-4.2zM101.4 153.63H81v4.2h20.4v-4.2z" fill="#567AD6"/><path d="M101.4 140.43H81v3.6h20.4v-3.6z" fill="#FFC700"/><path d="M80.4 153.63h-7.2v4.2h7.2v-4.2zM80.4 135.63h-7.2v4.2h7.2v-4.2zM101.4 135.63H81v4.2h20.4v-4.2z" fill="#567AD6"/><path opacity=".1" d="M110.34 104.28H76.974a1.421 1.421 0 0 1-1.422-1.422v-27.24c0-.786.636-1.422 1.422-1.422h33.366c.786 0 1.422.636 1.422 1.422v27.24c0 .786-.636 1.422-1.422 1.422z" fill="#000"/><path d="M117.042 102.858H83.676a1.421 1.421 0 0 1-1.422-1.422V74.202c0-.786.636-1.422 1.422-1.422h33.366c.786 0 1.422.636 1.422 1.422v27.234c0 .786-.636 1.422-1.422 1.422z" fill="#567AD6"/><path opacity=".3" d="M117.042 102.858H83.676a1.421 1.421 0 0 1-1.422-1.422V74.202c0-.786.636-1.422 1.422-1.422h33.366c.786 0 1.422.636 1.422 1.422v27.234c0 .786-.636 1.422-1.422 1.422z" fill="#fff"/><path d="M114.6 76.83h-9v4.2h9v-4.2zM105 76.83h-9v4.2h9v-4.2zM105 81.03h-9v18h9v-18zM114.6 81.03h-9v18h9v-18zM95.4 76.83h-9v4.2h9v-4.2zM95.4 81.03h-9v18h9v-18z" fill="#567AD6"/><path opacity=".1" d="M121.68 135.846H88.32a1.421 1.421 0 0 1-1.422-1.422v-27.24c0-.786.636-1.422 1.422-1.422h33.366c.786 0 1.422.636 1.422 1.422v27.24a1.43 1.43 0 0 1-1.428 1.422z" fill="#000"/><path d="M133.842 133.92h-33.366a1.421 1.421 0 0 1-1.422-1.422v-27.234c0-.786.636-1.422 1.422-1.422h33.366c.786 0 1.422.636 1.422 1.422v27.234c0 .786-.636 1.422-1.422 1.422z" fill="#567AD6"/><path opacity=".3" d="M133.842 133.92h-33.366a1.421 1.421 0 0 1-1.422-1.422v-27.234c0-.786.636-1.422 1.422-1.422h33.366c.786 0 1.422.636 1.422 1.422v27.234c0 .786-.636 1.422-1.422 1.422z" fill="#fff"/><path d="M131.4 108.03h-13.8v10.2h13.8v-10.2zM117 108.03h-13.8v10.2H117v-10.2zM117 118.83h-13.8v11.4H117v-11.4zM131.4 118.83h-13.8v11.4h13.8v-11.4z" fill="#567AD6"/><path opacity=".2" d="M135 105.264v20.166h-12.438c-1.56 0-2.562-1.116-2.562-2.676V103.83h13.842c.786 0 1.158.648 1.158 1.434z" fill="#000"/><path opacity=".1" d="M122.442 76.002H89.076a1.421 1.421 0 0 1-1.422-1.422V47.34c0-.786.636-1.422 1.422-1.422h33.366c.786 0 1.422.636 1.422 1.422v27.234c0 .792-.636 1.428-1.422 1.428z" fill="#000"/><path d="M128.442 70.596H95.076a1.421 1.421 0 0 1-1.422-1.422V41.94c0-.786.636-1.422 1.422-1.422h33.366c.786 0 1.422.636 1.422 1.422v27.234c0 .786-.636 1.422-1.422 1.422z" fill="#567AD6"/><path opacity=".3" d="M128.442 70.596H95.076a1.421 1.421 0 0 1-1.422-1.422V41.94c0-.786.636-1.422 1.422-1.422h33.366c.786 0 1.422.636 1.422 1.422v27.234c0 .786-.636 1.422-1.422 1.422z" fill="#fff"/><path d="M119.4 44.43H108v3h11.4v-3zM113.4 48.03H108v18.6h5.4v-18.6zM126 44.43h-6v3h6v-3zM126 48.03h-6v18.6h6v-18.6zM119.4 48.03H114v18.6h5.4v-18.6z" fill="#567AD6"/><path d="M107.4 48.03h-9.6v18.6h9.6v-18.6z" fill="#FFC700"/><path d="M107.4 44.43h-9.6v3h9.6v-3zM228.054 157.344H187.2a2.827 2.827 0 0 1-2.826-2.826v-40.854a2.827 2.827 0 0 1 2.826-2.826h40.854a2.827 2.827 0 0 1 2.826 2.826v40.854a2.827 2.827 0 0 1-2.826 2.826z" fill="#567AD6"/><path opacity=".25" d="M225 116.922h-34.548v34.35H225v-34.35z" fill="#fff"/><path opacity=".25" d="M190.452 151.23l8.796-7.23 2.874 2.31 9.108-7.692 4.476 4.404 9.294-7.794v16.002h-34.548z" fill="#fff"/><path opacity=".25" d="M190.452 151.23l7.446-13.968 8.7 1.356 6.504-8.496 6.696 1.206 5.202-5.202v25.104h-34.548z" fill="#fff"/><path opacity=".25" d="M190.452 151.23l17.178-2.124 5.568-2.79 6 .606L225 144.03v7.2h-34.548z" fill="#fff"/><path opacity=".2" d="M226.2 111.03v4.824c0 1.56-1.464 2.976-3.024 2.976H189.6v14.088c0 1.56-1.416 2.712-2.976 2.712H184.2v-21.96c0-1.56 1.44-2.64 3-2.64h39z" fill="#000"/><path d="M171.426 117.858h-40.854a2.827 2.827 0 0 1-2.826-2.826V74.178a2.827 2.827 0 0 1 2.826-2.826h40.854a2.827 2.827 0 0 1 2.826 2.826v40.854a2.835 2.835 0 0 1-2.826 2.826z" fill="#567AD6"/><path opacity=".8" d="M156.9 84.03h-12a.522.522 0 0 1-.522-.522v-6.774c0-.288.234-.522.522-.522h12.006c.288 0 .522.234.522.522v6.774c0 .288-.24.522-.528.522z" fill="#fff"/><path opacity=".6" d="M147.744 99h-9.51a.522.522 0 0 1-.522-.522v-4.926c0-.288.234-.522.522-.522h9.51c.288 0 .522.234.522.522v4.926a.522.522 0 0 1-.522.522zM163.758 99h-9.51a.522.522 0 0 1-.522-.522v-4.926c0-.288.234-.522.522-.522h9.51c.288 0 .522.234.522.522v4.926a.522.522 0 0 1-.522.522z" fill="#fff"/><path opacity=".4" d="M153.912 110.76h-4.494a.522.522 0 0 1-.522-.522v-4.056c0-.288.234-.522.522-.522h4.494c.288 0 .522.234.522.522v4.056a.522.522 0 0 1-.522.522zM160.95 110.76h-4.494a.522.522 0 0 1-.522-.522v-4.056c0-.288.234-.522.522-.522h4.494c.288 0 .522.234.522.522v4.056a.522.522 0 0 1-.522.522zM167.982 110.76h-4.494a.522.522 0 0 1-.522-.522v-4.056c0-.288.234-.522.522-.522h4.494c.288 0 .522.234.522.522v4.056a.522.522 0 0 1-.522.522zM137.634 110.76h-4.494a.522.522 0 0 1-.522-.522v-4.056c0-.288.234-.522.522-.522h4.494c.288 0 .522.234.522.522v4.056a.522.522 0 0 1-.522.522zM145.266 110.76h-4.494a.522.522 0 0 1-.522-.522v-4.056c0-.288.234-.522.522-.522h4.494c.288 0 .522.234.522.522v4.056a.515.515 0 0 1-.522.522z" fill="#fff"/><g opacity=".3" fill="#fff"><path opacity=".3" d="M158.4 93.03h.6v-4.2h-7.8v-4.8h-.6v4.8h-7.8v4.2h.6v-3.6h15v3.6zM142.8 102.63H135v3h.6v-2.4h7.2v2.4h.6v-6.6h-.6v3.6zM159 103.23v-4.2h-.6v4.2h-7.2v2.4h.6v-1.8h6.6v1.8h.6v-1.8h6.6v1.8h.6v-2.4H159z"/></g><path opacity=".2" d="M174 74.184V87.63h-32.958c-1.56 0-3.042-1.416-3.042-2.976V71.43h33.426c1.554 0 2.574 1.194 2.574 2.754z" fill="#000"/><path d="M235.182 97.638h-40.854a2.827 2.827 0 0 1-2.826-2.826V53.964a2.827 2.827 0 0 1 2.826-2.826h40.854a2.827 2.827 0 0 1 2.826 2.826v40.854c0 1.56-1.266 2.82-2.826 2.82z" fill="#567AD6"/><path opacity=".25" d="M232.032 57.216h-34.548v34.35h34.548v-34.35z" fill="#fff"/><path opacity=".35" d="M204.492 78.33h-3.48v8.922h3.48V78.33z" fill="#fff"/><path opacity=".35" d="M204.492 78.33h-3.48v13.236h3.48V78.33zM210.492 72.078h-3.48v13.134h3.48V72.078z" fill="#fff"/><path opacity=".35" d="M210.492 72.078h-3.48v19.488h3.48V72.078zM216.498 75.924h-3.48v10.542h3.48V75.924z" fill="#fff"/><path opacity=".35" d="M216.498 75.924h-3.48v15.642h3.48V75.924zM222.504 70.524h-3.48v14.184h3.48V70.524z" fill="#fff"/><path opacity=".35" d="M222.504 70.524h-3.48v21.042h3.48V70.524zM228.504 62.274h-3.48v19.74h3.48v-19.74z" fill="#fff"/><path opacity=".35" d="M228.504 62.274h-3.48v29.292h3.48V62.274z" fill="#fff"/><path opacity=".2" d="M204 51.03v25.44c0 1.56-1.338 2.76-2.898 2.76H191.4V53.964c0-1.56 1.374-2.934 2.928-2.934H204z" fill="#000"/><path d="M196.842 65.748h-40.854a2.827 2.827 0 0 1-2.826-2.826V22.074a2.827 2.827 0 0 1 2.826-2.826h40.854a2.827 2.827 0 0 1 2.826 2.826v40.854a2.826 2.826 0 0 1-2.826 2.82z" fill="#567AD6"/><path opacity=".25" d="M191.465 44.942c1.348-8.312-4.296-16.143-12.607-17.492-8.312-1.349-16.143 4.295-17.492 12.607-1.349 8.311 4.295 16.143 12.607 17.492 8.311 1.349 16.143-4.296 17.492-12.607z" fill="#fff"/><path opacity=".25" d="M176.412 42.498l14.982 2.85c-1.362 7.164-7.686 12.402-14.982 12.402-8.364 0-15.246-6.882-15.246-15.246s6.882-15.246 15.246-15.246v15.24z" fill="#fff"/><path opacity=".25" d="M176.412 42.498l-.042 15.246c-8.346-.024-15.204-6.9-15.204-15.246 0-8.364 6.882-15.246 15.246-15.246v15.246z" fill="#fff"/><path opacity=".25" d="M176.412 42.498l-8.04-12.96a15.223 15.223 0 0 1 3.834-1.698c1.35-.39 2.748-.588 4.152-.588l.054 15.246z" fill="#fff"/><path d="M256.95 72.63s8.1 14.196 8.7 17.598c.6 3.402-6.9 25.152-6.9 25.152s1.65 5.724-.15 6.69c-1.8.966-4.944 2.91-5.4 1.26-.456-1.65 0-7.092 0-7.092l1.35-1.158s4.782-22.728 4.788-23.514c.006-.786-8.706-14.19-8.706-14.19l6.318-4.746zM227.088 211.248l-4.866.51-.246-2.82-.666-7.674 4.866-.516.738 8.478.174 2.022zM251.376 210.63h-4.716l-.042-1.068-.006-.132-.24-6.84-.006-.138-.096-2.622h4.722l.384 10.8z" fill="#EEC1BB"/><path opacity=".2" d="M226.176 200.748l.738 8.478-4.938-.288-.666-7.674 4.866-.516zM251.346 210.03h-.006l-4.722-.6h-.006l-.246-6.6h.006l4.728.378.24 6.612.006.21z" fill="#000"/><path d="M262.368 79.428l-8.118 5.52-.156-.198-4.926-6.42-3.018-3.936 4.458-12.12c5.142 1.956 11.76 17.154 11.76 17.154z" fill="#263238"/><path opacity=".2" d="M254.094 84.75l-4.926-6.42 3.954-6.066s2.418 6.264.972 12.486z" fill="#000"/><path d="M246.006 210.342h5.73c.192 0 .36.138.402.324l.93 4.2a.694.694 0 0 1-.534.822.654.654 0 0 1-.156.018c-1.854-.03-3.204-.144-5.532-.144-1.434 0-5.76.15-7.74.15-1.98 0-2.238-1.956-1.428-2.136 3.636-.792 6.372-1.89 7.536-2.934.216-.198.498-.3.792-.3zM221.706 210.192h5.73c.192 0 .36.138.402.324l.93 4.2a.694.694 0 0 1-.534.822.654.654 0 0 1-.156.018c-1.854-.03-3.204-.144-5.532-.144-1.434 0-5.76.15-7.74.15-1.98 0-2.238-1.956-1.428-2.136 3.636-.792 6.372-1.89 7.536-2.934.216-.198.498-.3.792-.3z" fill="#263238"/><path d="M220.866 208.23h6.918s-.564-59.55 6.918-79.662c.528 6.648 1.122 13.548 1.704 19.296.366 3.558.726 6.612 1.068 8.94 2.178 15 7.674 52.026 7.674 52.026h6.834s-.81-35.478-1.62-50.22c-.894-16.002-1.278-51.18-1.314-54.18h-25.032c-2.382 12.6-8.49 63-3.15 103.8z" fill="#567AD6"/><path opacity=".6" d="M220.866 208.23h6.918s-.564-59.55 6.918-79.662c.528 6.648 1.122 13.548 1.704 19.296.366 3.558.726 6.612 1.068 8.94 2.178 15 7.674 52.026 7.674 52.026h6.834s-.81-35.478-1.62-50.22c-.894-16.002-1.278-51.18-1.314-54.18h-25.032c-2.382 12.6-8.49 63-3.15 103.8z" fill="#fff"/><path d="M233.1 51.552c.06.228.126.45.204.666a6.504 6.504 0 0 0 2.334 3.108c.27.198.558.372.852.528 1.566.804 3.426.96 5.112.228a5.985 5.985 0 0 0 1.95-1.35c2.364-2.388 2.298-5.142 2.568-9.81a6.372 6.372 0 0 0-.474-2.934 6.387 6.387 0 0 0-8.352-3.444c-4.578 1.866-5.202 8.808-4.194 13.008z" fill="#EEC1BB"/><path opacity=".2" d="M235.638 55.326c.27.198.558.372.852.528 1.566.804 3.426.96 5.112.228-.33-.9-.834-1.584-.834-1.584s-2.784-.426-5.13.828z" fill="#000"/><path d="M245.028 61.38c-2.298 2.088-7.926 1.314-7.926 1.314s-3.516-.96-2.778-2.058c2.07-.342 3.072-1.308 3.486-2.544.24-.72.276-1.53.21-2.364-.03-.438-.096-.882-.174-1.32l6.96-5.154c-.912 3.402-2.028 9.66.222 12.126z" fill="#EEC1BB"/><path d="M235.338 41.664c.048.132-.072.402-.156.708a6.821 6.821 0 0 0-.252 1.842c-.006 2.07.96 3.954 2.412 5.388a29.759 29.759 0 0 0 2.1 5.46c.09.174.186.36.348.462.192.126.438.126.672.114l4.068-.144c.24-.006.516-.036.654-.228.078-.108.096-.24.15-.366.366-.876 1.92-.462 2.448-1.248.216-.324.186-.744.312-1.11.336-.972 1.716-1.482 1.662-2.508-.03-.6-.576-1.14-.408-1.716.162-.564.9-.756 1.176-1.272.282-.528-.012-1.17-.33-1.68s-.678-1.086-.516-1.662c.066-.228.204-.426.312-.636.396-.798.228-1.848-.402-2.478-.252-.252-.576-.45-.744-.774-.276-.528-.042-1.23-.378-1.722-.33-.486-1.026-.51-1.614-.474-.588.036-1.278.03-1.632-.444-.252-.336-.24-.828-.516-1.14-.39-.45-1.116-.324-1.668-.102-.552.222-1.176.504-1.716.252-.372-.174-.6-.558-.942-.786a1.352 1.352 0 0 0-1.596.09c-.3.258-.486.648-.822.852-.48.288-1.086.12-1.626-.006-.54-.132-1.212-.174-1.566.258-.504.612.042 1.674-.474 2.28-.294.348-.834.39-1.152.714-.444.444-.168 1.35.444 1.476.18.036.414.048.48.222.03.072.012.15.036.228.066.234.396.246.618.168.408-.138.576-.126.618-.018z" fill="#263238"/><path d="M238.29 47.64c-.276 1.014-.84 1.758-1.554 2.07-.948.402-1.572-.936-1.434-2.34.132-1.242.774-2.994 1.788-2.76 1.02.234 1.53 1.776 1.2 3.03z" fill="#EEC1BB"/><path opacity=".2" d="M234.702 128.538c.528 6.648 1.122 13.56 1.704 19.308.852-8.298 1.896-14.214 1.896-14.214s.978-.804 3.666-5.094c2.688-4.296 0-12.3 0-12.3.084 7.44-7.266 12.3-7.266 12.3z" fill="#000"/><path d="M250.2 109.428l-28.602-1.398s.822-15.762 3.804-31.05c.828-4.224 1.812-8.406 3-12.216.66-2.142 1.386-4.164 2.178-6.006 0 0 17.778 1.47 21.402 4.272 3.618 2.802-1.98 31.8-1.782 46.398z" fill="#263238"/><path d="M235.284 59.232s2.718-2.136 7.818-2.022c5.1.114 5.598 2.022 5.598 2.022s5.598 2.796 1.2 7.392-13.062-7.056-13.062-7.056l-1.554-.336z" fill="#263238"/><path opacity=".25" d="M235.284 59.232s2.718-2.136 7.818-2.022c5.1.114 5.598 2.022 5.598 2.022s5.598 2.796 1.2 7.392-13.062-7.056-13.062-7.056l-1.554-.336z" fill="#fff"/><path opacity=".2" d="M231.03 65.13s-1.242 8.118-5.628 11.85c.828-4.224 1.812-8.406 3-12.216l2.628.366z" fill="#000"/><path d="M227.364 58.866s-17.766-3.63-20.262-4.584C204.6 53.328 191.4 40.698 191.4 40.698l-2.892 2.184s9.894 12.846 14.844 16.542c4.95 3.702 22.278 9.294 22.278 9.294l1.734-9.852z" fill="#EEC1BB"/><path d="M231.072 58.866l-15.474-2.826-.402 10.692 11.562 4.698c.006 0 7.296-7.32 4.314-12.564z" fill="#263238"/><path d="M191.4 40.698c-1.428-1.62-6.612-5.136-7.362-5.436-.75-.3-1.866 4.29-1.644 4.89.222.6 2.766 1.872 4.05 2.028 1.284.156 2.658 1.464 2.658 1.464l2.298-2.946z" fill="#EEC1BB"/><path d="M214.758 55.65l1.698.39-.774 10.884-1.626-.594.702-10.68z" fill="#263238"/><path opacity=".25" d="M214.758 55.65l1.698.39-.774 10.884-1.626-.594.702-10.68z" fill="#fff"/><path d="M253.2 84.852l9.168-6.204.63 1.578-8.736 5.502-1.062-.876z" fill="#263238"/><path opacity=".25" d="M253.2 84.852l9.168-6.204.63 1.578-8.736 5.502-1.062-.876z" fill="#fff"/><path d="M220.086 206.28l.342 1.95h8.172v-1.8l-8.514-.15zM244.362 207.03l.786 1.8H252l.45-1.8h-8.088z" fill="#567AD6"/></g><defs><clipPath id="clip0_86_17069"><path fill="#fff" d="M0 0h300v223.566H0z"/></clipPath></defs></svg>