<svg width="1120" height="99" viewBox="0 0 1120 99" fill="none" xmlns="http://www.w3.org/2000/svg"><mask id="a" style="mask-type:alpha" maskUnits="userSpaceOnUse" x="0" y="0" width="1120" height="99"><path d="M0 0h1120v99H0V0z" fill="#fff"/></mask><g mask="url(#a)" fill-opacity=".09"><path d="M516-510v30.385L-24.615 61H-55l571-571z" fill="url(#paint0_linear_160_25911)"/><path d="M449.603-121L291.377 37.215H221L379.215-121h70.388z" fill="url(#paint1_linear_160_25911)"/><path d="M146.459 42H26l212.541-213H359L146.459 42z" fill="url(#paint2_linear_160_25911)"/><path d="M462.103-159H576L341.897 75H228l234.103-234z" fill="url(#paint3_linear_160_25911)"/><path opacity=".2" d="M549.354-436H616L140.475 50H66l483.354-486z" fill="url(#paint4_linear_160_25911)"/><path d="M947.539 41.72l-173.622-.582L1322.05-507h174.19L947.539 41.72z" fill="url(#paint5_linear_160_25911)"/><path d="M802.622 22.72L629 22.137 1177.14-526h174.18L802.622 22.72z" fill="url(#paint6_linear_160_25911)"/><path d="M1193.92-103L1024.34 67h-75.423l169.563-170h75.44z" fill="url(#paint7_linear_160_25911)"/><path d="M1326-161L1114.2 52H1020l211.78-213H1326z" fill="url(#paint8_linear_160_25911)"/></g><defs><linearGradient id="paint0_linear_160_25911" x1="-325.774" y1="-828.824" x2="1354.82" y2="-828.824" gradientUnits="userSpaceOnUse"><stop stop-color="#4168B3"/><stop offset="1" stop-color="#4771C2"/></linearGradient><linearGradient id="paint1_linear_160_25911" x1="112.594" y1="-209.341" x2="785.429" y2="-209.341" gradientUnits="userSpaceOnUse"><stop stop-color="#4168B3"/><stop offset="1" stop-color="#4771C2"/></linearGradient><linearGradient id="paint2_linear_160_25911" x1="-131.912" y1="-289.931" x2="848.189" y2="-289.931" gradientUnits="userSpaceOnUse"><stop stop-color="#4168B3"/><stop offset="1" stop-color="#4771C2"/></linearGradient><linearGradient id="paint3_linear_160_25911" x1="62.975" y1="-289.656" x2="1087.22" y2="-289.656" gradientUnits="userSpaceOnUse"><stop stop-color="#4168B3"/><stop offset="1" stop-color="#4771C2"/></linearGradient><linearGradient id="paint4_linear_160_25911" x1="-194.816" y1="-707.363" x2="1423.97" y2="-707.363" gradientUnits="userSpaceOnUse"><stop stop-color="#4168B3"/><stop offset="1" stop-color="#4771C2"/></linearGradient><linearGradient id="paint5_linear_160_25911" x1="431.385" y1="-813.383" x2="2557.35" y2="-813.383" gradientUnits="userSpaceOnUse"><stop stop-color="#4168B3"/><stop offset="1" stop-color="#4771C2"/></linearGradient><linearGradient id="paint6_linear_160_25911" x1="286.469" y1="-832.383" x2="2412.43" y2="-832.383" gradientUnits="userSpaceOnUse"><stop stop-color="#4168B3"/><stop offset="1" stop-color="#4771C2"/></linearGradient><linearGradient id="paint7_linear_160_25911" x1="832.735" y1="-197.921" x2="1553.83" y2="-197.921" gradientUnits="userSpaceOnUse"><stop stop-color="#4168B3"/><stop offset="1" stop-color="#4771C2"/></linearGradient><linearGradient id="paint8_linear_160_25911" x1="874.892" y1="-279.931" x2="1775.53" y2="-279.931" gradientUnits="userSpaceOnUse"><stop stop-color="#4168B3"/><stop offset="1" stop-color="#4771C2"/></linearGradient></defs></svg>