<svg width="462" height="380" viewBox="0 0 462 380" fill="none" xmlns="http://www.w3.org/2000/svg">
<path d="M461.181 12.6639V172.689H270.18C254.482 172.689 241.754 159.959 241.754 144.258V91.6404C241.754 78.9546 231.471 68.6809 218.799 68.6809H172.098C160.642 68.6809 151.357 59.3941 151.357 47.9363V0H448.52C455.514 0 461.181 5.66859 461.181 12.6639Z" fill="#E6E9FA" fill-opacity="0.07"/>
<path fill-rule="evenodd" clip-rule="evenodd" d="M220.608 347.691C220.972 346.678 221.457 345.741 222.063 344.882L221.302 343.406C220.961 342.745 221.115 341.929 221.688 341.445L223.451 339.957C224.024 339.472 224.85 339.45 225.445 339.902L226.767 340.905C227.715 340.453 228.728 340.134 229.786 339.946L230.282 338.371C230.502 337.655 231.196 337.192 231.945 337.258L234.237 337.456C234.986 337.522 235.581 338.084 235.691 338.833L235.923 340.475C236.936 340.839 237.873 341.323 238.732 341.929L240.208 341.169C240.869 340.828 241.685 340.982 242.169 341.555L243.657 343.318C244.142 343.89 244.164 344.717 243.712 345.312L242.709 346.634C243.161 347.581 243.481 348.595 243.668 349.653L245.243 350.148C245.959 350.369 246.422 351.063 246.356 351.812L246.158 354.104C246.092 354.853 245.53 355.448 244.781 355.558L243.139 355.789C242.775 356.803 242.291 357.739 241.685 358.599L242.445 360.075C242.786 360.736 242.632 361.551 242.059 362.036L240.296 363.524C239.724 364.008 238.897 364.03 238.302 363.579L236.98 362.576C236.033 363.028 235.019 363.347 233.961 363.535L233.466 365.11C233.245 365.826 232.551 366.289 231.802 366.223L229.51 366.024C228.761 365.958 228.166 365.396 228.056 364.647L227.825 363.006C226.811 362.642 225.875 362.157 225.015 361.551L223.539 362.312C222.878 362.653 222.063 362.499 221.578 361.926L220.091 360.163C219.606 359.59 219.584 358.764 220.035 358.169L221.038 356.847C220.586 355.899 220.267 354.886 220.08 353.828L218.504 353.332C217.788 353.112 217.325 352.418 217.391 351.669L217.59 349.377C217.656 348.628 218.218 348.033 218.967 347.923L220.608 347.691ZM225.004 350.214C224.189 354.599 227.571 358.599 232.033 358.533C235.328 358.489 238.203 356.065 238.798 352.815C239.613 348.43 236.231 344.43 231.769 344.496C228.475 344.552 225.61 346.975 225.004 350.214Z" fill="#B1C3F0"/>
<path d="M144.339 271.126H78.7524V336.712H144.339V271.126Z" fill="#B1C3F0"/>
<path d="M120.277 295.122C120.277 299.892 116.41 303.759 111.639 303.759C106.869 303.759 103.002 299.892 103.002 295.122C103.002 290.351 106.869 286.484 111.639 286.484C116.41 286.484 120.277 290.351 120.277 295.122Z" fill="#6B83D8"/>
<path d="M127.526 322.324H95.7412C96.6557 314.358 103.42 308.188 111.628 308.188C119.836 308.188 126.612 314.358 127.526 322.324Z" fill="#6B83D8"/>
<path d="M33.5746 320C36.9456 320 39.6783 317.267 39.6783 313.896C39.6783 310.526 36.9456 307.793 33.5746 307.793C30.2037 307.793 27.4709 310.526 27.4709 313.896C27.4709 317.267 30.2037 320 33.5746 320Z" fill="#E6E9FA"/>
<path d="M44.8124 333.122H22.3479C22.9979 327.492 27.7795 323.129 33.5747 323.129C39.3698 323.129 44.1624 327.492 44.8124 333.122Z" fill="#E6E9FA"/>
<path d="M190.436 343.786H154.222V380H190.436V343.786Z" fill="#728DED"/>
<path d="M172.158 350.903L175.375 357.414L182.559 358.45L177.358 363.529L178.592 370.679L172.158 367.308L165.735 370.679L166.958 363.529L161.758 358.45L168.941 357.414L172.158 350.903Z" fill="white"/>
<path d="M333.773 29.6019L336.99 36.1132L344.173 37.1598L338.973 42.2278L340.196 49.3781L333.773 46.0068L327.339 49.3781L328.573 42.2278L323.373 37.1598L330.556 36.1132L333.773 29.6019Z" fill="#FFC785"/>
<path d="M422.1 364.025C422.1 364.234 422.1 364.454 422.089 364.664H352.304C352.293 364.454 352.293 364.234 352.293 364.025C352.293 354.913 359.058 347.399 367.85 346.176C369.679 336.779 377.953 329.672 387.902 329.672C399.183 329.672 408.339 338.828 408.339 350.11C408.339 350.694 408.295 351.267 408.251 351.839C408.757 351.773 409.275 351.718 409.804 351.718C416.591 351.718 422.1 357.227 422.1 364.025Z" fill="#B1C3F0"/>
<path d="M402.599 110.734H152.206V263.678H402.599V110.734Z" fill="#B1C3F0"/>
<path d="M375.088 144.657H182.614V182.028H375.088V144.657Z" fill="white"/>
<path d="M402.356 94.241H152.668V110.591H402.356V94.241Z" fill="#6B83D8"/>
<path d="M379.704 102.669C379.704 103.65 378.911 104.432 377.942 104.432C376.961 104.432 376.179 103.639 376.179 102.669C376.179 101.689 376.972 100.907 377.942 100.907C378.911 100.896 379.704 101.689 379.704 102.669Z" fill="white"/>
<path d="M386.778 102.669C386.778 103.65 385.984 104.432 385.015 104.432C384.034 104.432 383.252 103.639 383.252 102.669C383.252 101.689 384.045 100.907 385.015 100.907C385.984 100.896 386.778 101.689 386.778 102.669Z" fill="white"/>
<path d="M393.851 102.669C393.851 103.65 393.057 104.432 392.088 104.432C391.118 104.432 390.314 103.639 390.314 102.669C390.314 101.689 391.107 100.907 392.088 100.907C393.068 100.907 393.851 101.689 393.851 102.669Z" fill="white"/>
<path fill-rule="evenodd" clip-rule="evenodd" d="M211.501 126.919H186.216C184.31 126.919 182.768 128.461 182.768 130.367C182.768 132.273 184.31 133.816 186.216 133.816H211.501C213.407 133.816 214.95 132.273 214.95 130.367C214.95 128.461 213.407 126.919 211.501 126.919Z" fill="white"/>
<path fill-rule="evenodd" clip-rule="evenodd" d="M231.509 126.919H222.332C220.426 126.919 218.883 128.461 218.883 130.367C218.883 132.273 220.426 133.816 222.332 133.816H231.509C233.415 133.816 234.957 132.273 234.957 130.367C234.957 128.461 233.415 126.919 231.509 126.919Z" fill="white"/>
<path fill-rule="evenodd" clip-rule="evenodd" d="M283.743 126.919H242.174C240.268 126.919 238.725 128.461 238.725 130.367C238.725 132.273 240.268 133.816 242.174 133.816H283.743C285.649 133.816 287.191 132.273 287.191 130.367C287.191 128.461 285.649 126.919 283.743 126.919Z" fill="white"/>
<path fill-rule="evenodd" clip-rule="evenodd" d="M319.869 126.919H294.584C292.678 126.919 291.135 128.461 291.135 130.367C291.135 132.273 292.678 133.816 294.584 133.816H319.869C321.775 133.816 323.317 132.273 323.317 130.367C323.317 128.461 321.775 126.919 319.869 126.919Z" fill="white"/>
<path fill-rule="evenodd" clip-rule="evenodd" d="M283.831 189.024H274.653C272.747 189.024 271.205 190.566 271.205 192.472C271.205 194.378 272.747 195.921 274.653 195.921H283.831C285.737 195.921 287.279 194.378 287.279 192.472C287.279 190.566 285.737 189.024 283.831 189.024Z" fill="white"/>
<path fill-rule="evenodd" clip-rule="evenodd" d="M336.064 189.024H294.496C292.59 189.024 291.047 190.566 291.047 192.472C291.047 194.378 292.59 195.921 294.496 195.921H336.064C337.97 195.921 339.513 194.378 339.513 192.472C339.513 190.566 337.97 189.024 336.064 189.024Z" fill="white"/>
<path fill-rule="evenodd" clip-rule="evenodd" d="M372.19 189.024H346.905C344.999 189.024 343.457 190.566 343.457 192.472C343.457 194.378 344.999 195.921 346.905 195.921H372.19C374.096 195.921 375.639 194.378 375.639 192.472C375.639 190.566 374.096 189.024 372.19 189.024Z" fill="#728DED"/>
<path fill-rule="evenodd" clip-rule="evenodd" d="M336.064 212.722H294.496C292.59 212.722 291.047 214.265 291.047 216.171C291.047 218.077 292.59 219.619 294.496 219.619H336.064C337.97 219.619 339.513 218.077 339.513 216.171C339.513 214.265 337.97 212.722 336.064 212.722Z" fill="white"/>
<path fill-rule="evenodd" clip-rule="evenodd" d="M372.19 212.722H346.905C344.999 212.722 343.457 214.265 343.457 216.171C343.457 218.077 344.999 219.619 346.905 219.619H372.19C374.096 219.619 375.639 218.077 375.639 216.171C375.639 214.265 374.096 212.722 372.19 212.722Z" fill="white"/>
<path fill-rule="evenodd" clip-rule="evenodd" d="M371.772 126.919H330.71C328.804 126.919 327.261 128.461 327.261 130.367C327.261 132.273 328.804 133.816 330.71 133.816H371.772C373.678 133.816 375.22 132.273 375.22 130.367C375.22 128.461 373.678 126.919 371.772 126.919Z" fill="#728DED"/>
<path fill-rule="evenodd" clip-rule="evenodd" d="M283.743 200.085H242.174C240.268 200.085 238.725 201.628 238.725 203.534C238.725 205.44 240.268 206.982 242.174 206.982H283.743C285.649 206.982 287.191 205.44 287.191 203.534C287.191 201.628 285.649 200.085 283.743 200.085Z" fill="white"/>
<path fill-rule="evenodd" clip-rule="evenodd" d="M319.869 200.085H294.584C292.678 200.085 291.135 201.628 291.135 203.534C291.135 205.44 292.678 206.982 294.584 206.982H319.869C321.775 206.982 323.317 205.44 323.317 203.534C323.317 201.628 321.775 200.085 319.869 200.085Z" fill="white"/>
<path fill-rule="evenodd" clip-rule="evenodd" d="M371.772 200.085H330.71C328.804 200.085 327.261 201.628 327.261 203.534C327.261 205.44 328.804 206.982 330.71 206.982H371.772C373.678 206.982 375.22 205.44 375.22 203.534C375.22 201.628 373.678 200.085 371.772 200.085Z" fill="white"/>
<path fill-rule="evenodd" clip-rule="evenodd" d="M113.623 354.439H88.3376C86.4316 354.439 84.8892 355.982 84.8892 357.888C84.8892 359.794 86.4316 361.336 88.3376 361.336H113.623C115.529 361.336 117.071 359.794 117.071 357.888C117.071 355.982 115.529 354.439 113.623 354.439Z" fill="#E6E9FA"/>
<path fill-rule="evenodd" clip-rule="evenodd" d="M133.641 354.439H124.464C122.558 354.439 121.015 355.982 121.015 357.888C121.015 359.794 122.558 361.336 124.464 361.336H133.641C135.547 361.336 137.09 359.794 137.09 357.888C137.09 355.982 135.536 354.439 133.641 354.439Z" fill="#E6E9FA"/>
<path fill-rule="evenodd" clip-rule="evenodd" d="M45.0172 366.999H3.44845C1.54244 366.999 0 368.542 0 370.448C0 372.354 1.54244 373.896 3.44845 373.896H45.0172C46.9232 373.896 48.4656 372.354 48.4656 370.448C48.4656 368.542 46.9232 366.999 45.0172 366.999Z" fill="#E6E9FA"/>
<path fill-rule="evenodd" clip-rule="evenodd" d="M81.1434 366.999H55.8584C53.9524 366.999 52.4099 368.542 52.4099 370.448C52.4099 372.354 53.9524 373.896 55.8584 373.896H81.1434C83.0494 373.896 84.5918 372.354 84.5918 370.448C84.5918 368.542 83.0494 366.999 81.1434 366.999Z" fill="#E6E9FA"/>
<path fill-rule="evenodd" clip-rule="evenodd" d="M133.047 366.999H91.9846C90.0786 366.999 88.5361 368.542 88.5361 370.448C88.5361 372.354 90.0786 373.896 91.9846 373.896H133.047C134.953 373.896 136.495 372.354 136.495 370.448C136.495 368.542 134.953 366.999 133.047 366.999Z" fill="#E6E9FA"/>
<path d="M245.402 19.3007H198.721V74.4429H245.402V19.3007Z" fill="#B1C3F0"/>
<path d="M256.596 82.9153H189.037V40.7626L222.85 60.4838L256.596 40.7626V82.9153Z" fill="#6B83D8"/>
<path d="M236.687 30.5164H207.59C206.731 30.5164 206.037 29.8223 206.037 28.9629C206.037 28.1036 206.731 27.4095 207.59 27.4095H236.687C237.547 27.4095 238.241 28.1036 238.241 28.9629C238.252 29.8223 237.547 30.5164 236.687 30.5164Z" fill="white"/>
<path d="M236.687 38.7905H207.59C206.731 38.7905 206.037 38.0964 206.037 37.2371C206.037 36.3777 206.731 35.6836 207.59 35.6836H236.687C237.547 35.6836 238.241 36.3777 238.241 37.2371C238.252 38.0964 237.547 38.7905 236.687 38.7905Z" fill="white"/>
<path d="M236.687 47.0646H207.59C206.731 47.0646 206.037 46.3705 206.037 45.5112C206.037 44.6518 206.731 43.9577 207.59 43.9577H236.687C237.547 43.9577 238.241 44.6518 238.241 45.5112C238.252 46.3705 237.547 47.0646 236.687 47.0646Z" fill="white"/>
<path fill-rule="evenodd" clip-rule="evenodd" d="M13.7334 197.097C14.3614 195.334 15.2207 193.692 16.2674 192.194L14.9343 189.627C14.3393 188.47 14.6148 187.049 15.6063 186.211L18.6692 183.622C19.6607 182.785 21.104 182.741 22.1507 183.523L24.4533 185.264C26.1059 184.482 27.8687 183.909 29.7086 183.589L30.579 180.835C30.9756 179.59 32.1765 178.786 33.4766 178.896L37.4759 179.237C38.776 179.348 39.8226 180.339 39.9989 181.628L40.3955 184.493C42.1583 185.121 43.7999 185.98 45.2983 187.027L47.8654 185.694C49.0222 185.099 50.4434 185.374 51.2808 186.366L53.8698 189.429C54.7072 190.42 54.7512 191.863 53.969 192.91L52.2283 195.213C53.0105 196.865 53.5834 198.628 53.9029 200.468L56.6573 201.338C57.9022 201.735 58.7065 202.936 58.5963 204.236L58.2548 208.235C58.1446 209.535 57.153 210.582 55.864 210.758L52.9995 211.155C52.3715 212.918 51.5121 214.559 50.4655 216.058L51.7986 218.625C52.3935 219.782 52.1181 221.203 51.1265 222.04L48.0637 224.629C47.0721 225.467 45.6178 225.511 44.5822 224.728L42.2795 222.988C40.6269 223.77 38.8641 224.343 37.0242 224.662L36.1538 227.417C35.7572 228.662 34.5563 229.466 33.2562 229.356L29.2569 229.014C27.9569 228.904 26.9102 227.912 26.7339 226.623L26.3373 223.759C24.5745 223.131 22.9329 222.271 21.4346 221.225L18.8675 222.558C17.7107 223.153 16.2894 222.877 15.4521 221.886L12.863 218.823C12.0257 217.831 11.9816 216.388 12.7638 215.342L14.5046 213.039C13.7224 211.386 13.1495 209.623 12.8299 207.784L10.0756 206.913C8.83062 206.517 8.02635 205.316 8.13653 204.016L8.47806 200.016C8.58824 198.716 9.57981 197.67 10.8688 197.493L13.7334 197.097ZM21.3905 201.493C19.9803 209.139 25.8636 216.102 33.6308 215.98C39.3819 215.892 44.3838 211.673 45.4305 206.021C46.8407 198.375 40.9574 191.412 33.1901 191.533C27.428 191.61 22.4371 195.83 21.3905 201.493Z" fill="#B1C3F0"/>
<path d="M101.553 148.499H36.5945V203.2H101.553V148.499Z" fill="#728DED"/>
<path d="M110.444 139.167H45.4856V193.869H110.444V139.167Z" fill="#E6E9FA"/>
<path d="M94.9209 162.414C98.6873 162.414 101.741 159.361 101.741 155.594C101.741 151.828 98.6873 148.774 94.9209 148.774C91.1544 148.774 88.1011 151.828 88.1011 155.594C88.1011 159.361 91.1544 162.414 94.9209 162.414Z" fill="#E79331"/>
<path fill-rule="evenodd" clip-rule="evenodd" d="M74.8141 163.912L85.4349 173.982L96.0557 184.052H74.8141H53.5835L64.1933 173.982L74.8141 163.912Z" fill="#B1C3F0"/>
<path fill-rule="evenodd" clip-rule="evenodd" d="M89.4782 172.098L95.7802 178.07L102.082 184.052H89.4782H76.8743L83.1762 178.07L89.4782 172.098Z" fill="#B1C3F0"/>
<path d="M307.265 26.0541C307.265 27.6075 306.009 28.8635 304.455 28.8635C302.902 28.8635 301.646 27.6075 301.646 26.0541C301.646 24.5006 302.902 23.2446 304.455 23.2446C306.009 23.2446 307.265 24.5006 307.265 26.0541Z" fill="#728DED"/>
<path d="M66.6554 261.827C66.6554 263.964 64.9147 265.705 62.7773 265.705C60.6399 265.705 58.8992 263.964 58.8992 261.827C58.8992 259.69 60.6399 257.949 62.7773 257.949C64.9147 257.949 66.6554 259.69 66.6554 261.827Z" fill="#728DED"/>
<path d="M419.731 243.78H316.134V301.886H419.731V243.78Z" fill="#728DED"/>
<path d="M358.621 286.289L348.823 279.649V276.643L358.621 270.054V273.4L350.996 278.121L358.621 283.062V286.289ZM361.304 290.959L368.844 260.817H371.595L364.038 290.959H361.304ZM374.091 286.289V282.943L381.699 278.24L374.091 273.281V270.054L383.889 276.694V279.7L374.091 286.289Z" fill="white"/>
<path d="M419.83 229.667H316.09V243.692H419.83V229.667Z" fill="#E6E9FA"/>
<path d="M322.81 238.261C323.784 238.261 324.573 237.471 324.573 236.498C324.573 235.524 323.784 234.735 322.81 234.735C321.837 234.735 321.048 235.524 321.048 236.498C321.048 237.471 321.837 238.261 322.81 238.261Z" fill="#6B83D8"/>
<path d="M331.646 236.498C331.646 237.478 330.853 238.261 329.883 238.261C328.903 238.261 328.11 237.467 328.11 236.498C328.11 235.517 328.903 234.735 329.883 234.735C330.853 234.735 331.646 235.517 331.646 236.498Z" fill="#6B83D8"/>
<path d="M338.719 236.498C338.719 237.478 337.926 238.261 336.957 238.261C335.976 238.261 335.194 237.467 335.194 236.498C335.194 235.517 335.987 234.735 336.957 234.735C337.937 234.735 338.719 235.517 338.719 236.498Z" fill="#6B83D8"/>
<path d="M347.225 301.809C347.225 329.243 324.97 351.487 297.536 351.487C278.961 351.487 262.765 341.296 254.249 326.202C250.173 318.996 247.848 310.678 247.848 301.809C247.848 293.48 249.897 285.625 253.522 278.728C261.84 262.907 278.421 252.121 297.536 252.121C324.97 252.121 347.225 274.365 347.225 301.809Z" fill="#E6E9FA"/>
<path d="M299.443 241.797H295.917V275.896H299.443V241.797Z" fill="#E6E9FA"/>
<path d="M304.389 238.206C304.389 241.83 301.448 244.772 297.823 244.772C294.198 244.772 291.257 241.83 291.257 238.206C291.257 234.581 294.198 231.639 297.823 231.639C301.448 231.639 304.389 234.581 304.389 238.206Z" fill="#728DED"/>
<path d="M270.081 284.17V320.759C270.081 323.767 267.635 326.202 264.627 326.202H254.249C250.173 318.996 247.848 310.678 247.848 301.809C247.848 293.48 249.897 285.625 253.522 278.728H264.627C267.635 278.728 270.081 281.163 270.081 284.17Z" fill="#B1C3F0"/>
</svg>
