<svg width="46" height="50" viewBox="0 0 46 50" fill="none" xmlns="http://www.w3.org/2000/svg">
<path d="M45.817 22.4784C45.817 22.6106 45.817 22.7538 45.806 22.8971H0.282016C0.270998 22.7649 0.270996 22.6216 0.270996 22.4784C0.270996 16.529 4.68898 11.6262 10.418 10.833C11.6189 4.69629 17.0175 0.0689697 23.5067 0.0689697C30.8664 0.0689697 36.8378 6.04042 36.8378 13.4001C36.8378 13.7746 36.8048 14.1603 36.7827 14.5238C37.1133 14.4798 37.4438 14.4467 37.7963 14.4467C42.2253 14.4577 45.817 18.0494 45.817 22.4784Z" fill="#B1C3F0"/>
<path d="M18.7471 42.7615V22.9632H9.26114V42.7615H5.74658L9.7459 46.0227L13.7452 49.2948L17.7446 46.0227L21.7439 42.7615H18.7471Z" fill="#728DED"/>
</svg>
