<svg width="225" height="200" viewBox="0 0 225 200" fill="none" xmlns="http://www.w3.org/2000/svg"><path d="M3.05.134a2.926 2.926 0 0 0-2.916 2.93v145.693a2.927 2.927 0 0 0 2.916 2.93h103.178a2.927 2.927 0 0 0 2.916-2.93V3.064a2.926 2.926 0 0 0-2.916-2.93H3.05zm103.178 151.687H3.05A3.06 3.06 0 0 1 0 148.757V3.064A3.061 3.061 0 0 1 3.05 0h103.178a3.061 3.061 0 0 1 3.05 3.064v145.693a3.061 3.061 0 0 1-3.05 3.064zM118.623.134a2.926 2.926 0 0 0-2.916 2.93v145.693a2.927 2.927 0 0 0 2.916 2.93h103.178a2.928 2.928 0 0 0 2.917-2.93V3.064a2.927 2.927 0 0 0-2.917-2.93H118.623zm103.178 151.687H118.623a3.061 3.061 0 0 1-3.05-3.064V3.064A3.061 3.061 0 0 1 118.623 0h103.178a3.06 3.06 0 0 1 3.05 3.064v145.693a3.06 3.06 0 0 1-3.05 3.064zM72.791 181.005h13.891v-.134h-13.89v.134zM7.615 179.548h28.909v-.134H7.614v.134zM58.195 185.99h14.062v-.134H58.195v.134zM117.562 185.087h20.75v-.134h-20.75v.134zM143.068 185.087h5.714v-.134h-5.714v.134zM190.829 182.822h29.15v-.134h-29.15v.134z" fill="#ECECEC"/><path d="M183.195 170.996h24.394v-67.349h-24.394v67.349zM76.693 170.996h126.212v4.763H76.693v-4.763z" fill="#F0F0F0"/><path d="M183.196 170.996H72.01v-67.349h111.186v67.349z" fill="#F5F5F5"/><path d="M183.623 132.858H72.009v-24.651h111.614v24.651zM183.623 162.005H72.009v-24.652h111.614v24.652z" fill="#F0F0F0"/><path d="M183.195 132.858h4.22v-24.651h-4.22v24.651zM183.195 162.005h4.22v-24.652h-4.22v24.652z" fill="#E7E7E7"/><path d="M68.759 99.504h114.437v4.144H68.759v-4.144z" fill="#F0F0F0"/><path d="M210.997 99.504h-27.802v4.144h27.802v-4.144z" fill="#E7E7E7"/><path d="M154.92 14.348h57.405v72.486H154.92V14.348z" fill="#F0F0F0"/><path d="M142.248 14.348h67.877v72.486h-67.877V14.348z" fill="#F5F5F5"/><path d="M204.439 81.122h-56.504V20.061h56.504v61.061z" fill="#fff"/><path d="M182.443 57.201l10.798-5.028v-3.165l-10.798-5.037v3.786l6.562 2.84-6.562 2.84v3.764zM175.402 42.51h-1.974l3.497 16.162h1.955l-3.478-16.163zM169.93 53.437l-6.563-2.84 6.563-2.84V43.97l-10.799 5.038v3.165L169.93 57.2v-3.764z" fill="#E7E7E7"/><path d="M42.216 175.759h3.762V52.747h-3.762v123.012z" fill="#F0F0F0"/><path d="M41.435 174.902l-.102-.527c.04-.008 1.026-.227 1.777-1.562.979-1.74 1.573-5.447-1.147-13.221-4.19-11.977-1.69-21.643 3.294-40.9.868-3.354 1.852-7.156 2.873-11.26 3.83-15.388.287-24.932-2.56-32.601-2.21-5.954-3.954-10.656-1.72-16.103l.493.204c-2.153 5.253-.44 9.868 1.729 15.711 2.872 7.739 6.446 17.37 2.577 32.919-1.022 4.106-2.006 7.909-2.875 11.265-4.956 19.151-7.444 28.764-3.307 40.587 2.798 7.994 2.139 11.857 1.093 13.69-.878 1.539-2.074 1.788-2.125 1.798z" fill="#F0F0F0"/><path d="M37.288 175.759h13.618l-3.787-2.241h-6.045l-3.786 2.241z" fill="#F0F0F0"/><path d="M17.156 68.412h53.882l-5.93-45.485H23.086l-5.93 45.485z" fill="#F5F5F5"/><path d="M97.072 75.91h28.768l-3.787 23.594h-21.194L97.072 75.91z" fill="#F0F0F0"/><path d="M108.63 83.588c7.844-2.852 13.853-7.135 7.13-15.8-6.722-8.664-17.138-8.628-24.156-4.792-8.947 4.889-7.153 19.029-7.153 19.029s16.335 4.414 24.179 1.563z" fill="#E1E1E1"/><path d="M116.256 75.692c-6.001-4.103-10.256-8.857-3.293-13.87 6.964-5.012 15.549-2.443 20.71 2.214 6.578 5.937 2.782 16.356 2.782 16.356s-14.197-.597-20.199-4.7" fill="#E7E7E7"/><path d="M105.693 65.291c7.021-.427 12.908-2.267 9.584-9.907-3.325-7.639-11.739-9.775-18.333-8.467-8.404 1.667-10.385 12.23-10.385 12.23s12.113 6.572 19.134 6.144z" fill="#F0F0F0"/><path d="M114.501 60.785c-5.84-1.886-10.419-4.719-5.966-10.452 4.453-5.732 12.022-5.71 17.312-3.173 6.743 3.234 6.143 12.589 6.143 12.589s-11.649 2.922-17.489 1.036z" fill="#ECECEC"/><path d="M103.555 50.998c5.826 1.93 11.188 2.349 10.949-4.92-.239-7.267-6.37-11.726-12.133-12.804-7.345-1.374-12.344 6.542-12.344 6.542s7.702 9.252 13.528 11.182z" fill="#F5F5F5"/><path d="M118.342 47.88c-4.17.285-7.78-.348-6.4-5.105 1.379-4.757 6.177-6.66 10.162-6.395 5.08.34 7.049 6.413 7.049 6.413s-6.64 4.801-10.811 5.087z" fill="#FAFAFA"/><path d="M130.749 129.729c-22.59.321-55.986 17.664-69.889-4.153-11.659-18.297 1.807-36.212-19.751-49.73-15.71-9.85-41.214-27.123-17.532-45.02C42.1 16.83 71.048 12.941 93.481 16.152c17.619 2.522 54.254 13.02 58.684 31.595 4.977 20.872-27.304 38.11 7.21 45.97 20.771 4.73 45.817 16.84 31.143 41.806-5.791 9.854-14.041 8.14-22.79 4.257-12.912-5.73-21.439-10.272-36.979-10.051z" fill="#3A8BE1"/><path opacity=".9" d="M130.749 129.73c-22.59.321-55.986 17.664-69.89-4.153-11.658-18.297 1.808-36.212-19.75-49.73-15.711-9.85-41.215-27.123-17.532-45.02C42.099 16.83 71.047 12.942 93.48 16.152c17.62 2.523 54.255 13.022 58.684 31.596 4.978 20.872-27.304 38.11 7.21 45.97 20.772 4.73 45.818 16.84 31.144 41.806-5.791 9.854-14.042 8.14-22.79 4.257-12.912-5.73-21.44-10.272-36.979-10.051z" fill="#fff"/><path d="M216.768 193.922c0 3.357-46.384 6.078-103.601 6.078s-103.6-2.721-103.6-6.078 46.383-6.077 103.6-6.077c57.217 0 103.601 2.72 103.601 6.077z" fill="#F5F5F5"/><path d="M203.61 111.82H22.07v-6.544h181.54v6.544z" fill="#3A8BE1"/><path opacity=".3" d="M70.654 111.82H22.07v-6.544h48.585v6.544z" fill="#fff"/><path d="M71.432 111.819h-4.23l2.216 82.004H73.445l2.215-82.004h-4.228z" fill="#3A8BE1"/><path opacity=".3" d="M69.417 193.824h2.014v-80.242l-4.16.764 2.146 79.478z" fill="#fff"/><path d="M31.371 111.819h-4.229l2.215 82.004h4.028l2.215-82.004H31.37z" fill="#3A8BE1"/><path opacity=".3" d="M29.358 193.824h2.014v-80.242l-4.16.764 2.146 79.478z" fill="#fff"/><path d="M194.306 111.819h-4.229l2.215 82.004h4.028l2.215-82.004h-4.229z" fill="#3A8BE1"/><path opacity=".3" d="M192.293 193.824h2.014v-80.242l-4.161.764 2.147 79.478z" fill="#fff"/><path d="M154.246 111.819h-4.229l2.215 82.004h4.028l2.214-82.004h-4.228z" fill="#3A8BE1"/><path opacity=".3" d="M152.231 193.824h2.014v-80.242l-4.16.764 2.146 79.478z" fill="#fff"/><path d="M108.24 70.248H65.048c-1.55 0-2.553 1.274-2.228 2.832l5.752 27.563c.326 1.557 1.86 2.831 3.41 2.831h43.194c1.55 0 2.552-1.274 2.227-2.831l-5.752-27.563c-.325-1.558-1.86-2.832-3.411-2.832z" fill="#1A2E35"/><path d="M72.382 101.902c-1.014 0-2.092-.902-2.306-1.931l-5.753-27.563c-.088-.425-.017-.806.2-1.075.204-.253.532-.392.925-.392h43.192c1.014 0 2.092.903 2.307 1.932l5.752 27.562c.088.425.017.807-.2 1.076-.207.256-.526.391-.924.391H72.382z" fill="#fff"/><path opacity=".4" d="M104.971 99.698l-5.45-26.114a1.062 1.062 0 0 1 1.035-1.282h7.009c.501 0 .934.353 1.036.845l5.45 26.115a1.062 1.062 0 0 1-1.036 1.281h-7.008c-.502 0-.934-.352-1.036-.845z" fill="#3A8BE1"/><path d="M67.921 74.566l-.236-1.132h8.656l.236 1.132H67.92z" fill="#3A8BE1"/><path d="M71.916 77.376l-.236-1.133h15.173l.236 1.133H71.917zM72.715 80.185l-.236-1.133h17.005l.236 1.133H72.715zM73.515 82.995l-.237-1.133h13.693l.236 1.133H73.515z" fill="#ECECEC"/><path d="M70.551 87.554l-.236-1.132h5.475l.236 1.132h-5.475z" fill="#3A8BE1"/><path d="M74.546 90.363l-.236-1.132h6.67l.238 1.132h-6.672zM82.815 90.363l-.236-1.132h6.671l.236 1.132h-6.67zM75.345 93.173l-.236-1.133h22.55l.236 1.133h-22.55zM76.145 95.982l-.236-1.133H93.1l.237 1.133H76.145z" fill="#ECECEC"/><path d="M128.406 103.309H71.572c-1.55 0-2.553.885-2.228 1.966h62.473c-.326-1.081-1.86-1.966-3.411-1.966z" fill="#1A2E35"/><path opacity=".1" d="M52.898 63.28l-5.45-26.114a1.062 1.062 0 0 1 1.036-1.282h44.138c.502 0 .934.353 1.036.845l5.45 26.114a1.062 1.062 0 0 1-1.036 1.282H53.934a1.06 1.06 0 0 1-1.036-.845z" fill="#3A8BE1"/><path d="M68.587 36.744h-9.264l-.208-1.001h9.265l.207 1.001z" fill="#3A8BE1"/><path opacity=".4" d="M67.08 38.34h-3.718l-.208-1h3.719l.207 1zM73.268 38.34h-5.73l-.207-1h5.73l.207 1zM75.766 39.939H63.693l-.207-1.001h12.072l.208 1.001zM74.23 41.535H64.023l-.208-1.001h10.206l.207 1.001zM81 58.504h-6.497l.208 1.001h6.496L81 58.503z" fill="#3A8BE1"/><path d="M72.899 56.312h-9.515l-.208-1.002h9.515l.208 1.002z" fill="#3A8BE1"/><path opacity=".4" d="M76.727 60.1h-8.85l.209 1.002h8.85l-.209-1.002zM74.043 58.504h-6.497l.208 1.001h6.497l-.208-1.002zM80.207 56.908H67.215l.207 1.001h12.993l-.208-1.001z" fill="#3A8BE1"/><path d="M68.263 29.295H57.777l-.207-1.001h10.485l.208 1z" fill="#3A8BE1"/><path opacity=".4" d="M73.437 33.084h-11.56l.208 1.002h11.56l-.208-1.002zM71.124 31.488h-9.579l.208 1.001h9.578l-.207-1.001zM71.764 29.89h-10.55l.209 1.001h10.549l-.208-1z" fill="#3A8BE1"/><path d="M68.142 44.132h-7.285l-.208-1h7.285l.208 1z" fill="#3A8BE1"/><path opacity=".4" d="M79.587 47.922H65.35l.208 1.001h14.237l-.208-1zM70.917 46.324H65.02l.208 1.001h5.898l-.208-1.001zM77.318 46.324H71.42l.208 1.001h5.898l-.208-1.001zM77.68 44.727H64.686l.208 1.001h12.992l-.208-1zM77.654 52.712h-11.31l.208 1.001h11.31l-.208-1.001zM69.301 51.115h-3.289l.208 1.001h3.289l-.208-1zM74.45 51.115h-4.695l.207 1.001h4.695l-.208-1zM78.674 49.519H65.68l.208 1h12.993l-.208-1zM88.91 49.251h-4.655l-.208-1.002h4.656l.207 1.002zM96.658 49.251h-7.173l-.208-1.002h7.173l.208 1.002zM99.701 50.847H84.587l-.208-1.001h15.114l.208 1.001zM97.694 52.443H84.917l-.207-1.001h12.776l.208 1zM103.414 42.9H88.94l.208 1h14.473l-.207-1zM100.602 41.303H88.61l.207 1.001h11.992l-.207-1.001z" fill="#3A8BE1"/><path d="M98.433 39.704H85.226l.208 1.001H98.64l-.208-1.001z" fill="#3A8BE1"/><path opacity=".4" d="M104.067 58.833H86.242l.208 1.001h17.825l-.208-1.001zM93.296 57.237h-7.384l.207 1.001h7.385l-.208-1.001zM101.309 57.237h-7.384l.208 1.001h7.384l-.208-1.001zM101.846 55.638H85.58l.208 1.002h16.266l-.208-1.002zM101.397 63.623h-14.16l.208 1.001h14.16l-.208-1zM91.023 62.024h-4.118l.208 1.001h4.118l-.208-1.001zM97.468 62.025H91.59l.208 1.001h5.877l-.207-1.002zM102.84 60.43H86.574l.208 1h16.266l-.208-1zM59.52 64.86H48.44l.207 1.002h11.08l-.208-1.002zM56.242 63.264h-8.133l.207 1.002h8.133l-.207-1.002zM64.952 63.264h-8.133l.207 1.002h8.134l-.208-1.002zM64.043 61.67H47.777l.208 1h16.266l-.208-1z" fill="#3A8BE1"/><path d="M188.48 94.85h-6.859l.799 10.425h5.261l.799-10.425z" fill="#3A8BE1"/><path opacity=".4" d="M188.48 94.85h-6.859l.799 10.425h5.261l.799-10.425z" fill="#fff"/><path d="M38.966 87.61h9.863l-3.367 17.665H35.6l3.367-17.665z" fill="#1A2E35"/><path d="M51.528 82.874H37.597l3.899 22.401h13.931l-3.899-22.401z" fill="#3A8BE1"/><path d="M36.773 82.874h.824l3.9 22.401h-.825l-3.899-22.401z" fill="#3A8BE1"/><path opacity=".3" d="M36.773 82.875h.824l3.899 22.401h-.824l-3.9-22.401z" fill="#000"/><path d="M43.5 102.88l-3.066-17.612h9.092l3.065 17.612h-9.092z" fill="#fff"/><path opacity=".6" d="M52.16 102.881l-3.066-17.613h.432l3.065 17.613h-.431z" fill="#3A8BE1"/><path d="M120.524 54.219c.198.43.132.884-.148 1.014s-.667-.113-.866-.543c-.198-.43-.132-.885.148-1.015.28-.13.668.113.866.544z" fill="#1A2E35"/><path d="M120.695 55.084s.169 2.934-.351 4.63c1.084.358 2.223-.565 2.223-.565l-1.872-4.065z" fill="#FFB670"/><path d="M120.576 50.693a.277.277 0 0 1-.159.06c-1.22.069-1.737.927-1.759.963a.277.277 0 0 1-.479-.278c.027-.048.677-1.154 2.208-1.24a.279.279 0 0 1 .189.495z" fill="#1A2E35"/><path d="M136.26 53.57c1.651 5.746 3.493 10.21 5.746 12.744 0 0 .04 4.517-7.619 6.664-8.421 2.362-5.191-3.07-5.191-3.07 4.29-2.392 3.867-6 .651-7.373l6.413-8.964z" fill="#FFCEA9"/><path d="M143.791 65.216c-.152-2.102-.347-4.495-1.638-4.556-1.42-.067-9.647 3.626-11.406 6.23-1.757 2.604 1.675 5.153 1.675 5.153l11.369-6.827z" fill="#1A2E35"/><path d="M126.945 97.72l-7.105-.235.126 5.979s6.2-.641 6.473-2.278l.506-3.466z" fill="#FFCEA9"/><path d="M116.083 100.418l-.745 3.057 4.628-.011-.126-5.98-3.757 2.934z" fill="#FFCEA9"/><path d="M155.47 72.87l-.148 1.533c-.048.493-.117.98-.179 1.467a67.986 67.986 0 0 1-.444 2.91 77.938 77.938 0 0 1-1.215 5.8c-.501 1.933-1.052 3.88-1.777 5.837a43.227 43.227 0 0 1-1.214 2.964c-.459 1-.957 2.005-1.605 3.032-.147.252-.328.515-.502.774-.171.258-.35.516-.558.782-.206.265-.386.52-.629.79l-.349.396c-.112.13-.229.26-.396.417-1.238 1.225-2.508 1.964-3.7 2.499-2.383 1.052-4.545 1.454-6.642 1.69a31.938 31.938 0 0 1-3.087.195 34.988 34.988 0 0 1-3.009-.05 41.404 41.404 0 0 1-2.957-.257 38.193 38.193 0 0 1-2.968-.485l.172-5.608c3.43-.684 7.021-1.388 10.099-2.418a21.06 21.06 0 0 0 2.17-.838c.667-.291 1.27-.614 1.722-.935.449-.322.741-.632.776-.762l.159-.247c.063-.08.131-.22.199-.331.069-.109.139-.243.208-.382.07-.137.143-.265.211-.424.56-1.192 1.106-2.69 1.544-4.258.437-1.579.852-3.229 1.184-4.925.362-1.687.65-3.418.944-5.152l.407-2.61.365-2.539 11.219 1.134z" fill="#3A8BE1"/><path opacity=".2" d="M155.47 72.87l-.148 1.533c-.048.493-.117.98-.179 1.467a67.957 67.957 0 0 1-.444 2.91 77.93 77.93 0 0 1-1.215 5.801c-.501 1.932-1.052 3.88-1.777 5.836a43.227 43.227 0 0 1-1.214 2.964c-.459 1-.957 2.005-1.605 3.032-.147.253-.328.516-.503.775-.171.257-.35.516-.557.782-.206.264-.386.519-.629.789l-.349.397c-.112.129-.229.26-.396.416-1.238 1.226-2.508 1.965-3.7 2.5-2.383 1.052-4.545 1.453-6.642 1.689a31.943 31.943 0 0 1-3.087.196 34.98 34.98 0 0 1-3.009-.051 41.992 41.992 0 0 1-2.957-.256 38.676 38.676 0 0 1-2.968-.485l.172-5.608c3.43-.684 7.021-1.388 10.099-2.419a21.06 21.06 0 0 0 2.17-.838c.667-.29 1.27-.613 1.722-.935.449-.322.741-.632.776-.762l.159-.247c.063-.08.131-.22.199-.33.069-.11.139-.243.208-.383.07-.136.143-.264.211-.423.56-1.193 1.106-2.692 1.544-4.258.437-1.58.852-3.23 1.184-4.925.362-1.688.65-3.419.944-5.153l.407-2.61.365-2.538 11.219 1.134z" fill="#000"/><path d="M123.919 79.98c1.721 7.183 3.943 19.224 4.452 34.968h31.287c.173-3.885-.481-25.744-3.63-41.577-1.197-6.019-7.075-9.913-13.038-8.567l-.149.033c-3.902.893-9.511 2.334-12.81 3.593l-.134.051c-4.584 1.77-7.127 6.703-5.978 11.499z" fill="#3A8BE1"/><path opacity=".2" d="M125.952 90.042c.248 1.506.497 3.103.728 4.78 2.559-2.685 3.371-10.908 3.371-10.908l-4.099 6.128z" fill="#000"/><path d="M99.963 98.106l-7.08-.666-.233 5.975s3.646 1.204 6.599-1.88l.714-3.429z" fill="#FFCEA9"/><path d="M89.487 99.204l-2.28 4.106 5.443.105.234-5.976-3.397 1.765z" fill="#FFCEA9"/><path d="M135.659 77.247c-.494.943-.93 1.772-1.421 2.632-.482.85-.966 1.696-1.472 2.528a109.335 109.335 0 0 1-3.146 4.944c-2.198 3.25-4.558 6.424-7.326 9.47a40.456 40.456 0 0 1-4.644 4.435c-.211.179-.456.354-.683.529-.238.177-.432.338-.778.555-.313.209-.627.397-.941.563-.316.18-.627.329-.943.47a16.869 16.869 0 0 1-3.677 1.122c-2.375.42-4.58.386-6.692.151-1.054-.142-2.086-.304-3.098-.554a21.615 21.615 0 0 1-1.506-.404c-.513-.147-.965-.317-1.54-.518l.885-5.54c3.354-.458 6.982-1.044 9.482-2.178.624-.268 1.162-.58 1.557-.9.198-.156.38-.299.504-.448.041-.047.203-.192.33-.31.133-.126.265-.232.399-.371 1.072-1.045 2.153-2.295 3.211-3.623 2.106-2.674 4.1-5.643 6.021-8.676.962-1.518 1.9-3.064 2.833-4.614l1.381-2.334 1.331-2.289 9.933 5.36z" fill="#3A8BE1"/><path d="M127.072 189.289h-5.85l-2.94-13.608h5.85l2.94 13.608z" fill="#FFCEA9"/><path d="M120.897 188.03h6.572a.51.51 0 0 1 .498.401l1.156 5.223a.863.863 0 0 1-.857 1.045c-2.294-.039-3.409-.175-6.299-.175-1.778 0-4.059.185-6.514.185-2.402 0-2.777-2.438-1.771-2.659 4.507-.99 4.823-2.356 6.266-3.659.26-.235.599-.361.949-.361z" fill="#1A2E35"/><path opacity=".2" d="M124.134 175.684h-5.852l1.631 7.535 5.739-.521-1.518-7.014z" fill="#000"/><path d="M134.387 46.67c2.109 5.434 3.619 8.506 2.212 12.451-2.118 5.936-9.723 6.533-13.406 1.843-3.315-4.222-6.209-12.398-2.029-16.892 4.118-4.428 11.113-2.835 13.223 2.598z" fill="#FFCEA9"/><path d="M124.114 54.808c-.878 1.183-1.547 2.077-1.547 2.077s-1.801-4.493-1.112-6.553c-.877-1.745-2.645.826-3.313-2.572-.668-3.398 2.22-7.048 3.313-7.803.154.252.146 1.22.146 1.22s4.322-3.87 10.477-3.328c-.423.425-.587 1.581-.587 1.581s6.342 1.094 7.783 4.68c-.908-.44-1.597-.566-1.597-.566s1.817 2.265 1.284 5.758c-.532 3.492-.783 7.35-.72 8.872.062 1.524-4.104 4.437-6.641 1.322-2.537-3.114-7.486-4.688-7.486-4.688z" fill="#1A2E35"/><path d="M126.762 53.637c.366 1.33.181 2.762-.27 3.813-.679 1.58-2.071 1.22-2.764-.182-.624-1.263-1.023-3.606.083-4.729 1.089-1.105 2.533-.422 2.951 1.098z" fill="#FFCEA9"/><path d="M137.747 114.949s-27.164 9.893-27.965 22.988c-1.475 24.116 8.345 43.209 8.345 43.209l8.998-.966s-1.6-7.762-2.795-29.61c-1.503-27.453 44.88.643 35.328-35.621h-21.911z" fill="#3A8BE1"/><path opacity=".5" d="M137.747 114.95s-27.165 9.893-27.965 22.987c-1.475 24.116 8.345 43.21 8.345 43.21l8.998-.967s-1.6-7.761-2.795-29.609c-1.503-27.453 44.879.643 35.327-35.621h-21.91z" fill="#fff"/><path d="M115.634 177.818c-.043.004 1.432 4.012 1.432 4.012l11.236-1.104-.565-3.651-12.103.743z" fill="#3A8BE1"/><path d="M101.801 189.955h-5.849l-1.71-13.608h5.85l1.709 13.608z" fill="#FFCEA9"/><path d="M95.906 188.027l6.388-.009c.239 0 .446.167.499.401l1.162 5.221a.854.854 0 0 1-.84 1.047c-2.305-.036-5.635-.167-8.53-.163-3.387.004-4.036.191-8.008.196-2.401.004-3.072-2.434-2.067-2.656 4.575-1.012 6.036-1.122 9.987-3.577.43-.267.904-.459 1.409-.46z" fill="#1A2E35"/><path opacity=".2" d="M94.244 176.35l.93 7.412 5.802-.398-.88-7.014h-5.852z" fill="#000"/><path d="M128.371 114.947s-44.514 3.966-44.034 26.423c.5 23.358 9.186 39.113 9.186 39.113h8.692s-1.648-12.117-1.356-35.114c.088-6.889 13.945-9.165 27.479-9.969 11.692-.695 22.635-7.388 27.176-18.233l.93-2.22h-28.073z" fill="#3A8BE1"/><path opacity=".5" d="M128.371 114.946s-44.514 3.966-44.034 26.422c.5 23.359 9.186 39.113 9.186 39.113h8.692s-1.648-12.116-1.356-35.113c.088-6.89 13.946-9.166 27.48-9.969 11.691-.695 22.634-7.389 27.176-18.233l.929-2.22h-28.073z" fill="#fff"/><path d="M91.49 178.135c-.04.004 1.49 4.037 1.49 4.037l10.491-.753-.611-3.653-11.37.369z" fill="#3A8BE1"/><path d="M140.052 89.708l-5.647 21.863a68.64 68.64 0 0 0-2.17 17.147v10.162c0 2.567 1.883 4.647 4.206 4.647h28.953c2.323 0 4.205-2.08 4.205-4.647v-10.162c0-5.799.731-11.57 2.171-17.147l4.987-19.314c.767-2.967-1.25-5.92-4.044-5.92h-28.618c-1.878 0-3.528 1.376-4.043 3.371z" fill="#1A2E35"/><path d="M104.045 132.941l.948 5.422c.498 2.851 2.995 5.164 5.577 5.164h32.183c2.581 0 4.27-2.313 3.772-5.164l-.948-5.422c-.567-3.245-3.408-5.875-6.346-5.875h-30.895c-2.937 0-4.859 2.63-4.291 5.875z" fill="#1A2E35"/><path d="M145.851 148.971h-16.859l-1.646-5.445h20.151l-1.646 5.445zM140.433 189.449h-6.023v-40.478h6.023v40.478z" fill="#3A8BE1"/><path opacity=".7" d="M140.434 189.448h-6.024v-39.506l6.024.616v38.89z" fill="#fff"/><path opacity=".7" d="M138.964 189.448h-1.439V150.26l1.439.148v39.04z" fill="#fff"/><path d="M151.271 195.704h-27.699c-.741 0-1.051-.95-.453-1.391l4.397-3.238a12.266 12.266 0 0 1 7.275-2.392h5.261c2.617 0 5.165.838 7.276 2.392l4.396 3.238c.598.441.288 1.391-.453 1.391z" fill="#3A8BE1"/></svg>