<svg width="225" height="200" viewBox="0 0 225 200" fill="none" xmlns="http://www.w3.org/2000/svg"><path d="M202.181 184.533h17.689v-.134h-17.689v.134zM151.845 185.989h4.642v-.134h-4.642v.134zM191.397 179.548h10.25v-.134h-10.25v.134zM7.612 180.45h23.067v-.134H7.612v.134zM35.435 180.45h3.382v-.134h-3.382v.134zM49.809 182.716h50.029v-.134H49.809v.134zM3.048.134a2.925 2.925 0 0 0-2.914 2.93v145.693a2.925 2.925 0 0 0 2.914 2.929h103.128a2.925 2.925 0 0 0 2.914-2.929V3.064a2.926 2.926 0 0 0-2.914-2.93H3.048zM106.176 151.82H3.048A3.06 3.06 0 0 1 0 148.757V3.064A3.06 3.06 0 0 1 3.048 0h103.128a3.06 3.06 0 0 1 3.047 3.064v145.693a3.059 3.059 0 0 1-3.047 3.063M118.565.134a2.926 2.926 0 0 0-2.915 2.93v145.693a2.926 2.926 0 0 0 2.915 2.929h103.127a2.926 2.926 0 0 0 2.915-2.929V3.064a2.926 2.926 0 0 0-2.915-2.93H118.565zM221.692 151.82H118.565a3.059 3.059 0 0 1-3.048-3.063V3.064A3.06 3.06 0 0 1 118.565 0h103.127a3.06 3.06 0 0 1 3.048 3.064v145.693a3.06 3.06 0 0 1-3.048 3.063" fill="#ECECEC"/><path d="M129.145 171.295H13.525v-61.608h115.62v61.608z" fill="#F0F0F0"/><path d="M16.328 112.505h110.014v55.973H16.328v-55.973z" fill="#E7E7E7"/><path d="M16.328 112.505h12.304v55.973H16.328v-55.973z" fill="#E1E1E1"/><path d="M129.145 109.687h6.977v61.608h-6.977v-61.608z" fill="#E7E7E7"/><path d="M16.328 138.988h110.014v3.006H16.328v-3.006zM21.103 175.759H18.69l-1.192-4.464h3.605v4.464zM121.567 175.759h2.413l1.192-4.464h-3.605v4.464z" fill="#F0F0F0"/><path d="M30.51 175.759h-2.414l-1.191-4.464h3.605v4.464zM130.973 175.759h2.414l1.191-4.464h-3.605v4.464z" fill="#E7E7E7"/><path d="M32.133 138.988h-5.855v-24.436h5.855v24.436z" fill="#F0F0F0"/><path d="M32.133 138.988h15.654v-24.436H32.133v24.436z" fill="#E1E1E1"/><path d="M37.332 138.988h-3.299v-21.64h3.3v21.64z" fill="#FAFAFA"/><path d="M37.332 138.988h8.819v-21.64h-8.819v21.64z" fill="#ECECEC"/><path d="M47.37 138.988h-4.887l-2.818-20.393h4.888l2.816 20.393z" fill="#FAFAFA"/><path d="M47.37 138.988h13.064l-2.818-20.393H44.553l2.816 20.393z" fill="#ECECEC"/><path d="M69.918 168.477h-5.856v-17.849h5.856v17.849z" fill="#F0F0F0"/><path d="M69.917 168.477h8.69v-17.849h-8.69v17.849z" fill="#E1E1E1"/><path d="M76.346 168.477h-3.3v-21.64h3.3v21.64z" fill="#FAFAFA"/><path d="M76.346 168.477h8.818v-21.64h-8.818v21.64z" fill="#ECECEC"/><path d="M27.727 168.478H22.84l-2.817-20.393h4.887l2.817 20.393z" fill="#F0F0F0"/><path d="M27.727 168.478H40.79l-2.816-20.393H24.91l2.817 20.393z" fill="#E1E1E1"/><path d="M51.872 133.103h24.313v5.885H51.872v-5.885z" fill="#E7E7E7"/><path d="M85.164 133.103h-8.979v5.885h8.98v-5.885z" fill="#E1E1E1"/><path d="M85.165 133.774h-8.193v4.544h8.193v-4.544zM53.367 128.514H77.68v4.589H53.367v-4.589z" fill="#F0F0F0"/><path d="M86.66 128.514h-8.98v4.589h8.98v-4.589z" fill="#E7E7E7"/><path d="M86.659 129.037h-8.192v3.544h8.192v-3.544z" fill="#F0F0F0"/><path d="M82.984 162.139h26.187v6.338H82.984v-6.338z" fill="#F5F5F5"/><path d="M118.841 162.139h-9.671v6.338h9.671v-6.338z" fill="#E1E1E1"/><path d="M118.841 162.861h-8.823v4.895h8.823v-4.895z" fill="#F0F0F0"/><path d="M86.624 152.072h21.173v5.125H86.624v-5.125z" fill="#FAFAFA"/><path d="M115.616 152.072h-7.819v5.125h7.819v-5.125z" fill="#E1E1E1"/><path d="M115.616 152.655h-7.133v3.958h7.133v-3.958z" fill="#F5F5F5"/><path d="M31.655 163.33h21.173v5.125H31.655v-5.125z" fill="#FAFAFA"/><path d="M60.647 163.33h-7.82v5.125h7.82v-5.125z" fill="#E1E1E1"/><path d="M60.647 163.913h-7.134v3.958h7.134v-3.958z" fill="#F5F5F5"/><path d="M84.594 157.197h26.186v4.942H84.594v-4.942z" fill="#F0F0F0"/><path d="M120.451 157.197h-9.67v4.942h9.67v-4.942z" fill="#E7E7E7"/><path d="M120.451 157.76h-8.822v3.816h8.822v-3.816zM92.648 139.936h-4.745v-19.797h4.745v19.797z" fill="#F0F0F0"/><path d="M92.648 139.936h12.683v-19.797H92.648v19.797z" fill="#E1E1E1"/><path d="M103.138 139.936h-4.555v-17.533h4.555v17.533z" fill="#FAFAFA"/><path d="M103.138 139.936h7.788v-17.533h-7.788v17.533z" fill="#ECECEC"/><path d="M154.085 140.048h15.454c3.656 0 6.783-2.642 7.41-6.263l4.091-23.616c.949-5.475 5.677-9.472 11.206-9.472h15.53c4.472 0 7.862 4.052 7.095 8.479l-4.284 24.727c-.947 5.47-5.671 9.462-11.195 9.462h-49.231a3.989 3.989 0 0 1 3.924-3.317z" fill="#E1E1E1"/><path d="M196.96 143.365h1.78l3.217 32.394h-1.779l-3.218-32.394zM182.714 143.365h1.779l3.218 32.394h-1.78l-3.217-32.394z" fill="#ECECEC"/><path d="M183.957 143.365h13.928v1.673h-13.928v-1.673zM156.511 143.365h-1.78l-3.218 32.394h1.78l3.218-32.394zM170.757 143.365h-1.779l-3.218 32.394h1.78l3.217-32.394z" fill="#ECECEC"/><path d="M155.595 143.365h13.927v1.673h-13.927v-1.673z" fill="#ECECEC"/><path d="M40.593 101.015c0 4.79 3.863 8.673 8.629 8.673s8.629-3.883 8.629-8.673H40.593z" fill="#E1E1E1"/><path d="M53.953 103.003c0 3.692 2.978 6.685 6.65 6.685 3.674 0 6.652-2.993 6.652-6.685H53.953z" fill="#ECECEC"/><path d="M177.021 83.75H51.872V23.156h125.149V83.75z" fill="#F5F5F5"/><path d="M108.226 56.172c0 12.31-9.929 22.29-22.177 22.29s-22.178-9.98-22.178-22.29c0-12.31 9.93-22.288 22.178-22.288 12.248 0 22.177 9.978 22.177 22.288z" fill="#FAFAFA"/><path d="M177.822 82.2H51.071v4.085h126.751v-4.086zM136.386 27.808h-43.88a.729.729 0 0 0-.727.73c0 .404.326.73.727.73h43.88a.728.728 0 0 0 .727-.73.728.728 0 0 0-.727-.73z" fill="#ECECEC"/><path d="M65.6 37.974s.15 5.428-.54 7.04c2.554.723 7.417.713 7.417.713s.831-5.216.56-7.28c-1.46-.32-7.436-.473-7.436-.473z" fill="#E7E7E7"/><path d="M65.6 37.974s-.363 5.417-1.053 7.029c2.554.724 6.936 1.144 6.936 1.144s1.894-5.63 1.554-7.7c-1.46-.32-7.436-.473-7.436-.473z" fill="#fff"/><path d="M80.424 50.238s.782 8.083-.08 10.559c3.886.813 10.723.125 10.723.125s1.119-7.704.5-10.755c-2.21-.325-11.143.07-11.143.07z" fill="#E7E7E7"/><path d="M79.667 49.401s-.23 9.97-1.092 12.446c3.886.814 11.972.244 11.972.244s1.627-9.731.905-12.783c-2.21-.325-11.785.093-11.785.093z" fill="#fff"/><path d="M120.896 66.885s1.276 5.276.938 6.997c2.648.17 7.311-.85 7.311-.85s-.184-5.288-.879-7.25c-1.494-.005-7.37 1.103-7.37 1.103z" fill="#E7E7E7"/><path d="M120.896 66.884s.772 5.374.434 7.094c2.649.171 7.535-.451 7.535-.451s.165-5.793-.599-7.745c-1.494-.006-7.37 1.102-7.37 1.102z" fill="#fff"/><path d="M145.84 47.159s3.255 7.433 3.205 10.056c3.945-.447 10.738-2.733 10.738-2.733s-1.843-8.184-3.378-10.889c-2.202.386-10.565 3.566-10.565 3.566z" fill="#E7E7E7"/><path d="M144.861 46.601s2.88 9.543 2.831 12.166c3.944-.447 11.449-3.527 11.449-3.527s-1.479-9.754-3.113-12.427c-2.202.386-11.167 3.788-11.167 3.788z" fill="#fff"/><path d="M156.151 45.324a.852.852 0 0 1-.849.853.852.852 0 0 1-.85-.853c0-.471.381-.854.85-.854.468 0 .849.383.849.854zM94.31 45.574a.269.269 0 0 1-.237-.392c.632-1.225 1.85-1.974 2.96-2.544 5.787-2.978 12.553-3.567 17.801-3.746 3.093-.106 7.17-.137 11.242.564 4.078.703 7.618 2.05 10.521 4.005a.27.27 0 0 1 .073.373.266.266 0 0 1-.37.074c-2.841-1.913-6.31-3.233-10.314-3.923-4.024-.693-8.063-.661-11.134-.557-5.193.178-11.883.758-17.575 3.687-1.034.533-2.167 1.224-2.73 2.314a.267.267 0 0 1-.237.145z" fill="#E7E7E7"/><path d="M130.511 45.996a.27.27 0 0 1-.144-.495c.615-.391 1.342-.51 1.975-.59a23.676 23.676 0 0 1 6.364.057 17.078 17.078 0 0 1-1.612-2.26c-.226-.379-.475-.826-.568-1.337-.104-.577.033-1.143.368-1.511.1-.11.268-.118.377-.018.109.1.117.27.018.379-.223.246-.312.64-.237 1.054.076.422.298.819.501 1.158a16.421 16.421 0 0 0 2.045 2.736.27.27 0 0 1 .039.312.262.262 0 0 1-.281.135 23.103 23.103 0 0 0-6.947-.172c-.576.072-1.234.178-1.755.51a.266.266 0 0 1-.143.042zM138.077 65.974a.268.268 0 0 1-.029-.535c2.921-.32 5.683-2.087 7.208-4.611a.267.267 0 1 1 .457.279c-1.61 2.663-4.525 4.527-7.606 4.865a.274.274 0 0 1-.03.002z" fill="#E7E7E7"/><path d="M140.502 68.295h-.023a18.8 18.8 0 0 1-6.319-1.667.269.269 0 0 1-.067-.444 78.952 78.952 0 0 0 2.553-2.39.268.268 0 0 1 .372.385 77.75 77.75 0 0 1-2.262 2.128 18.27 18.27 0 0 0 5.768 1.453.268.268 0 0 1-.022.535zM110.415 72.72c-6.92 0-13.702-3.101-16.88-6.225a.27.27 0 0 1-.004-.38.266.266 0 0 1 .377-.004c4 3.931 14.472 7.986 22.943 5.034a.269.269 0 0 1 .175.507c-2.141.746-4.383 1.067-6.611 1.067z" fill="#E7E7E7"/><path d="M94.63 70.758a.267.267 0 0 1-.22-.117 19.007 19.007 0 0 1-2.68-5.988.267.267 0 0 1 .062-.248.26.26 0 0 1 .24-.083c1.144.19 2.307.355 3.453.494a.268.268 0 0 1 .234.298.267.267 0 0 1-.297.235 79.588 79.588 0 0 1-3.07-.431 18.477 18.477 0 0 0 2.5 5.421.268.268 0 0 1-.221.42z" fill="#E7E7E7"/><path d="M155.909 134.294c-11.987 20.194-43.033 5.264-59.276-4.804-8.18-5.07-14.61-9.268-24.367-8.827-9.055.409-14.593 3.625-23.03-2.087-7.76-5.254-13.245-21.749-11.426-31.972 2.232-12.543 10.5-15.865 14.876-25.526C58.992 47.16 33.832 11.94 63.792 8.727c7.814-.837 13.713 5.332 20.154 8.794 9.58 5.15 16.255 3.68 26.644.859 9.475-2.572 19.88-4.714 28.575.66 8.452 5.225 11.575 15.926 20.704 20.48 14.565 7.265 46.095 15.665 26.198 37.807-7.064 7.861-21.467 12.964-25.68 22.297-4.46 9.878 2.781 22.441-4.478 34.67z" fill="#3A8BE1"/><path d="M155.909 134.294c-11.987 20.194-43.033 5.264-59.276-4.804-8.18-5.07-14.611-9.268-24.367-8.827-9.055.409-14.593 3.625-23.03-2.087-7.76-5.254-13.245-21.749-11.426-31.972 2.231-12.543 10.5-15.865 14.876-25.526C58.992 47.16 33.832 11.94 63.792 8.727c7.814-.837 13.713 5.332 20.154 8.794 9.58 5.15 16.255 3.68 26.644.859 9.474-2.572 19.88-4.714 28.575.66 8.452 5.225 11.575 15.926 20.704 20.48 14.565 7.265 46.095 15.665 26.198 37.807-7.064 7.861-21.467 12.964-25.68 22.297-4.46 9.878 2.781 22.441-4.478 34.67z" fill="#BADBFF" opacity=".9"/><path d="M216.66 193.922c0 3.357-46.36 6.078-103.549 6.078-57.188 0-103.549-2.721-103.549-6.078s46.36-6.078 103.549-6.078c57.189 0 103.549 2.721 103.549 6.078z" fill="#F5F5F5"/><path d="M101.11 62.35c0 3.334-2.69 6.038-6.008 6.038s-6.008-2.704-6.008-6.039c0-3.334 2.69-6.038 6.008-6.038s6.008 2.703 6.008 6.038z" fill="#1A2E35"/><path d="M95.73 63.092c-1.607 1.477-3.915 1.567-5.156.202-1.24-1.365-.945-3.667.663-5.143 1.607-1.476 3.915-1.567 5.155-.202 1.242 1.365.945 3.667-.662 5.143z" fill="#3A8BE1"/><path d="M91.301 60.992c0 3.099-2.5 5.611-5.583 5.611-3.084 0-5.584-2.512-5.584-5.611 0-3.1 2.5-5.612 5.584-5.612 3.083 0 5.583 2.512 5.583 5.611z" fill="#1A2E35"/><path d="M79.652 74.582c-.6 1.592-1.269 3.01-1.988 4.475a54.536 54.536 0 0 1-2.385 4.246c-.857 1.39-1.801 2.74-2.854 4.028-.521.648-1.08 1.276-1.66 1.889-.29.307-.593.606-.902.9-.15.15-.315.29-.473.436l-.239.216c-.13.108-.311.266-.503.38-.375.249-.856.425-1.31.495-.467.076-.892.035-1.259-.039-.733-.16-1.243-.457-1.672-.745-.85-.591-1.446-1.226-2.001-1.864-1.09-1.283-1.965-2.603-2.779-3.952a63.037 63.037 0 0 1-4.114-8.378l1.961-1.004a131.589 131.589 0 0 0 2.389 3.816 63.794 63.794 0 0 0 2.523 3.684c.868 1.182 1.766 2.346 2.728 3.305.472.476.98.902 1.405 1.14.207.123.39.167.408.16.007-.005-.028-.012-.114-.009-.078.003-.182.051-.237.077-.016.013-.026.016-.035.02-.002-.003-.033.03-.006.003l.187-.187c.123-.126.252-.243.371-.375.245-.257.485-.519.719-.791.468-.543.923-1.105 1.353-1.696a47.715 47.715 0 0 0 2.427-3.702c.76-1.28 1.456-2.61 2.12-3.954a64.087 64.087 0 0 0 1.84-4.051l4.1 1.477z" fill="#FFCEA9"/><path d="M82.621 76.005c-.628 1.258-2.49 3.438-3.944 5.046-1.055 1.158-1.887 2.018-1.887 2.018l-.649-.557-5.362-4.625c1.54-3.273 3.47-6.76 7.695-7.333 2.656-.36 5.266 3.204 4.147 5.45z" fill="#1A2E35"/><path opacity=".3" d="M78.676 81.052c-1.055 1.159-1.887 2.019-1.887 2.019l-.649-.558c.524-1.317 1.45-3.364 2.471-4.11.23.823.212 1.746.065 2.65z" fill="#000"/><path d="M57.744 76.647l.67-3.701-4.493.173s.878 2.981 2.042 4.31l1.78-.782z" fill="#FFCEA9"/><path d="M57.183 71.253l-3.33.753.068 1.114 4.493-.174-1.231-1.693zM85.563 189.753l-4.333.408.075-9.932 4.332-.408-.075 9.932zM108.495 187.68l-4.267.656-2.608-9.676 4.266-.656 2.609 9.676z" fill="#FFCEA9"/><path d="M103.518 186.745l4.758-.977a.33.33 0 0 1 .389.22l1.205 3.65c.125.379-.145.817-.546.892-1.664.312-2.48.378-4.572.808-1.287.264-4.101 1.037-5.878 1.402-1.739.357-2.182-1.372-1.47-1.683 3.192-1.394 4.5-2.739 5.453-3.907.171-.211.408-.353.661-.405zM80.765 188.871h5.099c.186 0 .349.129.394.312l.995 4.054a.656.656 0 0 1-.644.811c-1.797.016-2.65-.127-4.891-.127-1.38 0-4.949.135-6.854.135-1.863 0-2.2-1.893-1.424-2.065 3.478-.768 5.5-1.828 6.595-2.84.198-.182.459-.28.73-.28z" fill="#1A2E35"/><path opacity=".2" d="M81.306 180.231l-.04 5.119h4.332l.042-5.527-4.334.408zM105.888 178.007l-4.268.657 1.346 4.987 4.269-.657-1.347-4.987z" fill="#000"/><path d="M96.92 96.275c-3.371.095-10.534.292-17.461.487-4.102-25.218-2.17-25.932-2.17-25.932s2.996-.733 6.017-1.19c.456-.07.917-.134 1.368-.188 2.587-.309 4.994-.284 7.93-.225.39.007.779.024 1.167.041 3.311.174 6.249.734 6.249.734-.716 3.119-1.285 5.768-1.728 8.086-.58 3.022-.95 5.467-1.18 7.609-.416 3.985-.341 6.922-.192 10.578z" fill="#1A2E35"/><path opacity=".3" d="M97.113 85.697c-.839-2.636-.714-8.128.258-9.923l.92 2.314c-.58 3.022-.95 5.467-1.178 7.609z" fill="#000"/><path d="M91.38 63.803c-.113 2.156.11 4.387 1.226 5.425 0 0-1.121 5.322-7.486 8.447-4.084-5.1-.444-8.224-.444-8.224 2.845-.763 2.9-2.659 2.133-5.799l2.265-.936c.939-.831 2.37-.153 2.305 1.087z" fill="#FFCEA9"/><path opacity=".2" d="M89.076 62.715c.885-.785 2.213-.223 2.3.89-1.072 1.517-2.357 2.751-4.192 3.448.14-.904-.038-2.037-.372-3.402l2.264-.936z" fill="#000"/><path d="M95.53 57.425c-1.58 4.026-2.163 5.76-4.89 7.248-4.102 2.238-8.625-.453-8.262-4.839.327-3.946 2.855-9.867 7.345-10.302 4.423-.429 7.386 3.867 5.807 7.893z" fill="#FFCEA9"/><path d="M93.272 53.83c-4.117.672-10.095-2.047-8.944-5.14.8-2.147 3.566-.623 3.566-.623s4.427-1.24 7.563 1.204c3.156 2.46 3.957 8.04-1.873 11.72-1.825-2.074-2.003-5.597-.312-7.16z" fill="#1A2E35"/><path d="M95.21 61.516a3.238 3.238 0 0 1-1.942 1.44c-1.068.267-1.542-.693-1.195-1.683.312-.892 1.243-2.105 2.291-1.933 1.033.17 1.376 1.296.846 2.176z" fill="#FFCEA9"/><path d="M79.459 96.762s-1.892 26.149-1.889 43.048c.002 13.434 2.893 43.533 2.893 43.533l6.255-.622s1.028-32.304-.183-41.887c3.86-18.906 10.92-36.888 6.968-44.558l-14.044.486z" fill="#1A2E35"/><path d="M87.736 181.188l-8.246.252.45 2.83 7.713-.118.083-2.964z" fill="#3A8BE1"/><path opacity=".3" d="M89.338 106.447l-2.05 2.297c-1.96 5.862-.659 13.999 1.678 21.551 2.386-9.517 4.906-18.298 5.542-25.007l.017-.596-5.187 1.755z" fill="#000"/><path d="M83.27 96.71s6.33 28.833 8.916 45.463c4.156 13.422 9.355 39.295 9.355 39.295l5.775-1.391s-2.662-30.684-5.923-40.267c-.184-18.906 1.119-35.864-4.473-43.534l-13.65.434z" fill="#1A2E35"/><path d="M101.047 182.832l7.326-1.475-.095-2.99-8.179 1.896.948 2.569zM97.181 95.24l.788 1.547c.06.12-.083.248-.285.253l-18.313.513c-.158.004-.288-.07-.298-.168l-.157-1.566c-.012-.108.125-.204.297-.209l17.684-.494c.13-.004.245.046.284.123z" fill="#3A8BE1"/><path d="M94.806 97.291l.474-.013c.094-.002.166-.054.16-.113l-.222-2.033c-.006-.06-.09-.107-.183-.104l-.474.014c-.094.002-.166.053-.16.113l.222 2.033c.007.06.089.106.183.103zM80.701 97.686l.474-.014c.094-.002.166-.053.16-.112l-.222-2.034c-.006-.059-.09-.106-.183-.103l-.474.013c-.094.002-.166.053-.16.113l.222 2.033c.007.06.089.107.183.104zM87.754 97.489l.473-.014c.094-.002.166-.053.16-.112l-.222-2.034c-.006-.06-.089-.106-.183-.103l-.474.013c-.094.003-.166.053-.16.113l.222 2.034c.007.059.09.106.184.103zM89.195 56.792c-.108.334-.37.551-.586.487-.215-.065-.302-.389-.194-.723.109-.334.371-.552.586-.487.216.065.303.389.194.723zM85.472 55.666c-.109.335-.371.552-.587.487-.215-.065-.302-.389-.193-.722.108-.334.37-.552.586-.487.215.065.302.388.194.722z" fill="#1A2E35"/><path d="M85.367 54.991l-.717-.47s.203.75.717.47z" fill="#1A2E35"/><path d="M85.718 56.28s-1.026 1.269-1.866 1.777c.301.543 1.102.578 1.102.578l.764-2.354z" fill="#FEB56F"/><path d="M86.029 60.463c-.03-.025-.043-.067-.03-.107a.105.105 0 0 1 .128-.07c1.442.436 2.454-.382 2.464-.391a.103.103 0 0 1 .143.012.103.103 0 0 1-.016.144c-.044.037-1.104.9-2.654.432a.103.103 0 0 1-.035-.02zM89.976 55.623a.19.19 0 0 1-.058-.086c-.294-.855-1.02-1.027-1.027-1.03a.2.2 0 0 1-.148-.244.21.21 0 0 1 .248-.155c.038.01.947.225 1.312 1.286a.21.21 0 0 1-.126.263.2.2 0 0 1-.2-.034zM83.724 53.274a.21.21 0 0 1 .159-.276c1.111-.214 1.753.458 1.78.487.076.081.07.211-.013.29a.202.202 0 0 1-.288-.005c-.024-.026-.53-.54-1.414-.37a.197.197 0 0 1-.224-.126z" fill="#1A2E35"/><path d="M102.981 187.315c-.58-.209-1.384-.414-1.623-.244-.03.021-.064.057-.061.144.005.161.059.271.166.335.248.152.808.063 1.518-.235zm-1.567.443a.507.507 0 0 1-.061-.032c-.164-.1-.252-.268-.259-.498a.36.36 0 0 1 .149-.323c.454-.324 1.886.242 2.048.307a.098.098 0 0 1 .061.092.106.106 0 0 1-.061.096c-.503.232-1.397.576-1.877.358z" fill="#3A8BE1"/><path d="M102.445 185.862a.32.32 0 0 0-.245-.01c-.126.041-.143.104-.144.154-.007.302.594.889 1.053 1.128-.094-.401-.31-1.066-.627-1.252-.012-.008-.025-.014-.037-.02zm.666 1.5c-.471-.214-1.269-.896-1.259-1.355.003-.096.043-.268.288-.349a.52.52 0 0 1 .449.047c.532.312.752 1.529.762 1.581a.105.105 0 0 1-.135.118 1.043 1.043 0 0 1-.105-.042zM77.692 188.833a.37.37 0 0 0-.201.044c-.021.014-.043.037-.041.097.004.144.06.256.169.341.292.227.996.257 1.913.088-.619-.275-1.43-.57-1.84-.57zm.788.884c-.394 0-.76-.061-.989-.239a.617.617 0 0 1-.245-.492.306.306 0 0 1 .136-.279c.472-.314 2.185.478 2.524.64a.1.1 0 0 1 .055.104.107.107 0 0 1-.082.089c-.372.082-.908.177-1.4.177z" fill="#3A8BE1"/><path d="M78.638 187.807a.545.545 0 0 0-.069.005c-.107.012-.166.044-.174.094-.045.281.736 1.019 1.314 1.343-.122-.447-.46-1.442-1.071-1.442zm1.22 1.735a.102.102 0 0 1-.039-.008c-.57-.237-1.703-1.172-1.624-1.655.017-.106.093-.239.355-.271 1.018-.12 1.395 1.73 1.41 1.808a.104.104 0 0 1-.036.101.104.104 0 0 1-.066.025z" fill="#3A8BE1"/><path d="M89.09 56.116l-.716-.47s.203.75.717.47z" fill="#1A2E35"/><path d="M100.674 72.803c.457.697.825 1.324 1.201 1.999a55.96 55.96 0 0 1 1.066 2.015 48.213 48.213 0 0 1 1.818 4.194 36.19 36.19 0 0 1 1.37 4.416c.101.373.168.761.253 1.142.084.38.162.763.218 1.154.061.4.129.756.182 1.188l.064.693.01.68c-.036 1.805-.489 3.44-1.042 4.964a28.18 28.18 0 0 1-2.085 4.281 46.65 46.65 0 0 1-2.577 3.865c-.942 1.226-1.886 2.404-2.97 3.547l-1.655-1.373a59.406 59.406 0 0 0 2.323-3.685 43.602 43.602 0 0 0 2.025-3.819c.597-1.294 1.132-2.595 1.512-3.898.188-.648.343-1.293.448-1.926.095-.631.131-1.246.119-1.824l-.025-.425-.06-.404c-.05-.296-.139-.657-.206-.982a13.122 13.122 0 0 0-.245-.996c-.094-.33-.168-.664-.277-.992-.39-1.321-.899-2.616-1.411-3.909a46.655 46.655 0 0 0-1.759-3.8 51.144 51.144 0 0 0-.975-1.853 65.23 65.23 0 0 0-1.022-1.763l3.7-2.489z" fill="#FFCEA9"/><path d="M100.021 70.001c2.092.504 4.542 6.815 4.542 6.815l-6.096 4.813s-3.538-5.18-3.071-7.955c.396-2.354 1.96-4.314 4.625-3.673z" fill="#1A2E35"/><path d="M52.946 92.827l-.534-.009.127-7.814.534.01-.127 7.813zM52.867 97.69l-.534-.008.043-2.658.534.009-.043 2.658zM54.601 73.12l-.794 48.907 18.74 8.058 19.9-4.428 8.239-48.208-46.085-4.33z" fill="#3A8BE1"/><path opacity=".2" d="M77.246 79.56l-4.282 46.034 15.758-3.507 6.971-40.794-18.447-1.734z" fill="#fff"/><path d="M91.294 87.437l-29.305-2.754-.577 18.383 22.18 2.084-1.085 6.974-8.372.878-8.066-2.422h-.002l.154-4.807-4.879-.458-.314 10.014 12.54 3.765 13.017-1.364 2.826-18.18-22.928-2.153.192-6.128 23.677 2.225.942-6.057z" fill="#fff"/><path d="M91.7 108.811l2.697 1.992 2.497-1.889-3.01-3.265-2.184 3.162z" fill="#FFCEA9"/><path d="M97.573 104.477l-3.69 1.173 3.01 3.265s1.83-1.614 2.075-3.399l-1.395-1.039z" fill="#FFCEA9"/><path d="M158.517 188.254l3.766-1.229-2.341-8.925-3.766 1.229 2.341 8.925z" fill="#FFB670"/><path d="M162.339 186.521l-4.231 1.38a.286.286 0 0 0-.196.35l.881 3.431c.092.356.524.58.877.458 1.465-.506 2.14-.822 4.001-1.429 1.145-.373 3.912-1.218 5.492-1.733 1.546-.504 1.028-2.072.312-1.996-3.209.342-5.078.053-6.412-.439a1.113 1.113 0 0 0-.724-.022z" fill="#1A2E35"/><path opacity=".2" d="M156.176 179.331l3.767-1.229 1.205 4.601-3.767 1.229-1.205-4.601z" fill="#000"/><path d="M146.997 88.977s5.349 32.392 6.933 43.691c1.735 12.374 8.552 48.563 8.552 48.563l-6.99 1.94s-9.984-35.068-12.814-47.097c-3.07-13.055-9.831-47.097-9.831-47.097h14.15z" fill="#1A2E35"/><path opacity=".3" d="M138.414 102.261c2.734 6.865 3.044 18.534 1.933 23.317-1.677-7.852-3.599-17.246-5.079-24.551.529-1.874 1.485-2.942 3.146 1.234z" fill="#000"/><path d="M155.316 183.31l7.487-2.073-.145-3.065-8.43 2.93 1.088 2.208zM163.039 186.731c.718-.085 1.207-.268 1.326-.501.05-.096.037-.206-.04-.335-.035-.059-.078-.089-.136-.092-.28-.017-.803.506-1.15.928zm.847.015a4.869 4.869 0 0 1-1.047.192.092.092 0 0 1-.088-.048.091.091 0 0 1 .007-.1c.093-.124.923-1.204 1.441-1.172.121.007.219.07.286.183.109.186.124.359.044.515-.102.197-.35.335-.643.43z" fill="#3A8BE1"/><path d="M162.879 185.232a.273.273 0 0 0-.163.139c-.156.293.014.926.141 1.283.238-.385.418-1.108.273-1.359-.027-.049-.076-.1-.209-.074l-.042.011zm-.019 1.701a.09.09 0 0 1-.113-.052c-.019-.044-.455-1.105-.194-1.598a.465.465 0 0 1 .332-.244c.181-.036.325.023.405.163.22.385-.086 1.358-.389 1.705a.078.078 0 0 1-.041.026zM146.168 56.343c.125.267.31.642.476.966l.515 1.019c.351.678.72 1.35 1.1 2.012a56.363 56.363 0 0 0 2.399 3.858c.847 1.23 1.745 2.402 2.696 3.449.955 1.042 1.964 1.958 2.996 2.63l-.814-.321c.17.075.401.11.77.065.363-.046.827-.197 1.316-.437.983-.486 2.056-1.255 3.066-2.147 1.024-.886 2.016-1.89 2.982-2.942a72.592 72.592 0 0 0 2.799-3.26l.052-.063a1.724 1.724 0 0 1 2.435-.24c.611.506.788 1.345.486 2.04-.651 1.499-1.381 2.845-2.207 4.208a32.112 32.112 0 0 1-2.812 3.927c-1.081 1.248-2.273 2.482-3.868 3.523-.802.515-1.712.99-2.801 1.306a7.553 7.553 0 0 1-3.669.149 2.608 2.608 0 0 1-.67-.243l-.145-.079c-1.793-.958-3.31-2.153-4.634-3.441-1.334-1.283-2.497-2.657-3.553-4.078-1.067-1.415-2.009-2.887-2.886-4.388a60.02 60.02 0 0 1-1.244-2.29c-.198-.388-.396-.776-.583-1.173-.191-.41-.358-.773-.563-1.254a3.495 3.495 0 0 1 1.821-4.581 3.464 3.464 0 0 1 4.504 1.709l.036.076z" fill="#3A8BE1"/><path opacity=".3" d="M148.537 66.428c-1.677-4.477-5.239-4.552-6.782-3.366.112.21.229.42.347.628a45.565 45.565 0 0 0 2.75 4.246c1.004 1.369 2.104 2.705 3.349 3.961.384.382.78.757 1.191 1.122.085-2.11-.075-4.498-.855-6.591z" fill="#000"/><path d="M169.492 63.654l3.429.548-.411-3.804s-4.876-.4-5.143.937l.568 1.163a2.102 2.102 0 0 0 1.557 1.156z" fill="#FFB670"/><path d="M175.759 61.978l-.65-2.73-2.599 1.15.411 3.804 2.838-2.224zM128.868 189.994h3.96l.514-9.215h-3.959l-.515 9.215z" fill="#FFB670"/><path d="M133.036 189.533h-4.449a.283.283 0 0 0-.293.271l-.216 3.537c-.022.368.32.715.693.708 1.549-.026 2.289-.118 4.245-.118 1.203 0 5.226.125 6.888.125 1.625 0 1.615-1.651.91-1.8-3.158-.671-5.979-1.596-7.096-2.479a1.115 1.115 0 0 0-.682-.244z" fill="#1A2E35"/><path opacity=".2" d="M129.383 180.781h3.961l-.267 4.75h-3.961l.267-4.75z" fill="#000"/><path d="M139.264 88.773s-.341 34.778-.983 46.17c-.703 12.476-3.507 49.442-3.507 49.442h-7.252s-.501-35.958-.938-48.311c-.474-13.406-.985-47.3-.985-47.3h13.665z" fill="#1A2E35"/><path d="M127.23 184.385h7.836l.435-2.766-8.649.432.378 2.334zM133.638 189.949c.708.143 1.23.121 1.415-.065.076-.076.097-.184.065-.331-.015-.067-.047-.109-.102-.13-.26-.102-.919.233-1.378.526zm.801.277c-.365 0-.77-.075-1.055-.142a.09.09 0 0 1-.07-.072.096.096 0 0 1 .038-.094c.127-.089 1.248-.859 1.731-.668a.35.35 0 0 1 .215.263c.047.21.008.38-.116.503-.157.157-.436.21-.743.21z" fill="#3A8BE1"/><path d="M133.946 188.473a.273.273 0 0 0-.198.082c-.239.231-.271.886-.26 1.264.344-.292.737-.923.677-1.208-.011-.054-.042-.118-.176-.135l-.043-.003zm-.541 1.613a.091.091 0 0 1-.092-.084c-.004-.049-.093-1.193.307-1.58a.453.453 0 0 1 .391-.129c.182.022.301.121.334.28.092.434-.499 1.265-.893 1.501a.1.1 0 0 1-.047.012zM123.836 56.887a2.53 2.53 0 0 1 2.116-2.949l.046-.007c1.276-.187 2.878-.38 4.449-.456 2.702-.129 6.617-.215 8.999 0 1.383.129 2.734.36 3.813.57l.041.008a3.798 3.798 0 0 1 2.881 2.652c1.29 4.377 2.831 13.308.816 32.271h-21.175c-.15-1.9.271-8.082-.038-15.957-.236-6-1.298-12.466-1.948-16.132z" fill="#3A8BE1"/><path opacity=".3" d="M124.039 58.06c.44 2.546.982 6.004 1.355 9.645 0 0 1.932-3.81 2.283-7.07.352-3.26-2.41-3.489-3.638-2.574z" fill="#000"/><path d="M130.099 53.498s1.684 2.977 6.101 4.244c3.895-2.142 2.818-4.298 2.818-4.298" fill="#F5F5F5"/><path d="M139.018 53.443c-2.617-.622-3.076-2.249-2.9-4.036.038-.435.112-.886.209-1.331l-3.28-2.738-2.408-2.007c.667 2.914 1.42 8.223-.54 10.166 0 0 1.623 2.687 6.102 2.445 3.783-.206 2.817-2.499 2.817-2.499z" fill="#FFB670"/><path d="M136 55.957l-.749-.96-1.732 1.377 2.481-.417z" fill="#F5F5F5"/><path d="M134.487 58.063s.067-1.856.764-3.064c-1.321-.373-4.688-2.326-4.688-2.326l-1.252.77s1.237 3.3 5.176 4.62z" fill="#fff"/><path d="M136 55.957l.868-.96 1.614 1.377-2.482-.417z" fill="#F5F5F5"/><path d="M138.07 57.742s-.506-1.535-1.202-2.743c1.321-.373.879-2.248.879-2.248l1.407.595s2.224 3.323-1.084 4.396z" fill="#fff"/><path d="M136.349 56.846c.057.229-.004.442-.135.475-.132.032-.284-.127-.341-.356-.057-.23.004-.442.136-.475.131-.033.284.127.34.356z" fill="#3A8BE1"/><path opacity=".2" d="M136.326 48.076c-.096.445-.17.896-.208 1.331-1.223-.247-2.857-1.557-3.028-2.813a5.758 5.758 0 0 1-.043-1.256l3.279 2.738z" fill="#000"/><path d="M139.528 40.877c1.628.388 1.918-3.503.912-5.433-.809-1.55-3.04-.986-3.623-.337-.583.648 1.278 5.032 1.278 5.032l1.433.738z" fill="#1A2E35"/><path d="M129.645 39.139c.838 3.869 1.132 6.17 3.406 7.935 3.42 2.656 7.954.297 8.286-3.705.299-3.602-1.12-9.325-5.171-10.42-3.99-1.08-7.358 2.32-6.521 6.19z" fill="#FFB670"/><path d="M130.949 42.519c1.21-.103 2.682-2.656.912-5.433-.94-1.475-3.035-.981-3.623-.338-1.598 1.749 1.278 5.033 1.278 5.033l1.433.738z" fill="#1A2E35"/><path d="M130.525 37.776c2.399-.12 7.409-1.86 8.131-4.205 1.402-4.55-3.598-4.681-6.334-2.23-1.803 1.615-3.48 3.937-6.75 4.527.438.825 2.29 2.042 4.953 1.908z" fill="#1A2E35"/><path d="M129.646 38.417c1.687-.29 3.57-1.873 3.884-3.592.609-3.338-1.664-2.51-3.662-.568-1.237 1.203-1.622 2.535-3.886 3.23.379.546 1.791 1.25 3.664.93zM136.409 33.845c1.516 1.623 3.925 3.135 4.655 2.13.73-1.006-.68-4.6-2.541-4.755-1.839-.152-3.215 1.447-2.114 2.625z" fill="#1A2E35"/><path d="M128.758 43.177c.689.831 1.636 1.322 2.444 1.46 1.214.209 1.487-.922.87-2.014-.555-.983-1.856-2.275-2.94-1.987-1.068.284-1.161 1.59-.374 2.541z" fill="#FFB670"/><path d="M135.72 39.523c.049.317.257.554.464.53.207-.025.336-.302.287-.62-.049-.318-.256-.555-.463-.53-.208.025-.336.302-.288.62zM139.304 39.094c.049.318.257.555.464.53.207-.025.336-.302.287-.62-.049-.316-.256-.554-.463-.529-.208.025-.336.302-.288.62z" fill="#1A2E35"/><path d="M138.189 39.389s1.002 1.745 1.932 2.533c-.481.592-1.471.466-1.471.466l-.461-3z" fill="#E89455"/><path d="M137.485 43.398c-1.258 0-1.961-.789-1.993-.826a.095.095 0 0 1 .009-.133.093.093 0 0 1 .132.01c.008.009.808.907 2.202.74a.094.094 0 0 1 .104.082.094.094 0 0 1-.082.104 3.095 3.095 0 0 1-.372.023zM134.434 38.497a.191.191 0 0 1-.091-.023.19.19 0 0 1-.073-.257c.497-.9 1.366-.952 1.403-.954.097-.014.191.075.196.179a.188.188 0 0 1-.178.197c-.036.002-.702.053-1.093.761a.187.187 0 0 1-.164.097zM140.79 37.676a.187.187 0 0 1-.155-.082c-.48-.709-1.178-.721-1.185-.721a.186.186 0 0 1-.186-.19.188.188 0 0 1 .188-.187h.001c.036 0 .903.016 1.492.886a.19.19 0 0 1-.049.261.183.183 0 0 1-.106.033z" fill="#1A2E35"/><path d="M128.504 60.23c.036-.027.02-.013.02-.013l-.018.016-.054.049-.128.118-.279.274a21.98 21.98 0 0 0-.576.61c-.379.432-.756.883-1.109 1.359-.71.95-1.35 1.974-1.912 3.05-1.128 2.151-1.928 4.513-2.42 6.99-.136.702-.198 1.027-.219 1.543-.028.489 0 1.026.077 1.582.154 1.11.466 2.308.895 3.5.84 2.388 2.106 4.852 3.413 7.133l.051.09a1.744 1.744 0 0 1-.637 2.375 1.727 1.727 0 0 1-2.037-.229c-1.15-1.066-2.107-2.147-3.046-3.337a29.353 29.353 0 0 1-2.541-3.806c-.737-1.374-1.416-2.837-1.846-4.49a13.84 13.84 0 0 1-.458-2.614c-.075-.896.002-1.982.084-2.673.158-1.556.439-3.112.862-4.642.409-1.534.961-3.04 1.644-4.496a25.054 25.054 0 0 1 2.468-4.174c.485-.658.999-1.3 1.567-1.913.285-.306.576-.61.891-.907.159-.148.321-.297.493-.446l.27-.23.355-.283a3.46 3.46 0 0 1 4.863.676 3.5 3.5 0 0 1-.673 4.888z" fill="#3A8BE1"/><path d="M126.761 85.448l2.176-.38-2.024 4.585s-3.598-.021-3.433-1.885l.432-.573a4.547 4.547 0 0 1 2.849-1.747z" fill="#FFB670"/><path d="M131.877 87.371l-1.851 3.705-3.113-1.424 2.023-4.585 2.941 2.304z" fill="#FFB670"/><path d="M154.367 17.061l7.469 35.438 14.853 2.704 13.638-6.501-1.98-36.17-33.98 4.53z" fill="#3A8BE1"/><path opacity=".3" d="M154.368 17.06l7.468 35.438 14.853 2.705 13.638-6.502-1.979-36.17-33.98 4.53z" fill="#fff"/><path opacity=".2" d="M171.773 17.95l4.479 33.943 10.798-5.148-1.675-30.608-13.602 1.813z" fill="#fff"/><path d="M183.207 21.303l-21.608 2.882.871 4.45 17.464-2.324.993 14.272-5.902 2.024-6.221-.408-.679-3.494-3.599.477 1.42 7.284 9.672.633 9.175-3.145-1.586-22.651z" fill="#fff"/></svg>