<svg width="30" height="30" viewBox="0 0 30 30" fill="none" xmlns="http://www.w3.org/2000/svg">
<path fill-rule="evenodd" clip-rule="evenodd" d="M3.4646 11.0405C3.82818 10.0269 4.31295 9.09039 4.91891 8.23103L4.14768 6.7547C3.80614 6.09365 3.96039 5.27836 4.5333 4.79359L6.29609 3.30624C6.869 2.82148 7.6953 2.79944 8.29024 3.25116L9.61231 4.25374C10.5598 3.80203 11.5734 3.48252 12.6311 3.29522L13.1269 1.71973C13.3582 1.0036 14.0413 0.54087 14.7905 0.606974L17.0821 0.805288C17.8313 0.871393 18.4263 1.43328 18.5364 2.18247L18.7678 3.82406C19.7814 4.18763 20.7179 4.67241 21.5773 5.27836L23.0536 4.51816C23.7146 4.17662 24.5299 4.33086 25.0147 4.90377L26.502 6.66656C26.9868 7.23946 27.0088 8.06577 26.5571 8.66071L25.5545 9.9828C26.0062 10.9303 26.3257 11.9439 26.513 13.0016L28.0886 13.4974C28.8047 13.7177 29.2674 14.4118 29.2013 15.161L29.003 17.4526C28.9369 18.2018 28.375 18.7967 27.6258 18.9069L25.9842 19.1383C25.6206 20.1519 25.1359 21.0884 24.5299 21.9477L25.2901 23.4241C25.6317 24.0851 25.4774 24.9004 24.9045 25.3852L23.1417 26.8725C22.5688 27.3573 21.7425 27.3793 21.1476 26.9276L19.8255 25.925C18.878 26.3767 17.8644 26.6962 16.8067 26.8835L16.3109 28.459C16.0906 29.1752 15.3965 29.6379 14.6473 29.5718L12.3557 29.3735C11.6065 29.3074 11.0115 28.7455 10.9014 27.9963L10.67 26.3547C9.65641 25.9911 8.7199 25.5064 7.86054 24.9004L6.38421 25.6606C5.72317 26.0021 4.90788 25.8479 4.42311 25.275L2.93576 23.5122C2.45099 22.9393 2.42897 22.113 2.88068 21.518L3.88327 20.196C3.43156 19.2485 3.11204 18.2349 2.92474 17.1772L1.34926 16.6814C0.633129 16.461 0.170386 15.767 0.236491 15.0178L0.434813 12.7261C0.500918 11.977 1.06281 11.382 1.81199 11.2718L3.4646 11.0405ZM7.86054 13.5635C7.04526 17.9484 10.4276 21.9477 14.8897 21.8816C18.1949 21.8375 21.0594 19.4137 21.6544 16.1636C22.4697 11.7786 19.0873 7.77932 14.6253 7.84542C11.331 7.88949 8.45549 10.3133 7.86054 13.5635Z" fill="white"/>
</svg>
